M48
; DRILL file {KiCad 5.1.6-c6e7f7d~87~ubuntu20.04.1} date Sun Oct 18 20:27:12 2020
; FORMAT={-:-/ absolute / inch / decimal}
; #@! TF.CreationDate,2020-10-18T20:27:12-04:00
; #@! TF.GenerationSoftware,Kicad,Pcbnew,5.1.6-c6e7f7d~87~ubuntu20.04.1
; #@! TF.FileFunction,Plated,1,2,PTH
FMAT,2
INCH
T1C0.0394
T2C0.0709
%
G90
G05
T1
X2.235Y-6.1913
X2.335Y-6.1913
X2.435Y-6.1913
X2.535Y-6.1913
X2.635Y-6.1913
X2.735Y-6.1913
X2.835Y-6.1913
X2.935Y-6.1913
X3.035Y-6.1913
X2.785Y-1.5913
X2.785Y-1.6913
X2.785Y-1.7913
X2.785Y-1.8913
X2.785Y-1.9913
X2.785Y-2.0913
X2.785Y-2.1913
X2.785Y-2.2913
X2.785Y-2.3913
X2.785Y-2.4913
X2.785Y-2.5913
X2.785Y-2.6913
X2.785Y-2.7913
X2.785Y-2.8913
X2.785Y-2.9913
X2.785Y-3.0913
X2.785Y-3.1913
X2.785Y-3.2913
X2.785Y-3.3913
X2.785Y-3.4913
X2.785Y-3.5913
X2.785Y-3.6913
X2.785Y-3.7913
X2.785Y-3.8913
X2.785Y-3.9913
X2.785Y-4.0913
X2.785Y-4.1913
X2.785Y-4.2913
X2.785Y-4.3913
X2.785Y-4.4913
X2.785Y-4.5913
X2.785Y-4.6913
X2.785Y-4.7913
X3.4252Y-2.1457
X3.4252Y-2.2441
X3.4252Y-2.3425
X3.5236Y-2.1457
X3.5236Y-2.2441
X3.5236Y-2.3425
X3.235Y-1.5913
X3.235Y-1.6913
X3.235Y-1.7913
X3.235Y-1.8913
X3.235Y-1.9913
X3.235Y-2.0913
X3.235Y-2.1913
X3.235Y-2.2913
X3.235Y-2.3913
X3.235Y-2.4913
X3.235Y-2.5913
X3.235Y-2.6913
X3.235Y-2.7913
X3.235Y-2.8913
X3.235Y-2.9913
X3.235Y-3.0913
X3.235Y-3.1913
X3.235Y-3.2913
X3.235Y-3.3913
X3.235Y-3.4913
X3.235Y-3.5913
X3.235Y-3.6913
X3.235Y-3.7913
X3.235Y-3.8913
X3.235Y-3.9913
X3.235Y-4.0913
X3.235Y-4.1913
X3.235Y-4.2913
X3.235Y-4.3913
X3.235Y-4.4913
X3.235Y-4.5913
X3.235Y-4.6913
X3.235Y-4.7913
X3.235Y-4.8913
X3.235Y-4.9913
X3.235Y-5.0913
X3.235Y-5.1913
X3.4252Y-3.3268
X3.4252Y-3.4252
X3.4252Y-3.5236
X3.5236Y-3.3268
X3.5236Y-3.4252
X3.5236Y-3.5236
X2.1457Y-2.1457
X2.1457Y-2.2441
X2.1457Y-2.3425
X3.4252Y-5.689
X3.4252Y-5.7874
X3.4252Y-5.8858
X3.5236Y-5.689
X3.5236Y-5.7874
X3.5236Y-5.8858
X3.035Y-1.5913
X3.035Y-1.6913
X3.035Y-1.7913
X3.035Y-1.8913
X3.035Y-1.9913
X3.035Y-2.0913
X3.035Y-2.1913
X3.035Y-2.2913
X3.035Y-2.3913
X3.035Y-2.4913
X3.035Y-2.5913
X3.035Y-2.6913
X3.035Y-2.7913
X3.035Y-2.8913
X3.035Y-2.9913
X3.035Y-3.0913
X3.035Y-3.1913
X3.035Y-3.2913
X3.035Y-3.3913
X3.035Y-3.4913
X3.035Y-3.5913
X3.035Y-3.6913
X3.035Y-3.7913
X3.035Y-3.8913
X3.035Y-3.9913
X3.035Y-4.0913
X3.035Y-4.1913
X3.035Y-4.2913
X3.035Y-4.3913
X3.035Y-4.4913
X3.035Y-4.5913
X3.035Y-4.6913
X3.035Y-4.7913
X3.035Y-4.8913
X3.035Y-4.9913
X3.035Y-5.0913
X3.035Y-5.1913
X2.1457Y-0.9646
X2.1457Y-1.063
X2.1457Y-1.1614
X2.785Y-5.4413
X2.785Y-5.5413
X2.785Y-5.6413
X2.785Y-5.7413
X2.1457Y-4.5079
X2.1457Y-4.6063
X2.1457Y-4.7047
X3.4252Y-0.9646
X3.4252Y-1.063
X3.4252Y-1.1614
X3.5236Y-0.9646
X3.5236Y-1.063
X3.5236Y-1.1614
X2.1457Y-3.3268
X2.1457Y-3.4252
X2.1457Y-3.5236
X3.4252Y-4.5079
X3.4252Y-4.6063
X3.4252Y-4.7047
X3.5236Y-4.5079
X3.5236Y-4.6063
X3.5236Y-4.7047
T2
X3.8189Y-4.4193
X3.8189Y-4.7933
X3.8189Y-2.0571
X3.8189Y-2.4311
X3.8189Y-3.2382
X3.8189Y-3.6122
X2.4409Y-2.0551
X2.4409Y-2.4331
X3.8189Y-5.6004
X3.8189Y-5.9744
X2.4409Y-0.874
X2.4409Y-1.252
X2.4409Y-4.4173
X2.4409Y-4.7953
X3.8189Y-0.876
X3.8189Y-1.25
X2.4409Y-3.2362
X2.4409Y-3.6142
T0
M30
