%TF.GenerationSoftware,KiCad,Pcbnew,5.1.6-c6e7f7d~87~ubuntu20.04.1*%
%TF.CreationDate,2020-10-18T20:27:09-04:00*%
%TF.ProjectId,stereoout,73746572-656f-46f7-9574-2e6b69636164,rev?*%
%TF.SameCoordinates,Original*%
%TF.FileFunction,Soldermask,Bot*%
%TF.FilePolarity,Negative*%
%FSLAX46Y46*%
G04 Gerber Fmt 4.6, Leading zero omitted, Abs format (unit mm)*
G04 Created by KiCad (PCBNEW 5.1.6-c6e7f7d~87~ubuntu20.04.1) date 2020-10-18 20:27:09*
%MOMM*%
%LPD*%
G01*
G04 APERTURE LIST*
%ADD10R,1.900000X1.900000*%
%ADD11C,1.900000*%
%ADD12C,3.340000*%
%ADD13R,1.800000X1.800000*%
%ADD14O,1.800000X1.800000*%
G04 APERTURE END LIST*
D10*
%TO.C,RV6*%
X89500000Y-54500000D03*
D11*
X89500000Y-57000000D03*
X89500000Y-59500000D03*
D12*
X97000000Y-61750000D03*
X97000000Y-52250000D03*
D11*
X87000000Y-59500000D03*
X87000000Y-57000000D03*
X87000000Y-54500000D03*
%TD*%
D13*
%TO.C,J3*%
X56770000Y-157260000D03*
D14*
X59310000Y-157260000D03*
X61850000Y-157260000D03*
X64390000Y-157260000D03*
X66930000Y-157260000D03*
X69470000Y-157260000D03*
X72010000Y-157260000D03*
X74550000Y-157260000D03*
X77090000Y-157260000D03*
%TD*%
D10*
%TO.C,RV7*%
X89500000Y-84500000D03*
D11*
X89500000Y-87000000D03*
X89500000Y-89500000D03*
D12*
X97000000Y-91750000D03*
X97000000Y-82250000D03*
D11*
X87000000Y-89500000D03*
X87000000Y-87000000D03*
X87000000Y-84500000D03*
%TD*%
D10*
%TO.C,RV9*%
X89500000Y-144500000D03*
D11*
X89500000Y-147000000D03*
X89500000Y-149500000D03*
D12*
X97000000Y-151750000D03*
X97000000Y-142250000D03*
D11*
X87000000Y-149500000D03*
X87000000Y-147000000D03*
X87000000Y-144500000D03*
%TD*%
D13*
%TO.C,J5*%
X82170000Y-40420000D03*
D14*
X82170000Y-42960000D03*
X82170000Y-45500000D03*
X82170000Y-48040000D03*
X82170000Y-50580000D03*
X82170000Y-53120000D03*
X82170000Y-55660000D03*
X82170000Y-58200000D03*
X82170000Y-60740000D03*
X82170000Y-63280000D03*
X82170000Y-65820000D03*
X82170000Y-68360000D03*
X82170000Y-70900000D03*
X82170000Y-73440000D03*
X82170000Y-75980000D03*
X82170000Y-78520000D03*
X82170000Y-81060000D03*
X82170000Y-83600000D03*
X82170000Y-86140000D03*
X82170000Y-88680000D03*
X82170000Y-91220000D03*
X82170000Y-93760000D03*
X82170000Y-96300000D03*
X82170000Y-98840000D03*
X82170000Y-101380000D03*
X82170000Y-103920000D03*
X82170000Y-106460000D03*
X82170000Y-109000000D03*
X82170000Y-111540000D03*
X82170000Y-114080000D03*
X82170000Y-116620000D03*
X82170000Y-119160000D03*
X82170000Y-121700000D03*
X82170000Y-124240000D03*
X82170000Y-126780000D03*
X82170000Y-129320000D03*
X82170000Y-131860000D03*
%TD*%
%TO.C,J4*%
X77090000Y-131860000D03*
X77090000Y-129320000D03*
X77090000Y-126780000D03*
X77090000Y-124240000D03*
X77090000Y-121700000D03*
X77090000Y-119160000D03*
X77090000Y-116620000D03*
X77090000Y-114080000D03*
X77090000Y-111540000D03*
X77090000Y-109000000D03*
X77090000Y-106460000D03*
X77090000Y-103920000D03*
X77090000Y-101380000D03*
X77090000Y-98840000D03*
X77090000Y-96300000D03*
X77090000Y-93760000D03*
X77090000Y-91220000D03*
X77090000Y-88680000D03*
X77090000Y-86140000D03*
X77090000Y-83600000D03*
X77090000Y-81060000D03*
X77090000Y-78520000D03*
X77090000Y-75980000D03*
X77090000Y-73440000D03*
X77090000Y-70900000D03*
X77090000Y-68360000D03*
X77090000Y-65820000D03*
X77090000Y-63280000D03*
X77090000Y-60740000D03*
X77090000Y-58200000D03*
X77090000Y-55660000D03*
X77090000Y-53120000D03*
X77090000Y-50580000D03*
X77090000Y-48040000D03*
X77090000Y-45500000D03*
X77090000Y-42960000D03*
D13*
X77090000Y-40420000D03*
%TD*%
D10*
%TO.C,RV1*%
X54500000Y-24500000D03*
D11*
X54500000Y-27000000D03*
X54500000Y-29500000D03*
D12*
X62000000Y-31800000D03*
X62000000Y-22200000D03*
%TD*%
D14*
%TO.C,J1*%
X70740000Y-121700000D03*
X70740000Y-119160000D03*
X70740000Y-116620000D03*
X70740000Y-114080000D03*
X70740000Y-111540000D03*
X70740000Y-109000000D03*
X70740000Y-106460000D03*
X70740000Y-103920000D03*
X70740000Y-101380000D03*
X70740000Y-98840000D03*
X70740000Y-96300000D03*
X70740000Y-93760000D03*
X70740000Y-91220000D03*
X70740000Y-88680000D03*
X70740000Y-86140000D03*
X70740000Y-83600000D03*
X70740000Y-81060000D03*
X70740000Y-78520000D03*
X70740000Y-75980000D03*
X70740000Y-73440000D03*
X70740000Y-70900000D03*
X70740000Y-68360000D03*
X70740000Y-65820000D03*
X70740000Y-63280000D03*
X70740000Y-60740000D03*
X70740000Y-58200000D03*
X70740000Y-55660000D03*
X70740000Y-53120000D03*
X70740000Y-50580000D03*
X70740000Y-48040000D03*
X70740000Y-45500000D03*
X70740000Y-42960000D03*
D13*
X70740000Y-40420000D03*
%TD*%
D14*
%TO.C,J2*%
X70740000Y-145830000D03*
X70740000Y-143290000D03*
X70740000Y-140750000D03*
D13*
X70740000Y-138210000D03*
%TD*%
D12*
%TO.C,RV2*%
X62000000Y-52200000D03*
X62000000Y-61800000D03*
D11*
X54500000Y-59500000D03*
X54500000Y-57000000D03*
D10*
X54500000Y-54500000D03*
%TD*%
%TO.C,RV5*%
X89500000Y-24500000D03*
D11*
X89500000Y-27000000D03*
X89500000Y-29500000D03*
D12*
X97000000Y-31750000D03*
X97000000Y-22250000D03*
D11*
X87000000Y-29500000D03*
X87000000Y-27000000D03*
X87000000Y-24500000D03*
%TD*%
D12*
%TO.C,RV4*%
X62000000Y-112200000D03*
X62000000Y-121800000D03*
D11*
X54500000Y-119500000D03*
X54500000Y-117000000D03*
D10*
X54500000Y-114500000D03*
%TD*%
%TO.C,RV8*%
X89500000Y-114500000D03*
D11*
X89500000Y-117000000D03*
X89500000Y-119500000D03*
D12*
X97000000Y-121750000D03*
X97000000Y-112250000D03*
D11*
X87000000Y-119500000D03*
X87000000Y-117000000D03*
X87000000Y-114500000D03*
%TD*%
D12*
%TO.C,RV3*%
X62000000Y-82200000D03*
X62000000Y-91800000D03*
D11*
X54500000Y-89500000D03*
X54500000Y-87000000D03*
D10*
X54500000Y-84500000D03*
%TD*%
M02*
