%TF.GenerationSoftware,KiCad,Pcbnew,5.1.6-c6e7f7d~87~ubuntu20.04.1*%
%TF.CreationDate,2020-10-18T20:27:09-04:00*%
%TF.ProjectId,stereoout,73746572-656f-46f7-9574-2e6b69636164,rev?*%
%TF.SameCoordinates,Original*%
%TF.FileFunction,Legend,Top*%
%TF.FilePolarity,Positive*%
%FSLAX46Y46*%
G04 Gerber Fmt 4.6, Leading zero omitted, Abs format (unit mm)*
G04 Created by KiCad (PCBNEW 5.1.6-c6e7f7d~87~ubuntu20.04.1) date 2020-10-18 20:27:09*
%MOMM*%
%LPD*%
G01*
G04 APERTURE LIST*
%ADD10C,0.120000*%
%ADD11C,0.150000*%
G04 APERTURE END LIST*
D10*
%TO.C,RV6*%
X90380000Y-58660000D02*
X90380000Y-57830000D01*
X90380000Y-56210000D02*
X90380000Y-55680000D01*
X90380000Y-53310000D02*
X90380000Y-52130000D01*
X90380000Y-61870000D02*
X95100000Y-61870000D01*
X98910000Y-52130000D02*
X101970000Y-52130000D01*
X90380000Y-52130000D02*
X95100000Y-52130000D01*
X98910000Y-61870000D02*
X101970000Y-61870000D01*
X90380000Y-61870000D02*
X90380000Y-60380000D01*
X101970000Y-61870000D02*
X101970000Y-52130000D01*
%TO.C,RV7*%
X90380000Y-88660000D02*
X90380000Y-87830000D01*
X90380000Y-86210000D02*
X90380000Y-85680000D01*
X90380000Y-83310000D02*
X90380000Y-82130000D01*
X90380000Y-91870000D02*
X95100000Y-91870000D01*
X98910000Y-82130000D02*
X101970000Y-82130000D01*
X90380000Y-82130000D02*
X95100000Y-82130000D01*
X98910000Y-91870000D02*
X101970000Y-91870000D01*
X90380000Y-91870000D02*
X90380000Y-90380000D01*
X101970000Y-91870000D02*
X101970000Y-82130000D01*
%TO.C,RV9*%
X90380000Y-148660000D02*
X90380000Y-147830000D01*
X90380000Y-146210000D02*
X90380000Y-145680000D01*
X90380000Y-143310000D02*
X90380000Y-142130000D01*
X90380000Y-151870000D02*
X95100000Y-151870000D01*
X98910000Y-142130000D02*
X101970000Y-142130000D01*
X90380000Y-142130000D02*
X95100000Y-142130000D01*
X98910000Y-151870000D02*
X101970000Y-151870000D01*
X90380000Y-151870000D02*
X90380000Y-150380000D01*
X101970000Y-151870000D02*
X101970000Y-142130000D01*
%TO.C,RV1*%
X55380000Y-28660000D02*
X55380000Y-27830000D01*
X55380000Y-26210000D02*
X55380000Y-25680000D01*
X55380000Y-23310000D02*
X55380000Y-22130000D01*
X55380000Y-31870000D02*
X60100000Y-31870000D01*
X63910000Y-22130000D02*
X66970000Y-22130000D01*
X55380000Y-22120000D02*
X60100000Y-22120000D01*
X63910000Y-31870000D02*
X66970000Y-31870000D01*
X55380000Y-31870000D02*
X55380000Y-30380000D01*
X66970000Y-31870000D02*
X66970000Y-22130000D01*
%TO.C,RV2*%
X55380000Y-58660000D02*
X55380000Y-57830000D01*
X55380000Y-56210000D02*
X55380000Y-55680000D01*
X55380000Y-53310000D02*
X55380000Y-52130000D01*
X55380000Y-61870000D02*
X60100000Y-61870000D01*
X63910000Y-52130000D02*
X66970000Y-52130000D01*
X55380000Y-52120000D02*
X60100000Y-52120000D01*
X63910000Y-61870000D02*
X66970000Y-61870000D01*
X55380000Y-61870000D02*
X55380000Y-60380000D01*
X66970000Y-61870000D02*
X66970000Y-52130000D01*
%TO.C,RV5*%
X90380000Y-28660000D02*
X90380000Y-27830000D01*
X90380000Y-26210000D02*
X90380000Y-25680000D01*
X90380000Y-23310000D02*
X90380000Y-22130000D01*
X90380000Y-31870000D02*
X95100000Y-31870000D01*
X98910000Y-22130000D02*
X101970000Y-22130000D01*
X90380000Y-22130000D02*
X95100000Y-22130000D01*
X98910000Y-31870000D02*
X101970000Y-31870000D01*
X90380000Y-31870000D02*
X90380000Y-30380000D01*
X101970000Y-31870000D02*
X101970000Y-22130000D01*
%TO.C,RV4*%
X55380000Y-118660000D02*
X55380000Y-117830000D01*
X55380000Y-116210000D02*
X55380000Y-115680000D01*
X55380000Y-113310000D02*
X55380000Y-112130000D01*
X55380000Y-121870000D02*
X60100000Y-121870000D01*
X63910000Y-112130000D02*
X66970000Y-112130000D01*
X55380000Y-112120000D02*
X60100000Y-112120000D01*
X63910000Y-121870000D02*
X66970000Y-121870000D01*
X55380000Y-121870000D02*
X55380000Y-120380000D01*
X66970000Y-121870000D02*
X66970000Y-112130000D01*
%TO.C,RV8*%
X90380000Y-118660000D02*
X90380000Y-117830000D01*
X90380000Y-116210000D02*
X90380000Y-115680000D01*
X90380000Y-113310000D02*
X90380000Y-112130000D01*
X90380000Y-121870000D02*
X95100000Y-121870000D01*
X98910000Y-112130000D02*
X101970000Y-112130000D01*
X90380000Y-112130000D02*
X95100000Y-112130000D01*
X98910000Y-121870000D02*
X101970000Y-121870000D01*
X90380000Y-121870000D02*
X90380000Y-120380000D01*
X101970000Y-121870000D02*
X101970000Y-112130000D01*
%TO.C,RV3*%
X55380000Y-88660000D02*
X55380000Y-87830000D01*
X55380000Y-86210000D02*
X55380000Y-85680000D01*
X55380000Y-83310000D02*
X55380000Y-82130000D01*
X55380000Y-91870000D02*
X60100000Y-91870000D01*
X63910000Y-82130000D02*
X66970000Y-82130000D01*
X55380000Y-82120000D02*
X60100000Y-82120000D01*
X63910000Y-91870000D02*
X66970000Y-91870000D01*
X55380000Y-91870000D02*
X55380000Y-90380000D01*
X66970000Y-91870000D02*
X66970000Y-82130000D01*
%TO.C,RV6*%
D11*
X94923571Y-49939285D02*
X94673571Y-49582142D01*
X94495000Y-49939285D02*
X94495000Y-49189285D01*
X94780714Y-49189285D01*
X94852142Y-49225000D01*
X94887857Y-49260714D01*
X94923571Y-49332142D01*
X94923571Y-49439285D01*
X94887857Y-49510714D01*
X94852142Y-49546428D01*
X94780714Y-49582142D01*
X94495000Y-49582142D01*
X95137857Y-49189285D02*
X95387857Y-49939285D01*
X95637857Y-49189285D01*
X96209285Y-49189285D02*
X96066428Y-49189285D01*
X95995000Y-49225000D01*
X95959285Y-49260714D01*
X95887857Y-49367857D01*
X95852142Y-49510714D01*
X95852142Y-49796428D01*
X95887857Y-49867857D01*
X95923571Y-49903571D01*
X95995000Y-49939285D01*
X96137857Y-49939285D01*
X96209285Y-49903571D01*
X96245000Y-49867857D01*
X96280714Y-49796428D01*
X96280714Y-49617857D01*
X96245000Y-49546428D01*
X96209285Y-49510714D01*
X96137857Y-49475000D01*
X95995000Y-49475000D01*
X95923571Y-49510714D01*
X95887857Y-49546428D01*
X95852142Y-49617857D01*
X95446428Y-64839285D02*
X95446428Y-64089285D01*
X95732142Y-64089285D01*
X95803571Y-64125000D01*
X95839285Y-64160714D01*
X95875000Y-64232142D01*
X95875000Y-64339285D01*
X95839285Y-64410714D01*
X95803571Y-64446428D01*
X95732142Y-64482142D01*
X95446428Y-64482142D01*
X96160714Y-64625000D02*
X96517857Y-64625000D01*
X96089285Y-64839285D02*
X96339285Y-64089285D01*
X96589285Y-64839285D01*
X96839285Y-64839285D02*
X96839285Y-64089285D01*
X97267857Y-64839285D01*
X97267857Y-64089285D01*
X98160714Y-64160714D02*
X98196428Y-64125000D01*
X98267857Y-64089285D01*
X98446428Y-64089285D01*
X98517857Y-64125000D01*
X98553571Y-64160714D01*
X98589285Y-64232142D01*
X98589285Y-64303571D01*
X98553571Y-64410714D01*
X98125000Y-64839285D01*
X98589285Y-64839285D01*
%TO.C,RV7*%
X94923571Y-79939285D02*
X94673571Y-79582142D01*
X94495000Y-79939285D02*
X94495000Y-79189285D01*
X94780714Y-79189285D01*
X94852142Y-79225000D01*
X94887857Y-79260714D01*
X94923571Y-79332142D01*
X94923571Y-79439285D01*
X94887857Y-79510714D01*
X94852142Y-79546428D01*
X94780714Y-79582142D01*
X94495000Y-79582142D01*
X95137857Y-79189285D02*
X95387857Y-79939285D01*
X95637857Y-79189285D01*
X95816428Y-79189285D02*
X96316428Y-79189285D01*
X95995000Y-79939285D01*
X95446428Y-94839285D02*
X95446428Y-94089285D01*
X95732142Y-94089285D01*
X95803571Y-94125000D01*
X95839285Y-94160714D01*
X95875000Y-94232142D01*
X95875000Y-94339285D01*
X95839285Y-94410714D01*
X95803571Y-94446428D01*
X95732142Y-94482142D01*
X95446428Y-94482142D01*
X96160714Y-94625000D02*
X96517857Y-94625000D01*
X96089285Y-94839285D02*
X96339285Y-94089285D01*
X96589285Y-94839285D01*
X96839285Y-94839285D02*
X96839285Y-94089285D01*
X97267857Y-94839285D01*
X97267857Y-94089285D01*
X98125000Y-94089285D02*
X98589285Y-94089285D01*
X98339285Y-94375000D01*
X98446428Y-94375000D01*
X98517857Y-94410714D01*
X98553571Y-94446428D01*
X98589285Y-94517857D01*
X98589285Y-94696428D01*
X98553571Y-94767857D01*
X98517857Y-94803571D01*
X98446428Y-94839285D01*
X98232142Y-94839285D01*
X98160714Y-94803571D01*
X98125000Y-94767857D01*
%TO.C,RV9*%
X94923571Y-139939285D02*
X94673571Y-139582142D01*
X94495000Y-139939285D02*
X94495000Y-139189285D01*
X94780714Y-139189285D01*
X94852142Y-139225000D01*
X94887857Y-139260714D01*
X94923571Y-139332142D01*
X94923571Y-139439285D01*
X94887857Y-139510714D01*
X94852142Y-139546428D01*
X94780714Y-139582142D01*
X94495000Y-139582142D01*
X95137857Y-139189285D02*
X95387857Y-139939285D01*
X95637857Y-139189285D01*
X95923571Y-139939285D02*
X96066428Y-139939285D01*
X96137857Y-139903571D01*
X96173571Y-139867857D01*
X96245000Y-139760714D01*
X96280714Y-139617857D01*
X96280714Y-139332142D01*
X96245000Y-139260714D01*
X96209285Y-139225000D01*
X96137857Y-139189285D01*
X95995000Y-139189285D01*
X95923571Y-139225000D01*
X95887857Y-139260714D01*
X95852142Y-139332142D01*
X95852142Y-139510714D01*
X95887857Y-139582142D01*
X95923571Y-139617857D01*
X95995000Y-139653571D01*
X96137857Y-139653571D01*
X96209285Y-139617857D01*
X96245000Y-139582142D01*
X96280714Y-139510714D01*
X93035714Y-154839285D02*
X93035714Y-154089285D01*
X93321428Y-154089285D01*
X93392857Y-154125000D01*
X93428571Y-154160714D01*
X93464285Y-154232142D01*
X93464285Y-154339285D01*
X93428571Y-154410714D01*
X93392857Y-154446428D01*
X93321428Y-154482142D01*
X93035714Y-154482142D01*
X93785714Y-154839285D02*
X93785714Y-154089285D01*
X93785714Y-154446428D02*
X94214285Y-154446428D01*
X94214285Y-154839285D02*
X94214285Y-154089285D01*
X94714285Y-154089285D02*
X94857142Y-154089285D01*
X94928571Y-154125000D01*
X95000000Y-154196428D01*
X95035714Y-154339285D01*
X95035714Y-154589285D01*
X95000000Y-154732142D01*
X94928571Y-154803571D01*
X94857142Y-154839285D01*
X94714285Y-154839285D01*
X94642857Y-154803571D01*
X94571428Y-154732142D01*
X94535714Y-154589285D01*
X94535714Y-154339285D01*
X94571428Y-154196428D01*
X94642857Y-154125000D01*
X94714285Y-154089285D01*
X95357142Y-154839285D02*
X95357142Y-154089285D01*
X95785714Y-154839285D01*
X95785714Y-154089285D01*
X96142857Y-154446428D02*
X96392857Y-154446428D01*
X96500000Y-154839285D02*
X96142857Y-154839285D01*
X96142857Y-154089285D01*
X96500000Y-154089285D01*
X96785714Y-154803571D02*
X96892857Y-154839285D01*
X97071428Y-154839285D01*
X97142857Y-154803571D01*
X97178571Y-154767857D01*
X97214285Y-154696428D01*
X97214285Y-154625000D01*
X97178571Y-154553571D01*
X97142857Y-154517857D01*
X97071428Y-154482142D01*
X96928571Y-154446428D01*
X96857142Y-154410714D01*
X96821428Y-154375000D01*
X96785714Y-154303571D01*
X96785714Y-154232142D01*
X96821428Y-154160714D01*
X96857142Y-154125000D01*
X96928571Y-154089285D01*
X97107142Y-154089285D01*
X97214285Y-154125000D01*
X98464285Y-154839285D02*
X98107142Y-154839285D01*
X98107142Y-154089285D01*
X98714285Y-154446428D02*
X98964285Y-154446428D01*
X99071428Y-154839285D02*
X98714285Y-154839285D01*
X98714285Y-154089285D01*
X99071428Y-154089285D01*
X99285714Y-154089285D02*
X99535714Y-154839285D01*
X99785714Y-154089285D01*
X100035714Y-154446428D02*
X100285714Y-154446428D01*
X100392857Y-154839285D02*
X100035714Y-154839285D01*
X100035714Y-154089285D01*
X100392857Y-154089285D01*
X101071428Y-154839285D02*
X100714285Y-154839285D01*
X100714285Y-154089285D01*
%TO.C,RV1*%
X60503571Y-20039285D02*
X60253571Y-19682142D01*
X60075000Y-20039285D02*
X60075000Y-19289285D01*
X60360714Y-19289285D01*
X60432142Y-19325000D01*
X60467857Y-19360714D01*
X60503571Y-19432142D01*
X60503571Y-19539285D01*
X60467857Y-19610714D01*
X60432142Y-19646428D01*
X60360714Y-19682142D01*
X60075000Y-19682142D01*
X60717857Y-19289285D02*
X60967857Y-20039285D01*
X61217857Y-19289285D01*
X61860714Y-20039285D02*
X61432142Y-20039285D01*
X61646428Y-20039285D02*
X61646428Y-19289285D01*
X61575000Y-19396428D01*
X61503571Y-19467857D01*
X61432142Y-19503571D01*
X60285714Y-34839285D02*
X59928571Y-34839285D01*
X59928571Y-34089285D01*
X60535714Y-34446428D02*
X60785714Y-34446428D01*
X60892857Y-34839285D02*
X60535714Y-34839285D01*
X60535714Y-34089285D01*
X60892857Y-34089285D01*
X61107142Y-34089285D02*
X61357142Y-34839285D01*
X61607142Y-34089285D01*
X61857142Y-34446428D02*
X62107142Y-34446428D01*
X62214285Y-34839285D02*
X61857142Y-34839285D01*
X61857142Y-34089285D01*
X62214285Y-34089285D01*
X62892857Y-34839285D02*
X62535714Y-34839285D01*
X62535714Y-34089285D01*
X64107142Y-34839285D02*
X63678571Y-34839285D01*
X63892857Y-34839285D02*
X63892857Y-34089285D01*
X63821428Y-34196428D01*
X63750000Y-34267857D01*
X63678571Y-34303571D01*
%TO.C,RV2*%
X60503571Y-50039285D02*
X60253571Y-49682142D01*
X60075000Y-50039285D02*
X60075000Y-49289285D01*
X60360714Y-49289285D01*
X60432142Y-49325000D01*
X60467857Y-49360714D01*
X60503571Y-49432142D01*
X60503571Y-49539285D01*
X60467857Y-49610714D01*
X60432142Y-49646428D01*
X60360714Y-49682142D01*
X60075000Y-49682142D01*
X60717857Y-49289285D02*
X60967857Y-50039285D01*
X61217857Y-49289285D01*
X61432142Y-49360714D02*
X61467857Y-49325000D01*
X61539285Y-49289285D01*
X61717857Y-49289285D01*
X61789285Y-49325000D01*
X61825000Y-49360714D01*
X61860714Y-49432142D01*
X61860714Y-49503571D01*
X61825000Y-49610714D01*
X61396428Y-50039285D01*
X61860714Y-50039285D01*
X60285714Y-64839285D02*
X59928571Y-64839285D01*
X59928571Y-64089285D01*
X60535714Y-64446428D02*
X60785714Y-64446428D01*
X60892857Y-64839285D02*
X60535714Y-64839285D01*
X60535714Y-64089285D01*
X60892857Y-64089285D01*
X61107142Y-64089285D02*
X61357142Y-64839285D01*
X61607142Y-64089285D01*
X61857142Y-64446428D02*
X62107142Y-64446428D01*
X62214285Y-64839285D02*
X61857142Y-64839285D01*
X61857142Y-64089285D01*
X62214285Y-64089285D01*
X62892857Y-64839285D02*
X62535714Y-64839285D01*
X62535714Y-64089285D01*
X63678571Y-64160714D02*
X63714285Y-64125000D01*
X63785714Y-64089285D01*
X63964285Y-64089285D01*
X64035714Y-64125000D01*
X64071428Y-64160714D01*
X64107142Y-64232142D01*
X64107142Y-64303571D01*
X64071428Y-64410714D01*
X63642857Y-64839285D01*
X64107142Y-64839285D01*
%TO.C,RV5*%
X94923571Y-19939285D02*
X94673571Y-19582142D01*
X94495000Y-19939285D02*
X94495000Y-19189285D01*
X94780714Y-19189285D01*
X94852142Y-19225000D01*
X94887857Y-19260714D01*
X94923571Y-19332142D01*
X94923571Y-19439285D01*
X94887857Y-19510714D01*
X94852142Y-19546428D01*
X94780714Y-19582142D01*
X94495000Y-19582142D01*
X95137857Y-19189285D02*
X95387857Y-19939285D01*
X95637857Y-19189285D01*
X96245000Y-19189285D02*
X95887857Y-19189285D01*
X95852142Y-19546428D01*
X95887857Y-19510714D01*
X95959285Y-19475000D01*
X96137857Y-19475000D01*
X96209285Y-19510714D01*
X96245000Y-19546428D01*
X96280714Y-19617857D01*
X96280714Y-19796428D01*
X96245000Y-19867857D01*
X96209285Y-19903571D01*
X96137857Y-19939285D01*
X95959285Y-19939285D01*
X95887857Y-19903571D01*
X95852142Y-19867857D01*
X95446428Y-34839285D02*
X95446428Y-34089285D01*
X95732142Y-34089285D01*
X95803571Y-34125000D01*
X95839285Y-34160714D01*
X95875000Y-34232142D01*
X95875000Y-34339285D01*
X95839285Y-34410714D01*
X95803571Y-34446428D01*
X95732142Y-34482142D01*
X95446428Y-34482142D01*
X96160714Y-34625000D02*
X96517857Y-34625000D01*
X96089285Y-34839285D02*
X96339285Y-34089285D01*
X96589285Y-34839285D01*
X96839285Y-34839285D02*
X96839285Y-34089285D01*
X97267857Y-34839285D01*
X97267857Y-34089285D01*
X98589285Y-34839285D02*
X98160714Y-34839285D01*
X98375000Y-34839285D02*
X98375000Y-34089285D01*
X98303571Y-34196428D01*
X98232142Y-34267857D01*
X98160714Y-34303571D01*
%TO.C,RV4*%
X60503571Y-110039285D02*
X60253571Y-109682142D01*
X60075000Y-110039285D02*
X60075000Y-109289285D01*
X60360714Y-109289285D01*
X60432142Y-109325000D01*
X60467857Y-109360714D01*
X60503571Y-109432142D01*
X60503571Y-109539285D01*
X60467857Y-109610714D01*
X60432142Y-109646428D01*
X60360714Y-109682142D01*
X60075000Y-109682142D01*
X60717857Y-109289285D02*
X60967857Y-110039285D01*
X61217857Y-109289285D01*
X61789285Y-109539285D02*
X61789285Y-110039285D01*
X61610714Y-109253571D02*
X61432142Y-109789285D01*
X61896428Y-109789285D01*
X60285714Y-124839285D02*
X59928571Y-124839285D01*
X59928571Y-124089285D01*
X60535714Y-124446428D02*
X60785714Y-124446428D01*
X60892857Y-124839285D02*
X60535714Y-124839285D01*
X60535714Y-124089285D01*
X60892857Y-124089285D01*
X61107142Y-124089285D02*
X61357142Y-124839285D01*
X61607142Y-124089285D01*
X61857142Y-124446428D02*
X62107142Y-124446428D01*
X62214285Y-124839285D02*
X61857142Y-124839285D01*
X61857142Y-124089285D01*
X62214285Y-124089285D01*
X62892857Y-124839285D02*
X62535714Y-124839285D01*
X62535714Y-124089285D01*
X64035714Y-124339285D02*
X64035714Y-124839285D01*
X63857142Y-124053571D02*
X63678571Y-124589285D01*
X64142857Y-124589285D01*
%TO.C,RV8*%
X94923571Y-109939285D02*
X94673571Y-109582142D01*
X94495000Y-109939285D02*
X94495000Y-109189285D01*
X94780714Y-109189285D01*
X94852142Y-109225000D01*
X94887857Y-109260714D01*
X94923571Y-109332142D01*
X94923571Y-109439285D01*
X94887857Y-109510714D01*
X94852142Y-109546428D01*
X94780714Y-109582142D01*
X94495000Y-109582142D01*
X95137857Y-109189285D02*
X95387857Y-109939285D01*
X95637857Y-109189285D01*
X95995000Y-109510714D02*
X95923571Y-109475000D01*
X95887857Y-109439285D01*
X95852142Y-109367857D01*
X95852142Y-109332142D01*
X95887857Y-109260714D01*
X95923571Y-109225000D01*
X95995000Y-109189285D01*
X96137857Y-109189285D01*
X96209285Y-109225000D01*
X96245000Y-109260714D01*
X96280714Y-109332142D01*
X96280714Y-109367857D01*
X96245000Y-109439285D01*
X96209285Y-109475000D01*
X96137857Y-109510714D01*
X95995000Y-109510714D01*
X95923571Y-109546428D01*
X95887857Y-109582142D01*
X95852142Y-109653571D01*
X95852142Y-109796428D01*
X95887857Y-109867857D01*
X95923571Y-109903571D01*
X95995000Y-109939285D01*
X96137857Y-109939285D01*
X96209285Y-109903571D01*
X96245000Y-109867857D01*
X96280714Y-109796428D01*
X96280714Y-109653571D01*
X96245000Y-109582142D01*
X96209285Y-109546428D01*
X96137857Y-109510714D01*
X95446428Y-124839285D02*
X95446428Y-124089285D01*
X95732142Y-124089285D01*
X95803571Y-124125000D01*
X95839285Y-124160714D01*
X95875000Y-124232142D01*
X95875000Y-124339285D01*
X95839285Y-124410714D01*
X95803571Y-124446428D01*
X95732142Y-124482142D01*
X95446428Y-124482142D01*
X96160714Y-124625000D02*
X96517857Y-124625000D01*
X96089285Y-124839285D02*
X96339285Y-124089285D01*
X96589285Y-124839285D01*
X96839285Y-124839285D02*
X96839285Y-124089285D01*
X97267857Y-124839285D01*
X97267857Y-124089285D01*
X98517857Y-124339285D02*
X98517857Y-124839285D01*
X98339285Y-124053571D02*
X98160714Y-124589285D01*
X98625000Y-124589285D01*
%TO.C,RV3*%
X60503571Y-80039285D02*
X60253571Y-79682142D01*
X60075000Y-80039285D02*
X60075000Y-79289285D01*
X60360714Y-79289285D01*
X60432142Y-79325000D01*
X60467857Y-79360714D01*
X60503571Y-79432142D01*
X60503571Y-79539285D01*
X60467857Y-79610714D01*
X60432142Y-79646428D01*
X60360714Y-79682142D01*
X60075000Y-79682142D01*
X60717857Y-79289285D02*
X60967857Y-80039285D01*
X61217857Y-79289285D01*
X61396428Y-79289285D02*
X61860714Y-79289285D01*
X61610714Y-79575000D01*
X61717857Y-79575000D01*
X61789285Y-79610714D01*
X61825000Y-79646428D01*
X61860714Y-79717857D01*
X61860714Y-79896428D01*
X61825000Y-79967857D01*
X61789285Y-80003571D01*
X61717857Y-80039285D01*
X61503571Y-80039285D01*
X61432142Y-80003571D01*
X61396428Y-79967857D01*
X60285714Y-94839285D02*
X59928571Y-94839285D01*
X59928571Y-94089285D01*
X60535714Y-94446428D02*
X60785714Y-94446428D01*
X60892857Y-94839285D02*
X60535714Y-94839285D01*
X60535714Y-94089285D01*
X60892857Y-94089285D01*
X61107142Y-94089285D02*
X61357142Y-94839285D01*
X61607142Y-94089285D01*
X61857142Y-94446428D02*
X62107142Y-94446428D01*
X62214285Y-94839285D02*
X61857142Y-94839285D01*
X61857142Y-94089285D01*
X62214285Y-94089285D01*
X62892857Y-94839285D02*
X62535714Y-94839285D01*
X62535714Y-94089285D01*
X63642857Y-94089285D02*
X64107142Y-94089285D01*
X63857142Y-94375000D01*
X63964285Y-94375000D01*
X64035714Y-94410714D01*
X64071428Y-94446428D01*
X64107142Y-94517857D01*
X64107142Y-94696428D01*
X64071428Y-94767857D01*
X64035714Y-94803571D01*
X63964285Y-94839285D01*
X63750000Y-94839285D01*
X63678571Y-94803571D01*
X63642857Y-94767857D01*
%TD*%
M02*
