%TF.GenerationSoftware,KiCad,Pcbnew,5.1.10-88a1d61d58~88~ubuntu20.04.1*%
%TF.CreationDate,2021-07-03T15:31:20-04:00*%
%TF.ProjectId,ao_output,616f5f6f-7574-4707-9574-2e6b69636164,rev?*%
%TF.SameCoordinates,Original*%
%TF.FileFunction,Legend,Bot*%
%TF.FilePolarity,Positive*%
%FSLAX46Y46*%
G04 Gerber Fmt 4.6, Leading zero omitted, Abs format (unit mm)*
G04 Created by KiCad (PCBNEW 5.1.10-88a1d61d58~88~ubuntu20.04.1) date 2021-07-03 15:31:20*
%MOMM*%
%LPD*%
G01*
G04 APERTURE LIST*
%ADD10C,0.120000*%
%ADD11C,0.150000*%
G04 APERTURE END LIST*
D10*
%TO.C,RV8*%
X-89160000Y-123620000D02*
X-88330000Y-123620000D01*
X-86710000Y-123620000D02*
X-86180000Y-123620000D01*
X-83810000Y-123620000D02*
X-82630000Y-123620000D01*
X-92370000Y-123620000D02*
X-92370000Y-118900000D01*
X-82630000Y-115090000D02*
X-82630000Y-112030000D01*
X-82630000Y-123620000D02*
X-82630000Y-118900000D01*
X-92370000Y-115090000D02*
X-92370000Y-112030000D01*
X-92370000Y-123620000D02*
X-90880000Y-123620000D01*
X-92370000Y-112030000D02*
X-82630000Y-112030000D01*
%TO.C,RV6*%
X-42470000Y-121870000D02*
X-42470000Y-112130000D01*
X-30880000Y-121870000D02*
X-30880000Y-120380000D01*
X-39410000Y-121870000D02*
X-42470000Y-121870000D01*
X-30880000Y-112130000D02*
X-35600000Y-112130000D01*
X-39410000Y-112130000D02*
X-42470000Y-112130000D01*
X-30880000Y-121870000D02*
X-35600000Y-121870000D01*
X-30880000Y-113310000D02*
X-30880000Y-112130000D01*
X-30880000Y-116210000D02*
X-30880000Y-115680000D01*
X-30880000Y-118660000D02*
X-30880000Y-117830000D01*
%TO.C,RV5*%
X-17370000Y-112030000D02*
X-7630000Y-112030000D01*
X-17370000Y-123620000D02*
X-15880000Y-123620000D01*
X-17370000Y-115090000D02*
X-17370000Y-112030000D01*
X-7630000Y-123620000D02*
X-7630000Y-118900000D01*
X-7630000Y-115090000D02*
X-7630000Y-112030000D01*
X-17370000Y-123620000D02*
X-17370000Y-118900000D01*
X-8810000Y-123620000D02*
X-7630000Y-123620000D01*
X-11710000Y-123620000D02*
X-11180000Y-123620000D01*
X-14160000Y-123620000D02*
X-13330000Y-123620000D01*
%TO.C,RV7*%
X-57530000Y-112130000D02*
X-57530000Y-121870000D01*
X-69120000Y-112130000D02*
X-69120000Y-113620000D01*
X-60590000Y-112130000D02*
X-57530000Y-112130000D01*
X-69120000Y-121870000D02*
X-64400000Y-121870000D01*
X-60590000Y-121870000D02*
X-57530000Y-121870000D01*
X-69120000Y-112130000D02*
X-64400000Y-112130000D01*
X-69120000Y-120690000D02*
X-69120000Y-121870000D01*
X-69120000Y-117790000D02*
X-69120000Y-118320000D01*
X-69120000Y-115340000D02*
X-69120000Y-116170000D01*
%TO.C,RV9*%
X-57630000Y-154970000D02*
X-67370000Y-154970000D01*
X-57630000Y-143380000D02*
X-59120000Y-143380000D01*
X-57630000Y-151910000D02*
X-57630000Y-154970000D01*
X-67370000Y-143380000D02*
X-67370000Y-148100000D01*
X-67370000Y-151910000D02*
X-67370000Y-154970000D01*
X-57630000Y-143380000D02*
X-57630000Y-148100000D01*
X-66190000Y-143380000D02*
X-67370000Y-143380000D01*
X-63290000Y-143380000D02*
X-63820000Y-143380000D01*
X-60840000Y-143380000D02*
X-61670000Y-143380000D01*
%TO.C,RV8*%
D11*
X-80439285Y-119076428D02*
X-80082142Y-119326428D01*
X-80439285Y-119505000D02*
X-79689285Y-119505000D01*
X-79689285Y-119219285D01*
X-79725000Y-119147857D01*
X-79760714Y-119112142D01*
X-79832142Y-119076428D01*
X-79939285Y-119076428D01*
X-80010714Y-119112142D01*
X-80046428Y-119147857D01*
X-80082142Y-119219285D01*
X-80082142Y-119505000D01*
X-79689285Y-118862142D02*
X-80439285Y-118612142D01*
X-79689285Y-118362142D01*
X-80010714Y-118005000D02*
X-79975000Y-118076428D01*
X-79939285Y-118112142D01*
X-79867857Y-118147857D01*
X-79832142Y-118147857D01*
X-79760714Y-118112142D01*
X-79725000Y-118076428D01*
X-79689285Y-118005000D01*
X-79689285Y-117862142D01*
X-79725000Y-117790714D01*
X-79760714Y-117755000D01*
X-79832142Y-117719285D01*
X-79867857Y-117719285D01*
X-79939285Y-117755000D01*
X-79975000Y-117790714D01*
X-80010714Y-117862142D01*
X-80010714Y-118005000D01*
X-80046428Y-118076428D01*
X-80082142Y-118112142D01*
X-80153571Y-118147857D01*
X-80296428Y-118147857D01*
X-80367857Y-118112142D01*
X-80403571Y-118076428D01*
X-80439285Y-118005000D01*
X-80439285Y-117862142D01*
X-80403571Y-117790714D01*
X-80367857Y-117755000D01*
X-80296428Y-117719285D01*
X-80153571Y-117719285D01*
X-80082142Y-117755000D01*
X-80046428Y-117790714D01*
X-80010714Y-117862142D01*
%TO.C,RV6*%
X-39103571Y-124789285D02*
X-38853571Y-124432142D01*
X-38675000Y-124789285D02*
X-38675000Y-124039285D01*
X-38960714Y-124039285D01*
X-39032142Y-124075000D01*
X-39067857Y-124110714D01*
X-39103571Y-124182142D01*
X-39103571Y-124289285D01*
X-39067857Y-124360714D01*
X-39032142Y-124396428D01*
X-38960714Y-124432142D01*
X-38675000Y-124432142D01*
X-39317857Y-124039285D02*
X-39567857Y-124789285D01*
X-39817857Y-124039285D01*
X-40389285Y-124039285D02*
X-40246428Y-124039285D01*
X-40175000Y-124075000D01*
X-40139285Y-124110714D01*
X-40067857Y-124217857D01*
X-40032142Y-124360714D01*
X-40032142Y-124646428D01*
X-40067857Y-124717857D01*
X-40103571Y-124753571D01*
X-40175000Y-124789285D01*
X-40317857Y-124789285D01*
X-40389285Y-124753571D01*
X-40425000Y-124717857D01*
X-40460714Y-124646428D01*
X-40460714Y-124467857D01*
X-40425000Y-124396428D01*
X-40389285Y-124360714D01*
X-40317857Y-124325000D01*
X-40175000Y-124325000D01*
X-40103571Y-124360714D01*
X-40067857Y-124396428D01*
X-40032142Y-124467857D01*
%TO.C,RV5*%
X-4760714Y-118183571D02*
X-5117857Y-117933571D01*
X-4760714Y-117755000D02*
X-5510714Y-117755000D01*
X-5510714Y-118040714D01*
X-5475000Y-118112142D01*
X-5439285Y-118147857D01*
X-5367857Y-118183571D01*
X-5260714Y-118183571D01*
X-5189285Y-118147857D01*
X-5153571Y-118112142D01*
X-5117857Y-118040714D01*
X-5117857Y-117755000D01*
X-5510714Y-118397857D02*
X-4760714Y-118647857D01*
X-5510714Y-118897857D01*
X-5510714Y-119505000D02*
X-5510714Y-119147857D01*
X-5153571Y-119112142D01*
X-5189285Y-119147857D01*
X-5225000Y-119219285D01*
X-5225000Y-119397857D01*
X-5189285Y-119469285D01*
X-5153571Y-119505000D01*
X-5082142Y-119540714D01*
X-4903571Y-119540714D01*
X-4832142Y-119505000D01*
X-4796428Y-119469285D01*
X-4760714Y-119397857D01*
X-4760714Y-119219285D01*
X-4796428Y-119147857D01*
X-4832142Y-119112142D01*
%TO.C,RV7*%
X-63683571Y-124739285D02*
X-63433571Y-124382142D01*
X-63255000Y-124739285D02*
X-63255000Y-123989285D01*
X-63540714Y-123989285D01*
X-63612142Y-124025000D01*
X-63647857Y-124060714D01*
X-63683571Y-124132142D01*
X-63683571Y-124239285D01*
X-63647857Y-124310714D01*
X-63612142Y-124346428D01*
X-63540714Y-124382142D01*
X-63255000Y-124382142D01*
X-63897857Y-123989285D02*
X-64147857Y-124739285D01*
X-64397857Y-123989285D01*
X-64576428Y-123989285D02*
X-65076428Y-123989285D01*
X-64755000Y-124739285D01*
%TO.C,RV9*%
X-69560714Y-147923571D02*
X-69917857Y-147673571D01*
X-69560714Y-147495000D02*
X-70310714Y-147495000D01*
X-70310714Y-147780714D01*
X-70275000Y-147852142D01*
X-70239285Y-147887857D01*
X-70167857Y-147923571D01*
X-70060714Y-147923571D01*
X-69989285Y-147887857D01*
X-69953571Y-147852142D01*
X-69917857Y-147780714D01*
X-69917857Y-147495000D01*
X-70310714Y-148137857D02*
X-69560714Y-148387857D01*
X-70310714Y-148637857D01*
X-69560714Y-148923571D02*
X-69560714Y-149066428D01*
X-69596428Y-149137857D01*
X-69632142Y-149173571D01*
X-69739285Y-149245000D01*
X-69882142Y-149280714D01*
X-70167857Y-149280714D01*
X-70239285Y-149245000D01*
X-70275000Y-149209285D01*
X-70310714Y-149137857D01*
X-70310714Y-148995000D01*
X-70275000Y-148923571D01*
X-70239285Y-148887857D01*
X-70167857Y-148852142D01*
X-69989285Y-148852142D01*
X-69917857Y-148887857D01*
X-69882142Y-148923571D01*
X-69846428Y-148995000D01*
X-69846428Y-149137857D01*
X-69882142Y-149209285D01*
X-69917857Y-149245000D01*
X-69989285Y-149280714D01*
%TD*%
M02*
