%TF.GenerationSoftware,KiCad,Pcbnew,5.1.9-73d0e3b20d~88~ubuntu20.04.1*%
%TF.CreationDate,2021-04-01T10:53:23-04:00*%
%TF.ProjectId,ao_output,616f5f6f-7574-4707-9574-2e6b69636164,rev?*%
%TF.SameCoordinates,Original*%
%TF.FileFunction,Copper,L1,Top*%
%TF.FilePolarity,Positive*%
%FSLAX46Y46*%
G04 Gerber Fmt 4.6, Leading zero omitted, Abs format (unit mm)*
G04 Created by KiCad (PCBNEW 5.1.9-73d0e3b20d~88~ubuntu20.04.1) date 2021-04-01 10:53:23*
%MOMM*%
%LPD*%
G01*
G04 APERTURE LIST*
%TA.AperFunction,ComponentPad*%
%ADD10R,1.800000X1.800000*%
%TD*%
%TA.AperFunction,ComponentPad*%
%ADD11C,1.800000*%
%TD*%
%TA.AperFunction,ComponentPad*%
%ADD12C,3.240000*%
%TD*%
%TA.AperFunction,ComponentPad*%
%ADD13O,1.700000X1.700000*%
%TD*%
%TA.AperFunction,ComponentPad*%
%ADD14R,1.700000X1.700000*%
%TD*%
%TA.AperFunction,Conductor*%
%ADD15C,0.250000*%
%TD*%
%TA.AperFunction,Conductor*%
%ADD16C,0.254000*%
%TD*%
%TA.AperFunction,Conductor*%
%ADD17C,0.100000*%
%TD*%
G04 APERTURE END LIST*
D10*
%TO.P,RV8,1*%
%TO.N,GND2*%
X-85000000Y-124500000D03*
D11*
%TO.P,RV8,2*%
%TO.N,CH4L*%
X-87500000Y-124500000D03*
%TO.P,RV8,3*%
%TO.N,CH4*%
X-90000000Y-124500000D03*
D12*
%TO.P,RV8,*%
%TO.N,*%
X-92250000Y-117000000D03*
X-82750000Y-117000000D03*
D11*
%TO.P,RV8,6*%
%TO.N,GND2*%
X-90000000Y-127000000D03*
%TO.P,RV8,5*%
%TO.N,CH4R*%
X-87500000Y-127000000D03*
%TO.P,RV8,4*%
%TO.N,CH4*%
X-85000000Y-127000000D03*
%TD*%
%TO.P,RV6,4*%
%TO.N,CH2*%
X-27500000Y-114500000D03*
%TO.P,RV6,5*%
%TO.N,CH2R*%
X-27500000Y-117000000D03*
%TO.P,RV6,6*%
%TO.N,GND2*%
X-27500000Y-119500000D03*
D12*
%TO.P,RV6,*%
%TO.N,*%
X-37500000Y-112250000D03*
X-37500000Y-121750000D03*
D11*
%TO.P,RV6,3*%
%TO.N,CH2*%
X-30000000Y-119500000D03*
%TO.P,RV6,2*%
%TO.N,CH2L*%
X-30000000Y-117000000D03*
D10*
%TO.P,RV6,1*%
%TO.N,GND2*%
X-30000000Y-114500000D03*
%TD*%
%TO.P,RV5,1*%
%TO.N,GND2*%
X-10000000Y-124500000D03*
D11*
%TO.P,RV5,2*%
%TO.N,CH1L*%
X-12500000Y-124500000D03*
%TO.P,RV5,3*%
%TO.N,CH1*%
X-15000000Y-124500000D03*
D12*
%TO.P,RV5,*%
%TO.N,*%
X-17250000Y-117000000D03*
X-7750000Y-117000000D03*
D11*
%TO.P,RV5,6*%
%TO.N,GND2*%
X-15000000Y-127000000D03*
%TO.P,RV5,5*%
%TO.N,CH1R*%
X-12500000Y-127000000D03*
%TO.P,RV5,4*%
%TO.N,CH1*%
X-10000000Y-127000000D03*
%TD*%
D10*
%TO.P,RV7,1*%
%TO.N,GND2*%
X-70000000Y-119500000D03*
D11*
%TO.P,RV7,2*%
%TO.N,CH3L*%
X-70000000Y-117000000D03*
%TO.P,RV7,3*%
%TO.N,CH3*%
X-70000000Y-114500000D03*
D12*
%TO.P,RV7,*%
%TO.N,*%
X-62500000Y-112250000D03*
X-62500000Y-121750000D03*
D11*
%TO.P,RV7,6*%
%TO.N,GND2*%
X-72500000Y-114500000D03*
%TO.P,RV7,5*%
%TO.N,CH3R*%
X-72500000Y-117000000D03*
%TO.P,RV7,4*%
%TO.N,CH3*%
X-72500000Y-119500000D03*
%TD*%
D13*
%TO.P,J12,17*%
%TO.N,PHONESRA*%
X-70140000Y-129500000D03*
%TO.P,J12,16*%
%TO.N,PHONESR*%
X-67600000Y-129500000D03*
%TO.P,J12,15*%
%TO.N,PHONESLA*%
X-65060000Y-129500000D03*
%TO.P,J12,14*%
%TO.N,PHONESL*%
X-62520000Y-129500000D03*
%TO.P,J12,13*%
%TO.N,CH4R*%
X-59980000Y-129500000D03*
%TO.P,J12,12*%
%TO.N,CH4L*%
X-57440000Y-129500000D03*
%TO.P,J12,11*%
%TO.N,CH4*%
X-54900000Y-129500000D03*
%TO.P,J12,10*%
%TO.N,CH3R*%
X-52360000Y-129500000D03*
%TO.P,J12,9*%
%TO.N,CH3L*%
X-49820000Y-129500000D03*
%TO.P,J12,8*%
%TO.N,CH3*%
X-47280000Y-129500000D03*
%TO.P,J12,7*%
%TO.N,CH2R*%
X-44740000Y-129500000D03*
%TO.P,J12,6*%
%TO.N,CH2L*%
X-42200000Y-129500000D03*
%TO.P,J12,5*%
%TO.N,CH2*%
X-39660000Y-129500000D03*
%TO.P,J12,4*%
%TO.N,CH1R*%
X-37120000Y-129500000D03*
%TO.P,J12,3*%
%TO.N,CH1L*%
X-34580000Y-129500000D03*
%TO.P,J12,2*%
%TO.N,CH1*%
X-32040000Y-129500000D03*
D14*
%TO.P,J12,1*%
%TO.N,GND2*%
X-29500000Y-129500000D03*
%TD*%
D10*
%TO.P,RV9,1*%
%TO.N,GND2*%
X-65000000Y-142500000D03*
D11*
%TO.P,RV9,2*%
%TO.N,PHONESLA*%
X-62500000Y-142500000D03*
%TO.P,RV9,3*%
%TO.N,PHONESL*%
X-60000000Y-142500000D03*
D12*
%TO.P,RV9,*%
%TO.N,*%
X-57750000Y-150000000D03*
X-67250000Y-150000000D03*
D11*
%TO.P,RV9,6*%
%TO.N,PHONESR*%
X-60000000Y-140000000D03*
%TO.P,RV9,5*%
%TO.N,PHONESRA*%
X-62500000Y-140000000D03*
%TO.P,RV9,4*%
%TO.N,GND2*%
X-65000000Y-140000000D03*
%TD*%
D15*
%TO.N,PHONESRA*%
X-70140000Y-129500000D02*
X-70140000Y-132360000D01*
X-70140000Y-132360000D02*
X-62500000Y-140000000D01*
%TO.N,PHONESR*%
X-67600000Y-132400000D02*
X-60000000Y-140000000D01*
X-67600000Y-129500000D02*
X-67600000Y-132400000D01*
%TO.N,CH4R*%
X-61254999Y-128225001D02*
X-59980000Y-129500000D01*
X-86274999Y-128225001D02*
X-61254999Y-128225001D01*
X-87500000Y-127000000D02*
X-86274999Y-128225001D01*
%TO.N,CH4*%
X-85000000Y-127000000D02*
X-57400000Y-127000000D01*
X-90000000Y-124500000D02*
X-88774999Y-125725001D01*
X-57400000Y-127000000D02*
X-54900000Y-129500000D01*
X-86274999Y-125725001D02*
X-85000000Y-127000000D01*
X-88774999Y-125725001D02*
X-86274999Y-125725001D01*
%TO.N,CH3R*%
X-73725001Y-120088001D02*
X-67263012Y-126549990D01*
X-72500000Y-117000000D02*
X-73725001Y-118225001D01*
X-73725001Y-118225001D02*
X-73725001Y-120088001D01*
X-67263012Y-126549990D02*
X-55490010Y-126549990D01*
X-52540000Y-129500000D02*
X-52360000Y-129500000D01*
X-55490010Y-126549990D02*
X-52540000Y-129500000D01*
%TO.N,CH3*%
X-50860020Y-126099980D02*
X-47460000Y-129500000D01*
X-70000000Y-114500000D02*
X-70000000Y-115186998D01*
X-65900020Y-126099980D02*
X-50860020Y-126099980D01*
X-72500000Y-118982000D02*
X-72500000Y-119500000D01*
X-70000000Y-115186998D02*
X-71225001Y-116411999D01*
X-71225001Y-117707001D02*
X-72500000Y-118982000D01*
X-47460000Y-129500000D02*
X-47280000Y-129500000D01*
X-71225001Y-116411999D02*
X-71225001Y-117707001D01*
X-72500000Y-119500000D02*
X-65900020Y-126099980D01*
%TO.N,CH2L*%
X-30000000Y-117128602D02*
X-42200000Y-129328602D01*
X-30000000Y-117000000D02*
X-30000000Y-117128602D01*
X-42200000Y-129328602D02*
X-42200000Y-129500000D01*
%TO.N,CH2*%
X-27500000Y-114500000D02*
X-27500000Y-115186998D01*
X-39660000Y-129160000D02*
X-39660000Y-129500000D01*
X-28725001Y-116411999D02*
X-28725001Y-118225001D01*
X-30000000Y-119500000D02*
X-39660000Y-129160000D01*
X-27500000Y-115186998D02*
X-28725001Y-116411999D01*
X-28725001Y-118225001D02*
X-30000000Y-119500000D01*
%TO.N,CH1L*%
X-34580000Y-129500000D02*
X-34580000Y-129320000D01*
X-13725001Y-123274999D02*
X-12500000Y-124500000D01*
X-34580000Y-129320000D02*
X-28534999Y-123274999D01*
X-28534999Y-123274999D02*
X-13725001Y-123274999D01*
%TO.N,CH1*%
X-11274999Y-125725001D02*
X-13774999Y-125725001D01*
X-32040000Y-129320000D02*
X-27220000Y-124500000D01*
X-32040000Y-129500000D02*
X-32040000Y-129320000D01*
X-13774999Y-125725001D02*
X-15000000Y-124500000D01*
X-27220000Y-124500000D02*
X-15000000Y-124500000D01*
X-10000000Y-127000000D02*
X-11274999Y-125725001D01*
%TD*%
D16*
%TO.N,GND2*%
X-64251573Y-110812521D02*
X-64498355Y-111181857D01*
X-64668342Y-111592241D01*
X-64755000Y-112027902D01*
X-64755000Y-112472098D01*
X-64668342Y-112907759D01*
X-64498355Y-113318143D01*
X-64251573Y-113687479D01*
X-63937479Y-114001573D01*
X-63568143Y-114248355D01*
X-63157759Y-114418342D01*
X-62722098Y-114505000D01*
X-62277902Y-114505000D01*
X-61842241Y-114418342D01*
X-61431857Y-114248355D01*
X-61062521Y-114001573D01*
X-60748427Y-113687479D01*
X-60501645Y-113318143D01*
X-60331658Y-112907759D01*
X-60245000Y-112472098D01*
X-60245000Y-112027902D01*
X-60331658Y-111592241D01*
X-60501645Y-111181857D01*
X-60748427Y-110812521D01*
X-60875948Y-110685000D01*
X-39124052Y-110685000D01*
X-39251573Y-110812521D01*
X-39498355Y-111181857D01*
X-39668342Y-111592241D01*
X-39755000Y-112027902D01*
X-39755000Y-112472098D01*
X-39668342Y-112907759D01*
X-39498355Y-113318143D01*
X-39251573Y-113687479D01*
X-38937479Y-114001573D01*
X-38568143Y-114248355D01*
X-38157759Y-114418342D01*
X-37722098Y-114505000D01*
X-37277902Y-114505000D01*
X-36842241Y-114418342D01*
X-36431857Y-114248355D01*
X-36062521Y-114001573D01*
X-35748427Y-113687479D01*
X-35689976Y-113600000D01*
X-31538072Y-113600000D01*
X-31535000Y-114214250D01*
X-31376250Y-114373000D01*
X-30127000Y-114373000D01*
X-30127000Y-113123750D01*
X-30285750Y-112965000D01*
X-30900000Y-112961928D01*
X-31024482Y-112974188D01*
X-31144180Y-113010498D01*
X-31254494Y-113069463D01*
X-31351185Y-113148815D01*
X-31430537Y-113245506D01*
X-31489502Y-113355820D01*
X-31525812Y-113475518D01*
X-31538072Y-113600000D01*
X-35689976Y-113600000D01*
X-35501645Y-113318143D01*
X-35331658Y-112907759D01*
X-35245000Y-112472098D01*
X-35245000Y-112027902D01*
X-35331658Y-111592241D01*
X-35501645Y-111181857D01*
X-35748427Y-110812521D01*
X-35875948Y-110685000D01*
X-3185000Y-110685000D01*
X-3184999Y-136815000D01*
X-52466353Y-136815000D01*
X-52500000Y-136811686D01*
X-52533647Y-136815000D01*
X-52634283Y-136824912D01*
X-52763406Y-136864081D01*
X-52882407Y-136927688D01*
X-52986711Y-137013289D01*
X-53072312Y-137117593D01*
X-53135919Y-137236594D01*
X-53175088Y-137365717D01*
X-53188314Y-137500000D01*
X-53185000Y-137533646D01*
X-53184999Y-159315000D01*
X-71815000Y-159315000D01*
X-71815000Y-149777902D01*
X-69505000Y-149777902D01*
X-69505000Y-150222098D01*
X-69418342Y-150657759D01*
X-69248355Y-151068143D01*
X-69001573Y-151437479D01*
X-68687479Y-151751573D01*
X-68318143Y-151998355D01*
X-67907759Y-152168342D01*
X-67472098Y-152255000D01*
X-67027902Y-152255000D01*
X-66592241Y-152168342D01*
X-66181857Y-151998355D01*
X-65812521Y-151751573D01*
X-65498427Y-151437479D01*
X-65251645Y-151068143D01*
X-65081658Y-150657759D01*
X-64995000Y-150222098D01*
X-64995000Y-149777902D01*
X-60005000Y-149777902D01*
X-60005000Y-150222098D01*
X-59918342Y-150657759D01*
X-59748355Y-151068143D01*
X-59501573Y-151437479D01*
X-59187479Y-151751573D01*
X-58818143Y-151998355D01*
X-58407759Y-152168342D01*
X-57972098Y-152255000D01*
X-57527902Y-152255000D01*
X-57092241Y-152168342D01*
X-56681857Y-151998355D01*
X-56312521Y-151751573D01*
X-55998427Y-151437479D01*
X-55751645Y-151068143D01*
X-55581658Y-150657759D01*
X-55495000Y-150222098D01*
X-55495000Y-149777902D01*
X-55581658Y-149342241D01*
X-55751645Y-148931857D01*
X-55998427Y-148562521D01*
X-56312521Y-148248427D01*
X-56681857Y-148001645D01*
X-57092241Y-147831658D01*
X-57527902Y-147745000D01*
X-57972098Y-147745000D01*
X-58407759Y-147831658D01*
X-58818143Y-148001645D01*
X-59187479Y-148248427D01*
X-59501573Y-148562521D01*
X-59748355Y-148931857D01*
X-59918342Y-149342241D01*
X-60005000Y-149777902D01*
X-64995000Y-149777902D01*
X-65081658Y-149342241D01*
X-65251645Y-148931857D01*
X-65498427Y-148562521D01*
X-65812521Y-148248427D01*
X-66181857Y-148001645D01*
X-66592241Y-147831658D01*
X-67027902Y-147745000D01*
X-67472098Y-147745000D01*
X-67907759Y-147831658D01*
X-68318143Y-148001645D01*
X-68687479Y-148248427D01*
X-69001573Y-148562521D01*
X-69248355Y-148931857D01*
X-69418342Y-149342241D01*
X-69505000Y-149777902D01*
X-71815000Y-149777902D01*
X-71815000Y-143400000D01*
X-66538072Y-143400000D01*
X-66525812Y-143524482D01*
X-66489502Y-143644180D01*
X-66430537Y-143754494D01*
X-66351185Y-143851185D01*
X-66254494Y-143930537D01*
X-66144180Y-143989502D01*
X-66024482Y-144025812D01*
X-65900000Y-144038072D01*
X-65285750Y-144035000D01*
X-65127000Y-143876250D01*
X-65127000Y-142627000D01*
X-66376250Y-142627000D01*
X-66535000Y-142785750D01*
X-66538072Y-143400000D01*
X-71815000Y-143400000D01*
X-71815000Y-137533646D01*
X-71811686Y-137500000D01*
X-71824912Y-137365717D01*
X-71864081Y-137236594D01*
X-71927688Y-137117593D01*
X-72013289Y-137013289D01*
X-72117593Y-136927688D01*
X-72236594Y-136864081D01*
X-72365717Y-136824912D01*
X-72466353Y-136815000D01*
X-72500000Y-136811686D01*
X-72533647Y-136815000D01*
X-96815000Y-136815000D01*
X-96815000Y-134279872D01*
X-96735000Y-134279872D01*
X-96735000Y-134720128D01*
X-96649110Y-135151925D01*
X-96480631Y-135558669D01*
X-96236038Y-135924729D01*
X-95924729Y-136236038D01*
X-95558669Y-136480631D01*
X-95151925Y-136649110D01*
X-94720128Y-136735000D01*
X-94279872Y-136735000D01*
X-93848075Y-136649110D01*
X-93441331Y-136480631D01*
X-93075271Y-136236038D01*
X-92763962Y-135924729D01*
X-92519369Y-135558669D01*
X-92350890Y-135151925D01*
X-92265000Y-134720128D01*
X-92265000Y-134279872D01*
X-92350890Y-133848075D01*
X-92519369Y-133441331D01*
X-92763962Y-133075271D01*
X-93075271Y-132763962D01*
X-93441331Y-132519369D01*
X-93848075Y-132350890D01*
X-94279872Y-132265000D01*
X-94720128Y-132265000D01*
X-95151925Y-132350890D01*
X-95558669Y-132519369D01*
X-95924729Y-132763962D01*
X-96236038Y-133075271D01*
X-96480631Y-133441331D01*
X-96649110Y-133848075D01*
X-96735000Y-134279872D01*
X-96815000Y-134279872D01*
X-96815000Y-128064080D01*
X-90884475Y-128064080D01*
X-90800792Y-128318261D01*
X-90528225Y-128449158D01*
X-90235358Y-128524365D01*
X-89933447Y-128540991D01*
X-89634093Y-128498397D01*
X-89348801Y-128398222D01*
X-89199208Y-128318261D01*
X-89115525Y-128064080D01*
X-90000000Y-127179605D01*
X-90884475Y-128064080D01*
X-96815000Y-128064080D01*
X-96815000Y-127066553D01*
X-91540991Y-127066553D01*
X-91498397Y-127365907D01*
X-91398222Y-127651199D01*
X-91318261Y-127800792D01*
X-91064080Y-127884475D01*
X-90179605Y-127000000D01*
X-91064080Y-126115525D01*
X-91318261Y-126199208D01*
X-91449158Y-126471775D01*
X-91524365Y-126764642D01*
X-91540991Y-127066553D01*
X-96815000Y-127066553D01*
X-96815000Y-124348816D01*
X-91535000Y-124348816D01*
X-91535000Y-124651184D01*
X-91476011Y-124947743D01*
X-91360299Y-125227095D01*
X-91192312Y-125478505D01*
X-90978505Y-125692312D01*
X-90835690Y-125787738D01*
X-90884475Y-125935920D01*
X-90000000Y-126820395D01*
X-89985858Y-126806253D01*
X-89806253Y-126985858D01*
X-89820395Y-127000000D01*
X-88935920Y-127884475D01*
X-88787738Y-127835690D01*
X-88692312Y-127978505D01*
X-88478505Y-128192312D01*
X-88227095Y-128360299D01*
X-87947743Y-128476011D01*
X-87651184Y-128535000D01*
X-87348816Y-128535000D01*
X-87091070Y-128483731D01*
X-86838799Y-128736003D01*
X-86815000Y-128765002D01*
X-86786002Y-128788800D01*
X-86699276Y-128859975D01*
X-86567246Y-128930547D01*
X-86423985Y-128974004D01*
X-86312332Y-128985001D01*
X-86312323Y-128985001D01*
X-86275000Y-128988677D01*
X-86237677Y-128985001D01*
X-71534032Y-128985001D01*
X-71567932Y-129066842D01*
X-71625000Y-129353740D01*
X-71625000Y-129646260D01*
X-71567932Y-129933158D01*
X-71455990Y-130203411D01*
X-71293475Y-130446632D01*
X-71086632Y-130653475D01*
X-70900000Y-130778179D01*
X-70899999Y-132322668D01*
X-70903676Y-132360000D01*
X-70889002Y-132508985D01*
X-70845546Y-132652246D01*
X-70774974Y-132784276D01*
X-70742146Y-132824276D01*
X-70680000Y-132900001D01*
X-70651002Y-132923799D01*
X-65109659Y-138465142D01*
X-65365907Y-138501603D01*
X-65651199Y-138601778D01*
X-65800792Y-138681739D01*
X-65884475Y-138935920D01*
X-65000000Y-139820395D01*
X-64985858Y-139806253D01*
X-64806253Y-139985858D01*
X-64820395Y-140000000D01*
X-64806253Y-140014143D01*
X-64985858Y-140193748D01*
X-65000000Y-140179605D01*
X-65014143Y-140193748D01*
X-65193748Y-140014143D01*
X-65179605Y-140000000D01*
X-66064080Y-139115525D01*
X-66318261Y-139199208D01*
X-66449158Y-139471775D01*
X-66524365Y-139764642D01*
X-66540991Y-140066553D01*
X-66498397Y-140365907D01*
X-66398222Y-140651199D01*
X-66318261Y-140800792D01*
X-66064082Y-140884474D01*
X-66180030Y-141000422D01*
X-66160976Y-141019476D01*
X-66254494Y-141069463D01*
X-66351185Y-141148815D01*
X-66430537Y-141245506D01*
X-66489502Y-141355820D01*
X-66525812Y-141475518D01*
X-66538072Y-141600000D01*
X-66535000Y-142214250D01*
X-66376250Y-142373000D01*
X-65127000Y-142373000D01*
X-65127000Y-142353000D01*
X-64873000Y-142353000D01*
X-64873000Y-142373000D01*
X-64853000Y-142373000D01*
X-64853000Y-142627000D01*
X-64873000Y-142627000D01*
X-64873000Y-143876250D01*
X-64714250Y-144035000D01*
X-64100000Y-144038072D01*
X-63975518Y-144025812D01*
X-63855820Y-143989502D01*
X-63745506Y-143930537D01*
X-63648815Y-143851185D01*
X-63569463Y-143754494D01*
X-63516120Y-143654697D01*
X-63478505Y-143692312D01*
X-63227095Y-143860299D01*
X-62947743Y-143976011D01*
X-62651184Y-144035000D01*
X-62348816Y-144035000D01*
X-62052257Y-143976011D01*
X-61772905Y-143860299D01*
X-61521495Y-143692312D01*
X-61307688Y-143478505D01*
X-61250000Y-143392169D01*
X-61192312Y-143478505D01*
X-60978505Y-143692312D01*
X-60727095Y-143860299D01*
X-60447743Y-143976011D01*
X-60151184Y-144035000D01*
X-59848816Y-144035000D01*
X-59552257Y-143976011D01*
X-59272905Y-143860299D01*
X-59021495Y-143692312D01*
X-58807688Y-143478505D01*
X-58639701Y-143227095D01*
X-58523989Y-142947743D01*
X-58465000Y-142651184D01*
X-58465000Y-142348816D01*
X-58523989Y-142052257D01*
X-58639701Y-141772905D01*
X-58807688Y-141521495D01*
X-59021495Y-141307688D01*
X-59107831Y-141250000D01*
X-59021495Y-141192312D01*
X-58807688Y-140978505D01*
X-58639701Y-140727095D01*
X-58523989Y-140447743D01*
X-58465000Y-140151184D01*
X-58465000Y-139848816D01*
X-58523989Y-139552257D01*
X-58639701Y-139272905D01*
X-58807688Y-139021495D01*
X-59021495Y-138807688D01*
X-59272905Y-138639701D01*
X-59552257Y-138523989D01*
X-59848816Y-138465000D01*
X-60151184Y-138465000D01*
X-60408930Y-138516269D01*
X-64645327Y-134279872D01*
X-7735000Y-134279872D01*
X-7735000Y-134720128D01*
X-7649110Y-135151925D01*
X-7480631Y-135558669D01*
X-7236038Y-135924729D01*
X-6924729Y-136236038D01*
X-6558669Y-136480631D01*
X-6151925Y-136649110D01*
X-5720128Y-136735000D01*
X-5279872Y-136735000D01*
X-4848075Y-136649110D01*
X-4441331Y-136480631D01*
X-4075271Y-136236038D01*
X-3763962Y-135924729D01*
X-3519369Y-135558669D01*
X-3350890Y-135151925D01*
X-3265000Y-134720128D01*
X-3265000Y-134279872D01*
X-3350890Y-133848075D01*
X-3519369Y-133441331D01*
X-3763962Y-133075271D01*
X-4075271Y-132763962D01*
X-4441331Y-132519369D01*
X-4848075Y-132350890D01*
X-5279872Y-132265000D01*
X-5720128Y-132265000D01*
X-6151925Y-132350890D01*
X-6558669Y-132519369D01*
X-6924729Y-132763962D01*
X-7236038Y-133075271D01*
X-7480631Y-133441331D01*
X-7649110Y-133848075D01*
X-7735000Y-134279872D01*
X-64645327Y-134279872D01*
X-66840000Y-132085199D01*
X-66840000Y-130778178D01*
X-66653368Y-130653475D01*
X-66446525Y-130446632D01*
X-66330000Y-130272240D01*
X-66213475Y-130446632D01*
X-66006632Y-130653475D01*
X-65763411Y-130815990D01*
X-65493158Y-130927932D01*
X-65206260Y-130985000D01*
X-64913740Y-130985000D01*
X-64626842Y-130927932D01*
X-64356589Y-130815990D01*
X-64113368Y-130653475D01*
X-63906525Y-130446632D01*
X-63790000Y-130272240D01*
X-63673475Y-130446632D01*
X-63466632Y-130653475D01*
X-63223411Y-130815990D01*
X-62953158Y-130927932D01*
X-62666260Y-130985000D01*
X-62373740Y-130985000D01*
X-62086842Y-130927932D01*
X-61816589Y-130815990D01*
X-61573368Y-130653475D01*
X-61366525Y-130446632D01*
X-61250000Y-130272240D01*
X-61133475Y-130446632D01*
X-60926632Y-130653475D01*
X-60683411Y-130815990D01*
X-60413158Y-130927932D01*
X-60126260Y-130985000D01*
X-59833740Y-130985000D01*
X-59546842Y-130927932D01*
X-59276589Y-130815990D01*
X-59033368Y-130653475D01*
X-58826525Y-130446632D01*
X-58710000Y-130272240D01*
X-58593475Y-130446632D01*
X-58386632Y-130653475D01*
X-58143411Y-130815990D01*
X-57873158Y-130927932D01*
X-57586260Y-130985000D01*
X-57293740Y-130985000D01*
X-57006842Y-130927932D01*
X-56736589Y-130815990D01*
X-56493368Y-130653475D01*
X-56286525Y-130446632D01*
X-56170000Y-130272240D01*
X-56053475Y-130446632D01*
X-55846632Y-130653475D01*
X-55603411Y-130815990D01*
X-55333158Y-130927932D01*
X-55046260Y-130985000D01*
X-54753740Y-130985000D01*
X-54466842Y-130927932D01*
X-54196589Y-130815990D01*
X-53953368Y-130653475D01*
X-53746525Y-130446632D01*
X-53630000Y-130272240D01*
X-53513475Y-130446632D01*
X-53306632Y-130653475D01*
X-53063411Y-130815990D01*
X-52793158Y-130927932D01*
X-52506260Y-130985000D01*
X-52213740Y-130985000D01*
X-51926842Y-130927932D01*
X-51656589Y-130815990D01*
X-51413368Y-130653475D01*
X-51206525Y-130446632D01*
X-51090000Y-130272240D01*
X-50973475Y-130446632D01*
X-50766632Y-130653475D01*
X-50523411Y-130815990D01*
X-50253158Y-130927932D01*
X-49966260Y-130985000D01*
X-49673740Y-130985000D01*
X-49386842Y-130927932D01*
X-49116589Y-130815990D01*
X-48873368Y-130653475D01*
X-48666525Y-130446632D01*
X-48550000Y-130272240D01*
X-48433475Y-130446632D01*
X-48226632Y-130653475D01*
X-47983411Y-130815990D01*
X-47713158Y-130927932D01*
X-47426260Y-130985000D01*
X-47133740Y-130985000D01*
X-46846842Y-130927932D01*
X-46576589Y-130815990D01*
X-46333368Y-130653475D01*
X-46126525Y-130446632D01*
X-46010000Y-130272240D01*
X-45893475Y-130446632D01*
X-45686632Y-130653475D01*
X-45443411Y-130815990D01*
X-45173158Y-130927932D01*
X-44886260Y-130985000D01*
X-44593740Y-130985000D01*
X-44306842Y-130927932D01*
X-44036589Y-130815990D01*
X-43793368Y-130653475D01*
X-43586525Y-130446632D01*
X-43470000Y-130272240D01*
X-43353475Y-130446632D01*
X-43146632Y-130653475D01*
X-42903411Y-130815990D01*
X-42633158Y-130927932D01*
X-42346260Y-130985000D01*
X-42053740Y-130985000D01*
X-41766842Y-130927932D01*
X-41496589Y-130815990D01*
X-41253368Y-130653475D01*
X-41046525Y-130446632D01*
X-40930000Y-130272240D01*
X-40813475Y-130446632D01*
X-40606632Y-130653475D01*
X-40363411Y-130815990D01*
X-40093158Y-130927932D01*
X-39806260Y-130985000D01*
X-39513740Y-130985000D01*
X-39226842Y-130927932D01*
X-38956589Y-130815990D01*
X-38713368Y-130653475D01*
X-38506525Y-130446632D01*
X-38390000Y-130272240D01*
X-38273475Y-130446632D01*
X-38066632Y-130653475D01*
X-37823411Y-130815990D01*
X-37553158Y-130927932D01*
X-37266260Y-130985000D01*
X-36973740Y-130985000D01*
X-36686842Y-130927932D01*
X-36416589Y-130815990D01*
X-36173368Y-130653475D01*
X-35966525Y-130446632D01*
X-35850000Y-130272240D01*
X-35733475Y-130446632D01*
X-35526632Y-130653475D01*
X-35283411Y-130815990D01*
X-35013158Y-130927932D01*
X-34726260Y-130985000D01*
X-34433740Y-130985000D01*
X-34146842Y-130927932D01*
X-33876589Y-130815990D01*
X-33633368Y-130653475D01*
X-33426525Y-130446632D01*
X-33310000Y-130272240D01*
X-33193475Y-130446632D01*
X-32986632Y-130653475D01*
X-32743411Y-130815990D01*
X-32473158Y-130927932D01*
X-32186260Y-130985000D01*
X-31893740Y-130985000D01*
X-31606842Y-130927932D01*
X-31336589Y-130815990D01*
X-31093368Y-130653475D01*
X-30961513Y-130521620D01*
X-30939502Y-130594180D01*
X-30880537Y-130704494D01*
X-30801185Y-130801185D01*
X-30704494Y-130880537D01*
X-30594180Y-130939502D01*
X-30474482Y-130975812D01*
X-30350000Y-130988072D01*
X-29785750Y-130985000D01*
X-29627000Y-130826250D01*
X-29627000Y-129627000D01*
X-29373000Y-129627000D01*
X-29373000Y-130826250D01*
X-29214250Y-130985000D01*
X-28650000Y-130988072D01*
X-28525518Y-130975812D01*
X-28405820Y-130939502D01*
X-28295506Y-130880537D01*
X-28198815Y-130801185D01*
X-28119463Y-130704494D01*
X-28060498Y-130594180D01*
X-28024188Y-130474482D01*
X-28011928Y-130350000D01*
X-28015000Y-129785750D01*
X-28173750Y-129627000D01*
X-29373000Y-129627000D01*
X-29627000Y-129627000D01*
X-29647000Y-129627000D01*
X-29647000Y-129373000D01*
X-29627000Y-129373000D01*
X-29627000Y-128173750D01*
X-29373000Y-128173750D01*
X-29373000Y-129373000D01*
X-28173750Y-129373000D01*
X-28015000Y-129214250D01*
X-28011928Y-128650000D01*
X-28024188Y-128525518D01*
X-28060498Y-128405820D01*
X-28119463Y-128295506D01*
X-28198815Y-128198815D01*
X-28295506Y-128119463D01*
X-28399118Y-128064080D01*
X-15884475Y-128064080D01*
X-15800792Y-128318261D01*
X-15528225Y-128449158D01*
X-15235358Y-128524365D01*
X-14933447Y-128540991D01*
X-14634093Y-128498397D01*
X-14348801Y-128398222D01*
X-14199208Y-128318261D01*
X-14115525Y-128064080D01*
X-15000000Y-127179605D01*
X-15884475Y-128064080D01*
X-28399118Y-128064080D01*
X-28405820Y-128060498D01*
X-28525518Y-128024188D01*
X-28650000Y-128011928D01*
X-29214250Y-128015000D01*
X-29373000Y-128173750D01*
X-29627000Y-128173750D01*
X-29722974Y-128077776D01*
X-28711751Y-127066553D01*
X-16540991Y-127066553D01*
X-16498397Y-127365907D01*
X-16398222Y-127651199D01*
X-16318261Y-127800792D01*
X-16064080Y-127884475D01*
X-15179605Y-127000000D01*
X-16064080Y-126115525D01*
X-16318261Y-126199208D01*
X-16449158Y-126471775D01*
X-16524365Y-126764642D01*
X-16540991Y-127066553D01*
X-28711751Y-127066553D01*
X-26905198Y-125260000D01*
X-16338313Y-125260000D01*
X-16192312Y-125478505D01*
X-15978505Y-125692312D01*
X-15835690Y-125787738D01*
X-15884475Y-125935920D01*
X-15000000Y-126820395D01*
X-14985858Y-126806253D01*
X-14806253Y-126985858D01*
X-14820395Y-127000000D01*
X-13935920Y-127884475D01*
X-13787738Y-127835690D01*
X-13692312Y-127978505D01*
X-13478505Y-128192312D01*
X-13227095Y-128360299D01*
X-12947743Y-128476011D01*
X-12651184Y-128535000D01*
X-12348816Y-128535000D01*
X-12052257Y-128476011D01*
X-11772905Y-128360299D01*
X-11521495Y-128192312D01*
X-11307688Y-127978505D01*
X-11250000Y-127892169D01*
X-11192312Y-127978505D01*
X-10978505Y-128192312D01*
X-10727095Y-128360299D01*
X-10447743Y-128476011D01*
X-10151184Y-128535000D01*
X-9848816Y-128535000D01*
X-9552257Y-128476011D01*
X-9272905Y-128360299D01*
X-9021495Y-128192312D01*
X-8807688Y-127978505D01*
X-8639701Y-127727095D01*
X-8523989Y-127447743D01*
X-8465000Y-127151184D01*
X-8465000Y-126848816D01*
X-8523989Y-126552257D01*
X-8639701Y-126272905D01*
X-8807688Y-126021495D01*
X-8845303Y-125983880D01*
X-8745506Y-125930537D01*
X-8648815Y-125851185D01*
X-8569463Y-125754494D01*
X-8510498Y-125644180D01*
X-8474188Y-125524482D01*
X-8461928Y-125400000D01*
X-8465000Y-124785750D01*
X-8623750Y-124627000D01*
X-9873000Y-124627000D01*
X-9873000Y-124647000D01*
X-10127000Y-124647000D01*
X-10127000Y-124627000D01*
X-10147000Y-124627000D01*
X-10147000Y-124373000D01*
X-10127000Y-124373000D01*
X-10127000Y-123123750D01*
X-9873000Y-123123750D01*
X-9873000Y-124373000D01*
X-8623750Y-124373000D01*
X-8465000Y-124214250D01*
X-8461928Y-123600000D01*
X-8474188Y-123475518D01*
X-8510498Y-123355820D01*
X-8569463Y-123245506D01*
X-8648815Y-123148815D01*
X-8745506Y-123069463D01*
X-8855820Y-123010498D01*
X-8975518Y-122974188D01*
X-9100000Y-122961928D01*
X-9714250Y-122965000D01*
X-9873000Y-123123750D01*
X-10127000Y-123123750D01*
X-10285750Y-122965000D01*
X-10900000Y-122961928D01*
X-11024482Y-122974188D01*
X-11144180Y-123010498D01*
X-11254494Y-123069463D01*
X-11351185Y-123148815D01*
X-11430537Y-123245506D01*
X-11483880Y-123345303D01*
X-11521495Y-123307688D01*
X-11772905Y-123139701D01*
X-12052257Y-123023989D01*
X-12348816Y-122965000D01*
X-12651184Y-122965000D01*
X-12908930Y-123016269D01*
X-13161197Y-122764002D01*
X-13185000Y-122734998D01*
X-13300725Y-122640025D01*
X-13432754Y-122569453D01*
X-13576015Y-122525996D01*
X-13687668Y-122514999D01*
X-13687679Y-122514999D01*
X-13725001Y-122511323D01*
X-13762323Y-122514999D01*
X-28497677Y-122514999D01*
X-28535000Y-122511323D01*
X-28572323Y-122514999D01*
X-28572332Y-122514999D01*
X-28683985Y-122525996D01*
X-28827246Y-122569453D01*
X-28959275Y-122640025D01*
X-28959277Y-122640026D01*
X-28959276Y-122640026D01*
X-29046003Y-122711200D01*
X-29046007Y-122711204D01*
X-29075000Y-122734998D01*
X-29098794Y-122763991D01*
X-34363728Y-128028926D01*
X-34433740Y-128015000D01*
X-34726260Y-128015000D01*
X-35013158Y-128072068D01*
X-35283411Y-128184010D01*
X-35526632Y-128346525D01*
X-35733475Y-128553368D01*
X-35850000Y-128727760D01*
X-35966525Y-128553368D01*
X-36173368Y-128346525D01*
X-36416589Y-128184010D01*
X-36686842Y-128072068D01*
X-36973740Y-128015000D01*
X-37266260Y-128015000D01*
X-37483389Y-128058190D01*
X-30408930Y-120983731D01*
X-30151184Y-121035000D01*
X-29848816Y-121035000D01*
X-29552257Y-120976011D01*
X-29272905Y-120860299D01*
X-29021495Y-120692312D01*
X-28893263Y-120564080D01*
X-28384475Y-120564080D01*
X-28300792Y-120818261D01*
X-28028225Y-120949158D01*
X-27735358Y-121024365D01*
X-27433447Y-121040991D01*
X-27134093Y-120998397D01*
X-26848801Y-120898222D01*
X-26699208Y-120818261D01*
X-26615525Y-120564080D01*
X-27500000Y-119679605D01*
X-28384475Y-120564080D01*
X-28893263Y-120564080D01*
X-28807688Y-120478505D01*
X-28712262Y-120335690D01*
X-28564080Y-120384475D01*
X-27679605Y-119500000D01*
X-27320395Y-119500000D01*
X-26435920Y-120384475D01*
X-26181739Y-120300792D01*
X-26050842Y-120028225D01*
X-25975635Y-119735358D01*
X-25959009Y-119433447D01*
X-26001603Y-119134093D01*
X-26101778Y-118848801D01*
X-26181739Y-118699208D01*
X-26435920Y-118615525D01*
X-27320395Y-119500000D01*
X-27679605Y-119500000D01*
X-27693748Y-119485858D01*
X-27514143Y-119306253D01*
X-27500000Y-119320395D01*
X-26615525Y-118435920D01*
X-26664310Y-118287738D01*
X-26521495Y-118192312D01*
X-26307688Y-117978505D01*
X-26139701Y-117727095D01*
X-26023989Y-117447743D01*
X-25965000Y-117151184D01*
X-25965000Y-116848816D01*
X-25979105Y-116777902D01*
X-19505000Y-116777902D01*
X-19505000Y-117222098D01*
X-19418342Y-117657759D01*
X-19248355Y-118068143D01*
X-19001573Y-118437479D01*
X-18687479Y-118751573D01*
X-18318143Y-118998355D01*
X-17907759Y-119168342D01*
X-17472098Y-119255000D01*
X-17027902Y-119255000D01*
X-16592241Y-119168342D01*
X-16181857Y-118998355D01*
X-15812521Y-118751573D01*
X-15498427Y-118437479D01*
X-15251645Y-118068143D01*
X-15081658Y-117657759D01*
X-14995000Y-117222098D01*
X-14995000Y-116777902D01*
X-10005000Y-116777902D01*
X-10005000Y-117222098D01*
X-9918342Y-117657759D01*
X-9748355Y-118068143D01*
X-9501573Y-118437479D01*
X-9187479Y-118751573D01*
X-8818143Y-118998355D01*
X-8407759Y-119168342D01*
X-7972098Y-119255000D01*
X-7527902Y-119255000D01*
X-7092241Y-119168342D01*
X-6681857Y-118998355D01*
X-6312521Y-118751573D01*
X-5998427Y-118437479D01*
X-5751645Y-118068143D01*
X-5581658Y-117657759D01*
X-5495000Y-117222098D01*
X-5495000Y-116777902D01*
X-5581658Y-116342241D01*
X-5751645Y-115931857D01*
X-5998427Y-115562521D01*
X-6312521Y-115248427D01*
X-6681857Y-115001645D01*
X-7092241Y-114831658D01*
X-7527902Y-114745000D01*
X-7972098Y-114745000D01*
X-8407759Y-114831658D01*
X-8818143Y-115001645D01*
X-9187479Y-115248427D01*
X-9501573Y-115562521D01*
X-9748355Y-115931857D01*
X-9918342Y-116342241D01*
X-10005000Y-116777902D01*
X-14995000Y-116777902D01*
X-15081658Y-116342241D01*
X-15251645Y-115931857D01*
X-15498427Y-115562521D01*
X-15812521Y-115248427D01*
X-16181857Y-115001645D01*
X-16592241Y-114831658D01*
X-17027902Y-114745000D01*
X-17472098Y-114745000D01*
X-17907759Y-114831658D01*
X-18318143Y-115001645D01*
X-18687479Y-115248427D01*
X-19001573Y-115562521D01*
X-19248355Y-115931857D01*
X-19418342Y-116342241D01*
X-19505000Y-116777902D01*
X-25979105Y-116777902D01*
X-26023989Y-116552257D01*
X-26139701Y-116272905D01*
X-26307688Y-116021495D01*
X-26521495Y-115807688D01*
X-26607831Y-115750000D01*
X-26521495Y-115692312D01*
X-26307688Y-115478505D01*
X-26139701Y-115227095D01*
X-26023989Y-114947743D01*
X-25965000Y-114651184D01*
X-25965000Y-114348816D01*
X-26023989Y-114052257D01*
X-26139701Y-113772905D01*
X-26307688Y-113521495D01*
X-26521495Y-113307688D01*
X-26772905Y-113139701D01*
X-27052257Y-113023989D01*
X-27348816Y-112965000D01*
X-27651184Y-112965000D01*
X-27947743Y-113023989D01*
X-28227095Y-113139701D01*
X-28478505Y-113307688D01*
X-28516120Y-113345303D01*
X-28569463Y-113245506D01*
X-28648815Y-113148815D01*
X-28745506Y-113069463D01*
X-28855820Y-113010498D01*
X-28975518Y-112974188D01*
X-29100000Y-112961928D01*
X-29714250Y-112965000D01*
X-29873000Y-113123750D01*
X-29873000Y-114373000D01*
X-29853000Y-114373000D01*
X-29853000Y-114627000D01*
X-29873000Y-114627000D01*
X-29873000Y-114647000D01*
X-30127000Y-114647000D01*
X-30127000Y-114627000D01*
X-31376250Y-114627000D01*
X-31535000Y-114785750D01*
X-31538072Y-115400000D01*
X-31525812Y-115524482D01*
X-31489502Y-115644180D01*
X-31430537Y-115754494D01*
X-31351185Y-115851185D01*
X-31254494Y-115930537D01*
X-31154697Y-115983880D01*
X-31192312Y-116021495D01*
X-31360299Y-116272905D01*
X-31476011Y-116552257D01*
X-31535000Y-116848816D01*
X-31535000Y-117151184D01*
X-31476011Y-117447743D01*
X-31451974Y-117505773D01*
X-35283010Y-121336810D01*
X-35331658Y-121092241D01*
X-35501645Y-120681857D01*
X-35748427Y-120312521D01*
X-36062521Y-119998427D01*
X-36431857Y-119751645D01*
X-36842241Y-119581658D01*
X-37277902Y-119495000D01*
X-37722098Y-119495000D01*
X-38157759Y-119581658D01*
X-38568143Y-119751645D01*
X-38937479Y-119998427D01*
X-39251573Y-120312521D01*
X-39498355Y-120681857D01*
X-39668342Y-121092241D01*
X-39755000Y-121527902D01*
X-39755000Y-121972098D01*
X-39668342Y-122407759D01*
X-39498355Y-122818143D01*
X-39251573Y-123187479D01*
X-38937479Y-123501573D01*
X-38568143Y-123748355D01*
X-38157759Y-123918342D01*
X-37913189Y-123966990D01*
X-41976553Y-128030354D01*
X-42053740Y-128015000D01*
X-42346260Y-128015000D01*
X-42633158Y-128072068D01*
X-42903411Y-128184010D01*
X-43146632Y-128346525D01*
X-43353475Y-128553368D01*
X-43470000Y-128727760D01*
X-43586525Y-128553368D01*
X-43793368Y-128346525D01*
X-44036589Y-128184010D01*
X-44306842Y-128072068D01*
X-44593740Y-128015000D01*
X-44886260Y-128015000D01*
X-45173158Y-128072068D01*
X-45443411Y-128184010D01*
X-45686632Y-128346525D01*
X-45893475Y-128553368D01*
X-46010000Y-128727760D01*
X-46126525Y-128553368D01*
X-46333368Y-128346525D01*
X-46576589Y-128184010D01*
X-46846842Y-128072068D01*
X-47133740Y-128015000D01*
X-47426260Y-128015000D01*
X-47713158Y-128072068D01*
X-47783849Y-128101349D01*
X-50296216Y-125588983D01*
X-50320019Y-125559979D01*
X-50435744Y-125465006D01*
X-50567773Y-125394434D01*
X-50711034Y-125350977D01*
X-50822687Y-125339980D01*
X-50822698Y-125339980D01*
X-50860020Y-125336304D01*
X-50897342Y-125339980D01*
X-65585218Y-125339980D01*
X-69397296Y-121527902D01*
X-64755000Y-121527902D01*
X-64755000Y-121972098D01*
X-64668342Y-122407759D01*
X-64498355Y-122818143D01*
X-64251573Y-123187479D01*
X-63937479Y-123501573D01*
X-63568143Y-123748355D01*
X-63157759Y-123918342D01*
X-62722098Y-124005000D01*
X-62277902Y-124005000D01*
X-61842241Y-123918342D01*
X-61431857Y-123748355D01*
X-61062521Y-123501573D01*
X-60748427Y-123187479D01*
X-60501645Y-122818143D01*
X-60331658Y-122407759D01*
X-60245000Y-121972098D01*
X-60245000Y-121527902D01*
X-60331658Y-121092241D01*
X-60501645Y-120681857D01*
X-60748427Y-120312521D01*
X-61062521Y-119998427D01*
X-61431857Y-119751645D01*
X-61842241Y-119581658D01*
X-62277902Y-119495000D01*
X-62722098Y-119495000D01*
X-63157759Y-119581658D01*
X-63568143Y-119751645D01*
X-63937479Y-119998427D01*
X-64251573Y-120312521D01*
X-64498355Y-120681857D01*
X-64668342Y-121092241D01*
X-64755000Y-121527902D01*
X-69397296Y-121527902D01*
X-69890199Y-121035000D01*
X-69872998Y-121035000D01*
X-69872998Y-120876252D01*
X-69714250Y-121035000D01*
X-69100000Y-121038072D01*
X-68975518Y-121025812D01*
X-68855820Y-120989502D01*
X-68745506Y-120930537D01*
X-68648815Y-120851185D01*
X-68569463Y-120754494D01*
X-68510498Y-120644180D01*
X-68474188Y-120524482D01*
X-68461928Y-120400000D01*
X-68465000Y-119785750D01*
X-68623750Y-119627000D01*
X-69873000Y-119627000D01*
X-69873000Y-119647000D01*
X-70127000Y-119647000D01*
X-70127000Y-119627000D01*
X-70147000Y-119627000D01*
X-70147000Y-119373000D01*
X-70127000Y-119373000D01*
X-70127000Y-119353000D01*
X-69873000Y-119353000D01*
X-69873000Y-119373000D01*
X-68623750Y-119373000D01*
X-68465000Y-119214250D01*
X-68461928Y-118600000D01*
X-68474188Y-118475518D01*
X-68510498Y-118355820D01*
X-68569463Y-118245506D01*
X-68648815Y-118148815D01*
X-68745506Y-118069463D01*
X-68845303Y-118016120D01*
X-68807688Y-117978505D01*
X-68639701Y-117727095D01*
X-68523989Y-117447743D01*
X-68465000Y-117151184D01*
X-68465000Y-116848816D01*
X-68523989Y-116552257D01*
X-68639701Y-116272905D01*
X-68807688Y-116021495D01*
X-69021495Y-115807688D01*
X-69107831Y-115750000D01*
X-69021495Y-115692312D01*
X-68807688Y-115478505D01*
X-68639701Y-115227095D01*
X-68523989Y-114947743D01*
X-68465000Y-114651184D01*
X-68465000Y-114348816D01*
X-68523989Y-114052257D01*
X-68639701Y-113772905D01*
X-68807688Y-113521495D01*
X-69021495Y-113307688D01*
X-69272905Y-113139701D01*
X-69552257Y-113023989D01*
X-69848816Y-112965000D01*
X-70151184Y-112965000D01*
X-70447743Y-113023989D01*
X-70727095Y-113139701D01*
X-70978505Y-113307688D01*
X-71192312Y-113521495D01*
X-71287738Y-113664310D01*
X-71435920Y-113615525D01*
X-72320395Y-114500000D01*
X-72306253Y-114514143D01*
X-72485858Y-114693748D01*
X-72500000Y-114679605D01*
X-73384475Y-115564080D01*
X-73335690Y-115712262D01*
X-73478505Y-115807688D01*
X-73692312Y-116021495D01*
X-73860299Y-116272905D01*
X-73976011Y-116552257D01*
X-74035000Y-116848816D01*
X-74035000Y-117151184D01*
X-73983731Y-117408930D01*
X-74235998Y-117661197D01*
X-74265002Y-117685000D01*
X-74299548Y-117727095D01*
X-74359975Y-117800725D01*
X-74408912Y-117892279D01*
X-74430547Y-117932755D01*
X-74474004Y-118076016D01*
X-74485001Y-118187669D01*
X-74485001Y-118187679D01*
X-74488677Y-118225001D01*
X-74485001Y-118262324D01*
X-74485000Y-120050669D01*
X-74488677Y-120088001D01*
X-74485000Y-120125334D01*
X-74484050Y-120134974D01*
X-74474003Y-120236986D01*
X-74430547Y-120380247D01*
X-74359975Y-120512277D01*
X-74288800Y-120599003D01*
X-74265001Y-120628002D01*
X-74236003Y-120651800D01*
X-68647805Y-126240000D01*
X-83661687Y-126240000D01*
X-83807688Y-126021495D01*
X-83845303Y-125983880D01*
X-83745506Y-125930537D01*
X-83648815Y-125851185D01*
X-83569463Y-125754494D01*
X-83510498Y-125644180D01*
X-83474188Y-125524482D01*
X-83461928Y-125400000D01*
X-83465000Y-124785750D01*
X-83623750Y-124627000D01*
X-84873000Y-124627000D01*
X-84873000Y-124647000D01*
X-85127000Y-124647000D01*
X-85127000Y-124627000D01*
X-85147000Y-124627000D01*
X-85147000Y-124373000D01*
X-85127000Y-124373000D01*
X-85127000Y-123123750D01*
X-84873000Y-123123750D01*
X-84873000Y-124373000D01*
X-83623750Y-124373000D01*
X-83465000Y-124214250D01*
X-83461928Y-123600000D01*
X-83474188Y-123475518D01*
X-83510498Y-123355820D01*
X-83569463Y-123245506D01*
X-83648815Y-123148815D01*
X-83745506Y-123069463D01*
X-83855820Y-123010498D01*
X-83975518Y-122974188D01*
X-84100000Y-122961928D01*
X-84714250Y-122965000D01*
X-84873000Y-123123750D01*
X-85127000Y-123123750D01*
X-85285750Y-122965000D01*
X-85900000Y-122961928D01*
X-86024482Y-122974188D01*
X-86144180Y-123010498D01*
X-86254494Y-123069463D01*
X-86351185Y-123148815D01*
X-86430537Y-123245506D01*
X-86483880Y-123345303D01*
X-86521495Y-123307688D01*
X-86772905Y-123139701D01*
X-87052257Y-123023989D01*
X-87348816Y-122965000D01*
X-87651184Y-122965000D01*
X-87947743Y-123023989D01*
X-88227095Y-123139701D01*
X-88478505Y-123307688D01*
X-88692312Y-123521495D01*
X-88750000Y-123607831D01*
X-88807688Y-123521495D01*
X-89021495Y-123307688D01*
X-89272905Y-123139701D01*
X-89552257Y-123023989D01*
X-89848816Y-122965000D01*
X-90151184Y-122965000D01*
X-90447743Y-123023989D01*
X-90727095Y-123139701D01*
X-90978505Y-123307688D01*
X-91192312Y-123521495D01*
X-91360299Y-123772905D01*
X-91476011Y-124052257D01*
X-91535000Y-124348816D01*
X-96815000Y-124348816D01*
X-96815000Y-116777902D01*
X-94505000Y-116777902D01*
X-94505000Y-117222098D01*
X-94418342Y-117657759D01*
X-94248355Y-118068143D01*
X-94001573Y-118437479D01*
X-93687479Y-118751573D01*
X-93318143Y-118998355D01*
X-92907759Y-119168342D01*
X-92472098Y-119255000D01*
X-92027902Y-119255000D01*
X-91592241Y-119168342D01*
X-91181857Y-118998355D01*
X-90812521Y-118751573D01*
X-90498427Y-118437479D01*
X-90251645Y-118068143D01*
X-90081658Y-117657759D01*
X-89995000Y-117222098D01*
X-89995000Y-116777902D01*
X-85005000Y-116777902D01*
X-85005000Y-117222098D01*
X-84918342Y-117657759D01*
X-84748355Y-118068143D01*
X-84501573Y-118437479D01*
X-84187479Y-118751573D01*
X-83818143Y-118998355D01*
X-83407759Y-119168342D01*
X-82972098Y-119255000D01*
X-82527902Y-119255000D01*
X-82092241Y-119168342D01*
X-81681857Y-118998355D01*
X-81312521Y-118751573D01*
X-80998427Y-118437479D01*
X-80751645Y-118068143D01*
X-80581658Y-117657759D01*
X-80495000Y-117222098D01*
X-80495000Y-116777902D01*
X-80581658Y-116342241D01*
X-80751645Y-115931857D01*
X-80998427Y-115562521D01*
X-81312521Y-115248427D01*
X-81681857Y-115001645D01*
X-82092241Y-114831658D01*
X-82527902Y-114745000D01*
X-82972098Y-114745000D01*
X-83407759Y-114831658D01*
X-83818143Y-115001645D01*
X-84187479Y-115248427D01*
X-84501573Y-115562521D01*
X-84748355Y-115931857D01*
X-84918342Y-116342241D01*
X-85005000Y-116777902D01*
X-89995000Y-116777902D01*
X-90081658Y-116342241D01*
X-90251645Y-115931857D01*
X-90498427Y-115562521D01*
X-90812521Y-115248427D01*
X-91181857Y-115001645D01*
X-91592241Y-114831658D01*
X-92027902Y-114745000D01*
X-92472098Y-114745000D01*
X-92907759Y-114831658D01*
X-93318143Y-115001645D01*
X-93687479Y-115248427D01*
X-94001573Y-115562521D01*
X-94248355Y-115931857D01*
X-94418342Y-116342241D01*
X-94505000Y-116777902D01*
X-96815000Y-116777902D01*
X-96815000Y-114566553D01*
X-74040991Y-114566553D01*
X-73998397Y-114865907D01*
X-73898222Y-115151199D01*
X-73818261Y-115300792D01*
X-73564080Y-115384475D01*
X-72679605Y-114500000D01*
X-73564080Y-113615525D01*
X-73818261Y-113699208D01*
X-73949158Y-113971775D01*
X-74024365Y-114264642D01*
X-74040991Y-114566553D01*
X-96815000Y-114566553D01*
X-96815000Y-113435920D01*
X-73384475Y-113435920D01*
X-72500000Y-114320395D01*
X-71615525Y-113435920D01*
X-71699208Y-113181739D01*
X-71971775Y-113050842D01*
X-72264642Y-112975635D01*
X-72566553Y-112959009D01*
X-72865907Y-113001603D01*
X-73151199Y-113101778D01*
X-73300792Y-113181739D01*
X-73384475Y-113435920D01*
X-96815000Y-113435920D01*
X-96815000Y-110685000D01*
X-64124052Y-110685000D01*
X-64251573Y-110812521D01*
%TA.AperFunction,Conductor*%
D17*
G36*
X-64251573Y-110812521D02*
G01*
X-64498355Y-111181857D01*
X-64668342Y-111592241D01*
X-64755000Y-112027902D01*
X-64755000Y-112472098D01*
X-64668342Y-112907759D01*
X-64498355Y-113318143D01*
X-64251573Y-113687479D01*
X-63937479Y-114001573D01*
X-63568143Y-114248355D01*
X-63157759Y-114418342D01*
X-62722098Y-114505000D01*
X-62277902Y-114505000D01*
X-61842241Y-114418342D01*
X-61431857Y-114248355D01*
X-61062521Y-114001573D01*
X-60748427Y-113687479D01*
X-60501645Y-113318143D01*
X-60331658Y-112907759D01*
X-60245000Y-112472098D01*
X-60245000Y-112027902D01*
X-60331658Y-111592241D01*
X-60501645Y-111181857D01*
X-60748427Y-110812521D01*
X-60875948Y-110685000D01*
X-39124052Y-110685000D01*
X-39251573Y-110812521D01*
X-39498355Y-111181857D01*
X-39668342Y-111592241D01*
X-39755000Y-112027902D01*
X-39755000Y-112472098D01*
X-39668342Y-112907759D01*
X-39498355Y-113318143D01*
X-39251573Y-113687479D01*
X-38937479Y-114001573D01*
X-38568143Y-114248355D01*
X-38157759Y-114418342D01*
X-37722098Y-114505000D01*
X-37277902Y-114505000D01*
X-36842241Y-114418342D01*
X-36431857Y-114248355D01*
X-36062521Y-114001573D01*
X-35748427Y-113687479D01*
X-35689976Y-113600000D01*
X-31538072Y-113600000D01*
X-31535000Y-114214250D01*
X-31376250Y-114373000D01*
X-30127000Y-114373000D01*
X-30127000Y-113123750D01*
X-30285750Y-112965000D01*
X-30900000Y-112961928D01*
X-31024482Y-112974188D01*
X-31144180Y-113010498D01*
X-31254494Y-113069463D01*
X-31351185Y-113148815D01*
X-31430537Y-113245506D01*
X-31489502Y-113355820D01*
X-31525812Y-113475518D01*
X-31538072Y-113600000D01*
X-35689976Y-113600000D01*
X-35501645Y-113318143D01*
X-35331658Y-112907759D01*
X-35245000Y-112472098D01*
X-35245000Y-112027902D01*
X-35331658Y-111592241D01*
X-35501645Y-111181857D01*
X-35748427Y-110812521D01*
X-35875948Y-110685000D01*
X-3185000Y-110685000D01*
X-3184999Y-136815000D01*
X-52466353Y-136815000D01*
X-52500000Y-136811686D01*
X-52533647Y-136815000D01*
X-52634283Y-136824912D01*
X-52763406Y-136864081D01*
X-52882407Y-136927688D01*
X-52986711Y-137013289D01*
X-53072312Y-137117593D01*
X-53135919Y-137236594D01*
X-53175088Y-137365717D01*
X-53188314Y-137500000D01*
X-53185000Y-137533646D01*
X-53184999Y-159315000D01*
X-71815000Y-159315000D01*
X-71815000Y-149777902D01*
X-69505000Y-149777902D01*
X-69505000Y-150222098D01*
X-69418342Y-150657759D01*
X-69248355Y-151068143D01*
X-69001573Y-151437479D01*
X-68687479Y-151751573D01*
X-68318143Y-151998355D01*
X-67907759Y-152168342D01*
X-67472098Y-152255000D01*
X-67027902Y-152255000D01*
X-66592241Y-152168342D01*
X-66181857Y-151998355D01*
X-65812521Y-151751573D01*
X-65498427Y-151437479D01*
X-65251645Y-151068143D01*
X-65081658Y-150657759D01*
X-64995000Y-150222098D01*
X-64995000Y-149777902D01*
X-60005000Y-149777902D01*
X-60005000Y-150222098D01*
X-59918342Y-150657759D01*
X-59748355Y-151068143D01*
X-59501573Y-151437479D01*
X-59187479Y-151751573D01*
X-58818143Y-151998355D01*
X-58407759Y-152168342D01*
X-57972098Y-152255000D01*
X-57527902Y-152255000D01*
X-57092241Y-152168342D01*
X-56681857Y-151998355D01*
X-56312521Y-151751573D01*
X-55998427Y-151437479D01*
X-55751645Y-151068143D01*
X-55581658Y-150657759D01*
X-55495000Y-150222098D01*
X-55495000Y-149777902D01*
X-55581658Y-149342241D01*
X-55751645Y-148931857D01*
X-55998427Y-148562521D01*
X-56312521Y-148248427D01*
X-56681857Y-148001645D01*
X-57092241Y-147831658D01*
X-57527902Y-147745000D01*
X-57972098Y-147745000D01*
X-58407759Y-147831658D01*
X-58818143Y-148001645D01*
X-59187479Y-148248427D01*
X-59501573Y-148562521D01*
X-59748355Y-148931857D01*
X-59918342Y-149342241D01*
X-60005000Y-149777902D01*
X-64995000Y-149777902D01*
X-65081658Y-149342241D01*
X-65251645Y-148931857D01*
X-65498427Y-148562521D01*
X-65812521Y-148248427D01*
X-66181857Y-148001645D01*
X-66592241Y-147831658D01*
X-67027902Y-147745000D01*
X-67472098Y-147745000D01*
X-67907759Y-147831658D01*
X-68318143Y-148001645D01*
X-68687479Y-148248427D01*
X-69001573Y-148562521D01*
X-69248355Y-148931857D01*
X-69418342Y-149342241D01*
X-69505000Y-149777902D01*
X-71815000Y-149777902D01*
X-71815000Y-143400000D01*
X-66538072Y-143400000D01*
X-66525812Y-143524482D01*
X-66489502Y-143644180D01*
X-66430537Y-143754494D01*
X-66351185Y-143851185D01*
X-66254494Y-143930537D01*
X-66144180Y-143989502D01*
X-66024482Y-144025812D01*
X-65900000Y-144038072D01*
X-65285750Y-144035000D01*
X-65127000Y-143876250D01*
X-65127000Y-142627000D01*
X-66376250Y-142627000D01*
X-66535000Y-142785750D01*
X-66538072Y-143400000D01*
X-71815000Y-143400000D01*
X-71815000Y-137533646D01*
X-71811686Y-137500000D01*
X-71824912Y-137365717D01*
X-71864081Y-137236594D01*
X-71927688Y-137117593D01*
X-72013289Y-137013289D01*
X-72117593Y-136927688D01*
X-72236594Y-136864081D01*
X-72365717Y-136824912D01*
X-72466353Y-136815000D01*
X-72500000Y-136811686D01*
X-72533647Y-136815000D01*
X-96815000Y-136815000D01*
X-96815000Y-134279872D01*
X-96735000Y-134279872D01*
X-96735000Y-134720128D01*
X-96649110Y-135151925D01*
X-96480631Y-135558669D01*
X-96236038Y-135924729D01*
X-95924729Y-136236038D01*
X-95558669Y-136480631D01*
X-95151925Y-136649110D01*
X-94720128Y-136735000D01*
X-94279872Y-136735000D01*
X-93848075Y-136649110D01*
X-93441331Y-136480631D01*
X-93075271Y-136236038D01*
X-92763962Y-135924729D01*
X-92519369Y-135558669D01*
X-92350890Y-135151925D01*
X-92265000Y-134720128D01*
X-92265000Y-134279872D01*
X-92350890Y-133848075D01*
X-92519369Y-133441331D01*
X-92763962Y-133075271D01*
X-93075271Y-132763962D01*
X-93441331Y-132519369D01*
X-93848075Y-132350890D01*
X-94279872Y-132265000D01*
X-94720128Y-132265000D01*
X-95151925Y-132350890D01*
X-95558669Y-132519369D01*
X-95924729Y-132763962D01*
X-96236038Y-133075271D01*
X-96480631Y-133441331D01*
X-96649110Y-133848075D01*
X-96735000Y-134279872D01*
X-96815000Y-134279872D01*
X-96815000Y-128064080D01*
X-90884475Y-128064080D01*
X-90800792Y-128318261D01*
X-90528225Y-128449158D01*
X-90235358Y-128524365D01*
X-89933447Y-128540991D01*
X-89634093Y-128498397D01*
X-89348801Y-128398222D01*
X-89199208Y-128318261D01*
X-89115525Y-128064080D01*
X-90000000Y-127179605D01*
X-90884475Y-128064080D01*
X-96815000Y-128064080D01*
X-96815000Y-127066553D01*
X-91540991Y-127066553D01*
X-91498397Y-127365907D01*
X-91398222Y-127651199D01*
X-91318261Y-127800792D01*
X-91064080Y-127884475D01*
X-90179605Y-127000000D01*
X-91064080Y-126115525D01*
X-91318261Y-126199208D01*
X-91449158Y-126471775D01*
X-91524365Y-126764642D01*
X-91540991Y-127066553D01*
X-96815000Y-127066553D01*
X-96815000Y-124348816D01*
X-91535000Y-124348816D01*
X-91535000Y-124651184D01*
X-91476011Y-124947743D01*
X-91360299Y-125227095D01*
X-91192312Y-125478505D01*
X-90978505Y-125692312D01*
X-90835690Y-125787738D01*
X-90884475Y-125935920D01*
X-90000000Y-126820395D01*
X-89985858Y-126806253D01*
X-89806253Y-126985858D01*
X-89820395Y-127000000D01*
X-88935920Y-127884475D01*
X-88787738Y-127835690D01*
X-88692312Y-127978505D01*
X-88478505Y-128192312D01*
X-88227095Y-128360299D01*
X-87947743Y-128476011D01*
X-87651184Y-128535000D01*
X-87348816Y-128535000D01*
X-87091070Y-128483731D01*
X-86838799Y-128736003D01*
X-86815000Y-128765002D01*
X-86786002Y-128788800D01*
X-86699276Y-128859975D01*
X-86567246Y-128930547D01*
X-86423985Y-128974004D01*
X-86312332Y-128985001D01*
X-86312323Y-128985001D01*
X-86275000Y-128988677D01*
X-86237677Y-128985001D01*
X-71534032Y-128985001D01*
X-71567932Y-129066842D01*
X-71625000Y-129353740D01*
X-71625000Y-129646260D01*
X-71567932Y-129933158D01*
X-71455990Y-130203411D01*
X-71293475Y-130446632D01*
X-71086632Y-130653475D01*
X-70900000Y-130778179D01*
X-70899999Y-132322668D01*
X-70903676Y-132360000D01*
X-70889002Y-132508985D01*
X-70845546Y-132652246D01*
X-70774974Y-132784276D01*
X-70742146Y-132824276D01*
X-70680000Y-132900001D01*
X-70651002Y-132923799D01*
X-65109659Y-138465142D01*
X-65365907Y-138501603D01*
X-65651199Y-138601778D01*
X-65800792Y-138681739D01*
X-65884475Y-138935920D01*
X-65000000Y-139820395D01*
X-64985858Y-139806253D01*
X-64806253Y-139985858D01*
X-64820395Y-140000000D01*
X-64806253Y-140014143D01*
X-64985858Y-140193748D01*
X-65000000Y-140179605D01*
X-65014143Y-140193748D01*
X-65193748Y-140014143D01*
X-65179605Y-140000000D01*
X-66064080Y-139115525D01*
X-66318261Y-139199208D01*
X-66449158Y-139471775D01*
X-66524365Y-139764642D01*
X-66540991Y-140066553D01*
X-66498397Y-140365907D01*
X-66398222Y-140651199D01*
X-66318261Y-140800792D01*
X-66064082Y-140884474D01*
X-66180030Y-141000422D01*
X-66160976Y-141019476D01*
X-66254494Y-141069463D01*
X-66351185Y-141148815D01*
X-66430537Y-141245506D01*
X-66489502Y-141355820D01*
X-66525812Y-141475518D01*
X-66538072Y-141600000D01*
X-66535000Y-142214250D01*
X-66376250Y-142373000D01*
X-65127000Y-142373000D01*
X-65127000Y-142353000D01*
X-64873000Y-142353000D01*
X-64873000Y-142373000D01*
X-64853000Y-142373000D01*
X-64853000Y-142627000D01*
X-64873000Y-142627000D01*
X-64873000Y-143876250D01*
X-64714250Y-144035000D01*
X-64100000Y-144038072D01*
X-63975518Y-144025812D01*
X-63855820Y-143989502D01*
X-63745506Y-143930537D01*
X-63648815Y-143851185D01*
X-63569463Y-143754494D01*
X-63516120Y-143654697D01*
X-63478505Y-143692312D01*
X-63227095Y-143860299D01*
X-62947743Y-143976011D01*
X-62651184Y-144035000D01*
X-62348816Y-144035000D01*
X-62052257Y-143976011D01*
X-61772905Y-143860299D01*
X-61521495Y-143692312D01*
X-61307688Y-143478505D01*
X-61250000Y-143392169D01*
X-61192312Y-143478505D01*
X-60978505Y-143692312D01*
X-60727095Y-143860299D01*
X-60447743Y-143976011D01*
X-60151184Y-144035000D01*
X-59848816Y-144035000D01*
X-59552257Y-143976011D01*
X-59272905Y-143860299D01*
X-59021495Y-143692312D01*
X-58807688Y-143478505D01*
X-58639701Y-143227095D01*
X-58523989Y-142947743D01*
X-58465000Y-142651184D01*
X-58465000Y-142348816D01*
X-58523989Y-142052257D01*
X-58639701Y-141772905D01*
X-58807688Y-141521495D01*
X-59021495Y-141307688D01*
X-59107831Y-141250000D01*
X-59021495Y-141192312D01*
X-58807688Y-140978505D01*
X-58639701Y-140727095D01*
X-58523989Y-140447743D01*
X-58465000Y-140151184D01*
X-58465000Y-139848816D01*
X-58523989Y-139552257D01*
X-58639701Y-139272905D01*
X-58807688Y-139021495D01*
X-59021495Y-138807688D01*
X-59272905Y-138639701D01*
X-59552257Y-138523989D01*
X-59848816Y-138465000D01*
X-60151184Y-138465000D01*
X-60408930Y-138516269D01*
X-64645327Y-134279872D01*
X-7735000Y-134279872D01*
X-7735000Y-134720128D01*
X-7649110Y-135151925D01*
X-7480631Y-135558669D01*
X-7236038Y-135924729D01*
X-6924729Y-136236038D01*
X-6558669Y-136480631D01*
X-6151925Y-136649110D01*
X-5720128Y-136735000D01*
X-5279872Y-136735000D01*
X-4848075Y-136649110D01*
X-4441331Y-136480631D01*
X-4075271Y-136236038D01*
X-3763962Y-135924729D01*
X-3519369Y-135558669D01*
X-3350890Y-135151925D01*
X-3265000Y-134720128D01*
X-3265000Y-134279872D01*
X-3350890Y-133848075D01*
X-3519369Y-133441331D01*
X-3763962Y-133075271D01*
X-4075271Y-132763962D01*
X-4441331Y-132519369D01*
X-4848075Y-132350890D01*
X-5279872Y-132265000D01*
X-5720128Y-132265000D01*
X-6151925Y-132350890D01*
X-6558669Y-132519369D01*
X-6924729Y-132763962D01*
X-7236038Y-133075271D01*
X-7480631Y-133441331D01*
X-7649110Y-133848075D01*
X-7735000Y-134279872D01*
X-64645327Y-134279872D01*
X-66840000Y-132085199D01*
X-66840000Y-130778178D01*
X-66653368Y-130653475D01*
X-66446525Y-130446632D01*
X-66330000Y-130272240D01*
X-66213475Y-130446632D01*
X-66006632Y-130653475D01*
X-65763411Y-130815990D01*
X-65493158Y-130927932D01*
X-65206260Y-130985000D01*
X-64913740Y-130985000D01*
X-64626842Y-130927932D01*
X-64356589Y-130815990D01*
X-64113368Y-130653475D01*
X-63906525Y-130446632D01*
X-63790000Y-130272240D01*
X-63673475Y-130446632D01*
X-63466632Y-130653475D01*
X-63223411Y-130815990D01*
X-62953158Y-130927932D01*
X-62666260Y-130985000D01*
X-62373740Y-130985000D01*
X-62086842Y-130927932D01*
X-61816589Y-130815990D01*
X-61573368Y-130653475D01*
X-61366525Y-130446632D01*
X-61250000Y-130272240D01*
X-61133475Y-130446632D01*
X-60926632Y-130653475D01*
X-60683411Y-130815990D01*
X-60413158Y-130927932D01*
X-60126260Y-130985000D01*
X-59833740Y-130985000D01*
X-59546842Y-130927932D01*
X-59276589Y-130815990D01*
X-59033368Y-130653475D01*
X-58826525Y-130446632D01*
X-58710000Y-130272240D01*
X-58593475Y-130446632D01*
X-58386632Y-130653475D01*
X-58143411Y-130815990D01*
X-57873158Y-130927932D01*
X-57586260Y-130985000D01*
X-57293740Y-130985000D01*
X-57006842Y-130927932D01*
X-56736589Y-130815990D01*
X-56493368Y-130653475D01*
X-56286525Y-130446632D01*
X-56170000Y-130272240D01*
X-56053475Y-130446632D01*
X-55846632Y-130653475D01*
X-55603411Y-130815990D01*
X-55333158Y-130927932D01*
X-55046260Y-130985000D01*
X-54753740Y-130985000D01*
X-54466842Y-130927932D01*
X-54196589Y-130815990D01*
X-53953368Y-130653475D01*
X-53746525Y-130446632D01*
X-53630000Y-130272240D01*
X-53513475Y-130446632D01*
X-53306632Y-130653475D01*
X-53063411Y-130815990D01*
X-52793158Y-130927932D01*
X-52506260Y-130985000D01*
X-52213740Y-130985000D01*
X-51926842Y-130927932D01*
X-51656589Y-130815990D01*
X-51413368Y-130653475D01*
X-51206525Y-130446632D01*
X-51090000Y-130272240D01*
X-50973475Y-130446632D01*
X-50766632Y-130653475D01*
X-50523411Y-130815990D01*
X-50253158Y-130927932D01*
X-49966260Y-130985000D01*
X-49673740Y-130985000D01*
X-49386842Y-130927932D01*
X-49116589Y-130815990D01*
X-48873368Y-130653475D01*
X-48666525Y-130446632D01*
X-48550000Y-130272240D01*
X-48433475Y-130446632D01*
X-48226632Y-130653475D01*
X-47983411Y-130815990D01*
X-47713158Y-130927932D01*
X-47426260Y-130985000D01*
X-47133740Y-130985000D01*
X-46846842Y-130927932D01*
X-46576589Y-130815990D01*
X-46333368Y-130653475D01*
X-46126525Y-130446632D01*
X-46010000Y-130272240D01*
X-45893475Y-130446632D01*
X-45686632Y-130653475D01*
X-45443411Y-130815990D01*
X-45173158Y-130927932D01*
X-44886260Y-130985000D01*
X-44593740Y-130985000D01*
X-44306842Y-130927932D01*
X-44036589Y-130815990D01*
X-43793368Y-130653475D01*
X-43586525Y-130446632D01*
X-43470000Y-130272240D01*
X-43353475Y-130446632D01*
X-43146632Y-130653475D01*
X-42903411Y-130815990D01*
X-42633158Y-130927932D01*
X-42346260Y-130985000D01*
X-42053740Y-130985000D01*
X-41766842Y-130927932D01*
X-41496589Y-130815990D01*
X-41253368Y-130653475D01*
X-41046525Y-130446632D01*
X-40930000Y-130272240D01*
X-40813475Y-130446632D01*
X-40606632Y-130653475D01*
X-40363411Y-130815990D01*
X-40093158Y-130927932D01*
X-39806260Y-130985000D01*
X-39513740Y-130985000D01*
X-39226842Y-130927932D01*
X-38956589Y-130815990D01*
X-38713368Y-130653475D01*
X-38506525Y-130446632D01*
X-38390000Y-130272240D01*
X-38273475Y-130446632D01*
X-38066632Y-130653475D01*
X-37823411Y-130815990D01*
X-37553158Y-130927932D01*
X-37266260Y-130985000D01*
X-36973740Y-130985000D01*
X-36686842Y-130927932D01*
X-36416589Y-130815990D01*
X-36173368Y-130653475D01*
X-35966525Y-130446632D01*
X-35850000Y-130272240D01*
X-35733475Y-130446632D01*
X-35526632Y-130653475D01*
X-35283411Y-130815990D01*
X-35013158Y-130927932D01*
X-34726260Y-130985000D01*
X-34433740Y-130985000D01*
X-34146842Y-130927932D01*
X-33876589Y-130815990D01*
X-33633368Y-130653475D01*
X-33426525Y-130446632D01*
X-33310000Y-130272240D01*
X-33193475Y-130446632D01*
X-32986632Y-130653475D01*
X-32743411Y-130815990D01*
X-32473158Y-130927932D01*
X-32186260Y-130985000D01*
X-31893740Y-130985000D01*
X-31606842Y-130927932D01*
X-31336589Y-130815990D01*
X-31093368Y-130653475D01*
X-30961513Y-130521620D01*
X-30939502Y-130594180D01*
X-30880537Y-130704494D01*
X-30801185Y-130801185D01*
X-30704494Y-130880537D01*
X-30594180Y-130939502D01*
X-30474482Y-130975812D01*
X-30350000Y-130988072D01*
X-29785750Y-130985000D01*
X-29627000Y-130826250D01*
X-29627000Y-129627000D01*
X-29373000Y-129627000D01*
X-29373000Y-130826250D01*
X-29214250Y-130985000D01*
X-28650000Y-130988072D01*
X-28525518Y-130975812D01*
X-28405820Y-130939502D01*
X-28295506Y-130880537D01*
X-28198815Y-130801185D01*
X-28119463Y-130704494D01*
X-28060498Y-130594180D01*
X-28024188Y-130474482D01*
X-28011928Y-130350000D01*
X-28015000Y-129785750D01*
X-28173750Y-129627000D01*
X-29373000Y-129627000D01*
X-29627000Y-129627000D01*
X-29647000Y-129627000D01*
X-29647000Y-129373000D01*
X-29627000Y-129373000D01*
X-29627000Y-128173750D01*
X-29373000Y-128173750D01*
X-29373000Y-129373000D01*
X-28173750Y-129373000D01*
X-28015000Y-129214250D01*
X-28011928Y-128650000D01*
X-28024188Y-128525518D01*
X-28060498Y-128405820D01*
X-28119463Y-128295506D01*
X-28198815Y-128198815D01*
X-28295506Y-128119463D01*
X-28399118Y-128064080D01*
X-15884475Y-128064080D01*
X-15800792Y-128318261D01*
X-15528225Y-128449158D01*
X-15235358Y-128524365D01*
X-14933447Y-128540991D01*
X-14634093Y-128498397D01*
X-14348801Y-128398222D01*
X-14199208Y-128318261D01*
X-14115525Y-128064080D01*
X-15000000Y-127179605D01*
X-15884475Y-128064080D01*
X-28399118Y-128064080D01*
X-28405820Y-128060498D01*
X-28525518Y-128024188D01*
X-28650000Y-128011928D01*
X-29214250Y-128015000D01*
X-29373000Y-128173750D01*
X-29627000Y-128173750D01*
X-29722974Y-128077776D01*
X-28711751Y-127066553D01*
X-16540991Y-127066553D01*
X-16498397Y-127365907D01*
X-16398222Y-127651199D01*
X-16318261Y-127800792D01*
X-16064080Y-127884475D01*
X-15179605Y-127000000D01*
X-16064080Y-126115525D01*
X-16318261Y-126199208D01*
X-16449158Y-126471775D01*
X-16524365Y-126764642D01*
X-16540991Y-127066553D01*
X-28711751Y-127066553D01*
X-26905198Y-125260000D01*
X-16338313Y-125260000D01*
X-16192312Y-125478505D01*
X-15978505Y-125692312D01*
X-15835690Y-125787738D01*
X-15884475Y-125935920D01*
X-15000000Y-126820395D01*
X-14985858Y-126806253D01*
X-14806253Y-126985858D01*
X-14820395Y-127000000D01*
X-13935920Y-127884475D01*
X-13787738Y-127835690D01*
X-13692312Y-127978505D01*
X-13478505Y-128192312D01*
X-13227095Y-128360299D01*
X-12947743Y-128476011D01*
X-12651184Y-128535000D01*
X-12348816Y-128535000D01*
X-12052257Y-128476011D01*
X-11772905Y-128360299D01*
X-11521495Y-128192312D01*
X-11307688Y-127978505D01*
X-11250000Y-127892169D01*
X-11192312Y-127978505D01*
X-10978505Y-128192312D01*
X-10727095Y-128360299D01*
X-10447743Y-128476011D01*
X-10151184Y-128535000D01*
X-9848816Y-128535000D01*
X-9552257Y-128476011D01*
X-9272905Y-128360299D01*
X-9021495Y-128192312D01*
X-8807688Y-127978505D01*
X-8639701Y-127727095D01*
X-8523989Y-127447743D01*
X-8465000Y-127151184D01*
X-8465000Y-126848816D01*
X-8523989Y-126552257D01*
X-8639701Y-126272905D01*
X-8807688Y-126021495D01*
X-8845303Y-125983880D01*
X-8745506Y-125930537D01*
X-8648815Y-125851185D01*
X-8569463Y-125754494D01*
X-8510498Y-125644180D01*
X-8474188Y-125524482D01*
X-8461928Y-125400000D01*
X-8465000Y-124785750D01*
X-8623750Y-124627000D01*
X-9873000Y-124627000D01*
X-9873000Y-124647000D01*
X-10127000Y-124647000D01*
X-10127000Y-124627000D01*
X-10147000Y-124627000D01*
X-10147000Y-124373000D01*
X-10127000Y-124373000D01*
X-10127000Y-123123750D01*
X-9873000Y-123123750D01*
X-9873000Y-124373000D01*
X-8623750Y-124373000D01*
X-8465000Y-124214250D01*
X-8461928Y-123600000D01*
X-8474188Y-123475518D01*
X-8510498Y-123355820D01*
X-8569463Y-123245506D01*
X-8648815Y-123148815D01*
X-8745506Y-123069463D01*
X-8855820Y-123010498D01*
X-8975518Y-122974188D01*
X-9100000Y-122961928D01*
X-9714250Y-122965000D01*
X-9873000Y-123123750D01*
X-10127000Y-123123750D01*
X-10285750Y-122965000D01*
X-10900000Y-122961928D01*
X-11024482Y-122974188D01*
X-11144180Y-123010498D01*
X-11254494Y-123069463D01*
X-11351185Y-123148815D01*
X-11430537Y-123245506D01*
X-11483880Y-123345303D01*
X-11521495Y-123307688D01*
X-11772905Y-123139701D01*
X-12052257Y-123023989D01*
X-12348816Y-122965000D01*
X-12651184Y-122965000D01*
X-12908930Y-123016269D01*
X-13161197Y-122764002D01*
X-13185000Y-122734998D01*
X-13300725Y-122640025D01*
X-13432754Y-122569453D01*
X-13576015Y-122525996D01*
X-13687668Y-122514999D01*
X-13687679Y-122514999D01*
X-13725001Y-122511323D01*
X-13762323Y-122514999D01*
X-28497677Y-122514999D01*
X-28535000Y-122511323D01*
X-28572323Y-122514999D01*
X-28572332Y-122514999D01*
X-28683985Y-122525996D01*
X-28827246Y-122569453D01*
X-28959275Y-122640025D01*
X-28959277Y-122640026D01*
X-28959276Y-122640026D01*
X-29046003Y-122711200D01*
X-29046007Y-122711204D01*
X-29075000Y-122734998D01*
X-29098794Y-122763991D01*
X-34363728Y-128028926D01*
X-34433740Y-128015000D01*
X-34726260Y-128015000D01*
X-35013158Y-128072068D01*
X-35283411Y-128184010D01*
X-35526632Y-128346525D01*
X-35733475Y-128553368D01*
X-35850000Y-128727760D01*
X-35966525Y-128553368D01*
X-36173368Y-128346525D01*
X-36416589Y-128184010D01*
X-36686842Y-128072068D01*
X-36973740Y-128015000D01*
X-37266260Y-128015000D01*
X-37483389Y-128058190D01*
X-30408930Y-120983731D01*
X-30151184Y-121035000D01*
X-29848816Y-121035000D01*
X-29552257Y-120976011D01*
X-29272905Y-120860299D01*
X-29021495Y-120692312D01*
X-28893263Y-120564080D01*
X-28384475Y-120564080D01*
X-28300792Y-120818261D01*
X-28028225Y-120949158D01*
X-27735358Y-121024365D01*
X-27433447Y-121040991D01*
X-27134093Y-120998397D01*
X-26848801Y-120898222D01*
X-26699208Y-120818261D01*
X-26615525Y-120564080D01*
X-27500000Y-119679605D01*
X-28384475Y-120564080D01*
X-28893263Y-120564080D01*
X-28807688Y-120478505D01*
X-28712262Y-120335690D01*
X-28564080Y-120384475D01*
X-27679605Y-119500000D01*
X-27320395Y-119500000D01*
X-26435920Y-120384475D01*
X-26181739Y-120300792D01*
X-26050842Y-120028225D01*
X-25975635Y-119735358D01*
X-25959009Y-119433447D01*
X-26001603Y-119134093D01*
X-26101778Y-118848801D01*
X-26181739Y-118699208D01*
X-26435920Y-118615525D01*
X-27320395Y-119500000D01*
X-27679605Y-119500000D01*
X-27693748Y-119485858D01*
X-27514143Y-119306253D01*
X-27500000Y-119320395D01*
X-26615525Y-118435920D01*
X-26664310Y-118287738D01*
X-26521495Y-118192312D01*
X-26307688Y-117978505D01*
X-26139701Y-117727095D01*
X-26023989Y-117447743D01*
X-25965000Y-117151184D01*
X-25965000Y-116848816D01*
X-25979105Y-116777902D01*
X-19505000Y-116777902D01*
X-19505000Y-117222098D01*
X-19418342Y-117657759D01*
X-19248355Y-118068143D01*
X-19001573Y-118437479D01*
X-18687479Y-118751573D01*
X-18318143Y-118998355D01*
X-17907759Y-119168342D01*
X-17472098Y-119255000D01*
X-17027902Y-119255000D01*
X-16592241Y-119168342D01*
X-16181857Y-118998355D01*
X-15812521Y-118751573D01*
X-15498427Y-118437479D01*
X-15251645Y-118068143D01*
X-15081658Y-117657759D01*
X-14995000Y-117222098D01*
X-14995000Y-116777902D01*
X-10005000Y-116777902D01*
X-10005000Y-117222098D01*
X-9918342Y-117657759D01*
X-9748355Y-118068143D01*
X-9501573Y-118437479D01*
X-9187479Y-118751573D01*
X-8818143Y-118998355D01*
X-8407759Y-119168342D01*
X-7972098Y-119255000D01*
X-7527902Y-119255000D01*
X-7092241Y-119168342D01*
X-6681857Y-118998355D01*
X-6312521Y-118751573D01*
X-5998427Y-118437479D01*
X-5751645Y-118068143D01*
X-5581658Y-117657759D01*
X-5495000Y-117222098D01*
X-5495000Y-116777902D01*
X-5581658Y-116342241D01*
X-5751645Y-115931857D01*
X-5998427Y-115562521D01*
X-6312521Y-115248427D01*
X-6681857Y-115001645D01*
X-7092241Y-114831658D01*
X-7527902Y-114745000D01*
X-7972098Y-114745000D01*
X-8407759Y-114831658D01*
X-8818143Y-115001645D01*
X-9187479Y-115248427D01*
X-9501573Y-115562521D01*
X-9748355Y-115931857D01*
X-9918342Y-116342241D01*
X-10005000Y-116777902D01*
X-14995000Y-116777902D01*
X-15081658Y-116342241D01*
X-15251645Y-115931857D01*
X-15498427Y-115562521D01*
X-15812521Y-115248427D01*
X-16181857Y-115001645D01*
X-16592241Y-114831658D01*
X-17027902Y-114745000D01*
X-17472098Y-114745000D01*
X-17907759Y-114831658D01*
X-18318143Y-115001645D01*
X-18687479Y-115248427D01*
X-19001573Y-115562521D01*
X-19248355Y-115931857D01*
X-19418342Y-116342241D01*
X-19505000Y-116777902D01*
X-25979105Y-116777902D01*
X-26023989Y-116552257D01*
X-26139701Y-116272905D01*
X-26307688Y-116021495D01*
X-26521495Y-115807688D01*
X-26607831Y-115750000D01*
X-26521495Y-115692312D01*
X-26307688Y-115478505D01*
X-26139701Y-115227095D01*
X-26023989Y-114947743D01*
X-25965000Y-114651184D01*
X-25965000Y-114348816D01*
X-26023989Y-114052257D01*
X-26139701Y-113772905D01*
X-26307688Y-113521495D01*
X-26521495Y-113307688D01*
X-26772905Y-113139701D01*
X-27052257Y-113023989D01*
X-27348816Y-112965000D01*
X-27651184Y-112965000D01*
X-27947743Y-113023989D01*
X-28227095Y-113139701D01*
X-28478505Y-113307688D01*
X-28516120Y-113345303D01*
X-28569463Y-113245506D01*
X-28648815Y-113148815D01*
X-28745506Y-113069463D01*
X-28855820Y-113010498D01*
X-28975518Y-112974188D01*
X-29100000Y-112961928D01*
X-29714250Y-112965000D01*
X-29873000Y-113123750D01*
X-29873000Y-114373000D01*
X-29853000Y-114373000D01*
X-29853000Y-114627000D01*
X-29873000Y-114627000D01*
X-29873000Y-114647000D01*
X-30127000Y-114647000D01*
X-30127000Y-114627000D01*
X-31376250Y-114627000D01*
X-31535000Y-114785750D01*
X-31538072Y-115400000D01*
X-31525812Y-115524482D01*
X-31489502Y-115644180D01*
X-31430537Y-115754494D01*
X-31351185Y-115851185D01*
X-31254494Y-115930537D01*
X-31154697Y-115983880D01*
X-31192312Y-116021495D01*
X-31360299Y-116272905D01*
X-31476011Y-116552257D01*
X-31535000Y-116848816D01*
X-31535000Y-117151184D01*
X-31476011Y-117447743D01*
X-31451974Y-117505773D01*
X-35283010Y-121336810D01*
X-35331658Y-121092241D01*
X-35501645Y-120681857D01*
X-35748427Y-120312521D01*
X-36062521Y-119998427D01*
X-36431857Y-119751645D01*
X-36842241Y-119581658D01*
X-37277902Y-119495000D01*
X-37722098Y-119495000D01*
X-38157759Y-119581658D01*
X-38568143Y-119751645D01*
X-38937479Y-119998427D01*
X-39251573Y-120312521D01*
X-39498355Y-120681857D01*
X-39668342Y-121092241D01*
X-39755000Y-121527902D01*
X-39755000Y-121972098D01*
X-39668342Y-122407759D01*
X-39498355Y-122818143D01*
X-39251573Y-123187479D01*
X-38937479Y-123501573D01*
X-38568143Y-123748355D01*
X-38157759Y-123918342D01*
X-37913189Y-123966990D01*
X-41976553Y-128030354D01*
X-42053740Y-128015000D01*
X-42346260Y-128015000D01*
X-42633158Y-128072068D01*
X-42903411Y-128184010D01*
X-43146632Y-128346525D01*
X-43353475Y-128553368D01*
X-43470000Y-128727760D01*
X-43586525Y-128553368D01*
X-43793368Y-128346525D01*
X-44036589Y-128184010D01*
X-44306842Y-128072068D01*
X-44593740Y-128015000D01*
X-44886260Y-128015000D01*
X-45173158Y-128072068D01*
X-45443411Y-128184010D01*
X-45686632Y-128346525D01*
X-45893475Y-128553368D01*
X-46010000Y-128727760D01*
X-46126525Y-128553368D01*
X-46333368Y-128346525D01*
X-46576589Y-128184010D01*
X-46846842Y-128072068D01*
X-47133740Y-128015000D01*
X-47426260Y-128015000D01*
X-47713158Y-128072068D01*
X-47783849Y-128101349D01*
X-50296216Y-125588983D01*
X-50320019Y-125559979D01*
X-50435744Y-125465006D01*
X-50567773Y-125394434D01*
X-50711034Y-125350977D01*
X-50822687Y-125339980D01*
X-50822698Y-125339980D01*
X-50860020Y-125336304D01*
X-50897342Y-125339980D01*
X-65585218Y-125339980D01*
X-69397296Y-121527902D01*
X-64755000Y-121527902D01*
X-64755000Y-121972098D01*
X-64668342Y-122407759D01*
X-64498355Y-122818143D01*
X-64251573Y-123187479D01*
X-63937479Y-123501573D01*
X-63568143Y-123748355D01*
X-63157759Y-123918342D01*
X-62722098Y-124005000D01*
X-62277902Y-124005000D01*
X-61842241Y-123918342D01*
X-61431857Y-123748355D01*
X-61062521Y-123501573D01*
X-60748427Y-123187479D01*
X-60501645Y-122818143D01*
X-60331658Y-122407759D01*
X-60245000Y-121972098D01*
X-60245000Y-121527902D01*
X-60331658Y-121092241D01*
X-60501645Y-120681857D01*
X-60748427Y-120312521D01*
X-61062521Y-119998427D01*
X-61431857Y-119751645D01*
X-61842241Y-119581658D01*
X-62277902Y-119495000D01*
X-62722098Y-119495000D01*
X-63157759Y-119581658D01*
X-63568143Y-119751645D01*
X-63937479Y-119998427D01*
X-64251573Y-120312521D01*
X-64498355Y-120681857D01*
X-64668342Y-121092241D01*
X-64755000Y-121527902D01*
X-69397296Y-121527902D01*
X-69890199Y-121035000D01*
X-69872998Y-121035000D01*
X-69872998Y-120876252D01*
X-69714250Y-121035000D01*
X-69100000Y-121038072D01*
X-68975518Y-121025812D01*
X-68855820Y-120989502D01*
X-68745506Y-120930537D01*
X-68648815Y-120851185D01*
X-68569463Y-120754494D01*
X-68510498Y-120644180D01*
X-68474188Y-120524482D01*
X-68461928Y-120400000D01*
X-68465000Y-119785750D01*
X-68623750Y-119627000D01*
X-69873000Y-119627000D01*
X-69873000Y-119647000D01*
X-70127000Y-119647000D01*
X-70127000Y-119627000D01*
X-70147000Y-119627000D01*
X-70147000Y-119373000D01*
X-70127000Y-119373000D01*
X-70127000Y-119353000D01*
X-69873000Y-119353000D01*
X-69873000Y-119373000D01*
X-68623750Y-119373000D01*
X-68465000Y-119214250D01*
X-68461928Y-118600000D01*
X-68474188Y-118475518D01*
X-68510498Y-118355820D01*
X-68569463Y-118245506D01*
X-68648815Y-118148815D01*
X-68745506Y-118069463D01*
X-68845303Y-118016120D01*
X-68807688Y-117978505D01*
X-68639701Y-117727095D01*
X-68523989Y-117447743D01*
X-68465000Y-117151184D01*
X-68465000Y-116848816D01*
X-68523989Y-116552257D01*
X-68639701Y-116272905D01*
X-68807688Y-116021495D01*
X-69021495Y-115807688D01*
X-69107831Y-115750000D01*
X-69021495Y-115692312D01*
X-68807688Y-115478505D01*
X-68639701Y-115227095D01*
X-68523989Y-114947743D01*
X-68465000Y-114651184D01*
X-68465000Y-114348816D01*
X-68523989Y-114052257D01*
X-68639701Y-113772905D01*
X-68807688Y-113521495D01*
X-69021495Y-113307688D01*
X-69272905Y-113139701D01*
X-69552257Y-113023989D01*
X-69848816Y-112965000D01*
X-70151184Y-112965000D01*
X-70447743Y-113023989D01*
X-70727095Y-113139701D01*
X-70978505Y-113307688D01*
X-71192312Y-113521495D01*
X-71287738Y-113664310D01*
X-71435920Y-113615525D01*
X-72320395Y-114500000D01*
X-72306253Y-114514143D01*
X-72485858Y-114693748D01*
X-72500000Y-114679605D01*
X-73384475Y-115564080D01*
X-73335690Y-115712262D01*
X-73478505Y-115807688D01*
X-73692312Y-116021495D01*
X-73860299Y-116272905D01*
X-73976011Y-116552257D01*
X-74035000Y-116848816D01*
X-74035000Y-117151184D01*
X-73983731Y-117408930D01*
X-74235998Y-117661197D01*
X-74265002Y-117685000D01*
X-74299548Y-117727095D01*
X-74359975Y-117800725D01*
X-74408912Y-117892279D01*
X-74430547Y-117932755D01*
X-74474004Y-118076016D01*
X-74485001Y-118187669D01*
X-74485001Y-118187679D01*
X-74488677Y-118225001D01*
X-74485001Y-118262324D01*
X-74485000Y-120050669D01*
X-74488677Y-120088001D01*
X-74485000Y-120125334D01*
X-74484050Y-120134974D01*
X-74474003Y-120236986D01*
X-74430547Y-120380247D01*
X-74359975Y-120512277D01*
X-74288800Y-120599003D01*
X-74265001Y-120628002D01*
X-74236003Y-120651800D01*
X-68647805Y-126240000D01*
X-83661687Y-126240000D01*
X-83807688Y-126021495D01*
X-83845303Y-125983880D01*
X-83745506Y-125930537D01*
X-83648815Y-125851185D01*
X-83569463Y-125754494D01*
X-83510498Y-125644180D01*
X-83474188Y-125524482D01*
X-83461928Y-125400000D01*
X-83465000Y-124785750D01*
X-83623750Y-124627000D01*
X-84873000Y-124627000D01*
X-84873000Y-124647000D01*
X-85127000Y-124647000D01*
X-85127000Y-124627000D01*
X-85147000Y-124627000D01*
X-85147000Y-124373000D01*
X-85127000Y-124373000D01*
X-85127000Y-123123750D01*
X-84873000Y-123123750D01*
X-84873000Y-124373000D01*
X-83623750Y-124373000D01*
X-83465000Y-124214250D01*
X-83461928Y-123600000D01*
X-83474188Y-123475518D01*
X-83510498Y-123355820D01*
X-83569463Y-123245506D01*
X-83648815Y-123148815D01*
X-83745506Y-123069463D01*
X-83855820Y-123010498D01*
X-83975518Y-122974188D01*
X-84100000Y-122961928D01*
X-84714250Y-122965000D01*
X-84873000Y-123123750D01*
X-85127000Y-123123750D01*
X-85285750Y-122965000D01*
X-85900000Y-122961928D01*
X-86024482Y-122974188D01*
X-86144180Y-123010498D01*
X-86254494Y-123069463D01*
X-86351185Y-123148815D01*
X-86430537Y-123245506D01*
X-86483880Y-123345303D01*
X-86521495Y-123307688D01*
X-86772905Y-123139701D01*
X-87052257Y-123023989D01*
X-87348816Y-122965000D01*
X-87651184Y-122965000D01*
X-87947743Y-123023989D01*
X-88227095Y-123139701D01*
X-88478505Y-123307688D01*
X-88692312Y-123521495D01*
X-88750000Y-123607831D01*
X-88807688Y-123521495D01*
X-89021495Y-123307688D01*
X-89272905Y-123139701D01*
X-89552257Y-123023989D01*
X-89848816Y-122965000D01*
X-90151184Y-122965000D01*
X-90447743Y-123023989D01*
X-90727095Y-123139701D01*
X-90978505Y-123307688D01*
X-91192312Y-123521495D01*
X-91360299Y-123772905D01*
X-91476011Y-124052257D01*
X-91535000Y-124348816D01*
X-96815000Y-124348816D01*
X-96815000Y-116777902D01*
X-94505000Y-116777902D01*
X-94505000Y-117222098D01*
X-94418342Y-117657759D01*
X-94248355Y-118068143D01*
X-94001573Y-118437479D01*
X-93687479Y-118751573D01*
X-93318143Y-118998355D01*
X-92907759Y-119168342D01*
X-92472098Y-119255000D01*
X-92027902Y-119255000D01*
X-91592241Y-119168342D01*
X-91181857Y-118998355D01*
X-90812521Y-118751573D01*
X-90498427Y-118437479D01*
X-90251645Y-118068143D01*
X-90081658Y-117657759D01*
X-89995000Y-117222098D01*
X-89995000Y-116777902D01*
X-85005000Y-116777902D01*
X-85005000Y-117222098D01*
X-84918342Y-117657759D01*
X-84748355Y-118068143D01*
X-84501573Y-118437479D01*
X-84187479Y-118751573D01*
X-83818143Y-118998355D01*
X-83407759Y-119168342D01*
X-82972098Y-119255000D01*
X-82527902Y-119255000D01*
X-82092241Y-119168342D01*
X-81681857Y-118998355D01*
X-81312521Y-118751573D01*
X-80998427Y-118437479D01*
X-80751645Y-118068143D01*
X-80581658Y-117657759D01*
X-80495000Y-117222098D01*
X-80495000Y-116777902D01*
X-80581658Y-116342241D01*
X-80751645Y-115931857D01*
X-80998427Y-115562521D01*
X-81312521Y-115248427D01*
X-81681857Y-115001645D01*
X-82092241Y-114831658D01*
X-82527902Y-114745000D01*
X-82972098Y-114745000D01*
X-83407759Y-114831658D01*
X-83818143Y-115001645D01*
X-84187479Y-115248427D01*
X-84501573Y-115562521D01*
X-84748355Y-115931857D01*
X-84918342Y-116342241D01*
X-85005000Y-116777902D01*
X-89995000Y-116777902D01*
X-90081658Y-116342241D01*
X-90251645Y-115931857D01*
X-90498427Y-115562521D01*
X-90812521Y-115248427D01*
X-91181857Y-115001645D01*
X-91592241Y-114831658D01*
X-92027902Y-114745000D01*
X-92472098Y-114745000D01*
X-92907759Y-114831658D01*
X-93318143Y-115001645D01*
X-93687479Y-115248427D01*
X-94001573Y-115562521D01*
X-94248355Y-115931857D01*
X-94418342Y-116342241D01*
X-94505000Y-116777902D01*
X-96815000Y-116777902D01*
X-96815000Y-114566553D01*
X-74040991Y-114566553D01*
X-73998397Y-114865907D01*
X-73898222Y-115151199D01*
X-73818261Y-115300792D01*
X-73564080Y-115384475D01*
X-72679605Y-114500000D01*
X-73564080Y-113615525D01*
X-73818261Y-113699208D01*
X-73949158Y-113971775D01*
X-74024365Y-114264642D01*
X-74040991Y-114566553D01*
X-96815000Y-114566553D01*
X-96815000Y-113435920D01*
X-73384475Y-113435920D01*
X-72500000Y-114320395D01*
X-71615525Y-113435920D01*
X-71699208Y-113181739D01*
X-71971775Y-113050842D01*
X-72264642Y-112975635D01*
X-72566553Y-112959009D01*
X-72865907Y-113001603D01*
X-73151199Y-113101778D01*
X-73300792Y-113181739D01*
X-73384475Y-113435920D01*
X-96815000Y-113435920D01*
X-96815000Y-110685000D01*
X-64124052Y-110685000D01*
X-64251573Y-110812521D01*
G37*
%TD.AperFunction*%
%TD*%
M02*
