%TF.GenerationSoftware,KiCad,Pcbnew,5.1.9-73d0e3b20d~88~ubuntu20.04.1*%
%TF.CreationDate,2021-04-01T10:53:24-04:00*%
%TF.ProjectId,ao_output,616f5f6f-7574-4707-9574-2e6b69636164,rev?*%
%TF.SameCoordinates,Original*%
%TF.FileFunction,Soldermask,Bot*%
%TF.FilePolarity,Negative*%
%FSLAX46Y46*%
G04 Gerber Fmt 4.6, Leading zero omitted, Abs format (unit mm)*
G04 Created by KiCad (PCBNEW 5.1.9-73d0e3b20d~88~ubuntu20.04.1) date 2021-04-01 10:53:24*
%MOMM*%
%LPD*%
G01*
G04 APERTURE LIST*
%ADD10R,1.800000X1.800000*%
%ADD11C,1.800000*%
%ADD12C,3.240000*%
%ADD13C,3.200000*%
%ADD14O,1.700000X1.700000*%
%ADD15R,1.700000X1.700000*%
G04 APERTURE END LIST*
D10*
%TO.C,RV8*%
X-85000000Y-124500000D03*
D11*
X-87500000Y-124500000D03*
X-90000000Y-124500000D03*
D12*
X-92250000Y-117000000D03*
X-82750000Y-117000000D03*
D11*
X-90000000Y-127000000D03*
X-87500000Y-127000000D03*
X-85000000Y-127000000D03*
%TD*%
%TO.C,RV6*%
X-27500000Y-114500000D03*
X-27500000Y-117000000D03*
X-27500000Y-119500000D03*
D12*
X-37500000Y-112250000D03*
X-37500000Y-121750000D03*
D11*
X-30000000Y-119500000D03*
X-30000000Y-117000000D03*
D10*
X-30000000Y-114500000D03*
%TD*%
%TO.C,RV5*%
X-10000000Y-124500000D03*
D11*
X-12500000Y-124500000D03*
X-15000000Y-124500000D03*
D12*
X-17250000Y-117000000D03*
X-7750000Y-117000000D03*
D11*
X-15000000Y-127000000D03*
X-12500000Y-127000000D03*
X-10000000Y-127000000D03*
%TD*%
D13*
%TO.C,H7*%
X-94500000Y-134500000D03*
%TD*%
D10*
%TO.C,RV7*%
X-70000000Y-119500000D03*
D11*
X-70000000Y-117000000D03*
X-70000000Y-114500000D03*
D12*
X-62500000Y-112250000D03*
X-62500000Y-121750000D03*
D11*
X-72500000Y-114500000D03*
X-72500000Y-117000000D03*
X-72500000Y-119500000D03*
%TD*%
D14*
%TO.C,J12*%
X-70140000Y-129500000D03*
X-67600000Y-129500000D03*
X-65060000Y-129500000D03*
X-62520000Y-129500000D03*
X-59980000Y-129500000D03*
X-57440000Y-129500000D03*
X-54900000Y-129500000D03*
X-52360000Y-129500000D03*
X-49820000Y-129500000D03*
X-47280000Y-129500000D03*
X-44740000Y-129500000D03*
X-42200000Y-129500000D03*
X-39660000Y-129500000D03*
X-37120000Y-129500000D03*
X-34580000Y-129500000D03*
X-32040000Y-129500000D03*
D15*
X-29500000Y-129500000D03*
%TD*%
D13*
%TO.C,H8*%
X-5500000Y-134500000D03*
%TD*%
D10*
%TO.C,RV9*%
X-65000000Y-142500000D03*
D11*
X-62500000Y-142500000D03*
X-60000000Y-142500000D03*
D12*
X-57750000Y-150000000D03*
X-67250000Y-150000000D03*
D11*
X-60000000Y-140000000D03*
X-62500000Y-140000000D03*
X-65000000Y-140000000D03*
%TD*%
M02*
