M48
; DRILL file {KiCad 5.1.9-73d0e3b20d~88~ubuntu20.04.1} date Thu Apr  1 10:53:26 2021
; FORMAT={-:-/ absolute / inch / decimal}
; #@! TF.CreationDate,2021-04-01T10:53:26-04:00
; #@! TF.GenerationSoftware,Kicad,Pcbnew,5.1.9-73d0e3b20d~88~ubuntu20.04.1
; #@! TF.FileFunction,Plated,1,2,PTH
FMAT,2
INCH
T1C0.0394
T2C0.0709
%
G90
G05
T1
X-3.5433Y-4.9016
X-3.5433Y-5.0
X-3.4449Y-4.9016
X-3.4449Y-5.0
X-3.3465Y-4.9016
X-3.3465Y-5.0
X-2.8543Y-4.5079
X-2.8543Y-4.6063
X-2.8543Y-4.7047
X-2.7614Y-5.0984
X-2.7559Y-4.5079
X-2.7559Y-4.6063
X-2.7559Y-4.7047
X-2.6614Y-5.0984
X-2.5614Y-5.0984
X-2.5591Y-5.5118
X-2.5591Y-5.6102
X-2.4614Y-5.0984
X-2.4606Y-5.5118
X-2.4606Y-5.6102
X-2.3622Y-5.5118
X-2.3622Y-5.6102
X-2.3614Y-5.0984
X-2.2614Y-5.0984
X-2.1614Y-5.0984
X-2.0614Y-5.0984
X-1.9614Y-5.0984
X-1.8614Y-5.0984
X-1.7614Y-5.0984
X-1.6614Y-5.0984
X-1.5614Y-5.0984
X-1.4614Y-5.0984
X-1.3614Y-5.0984
X-1.2614Y-5.0984
X-1.1811Y-4.5079
X-1.1811Y-4.6063
X-1.1811Y-4.7047
X-1.1614Y-5.0984
X-1.0827Y-4.5079
X-1.0827Y-4.6063
X-1.0827Y-4.7047
X-0.5906Y-4.9016
X-0.5906Y-5.0
X-0.4921Y-4.9016
X-0.4921Y-5.0
X-0.3937Y-4.9016
X-0.3937Y-5.0
T2
X-3.6319Y-4.6063
X-3.2579Y-4.6063
X-2.6476Y-5.9055
X-2.4606Y-4.4193
X-2.4606Y-4.7933
X-2.2736Y-5.9055
X-1.4764Y-4.4193
X-1.4764Y-4.7933
X-0.6791Y-4.6063
X-0.3051Y-4.6063
T0
M30
