M48
; DRILL file {KiCad 5.1.6-c6e7f7d~87~ubuntu20.04.1} date Sun Oct 18 20:27:56 2020
; FORMAT={-:-/ absolute / inch / decimal}
; #@! TF.CreationDate,2020-10-18T20:27:56-04:00
; #@! TF.GenerationSoftware,Kicad,Pcbnew,5.1.6-c6e7f7d~87~ubuntu20.04.1
; #@! TF.FileFunction,Plated,1,2,PTH
FMAT,2
INCH
T1C0.0394
T2C0.1063
%
G90
G05
T1
X7.55Y-6.152
X7.65Y-6.152
X7.75Y-6.152
X7.85Y-6.152
X7.95Y-6.152
X8.05Y-6.152
X8.15Y-6.152
X8.25Y-6.152
X8.35Y-6.152
T2
X6.2441Y-4.4685
X6.3094Y-4.7535
X6.4764Y-4.315
X6.5945Y-4.8189
X6.748Y-4.5866
X7.5039Y-6.9094
X7.5693Y-7.1945
X7.7362Y-6.7559
X7.8543Y-7.2598
X8.0079Y-7.0276
X6.2441Y-2.1063
X6.3094Y-2.3913
X6.4764Y-1.9528
X6.5945Y-2.4567
X6.748Y-2.2244
X6.2441Y-6.9094
X6.3094Y-7.1945
X6.4764Y-6.7559
X6.5945Y-7.2598
X6.748Y-7.0276
X6.2441Y-0.9252
X6.3094Y-1.2102
X6.4764Y-0.7717
X6.5945Y-1.2756
X6.748Y-1.0433
X8.8819Y-6.9094
X8.9472Y-7.1945
X9.1142Y-6.7559
X9.2323Y-7.2598
X9.3858Y-7.0276
X6.2441Y-3.2874
X6.3094Y-3.5724
X6.4764Y-3.1339
X6.5945Y-3.6378
X6.748Y-3.4055
T0
M30
