%TF.GenerationSoftware,KiCad,Pcbnew,5.1.6-c6e7f7d~87~ubuntu20.04.1*%
%TF.CreationDate,2020-10-18T20:27:54-04:00*%
%TF.ProjectId,stereoout,73746572-656f-46f7-9574-2e6b69636164,rev?*%
%TF.SameCoordinates,Original*%
%TF.FileFunction,Legend,Bot*%
%TF.FilePolarity,Positive*%
%FSLAX46Y46*%
G04 Gerber Fmt 4.6, Leading zero omitted, Abs format (unit mm)*
G04 Created by KiCad (PCBNEW 5.1.6-c6e7f7d~87~ubuntu20.04.1) date 2020-10-18 20:27:54*
%MOMM*%
%LPD*%
G01*
G04 APERTURE LIST*
%ADD10C,0.150000*%
G04 APERTURE END LIST*
D10*
X221664285Y-168807142D02*
X221450000Y-168878571D01*
X221092857Y-168878571D01*
X220950000Y-168807142D01*
X220878571Y-168735714D01*
X220807142Y-168592857D01*
X220807142Y-168450000D01*
X220878571Y-168307142D01*
X220950000Y-168235714D01*
X221092857Y-168164285D01*
X221378571Y-168092857D01*
X221521428Y-168021428D01*
X221592857Y-167950000D01*
X221664285Y-167807142D01*
X221664285Y-167664285D01*
X221592857Y-167521428D01*
X221521428Y-167450000D01*
X221378571Y-167378571D01*
X221021428Y-167378571D01*
X220807142Y-167450000D01*
X220378571Y-167878571D02*
X219807142Y-167878571D01*
X220164285Y-167378571D02*
X220164285Y-168664285D01*
X220092857Y-168807142D01*
X219950000Y-168878571D01*
X219807142Y-168878571D01*
X218735714Y-168807142D02*
X218878571Y-168878571D01*
X219164285Y-168878571D01*
X219307142Y-168807142D01*
X219378571Y-168664285D01*
X219378571Y-168092857D01*
X219307142Y-167950000D01*
X219164285Y-167878571D01*
X218878571Y-167878571D01*
X218735714Y-167950000D01*
X218664285Y-168092857D01*
X218664285Y-168235714D01*
X219378571Y-168378571D01*
X218021428Y-168878571D02*
X218021428Y-167878571D01*
X218021428Y-168164285D02*
X217950000Y-168021428D01*
X217878571Y-167950000D01*
X217735714Y-167878571D01*
X217592857Y-167878571D01*
X216521428Y-168807142D02*
X216664285Y-168878571D01*
X216950000Y-168878571D01*
X217092857Y-168807142D01*
X217164285Y-168664285D01*
X217164285Y-168092857D01*
X217092857Y-167950000D01*
X216950000Y-167878571D01*
X216664285Y-167878571D01*
X216521428Y-167950000D01*
X216450000Y-168092857D01*
X216450000Y-168235714D01*
X217164285Y-168378571D01*
X215592857Y-168878571D02*
X215735714Y-168807142D01*
X215807142Y-168735714D01*
X215878571Y-168592857D01*
X215878571Y-168164285D01*
X215807142Y-168021428D01*
X215735714Y-167950000D01*
X215592857Y-167878571D01*
X215378571Y-167878571D01*
X215235714Y-167950000D01*
X215164285Y-168021428D01*
X215092857Y-168164285D01*
X215092857Y-168592857D01*
X215164285Y-168735714D01*
X215235714Y-168807142D01*
X215378571Y-168878571D01*
X215592857Y-168878571D01*
X213021428Y-167378571D02*
X212735714Y-167378571D01*
X212592857Y-167450000D01*
X212450000Y-167592857D01*
X212378571Y-167878571D01*
X212378571Y-168378571D01*
X212450000Y-168664285D01*
X212592857Y-168807142D01*
X212735714Y-168878571D01*
X213021428Y-168878571D01*
X213164285Y-168807142D01*
X213307142Y-168664285D01*
X213378571Y-168378571D01*
X213378571Y-167878571D01*
X213307142Y-167592857D01*
X213164285Y-167450000D01*
X213021428Y-167378571D01*
X211092857Y-167878571D02*
X211092857Y-168878571D01*
X211735714Y-167878571D02*
X211735714Y-168664285D01*
X211664285Y-168807142D01*
X211521428Y-168878571D01*
X211307142Y-168878571D01*
X211164285Y-168807142D01*
X211092857Y-168735714D01*
X210592857Y-167878571D02*
X210021428Y-167878571D01*
X210378571Y-167378571D02*
X210378571Y-168664285D01*
X210307142Y-168807142D01*
X210164285Y-168878571D01*
X210021428Y-168878571D01*
X208378571Y-167878571D02*
X208378571Y-169164285D01*
X208450000Y-169307142D01*
X208592857Y-169378571D01*
X208664285Y-169378571D01*
X208378571Y-167378571D02*
X208450000Y-167450000D01*
X208378571Y-167521428D01*
X208307142Y-167450000D01*
X208378571Y-167378571D01*
X208378571Y-167521428D01*
X207021428Y-168878571D02*
X207021428Y-168092857D01*
X207092857Y-167950000D01*
X207235714Y-167878571D01*
X207521428Y-167878571D01*
X207664285Y-167950000D01*
X207021428Y-168807142D02*
X207164285Y-168878571D01*
X207521428Y-168878571D01*
X207664285Y-168807142D01*
X207735714Y-168664285D01*
X207735714Y-168521428D01*
X207664285Y-168378571D01*
X207521428Y-168307142D01*
X207164285Y-168307142D01*
X207021428Y-168235714D01*
X205664285Y-168807142D02*
X205807142Y-168878571D01*
X206092857Y-168878571D01*
X206235714Y-168807142D01*
X206307142Y-168735714D01*
X206378571Y-168592857D01*
X206378571Y-168164285D01*
X206307142Y-168021428D01*
X206235714Y-167950000D01*
X206092857Y-167878571D01*
X205807142Y-167878571D01*
X205664285Y-167950000D01*
X205021428Y-168878571D02*
X205021428Y-167378571D01*
X204878571Y-168307142D02*
X204450000Y-168878571D01*
X204450000Y-167878571D02*
X205021428Y-168450000D01*
X203878571Y-168807142D02*
X203735714Y-168878571D01*
X203450000Y-168878571D01*
X203307142Y-168807142D01*
X203235714Y-168664285D01*
X203235714Y-168592857D01*
X203307142Y-168450000D01*
X203450000Y-168378571D01*
X203664285Y-168378571D01*
X203807142Y-168307142D01*
X203878571Y-168164285D01*
X203878571Y-168092857D01*
X203807142Y-167950000D01*
X203664285Y-167878571D01*
X203450000Y-167878571D01*
X203307142Y-167950000D01*
X201450000Y-168878571D02*
X201450000Y-167378571D01*
X201450000Y-167950000D02*
X201307142Y-167878571D01*
X201021428Y-167878571D01*
X200878571Y-167950000D01*
X200807142Y-168021428D01*
X200735714Y-168164285D01*
X200735714Y-168592857D01*
X200807142Y-168735714D01*
X200878571Y-168807142D01*
X201021428Y-168878571D01*
X201307142Y-168878571D01*
X201450000Y-168807142D01*
X199878571Y-168878571D02*
X200021428Y-168807142D01*
X200092857Y-168735714D01*
X200164285Y-168592857D01*
X200164285Y-168164285D01*
X200092857Y-168021428D01*
X200021428Y-167950000D01*
X199878571Y-167878571D01*
X199664285Y-167878571D01*
X199521428Y-167950000D01*
X199450000Y-168021428D01*
X199378571Y-168164285D01*
X199378571Y-168592857D01*
X199450000Y-168735714D01*
X199521428Y-168807142D01*
X199664285Y-168878571D01*
X199878571Y-168878571D01*
X198092857Y-168878571D02*
X198092857Y-168092857D01*
X198164285Y-167950000D01*
X198307142Y-167878571D01*
X198592857Y-167878571D01*
X198735714Y-167950000D01*
X198092857Y-168807142D02*
X198235714Y-168878571D01*
X198592857Y-168878571D01*
X198735714Y-168807142D01*
X198807142Y-168664285D01*
X198807142Y-168521428D01*
X198735714Y-168378571D01*
X198592857Y-168307142D01*
X198235714Y-168307142D01*
X198092857Y-168235714D01*
X197378571Y-168878571D02*
X197378571Y-167878571D01*
X197378571Y-168164285D02*
X197307142Y-168021428D01*
X197235714Y-167950000D01*
X197092857Y-167878571D01*
X196950000Y-167878571D01*
X195807142Y-168878571D02*
X195807142Y-167378571D01*
X195807142Y-168807142D02*
X195950000Y-168878571D01*
X196235714Y-168878571D01*
X196378571Y-168807142D01*
X196450000Y-168735714D01*
X196521428Y-168592857D01*
X196521428Y-168164285D01*
X196450000Y-168021428D01*
X196378571Y-167950000D01*
X196235714Y-167878571D01*
X195950000Y-167878571D01*
X195807142Y-167950000D01*
X214592857Y-171278571D02*
X215092857Y-170564285D01*
X215450000Y-171278571D02*
X215450000Y-169778571D01*
X214878571Y-169778571D01*
X214735714Y-169850000D01*
X214664285Y-169921428D01*
X214592857Y-170064285D01*
X214592857Y-170278571D01*
X214664285Y-170421428D01*
X214735714Y-170492857D01*
X214878571Y-170564285D01*
X215450000Y-170564285D01*
X213950000Y-171278571D02*
X213950000Y-170278571D01*
X213950000Y-169778571D02*
X214021428Y-169850000D01*
X213950000Y-169921428D01*
X213878571Y-169850000D01*
X213950000Y-169778571D01*
X213950000Y-169921428D01*
X212592857Y-171207142D02*
X212735714Y-171278571D01*
X213021428Y-171278571D01*
X213164285Y-171207142D01*
X213235714Y-171135714D01*
X213307142Y-170992857D01*
X213307142Y-170564285D01*
X213235714Y-170421428D01*
X213164285Y-170350000D01*
X213021428Y-170278571D01*
X212735714Y-170278571D01*
X212592857Y-170350000D01*
X211950000Y-171278571D02*
X211950000Y-169778571D01*
X211307142Y-171278571D02*
X211307142Y-170492857D01*
X211378571Y-170350000D01*
X211521428Y-170278571D01*
X211735714Y-170278571D01*
X211878571Y-170350000D01*
X211950000Y-170421428D01*
X209450000Y-171278571D02*
X209450000Y-169778571D01*
X209450000Y-170492857D02*
X208592857Y-170492857D01*
X208592857Y-171278571D02*
X208592857Y-169778571D01*
X207664285Y-171278571D02*
X207807142Y-171207142D01*
X207878571Y-171135714D01*
X207950000Y-170992857D01*
X207950000Y-170564285D01*
X207878571Y-170421428D01*
X207807142Y-170350000D01*
X207664285Y-170278571D01*
X207450000Y-170278571D01*
X207307142Y-170350000D01*
X207235714Y-170421428D01*
X207164285Y-170564285D01*
X207164285Y-170992857D01*
X207235714Y-171135714D01*
X207307142Y-171207142D01*
X207450000Y-171278571D01*
X207664285Y-171278571D01*
X206307142Y-171278571D02*
X206450000Y-171207142D01*
X206521428Y-171064285D01*
X206521428Y-169778571D01*
X205735714Y-171278571D02*
X205735714Y-170278571D01*
X205735714Y-170421428D02*
X205664285Y-170350000D01*
X205521428Y-170278571D01*
X205307142Y-170278571D01*
X205164285Y-170350000D01*
X205092857Y-170492857D01*
X205092857Y-171278571D01*
X205092857Y-170492857D02*
X205021428Y-170350000D01*
X204878571Y-170278571D01*
X204664285Y-170278571D01*
X204521428Y-170350000D01*
X204450000Y-170492857D01*
X204450000Y-171278571D01*
X203164285Y-171207142D02*
X203307142Y-171278571D01*
X203592857Y-171278571D01*
X203735714Y-171207142D01*
X203807142Y-171064285D01*
X203807142Y-170492857D01*
X203735714Y-170350000D01*
X203592857Y-170278571D01*
X203307142Y-170278571D01*
X203164285Y-170350000D01*
X203092857Y-170492857D01*
X203092857Y-170635714D01*
X203807142Y-170778571D01*
X202521428Y-171207142D02*
X202378571Y-171278571D01*
X202092857Y-171278571D01*
X201950000Y-171207142D01*
X201878571Y-171064285D01*
X201878571Y-170992857D01*
X201950000Y-170850000D01*
X202092857Y-170778571D01*
X202307142Y-170778571D01*
X202450000Y-170707142D01*
X202521428Y-170564285D01*
X202521428Y-170492857D01*
X202450000Y-170350000D01*
X202307142Y-170278571D01*
X202092857Y-170278571D01*
X201950000Y-170350000D01*
X213878571Y-173607142D02*
X213664285Y-173678571D01*
X213307142Y-173678571D01*
X213164285Y-173607142D01*
X213092857Y-173535714D01*
X213021428Y-173392857D01*
X213021428Y-173250000D01*
X213092857Y-173107142D01*
X213164285Y-173035714D01*
X213307142Y-172964285D01*
X213592857Y-172892857D01*
X213735714Y-172821428D01*
X213807142Y-172750000D01*
X213878571Y-172607142D01*
X213878571Y-172464285D01*
X213807142Y-172321428D01*
X213735714Y-172250000D01*
X213592857Y-172178571D01*
X213235714Y-172178571D01*
X213021428Y-172250000D01*
X211807142Y-173607142D02*
X211950000Y-173678571D01*
X212235714Y-173678571D01*
X212378571Y-173607142D01*
X212450000Y-173464285D01*
X212450000Y-172892857D01*
X212378571Y-172750000D01*
X212235714Y-172678571D01*
X211950000Y-172678571D01*
X211807142Y-172750000D01*
X211735714Y-172892857D01*
X211735714Y-173035714D01*
X212450000Y-173178571D01*
X211092857Y-172678571D02*
X211092857Y-174178571D01*
X211092857Y-172750000D02*
X210950000Y-172678571D01*
X210664285Y-172678571D01*
X210521428Y-172750000D01*
X210450000Y-172821428D01*
X210378571Y-172964285D01*
X210378571Y-173392857D01*
X210450000Y-173535714D01*
X210521428Y-173607142D01*
X210664285Y-173678571D01*
X210950000Y-173678571D01*
X211092857Y-173607142D01*
X208664285Y-172321428D02*
X208592857Y-172250000D01*
X208450000Y-172178571D01*
X208092857Y-172178571D01*
X207950000Y-172250000D01*
X207878571Y-172321428D01*
X207807142Y-172464285D01*
X207807142Y-172607142D01*
X207878571Y-172821428D01*
X208735714Y-173678571D01*
X207807142Y-173678571D01*
X206878571Y-172178571D02*
X206735714Y-172178571D01*
X206592857Y-172250000D01*
X206521428Y-172321428D01*
X206450000Y-172464285D01*
X206378571Y-172750000D01*
X206378571Y-173107142D01*
X206450000Y-173392857D01*
X206521428Y-173535714D01*
X206592857Y-173607142D01*
X206735714Y-173678571D01*
X206878571Y-173678571D01*
X207021428Y-173607142D01*
X207092857Y-173535714D01*
X207164285Y-173392857D01*
X207235714Y-173107142D01*
X207235714Y-172750000D01*
X207164285Y-172464285D01*
X207092857Y-172321428D01*
X207021428Y-172250000D01*
X206878571Y-172178571D01*
X205807142Y-172321428D02*
X205735714Y-172250000D01*
X205592857Y-172178571D01*
X205235714Y-172178571D01*
X205092857Y-172250000D01*
X205021428Y-172321428D01*
X204950000Y-172464285D01*
X204950000Y-172607142D01*
X205021428Y-172821428D01*
X205878571Y-173678571D01*
X204950000Y-173678571D01*
X204021428Y-172178571D02*
X203878571Y-172178571D01*
X203735714Y-172250000D01*
X203664285Y-172321428D01*
X203592857Y-172464285D01*
X203521428Y-172750000D01*
X203521428Y-173107142D01*
X203592857Y-173392857D01*
X203664285Y-173535714D01*
X203735714Y-173607142D01*
X203878571Y-173678571D01*
X204021428Y-173678571D01*
X204164285Y-173607142D01*
X204235714Y-173535714D01*
X204307142Y-173392857D01*
X204378571Y-173107142D01*
X204378571Y-172750000D01*
X204307142Y-172464285D01*
X204235714Y-172321428D01*
X204164285Y-172250000D01*
X204021428Y-172178571D01*
M02*
