%TF.GenerationSoftware,KiCad,Pcbnew,5.1.6-c6e7f7d~87~ubuntu20.04.1*%
%TF.CreationDate,2020-10-18T20:27:54-04:00*%
%TF.ProjectId,stereoout,73746572-656f-46f7-9574-2e6b69636164,rev?*%
%TF.SameCoordinates,Original*%
%TF.FileFunction,Legend,Top*%
%TF.FilePolarity,Positive*%
%FSLAX46Y46*%
G04 Gerber Fmt 4.6, Leading zero omitted, Abs format (unit mm)*
G04 Created by KiCad (PCBNEW 5.1.6-c6e7f7d~87~ubuntu20.04.1) date 2020-10-18 20:27:54*
%MOMM*%
%LPD*%
G01*
G04 APERTURE LIST*
%ADD10C,0.120000*%
%ADD11C,0.150000*%
G04 APERTURE END LIST*
D10*
%TO.C,J6*%
X159150000Y-33850000D02*
X157150000Y-31350000D01*
X157150000Y-18100000D02*
X172900000Y-18100000D01*
X172900000Y-18100000D02*
X172900000Y-33850000D01*
X159200000Y-33850000D02*
X159150000Y-33850000D01*
X172900000Y-33850000D02*
X159200000Y-33850000D01*
X157150000Y-31350000D02*
X157150000Y-18100000D01*
%TO.C,J13*%
X190440000Y-157590000D02*
X190440000Y-156260000D01*
X191770000Y-157590000D02*
X190440000Y-157590000D01*
X193040000Y-157590000D02*
X193040000Y-154930000D01*
X193040000Y-154930000D02*
X213420000Y-154930000D01*
X193040000Y-157590000D02*
X213420000Y-157590000D01*
X213420000Y-157590000D02*
X213420000Y-154930000D01*
%TO.C,J7*%
X159150000Y-63850000D02*
X157150000Y-61350000D01*
X157150000Y-48100000D02*
X172900000Y-48100000D01*
X172900000Y-48100000D02*
X172900000Y-63850000D01*
X159200000Y-63850000D02*
X159150000Y-63850000D01*
X172900000Y-63850000D02*
X159200000Y-63850000D01*
X157150000Y-61350000D02*
X157150000Y-48100000D01*
%TO.C,J12*%
X226150000Y-185850000D02*
X224150000Y-183350000D01*
X224150000Y-170100000D02*
X239900000Y-170100000D01*
X239900000Y-170100000D02*
X239900000Y-185850000D01*
X226200000Y-185850000D02*
X226150000Y-185850000D01*
X239900000Y-185850000D02*
X226200000Y-185850000D01*
X224150000Y-183350000D02*
X224150000Y-170100000D01*
%TO.C,J11*%
X191150000Y-185850000D02*
X189150000Y-183350000D01*
X189150000Y-170100000D02*
X204900000Y-170100000D01*
X204900000Y-170100000D02*
X204900000Y-185850000D01*
X191200000Y-185850000D02*
X191150000Y-185850000D01*
X204900000Y-185850000D02*
X191200000Y-185850000D01*
X189150000Y-183350000D02*
X189150000Y-170100000D01*
%TO.C,J9*%
X159150000Y-123850000D02*
X157150000Y-121350000D01*
X157150000Y-108100000D02*
X172900000Y-108100000D01*
X172900000Y-108100000D02*
X172900000Y-123850000D01*
X159200000Y-123850000D02*
X159150000Y-123850000D01*
X172900000Y-123850000D02*
X159200000Y-123850000D01*
X157150000Y-121350000D02*
X157150000Y-108100000D01*
%TO.C,J8*%
X159150000Y-93850000D02*
X157150000Y-91350000D01*
X157150000Y-78100000D02*
X172900000Y-78100000D01*
X172900000Y-78100000D02*
X172900000Y-93850000D01*
X159200000Y-93850000D02*
X159150000Y-93850000D01*
X172900000Y-93850000D02*
X159200000Y-93850000D01*
X157150000Y-91350000D02*
X157150000Y-78100000D01*
%TO.C,J10*%
X159150000Y-185850000D02*
X157150000Y-183350000D01*
X157150000Y-170100000D02*
X172900000Y-170100000D01*
X172900000Y-170100000D02*
X172900000Y-185850000D01*
X159200000Y-185850000D02*
X159150000Y-185850000D01*
X172900000Y-185850000D02*
X159200000Y-185850000D01*
X157150000Y-183350000D02*
X157150000Y-170100000D01*
%TO.C,J6*%
D11*
X175089285Y-26250000D02*
X175625000Y-26250000D01*
X175732142Y-26285714D01*
X175803571Y-26357142D01*
X175839285Y-26464285D01*
X175839285Y-26535714D01*
X175089285Y-25571428D02*
X175089285Y-25714285D01*
X175125000Y-25785714D01*
X175160714Y-25821428D01*
X175267857Y-25892857D01*
X175410714Y-25928571D01*
X175696428Y-25928571D01*
X175767857Y-25892857D01*
X175803571Y-25857142D01*
X175839285Y-25785714D01*
X175839285Y-25642857D01*
X175803571Y-25571428D01*
X175767857Y-25535714D01*
X175696428Y-25500000D01*
X175517857Y-25500000D01*
X175446428Y-25535714D01*
X175410714Y-25571428D01*
X175375000Y-25642857D01*
X175375000Y-25785714D01*
X175410714Y-25857142D01*
X175446428Y-25892857D01*
X175517857Y-25928571D01*
X155339285Y-27035714D02*
X154589285Y-27035714D01*
X155339285Y-26678571D02*
X154589285Y-26678571D01*
X155339285Y-26250000D01*
X154589285Y-26250000D01*
X155339285Y-24928571D02*
X155339285Y-25357142D01*
X155339285Y-25142857D02*
X154589285Y-25142857D01*
X154696428Y-25214285D01*
X154767857Y-25285714D01*
X154803571Y-25357142D01*
%TO.C,J13*%
X188892380Y-157069523D02*
X189606666Y-157069523D01*
X189749523Y-157117142D01*
X189844761Y-157212380D01*
X189892380Y-157355238D01*
X189892380Y-157450476D01*
X189892380Y-156069523D02*
X189892380Y-156640952D01*
X189892380Y-156355238D02*
X188892380Y-156355238D01*
X189035238Y-156450476D01*
X189130476Y-156545714D01*
X189178095Y-156640952D01*
X188892380Y-155736190D02*
X188892380Y-155117142D01*
X189273333Y-155450476D01*
X189273333Y-155307619D01*
X189320952Y-155212380D01*
X189368571Y-155164761D01*
X189463809Y-155117142D01*
X189701904Y-155117142D01*
X189797142Y-155164761D01*
X189844761Y-155212380D01*
X189892380Y-155307619D01*
X189892380Y-155593333D01*
X189844761Y-155688571D01*
X189797142Y-155736190D01*
%TO.C,J7*%
X175089285Y-56250000D02*
X175625000Y-56250000D01*
X175732142Y-56285714D01*
X175803571Y-56357142D01*
X175839285Y-56464285D01*
X175839285Y-56535714D01*
X175089285Y-55964285D02*
X175089285Y-55464285D01*
X175839285Y-55785714D01*
X155339285Y-57035714D02*
X154589285Y-57035714D01*
X155339285Y-56678571D02*
X154589285Y-56678571D01*
X155339285Y-56250000D01*
X154589285Y-56250000D01*
X154660714Y-55357142D02*
X154625000Y-55321428D01*
X154589285Y-55250000D01*
X154589285Y-55071428D01*
X154625000Y-55000000D01*
X154660714Y-54964285D01*
X154732142Y-54928571D01*
X154803571Y-54928571D01*
X154910714Y-54964285D01*
X155339285Y-55392857D01*
X155339285Y-54928571D01*
%TO.C,J12*%
X242089285Y-178607142D02*
X242625000Y-178607142D01*
X242732142Y-178642857D01*
X242803571Y-178714285D01*
X242839285Y-178821428D01*
X242839285Y-178892857D01*
X242839285Y-177857142D02*
X242839285Y-178285714D01*
X242839285Y-178071428D02*
X242089285Y-178071428D01*
X242196428Y-178142857D01*
X242267857Y-178214285D01*
X242303571Y-178285714D01*
X242160714Y-177571428D02*
X242125000Y-177535714D01*
X242089285Y-177464285D01*
X242089285Y-177285714D01*
X242125000Y-177214285D01*
X242160714Y-177178571D01*
X242232142Y-177142857D01*
X242303571Y-177142857D01*
X242410714Y-177178571D01*
X242839285Y-177607142D01*
X242839285Y-177142857D01*
X222339285Y-181428571D02*
X221589285Y-181428571D01*
X221589285Y-181142857D01*
X221625000Y-181071428D01*
X221660714Y-181035714D01*
X221732142Y-181000000D01*
X221839285Y-181000000D01*
X221910714Y-181035714D01*
X221946428Y-181071428D01*
X221982142Y-181142857D01*
X221982142Y-181428571D01*
X222339285Y-180678571D02*
X221589285Y-180678571D01*
X221946428Y-180678571D02*
X221946428Y-180250000D01*
X222339285Y-180250000D02*
X221589285Y-180250000D01*
X221589285Y-179750000D02*
X221589285Y-179607142D01*
X221625000Y-179535714D01*
X221696428Y-179464285D01*
X221839285Y-179428571D01*
X222089285Y-179428571D01*
X222232142Y-179464285D01*
X222303571Y-179535714D01*
X222339285Y-179607142D01*
X222339285Y-179750000D01*
X222303571Y-179821428D01*
X222232142Y-179892857D01*
X222089285Y-179928571D01*
X221839285Y-179928571D01*
X221696428Y-179892857D01*
X221625000Y-179821428D01*
X221589285Y-179750000D01*
X222339285Y-179107142D02*
X221589285Y-179107142D01*
X222339285Y-178678571D01*
X221589285Y-178678571D01*
X221946428Y-178321428D02*
X221946428Y-178071428D01*
X222339285Y-177964285D02*
X222339285Y-178321428D01*
X221589285Y-178321428D01*
X221589285Y-177964285D01*
X222303571Y-177678571D02*
X222339285Y-177571428D01*
X222339285Y-177392857D01*
X222303571Y-177321428D01*
X222267857Y-177285714D01*
X222196428Y-177250000D01*
X222125000Y-177250000D01*
X222053571Y-177285714D01*
X222017857Y-177321428D01*
X221982142Y-177392857D01*
X221946428Y-177535714D01*
X221910714Y-177607142D01*
X221875000Y-177642857D01*
X221803571Y-177678571D01*
X221732142Y-177678571D01*
X221660714Y-177642857D01*
X221625000Y-177607142D01*
X221589285Y-177535714D01*
X221589285Y-177357142D01*
X221625000Y-177250000D01*
X221589285Y-176214285D02*
X221589285Y-176071428D01*
X221625000Y-176000000D01*
X221696428Y-175928571D01*
X221839285Y-175892857D01*
X222089285Y-175892857D01*
X222232142Y-175928571D01*
X222303571Y-176000000D01*
X222339285Y-176071428D01*
X222339285Y-176214285D01*
X222303571Y-176285714D01*
X222232142Y-176357142D01*
X222089285Y-176392857D01*
X221839285Y-176392857D01*
X221696428Y-176357142D01*
X221625000Y-176285714D01*
X221589285Y-176214285D01*
X221589285Y-175571428D02*
X222196428Y-175571428D01*
X222267857Y-175535714D01*
X222303571Y-175500000D01*
X222339285Y-175428571D01*
X222339285Y-175285714D01*
X222303571Y-175214285D01*
X222267857Y-175178571D01*
X222196428Y-175142857D01*
X221589285Y-175142857D01*
X221589285Y-174892857D02*
X221589285Y-174464285D01*
X222339285Y-174678571D02*
X221589285Y-174678571D01*
%TO.C,J11*%
X207089285Y-178607142D02*
X207625000Y-178607142D01*
X207732142Y-178642857D01*
X207803571Y-178714285D01*
X207839285Y-178821428D01*
X207839285Y-178892857D01*
X207839285Y-177857142D02*
X207839285Y-178285714D01*
X207839285Y-178071428D02*
X207089285Y-178071428D01*
X207196428Y-178142857D01*
X207267857Y-178214285D01*
X207303571Y-178285714D01*
X207839285Y-177142857D02*
X207839285Y-177571428D01*
X207839285Y-177357142D02*
X207089285Y-177357142D01*
X207196428Y-177428571D01*
X207267857Y-177500000D01*
X207303571Y-177571428D01*
X186589285Y-179410714D02*
X186589285Y-179267857D01*
X186625000Y-179196428D01*
X186696428Y-179125000D01*
X186839285Y-179089285D01*
X187089285Y-179089285D01*
X187232142Y-179125000D01*
X187303571Y-179196428D01*
X187339285Y-179267857D01*
X187339285Y-179410714D01*
X187303571Y-179482142D01*
X187232142Y-179553571D01*
X187089285Y-179589285D01*
X186839285Y-179589285D01*
X186696428Y-179553571D01*
X186625000Y-179482142D01*
X186589285Y-179410714D01*
X186589285Y-178767857D02*
X187196428Y-178767857D01*
X187267857Y-178732142D01*
X187303571Y-178696428D01*
X187339285Y-178625000D01*
X187339285Y-178482142D01*
X187303571Y-178410714D01*
X187267857Y-178375000D01*
X187196428Y-178339285D01*
X186589285Y-178339285D01*
X186589285Y-178089285D02*
X186589285Y-177660714D01*
X187339285Y-177875000D02*
X186589285Y-177875000D01*
X187339285Y-176410714D02*
X186982142Y-176660714D01*
X187339285Y-176839285D02*
X186589285Y-176839285D01*
X186589285Y-176553571D01*
X186625000Y-176482142D01*
X186660714Y-176446428D01*
X186732142Y-176410714D01*
X186839285Y-176410714D01*
X186910714Y-176446428D01*
X186946428Y-176482142D01*
X186982142Y-176553571D01*
X186982142Y-176839285D01*
%TO.C,J9*%
X175089285Y-116250000D02*
X175625000Y-116250000D01*
X175732142Y-116285714D01*
X175803571Y-116357142D01*
X175839285Y-116464285D01*
X175839285Y-116535714D01*
X175839285Y-115857142D02*
X175839285Y-115714285D01*
X175803571Y-115642857D01*
X175767857Y-115607142D01*
X175660714Y-115535714D01*
X175517857Y-115500000D01*
X175232142Y-115500000D01*
X175160714Y-115535714D01*
X175125000Y-115571428D01*
X175089285Y-115642857D01*
X175089285Y-115785714D01*
X175125000Y-115857142D01*
X175160714Y-115892857D01*
X175232142Y-115928571D01*
X175410714Y-115928571D01*
X175482142Y-115892857D01*
X175517857Y-115857142D01*
X175553571Y-115785714D01*
X175553571Y-115642857D01*
X175517857Y-115571428D01*
X175482142Y-115535714D01*
X175410714Y-115500000D01*
X155339285Y-117035714D02*
X154589285Y-117035714D01*
X155339285Y-116678571D02*
X154589285Y-116678571D01*
X155339285Y-116250000D01*
X154589285Y-116250000D01*
X154839285Y-115000000D02*
X155339285Y-115000000D01*
X154553571Y-115178571D02*
X155089285Y-115357142D01*
X155089285Y-114892857D01*
%TO.C,J8*%
X175089285Y-86250000D02*
X175625000Y-86250000D01*
X175732142Y-86285714D01*
X175803571Y-86357142D01*
X175839285Y-86464285D01*
X175839285Y-86535714D01*
X175410714Y-85785714D02*
X175375000Y-85857142D01*
X175339285Y-85892857D01*
X175267857Y-85928571D01*
X175232142Y-85928571D01*
X175160714Y-85892857D01*
X175125000Y-85857142D01*
X175089285Y-85785714D01*
X175089285Y-85642857D01*
X175125000Y-85571428D01*
X175160714Y-85535714D01*
X175232142Y-85500000D01*
X175267857Y-85500000D01*
X175339285Y-85535714D01*
X175375000Y-85571428D01*
X175410714Y-85642857D01*
X175410714Y-85785714D01*
X175446428Y-85857142D01*
X175482142Y-85892857D01*
X175553571Y-85928571D01*
X175696428Y-85928571D01*
X175767857Y-85892857D01*
X175803571Y-85857142D01*
X175839285Y-85785714D01*
X175839285Y-85642857D01*
X175803571Y-85571428D01*
X175767857Y-85535714D01*
X175696428Y-85500000D01*
X175553571Y-85500000D01*
X175482142Y-85535714D01*
X175446428Y-85571428D01*
X175410714Y-85642857D01*
X155339285Y-87035714D02*
X154589285Y-87035714D01*
X155339285Y-86678571D02*
X154589285Y-86678571D01*
X155339285Y-86250000D01*
X154589285Y-86250000D01*
X154589285Y-85392857D02*
X154589285Y-84928571D01*
X154875000Y-85178571D01*
X154875000Y-85071428D01*
X154910714Y-85000000D01*
X154946428Y-84964285D01*
X155017857Y-84928571D01*
X155196428Y-84928571D01*
X155267857Y-84964285D01*
X155303571Y-85000000D01*
X155339285Y-85071428D01*
X155339285Y-85285714D01*
X155303571Y-85357142D01*
X155267857Y-85392857D01*
%TO.C,J10*%
X175089285Y-178607142D02*
X175625000Y-178607142D01*
X175732142Y-178642857D01*
X175803571Y-178714285D01*
X175839285Y-178821428D01*
X175839285Y-178892857D01*
X175839285Y-177857142D02*
X175839285Y-178285714D01*
X175839285Y-178071428D02*
X175089285Y-178071428D01*
X175196428Y-178142857D01*
X175267857Y-178214285D01*
X175303571Y-178285714D01*
X175089285Y-177392857D02*
X175089285Y-177321428D01*
X175125000Y-177250000D01*
X175160714Y-177214285D01*
X175232142Y-177178571D01*
X175375000Y-177142857D01*
X175553571Y-177142857D01*
X175696428Y-177178571D01*
X175767857Y-177214285D01*
X175803571Y-177250000D01*
X175839285Y-177321428D01*
X175839285Y-177392857D01*
X175803571Y-177464285D01*
X175767857Y-177500000D01*
X175696428Y-177535714D01*
X175553571Y-177571428D01*
X175375000Y-177571428D01*
X175232142Y-177535714D01*
X175160714Y-177500000D01*
X175125000Y-177464285D01*
X175089285Y-177392857D01*
X154589285Y-179339285D02*
X154589285Y-179196428D01*
X154625000Y-179125000D01*
X154696428Y-179053571D01*
X154839285Y-179017857D01*
X155089285Y-179017857D01*
X155232142Y-179053571D01*
X155303571Y-179125000D01*
X155339285Y-179196428D01*
X155339285Y-179339285D01*
X155303571Y-179410714D01*
X155232142Y-179482142D01*
X155089285Y-179517857D01*
X154839285Y-179517857D01*
X154696428Y-179482142D01*
X154625000Y-179410714D01*
X154589285Y-179339285D01*
X154589285Y-178696428D02*
X155196428Y-178696428D01*
X155267857Y-178660714D01*
X155303571Y-178625000D01*
X155339285Y-178553571D01*
X155339285Y-178410714D01*
X155303571Y-178339285D01*
X155267857Y-178303571D01*
X155196428Y-178267857D01*
X154589285Y-178267857D01*
X154589285Y-178017857D02*
X154589285Y-177589285D01*
X155339285Y-177803571D02*
X154589285Y-177803571D01*
X155339285Y-176410714D02*
X155339285Y-176767857D01*
X154589285Y-176767857D01*
%TD*%
M02*
