%TF.GenerationSoftware,KiCad,Pcbnew,5.1.9-73d0e3b20d~88~ubuntu20.04.1*%
%TF.CreationDate,2021-04-01T10:52:46-04:00*%
%TF.ProjectId,ao_output,616f5f6f-7574-4707-9574-2e6b69636164,rev?*%
%TF.SameCoordinates,Original*%
%TF.FileFunction,Copper,L1,Top*%
%TF.FilePolarity,Positive*%
%FSLAX46Y46*%
G04 Gerber Fmt 4.6, Leading zero omitted, Abs format (unit mm)*
G04 Created by KiCad (PCBNEW 5.1.9-73d0e3b20d~88~ubuntu20.04.1) date 2021-04-01 10:52:46*
%MOMM*%
%LPD*%
G01*
G04 APERTURE LIST*
%TA.AperFunction,ComponentPad*%
%ADD10O,1.700000X1.700000*%
%TD*%
%TA.AperFunction,ComponentPad*%
%ADD11R,1.700000X1.700000*%
%TD*%
%TA.AperFunction,ComponentPad*%
%ADD12R,2.500000X2.500000*%
%TD*%
%TA.AperFunction,ComponentPad*%
%ADD13C,2.500000*%
%TD*%
%TA.AperFunction,Conductor*%
%ADD14C,0.250000*%
%TD*%
%TA.AperFunction,Conductor*%
%ADD15C,0.254000*%
%TD*%
%TA.AperFunction,Conductor*%
%ADD16C,0.100000*%
%TD*%
G04 APERTURE END LIST*
D10*
%TO.P,J11,10*%
%TO.N,IN4A*%
X-25660000Y-90040000D03*
%TO.P,J11,9*%
%TO.N,IN4*%
X-25660000Y-87500000D03*
%TO.P,J11,8*%
%TO.N,IN3A*%
X-23120000Y-90040000D03*
%TO.P,J11,7*%
%TO.N,IN3*%
X-23120000Y-87500000D03*
%TO.P,J11,6*%
%TO.N,IN2A*%
X-20580000Y-90040000D03*
%TO.P,J11,5*%
%TO.N,IN2*%
X-20580000Y-87500000D03*
%TO.P,J11,4*%
%TO.N,IN1A*%
X-18040000Y-90040000D03*
%TO.P,J11,3*%
%TO.N,IN1*%
X-18040000Y-87500000D03*
%TO.P,J11,2*%
%TO.N,Net-(J11-Pad2)*%
X-15500000Y-90040000D03*
D11*
%TO.P,J11,1*%
%TO.N,GND1*%
X-15500000Y-87500000D03*
%TD*%
D12*
%TO.P,RV2,1*%
%TO.N,GND1*%
X-35500000Y-92000000D03*
D13*
%TO.P,RV2,2*%
%TO.N,IN2A*%
X-40500000Y-97000000D03*
%TO.P,RV2,3*%
%TO.N,IN2*%
X-35500000Y-22000000D03*
%TD*%
D12*
%TO.P,RV1,1*%
%TO.N,GND1*%
X-10500000Y-92000000D03*
D13*
%TO.P,RV1,2*%
%TO.N,IN1A*%
X-15500000Y-97000000D03*
%TO.P,RV1,3*%
%TO.N,IN1*%
X-10500000Y-22000000D03*
%TD*%
D12*
%TO.P,RV4,1*%
%TO.N,GND1*%
X-85500000Y-92000000D03*
D13*
%TO.P,RV4,2*%
%TO.N,IN4A*%
X-90500000Y-97000000D03*
%TO.P,RV4,3*%
%TO.N,IN4*%
X-85500000Y-22000000D03*
%TD*%
D12*
%TO.P,RV3,1*%
%TO.N,GND1*%
X-60500000Y-92000000D03*
D13*
%TO.P,RV3,2*%
%TO.N,IN3A*%
X-65500000Y-97000000D03*
%TO.P,RV3,3*%
%TO.N,IN3*%
X-60500000Y-22000000D03*
%TD*%
D14*
%TO.N,IN4A*%
X-87300000Y-93800000D02*
X-90500000Y-97000000D01*
X-29420000Y-93800000D02*
X-87300000Y-93800000D01*
X-25660000Y-90040000D02*
X-29420000Y-93800000D01*
%TO.N,IN4*%
X-25660000Y-87500000D02*
X-28160000Y-87500000D01*
X-28160000Y-87500000D02*
X-85500000Y-30160000D01*
X-85500000Y-30160000D02*
X-85500000Y-22000000D01*
%TO.N,IN3A*%
X-28380000Y-95300000D02*
X-63800000Y-95300000D01*
X-23120000Y-90040000D02*
X-28380000Y-95300000D01*
X-63800000Y-95300000D02*
X-65500000Y-97000000D01*
%TO.N,IN3*%
X-24500000Y-58000000D02*
X-60500000Y-22000000D01*
X-24500000Y-86120000D02*
X-24500000Y-58000000D01*
X-23120000Y-87500000D02*
X-24500000Y-86120000D01*
%TO.N,IN2A*%
X-27500000Y-97000000D02*
X-40500000Y-97000000D01*
X-20580000Y-90080000D02*
X-27500000Y-97000000D01*
X-20580000Y-90040000D02*
X-20580000Y-90080000D01*
%TO.N,IN2*%
X-21500000Y-36000000D02*
X-35500000Y-22000000D01*
X-20580000Y-87500000D02*
X-21500000Y-86580000D01*
X-21500000Y-86580000D02*
X-21500000Y-36000000D01*
%TO.N,IN1A*%
X-15500000Y-92580000D02*
X-18040000Y-90040000D01*
X-15500000Y-97000000D02*
X-15500000Y-92580000D01*
%TO.N,IN1*%
X-17040000Y-28540000D02*
X-10500000Y-22000000D01*
X-18040000Y-87500000D02*
X-17040000Y-86500000D01*
X-17040000Y-86500000D02*
X-17040000Y-28540000D01*
%TD*%
D15*
%TO.N,GND1*%
X-3184999Y-104315000D02*
X-96815000Y-104315000D01*
X-96815000Y-96814344D01*
X-92385000Y-96814344D01*
X-92385000Y-97185656D01*
X-92312561Y-97549834D01*
X-92170466Y-97892882D01*
X-91964175Y-98201618D01*
X-91701618Y-98464175D01*
X-91392882Y-98670466D01*
X-91049834Y-98812561D01*
X-90685656Y-98885000D01*
X-90314344Y-98885000D01*
X-89950166Y-98812561D01*
X-89607118Y-98670466D01*
X-89298382Y-98464175D01*
X-89035825Y-98201618D01*
X-88829534Y-97892882D01*
X-88687439Y-97549834D01*
X-88615000Y-97185656D01*
X-88615000Y-96814344D01*
X-88687439Y-96450166D01*
X-88742481Y-96317283D01*
X-86985197Y-94560000D01*
X-63978665Y-94560000D01*
X-64092247Y-94594454D01*
X-64224277Y-94665026D01*
X-64307917Y-94733668D01*
X-64340001Y-94759999D01*
X-64363799Y-94788997D01*
X-64817283Y-95242481D01*
X-64950166Y-95187439D01*
X-65314344Y-95115000D01*
X-65685656Y-95115000D01*
X-66049834Y-95187439D01*
X-66392882Y-95329534D01*
X-66701618Y-95535825D01*
X-66964175Y-95798382D01*
X-67170466Y-96107118D01*
X-67312561Y-96450166D01*
X-67385000Y-96814344D01*
X-67385000Y-97185656D01*
X-67312561Y-97549834D01*
X-67170466Y-97892882D01*
X-66964175Y-98201618D01*
X-66701618Y-98464175D01*
X-66392882Y-98670466D01*
X-66049834Y-98812561D01*
X-65685656Y-98885000D01*
X-65314344Y-98885000D01*
X-64950166Y-98812561D01*
X-64607118Y-98670466D01*
X-64298382Y-98464175D01*
X-64035825Y-98201618D01*
X-63829534Y-97892882D01*
X-63687439Y-97549834D01*
X-63615000Y-97185656D01*
X-63615000Y-96814344D01*
X-63687439Y-96450166D01*
X-63742481Y-96317283D01*
X-63485198Y-96060000D01*
X-42138983Y-96060000D01*
X-42170466Y-96107118D01*
X-42312561Y-96450166D01*
X-42385000Y-96814344D01*
X-42385000Y-97185656D01*
X-42312561Y-97549834D01*
X-42170466Y-97892882D01*
X-41964175Y-98201618D01*
X-41701618Y-98464175D01*
X-41392882Y-98670466D01*
X-41049834Y-98812561D01*
X-40685656Y-98885000D01*
X-40314344Y-98885000D01*
X-39950166Y-98812561D01*
X-39607118Y-98670466D01*
X-39298382Y-98464175D01*
X-39035825Y-98201618D01*
X-38829534Y-97892882D01*
X-38774493Y-97760000D01*
X-27537322Y-97760000D01*
X-27500000Y-97763676D01*
X-27462678Y-97760000D01*
X-27462667Y-97760000D01*
X-27351014Y-97749003D01*
X-27207753Y-97705546D01*
X-27075724Y-97634974D01*
X-26959999Y-97540001D01*
X-26936196Y-97510997D01*
X-20913044Y-91487846D01*
X-20726260Y-91525000D01*
X-20433740Y-91525000D01*
X-20146842Y-91467932D01*
X-19876589Y-91355990D01*
X-19633368Y-91193475D01*
X-19426525Y-90986632D01*
X-19310000Y-90812240D01*
X-19193475Y-90986632D01*
X-18986632Y-91193475D01*
X-18743411Y-91355990D01*
X-18473158Y-91467932D01*
X-18186260Y-91525000D01*
X-17893740Y-91525000D01*
X-17673592Y-91481210D01*
X-16259999Y-92894804D01*
X-16260000Y-95274492D01*
X-16392882Y-95329534D01*
X-16701618Y-95535825D01*
X-16964175Y-95798382D01*
X-17170466Y-96107118D01*
X-17312561Y-96450166D01*
X-17385000Y-96814344D01*
X-17385000Y-97185656D01*
X-17312561Y-97549834D01*
X-17170466Y-97892882D01*
X-16964175Y-98201618D01*
X-16701618Y-98464175D01*
X-16392882Y-98670466D01*
X-16049834Y-98812561D01*
X-15685656Y-98885000D01*
X-15314344Y-98885000D01*
X-14950166Y-98812561D01*
X-14607118Y-98670466D01*
X-14298382Y-98464175D01*
X-14035825Y-98201618D01*
X-13829534Y-97892882D01*
X-13687439Y-97549834D01*
X-13615000Y-97185656D01*
X-13615000Y-96814344D01*
X-13687439Y-96450166D01*
X-13829534Y-96107118D01*
X-14035825Y-95798382D01*
X-14298382Y-95535825D01*
X-14607118Y-95329534D01*
X-14740000Y-95274493D01*
X-14740000Y-93250000D01*
X-12388072Y-93250000D01*
X-12375812Y-93374482D01*
X-12339502Y-93494180D01*
X-12280537Y-93604494D01*
X-12201185Y-93701185D01*
X-12104494Y-93780537D01*
X-11994180Y-93839502D01*
X-11874482Y-93875812D01*
X-11750000Y-93888072D01*
X-10785750Y-93885000D01*
X-10627000Y-93726250D01*
X-10627000Y-92127000D01*
X-10373000Y-92127000D01*
X-10373000Y-93726250D01*
X-10214250Y-93885000D01*
X-9250000Y-93888072D01*
X-9125518Y-93875812D01*
X-9005820Y-93839502D01*
X-8895506Y-93780537D01*
X-8798815Y-93701185D01*
X-8719463Y-93604494D01*
X-8660498Y-93494180D01*
X-8624188Y-93374482D01*
X-8611928Y-93250000D01*
X-8615000Y-92285750D01*
X-8773750Y-92127000D01*
X-10373000Y-92127000D01*
X-10627000Y-92127000D01*
X-12226250Y-92127000D01*
X-12385000Y-92285750D01*
X-12388072Y-93250000D01*
X-14740000Y-93250000D01*
X-14740000Y-92617322D01*
X-14736324Y-92579999D01*
X-14740000Y-92542676D01*
X-14740000Y-92542667D01*
X-14750997Y-92431014D01*
X-14794454Y-92287753D01*
X-14865026Y-92155724D01*
X-14888599Y-92127000D01*
X-14936201Y-92068996D01*
X-14936205Y-92068992D01*
X-14959999Y-92039999D01*
X-14988992Y-92016205D01*
X-15480197Y-91525000D01*
X-15353740Y-91525000D01*
X-15066842Y-91467932D01*
X-14796589Y-91355990D01*
X-14553368Y-91193475D01*
X-14346525Y-90986632D01*
X-14188413Y-90750000D01*
X-12388072Y-90750000D01*
X-12385000Y-91714250D01*
X-12226250Y-91873000D01*
X-10627000Y-91873000D01*
X-10627000Y-90273750D01*
X-10373000Y-90273750D01*
X-10373000Y-91873000D01*
X-8773750Y-91873000D01*
X-8615000Y-91714250D01*
X-8611928Y-90750000D01*
X-8624188Y-90625518D01*
X-8660498Y-90505820D01*
X-8719463Y-90395506D01*
X-8798815Y-90298815D01*
X-8895506Y-90219463D01*
X-9005820Y-90160498D01*
X-9125518Y-90124188D01*
X-9250000Y-90111928D01*
X-10214250Y-90115000D01*
X-10373000Y-90273750D01*
X-10627000Y-90273750D01*
X-10785750Y-90115000D01*
X-11750000Y-90111928D01*
X-11874482Y-90124188D01*
X-11994180Y-90160498D01*
X-12104494Y-90219463D01*
X-12201185Y-90298815D01*
X-12280537Y-90395506D01*
X-12339502Y-90505820D01*
X-12375812Y-90625518D01*
X-12388072Y-90750000D01*
X-14188413Y-90750000D01*
X-14184010Y-90743411D01*
X-14072068Y-90473158D01*
X-14015000Y-90186260D01*
X-14015000Y-89893740D01*
X-14072068Y-89606842D01*
X-14184010Y-89336589D01*
X-14346525Y-89093368D01*
X-14478380Y-88961513D01*
X-14405820Y-88939502D01*
X-14295506Y-88880537D01*
X-14198815Y-88801185D01*
X-14119463Y-88704494D01*
X-14060498Y-88594180D01*
X-14024188Y-88474482D01*
X-14011928Y-88350000D01*
X-14015000Y-87785750D01*
X-14173750Y-87627000D01*
X-15373000Y-87627000D01*
X-15373000Y-87647000D01*
X-15627000Y-87647000D01*
X-15627000Y-87627000D01*
X-15647000Y-87627000D01*
X-15647000Y-87373000D01*
X-15627000Y-87373000D01*
X-15627000Y-86173750D01*
X-15373000Y-86173750D01*
X-15373000Y-87373000D01*
X-14173750Y-87373000D01*
X-14015000Y-87214250D01*
X-14011928Y-86650000D01*
X-14024188Y-86525518D01*
X-14060498Y-86405820D01*
X-14119463Y-86295506D01*
X-14198815Y-86198815D01*
X-14295506Y-86119463D01*
X-14405820Y-86060498D01*
X-14525518Y-86024188D01*
X-14650000Y-86011928D01*
X-15214250Y-86015000D01*
X-15373000Y-86173750D01*
X-15627000Y-86173750D01*
X-15785750Y-86015000D01*
X-16280000Y-86012309D01*
X-16280000Y-28854801D01*
X-11182717Y-23757519D01*
X-11049834Y-23812561D01*
X-10685656Y-23885000D01*
X-10314344Y-23885000D01*
X-9950166Y-23812561D01*
X-9607118Y-23670466D01*
X-9298382Y-23464175D01*
X-9035825Y-23201618D01*
X-8829534Y-22892882D01*
X-8687439Y-22549834D01*
X-8615000Y-22185656D01*
X-8615000Y-21814344D01*
X-8687439Y-21450166D01*
X-8829534Y-21107118D01*
X-9035825Y-20798382D01*
X-9298382Y-20535825D01*
X-9607118Y-20329534D01*
X-9950166Y-20187439D01*
X-10314344Y-20115000D01*
X-10685656Y-20115000D01*
X-11049834Y-20187439D01*
X-11392882Y-20329534D01*
X-11701618Y-20535825D01*
X-11964175Y-20798382D01*
X-12170466Y-21107118D01*
X-12312561Y-21450166D01*
X-12385000Y-21814344D01*
X-12385000Y-22185656D01*
X-12312561Y-22549834D01*
X-12257519Y-22682717D01*
X-17551002Y-27976201D01*
X-17580000Y-27999999D01*
X-17603798Y-28028997D01*
X-17603799Y-28028998D01*
X-17674974Y-28115724D01*
X-17745546Y-28247754D01*
X-17789002Y-28391015D01*
X-17803676Y-28540000D01*
X-17799999Y-28577333D01*
X-17800000Y-86033646D01*
X-17893740Y-86015000D01*
X-18186260Y-86015000D01*
X-18473158Y-86072068D01*
X-18743411Y-86184010D01*
X-18986632Y-86346525D01*
X-19193475Y-86553368D01*
X-19310000Y-86727760D01*
X-19426525Y-86553368D01*
X-19633368Y-86346525D01*
X-19876589Y-86184010D01*
X-20146842Y-86072068D01*
X-20433740Y-86015000D01*
X-20726260Y-86015000D01*
X-20740000Y-86017733D01*
X-20740000Y-36037323D01*
X-20736324Y-36000000D01*
X-20740000Y-35962677D01*
X-20740000Y-35962667D01*
X-20750997Y-35851014D01*
X-20794454Y-35707753D01*
X-20865026Y-35575724D01*
X-20959999Y-35459999D01*
X-20988997Y-35436201D01*
X-33742481Y-22682718D01*
X-33687439Y-22549834D01*
X-33615000Y-22185656D01*
X-33615000Y-21814344D01*
X-33687439Y-21450166D01*
X-33829534Y-21107118D01*
X-34035825Y-20798382D01*
X-34298382Y-20535825D01*
X-34607118Y-20329534D01*
X-34950166Y-20187439D01*
X-35314344Y-20115000D01*
X-35685656Y-20115000D01*
X-36049834Y-20187439D01*
X-36392882Y-20329534D01*
X-36701618Y-20535825D01*
X-36964175Y-20798382D01*
X-37170466Y-21107118D01*
X-37312561Y-21450166D01*
X-37385000Y-21814344D01*
X-37385000Y-22185656D01*
X-37312561Y-22549834D01*
X-37170466Y-22892882D01*
X-36964175Y-23201618D01*
X-36701618Y-23464175D01*
X-36392882Y-23670466D01*
X-36049834Y-23812561D01*
X-35685656Y-23885000D01*
X-35314344Y-23885000D01*
X-34950166Y-23812561D01*
X-34817282Y-23757519D01*
X-22259999Y-36314803D01*
X-22260000Y-86288639D01*
X-22416589Y-86184010D01*
X-22686842Y-86072068D01*
X-22973740Y-86015000D01*
X-23266260Y-86015000D01*
X-23486408Y-86058791D01*
X-23740000Y-85805199D01*
X-23740000Y-58037322D01*
X-23736324Y-57999999D01*
X-23740000Y-57962676D01*
X-23740000Y-57962667D01*
X-23750997Y-57851014D01*
X-23794454Y-57707753D01*
X-23865026Y-57575724D01*
X-23959999Y-57459999D01*
X-23988997Y-57436201D01*
X-58742481Y-22682718D01*
X-58687439Y-22549834D01*
X-58615000Y-22185656D01*
X-58615000Y-21814344D01*
X-58687439Y-21450166D01*
X-58829534Y-21107118D01*
X-59035825Y-20798382D01*
X-59298382Y-20535825D01*
X-59607118Y-20329534D01*
X-59950166Y-20187439D01*
X-60314344Y-20115000D01*
X-60685656Y-20115000D01*
X-61049834Y-20187439D01*
X-61392882Y-20329534D01*
X-61701618Y-20535825D01*
X-61964175Y-20798382D01*
X-62170466Y-21107118D01*
X-62312561Y-21450166D01*
X-62385000Y-21814344D01*
X-62385000Y-22185656D01*
X-62312561Y-22549834D01*
X-62170466Y-22892882D01*
X-61964175Y-23201618D01*
X-61701618Y-23464175D01*
X-61392882Y-23670466D01*
X-61049834Y-23812561D01*
X-60685656Y-23885000D01*
X-60314344Y-23885000D01*
X-59950166Y-23812561D01*
X-59817282Y-23757519D01*
X-25259999Y-58314803D01*
X-25260000Y-86065472D01*
X-25513740Y-86015000D01*
X-25806260Y-86015000D01*
X-26093158Y-86072068D01*
X-26363411Y-86184010D01*
X-26606632Y-86346525D01*
X-26813475Y-86553368D01*
X-26938178Y-86740000D01*
X-27845198Y-86740000D01*
X-84740000Y-29845199D01*
X-84740000Y-23725507D01*
X-84607118Y-23670466D01*
X-84298382Y-23464175D01*
X-84035825Y-23201618D01*
X-83829534Y-22892882D01*
X-83687439Y-22549834D01*
X-83615000Y-22185656D01*
X-83615000Y-21814344D01*
X-83687439Y-21450166D01*
X-83829534Y-21107118D01*
X-84035825Y-20798382D01*
X-84298382Y-20535825D01*
X-84607118Y-20329534D01*
X-84950166Y-20187439D01*
X-85314344Y-20115000D01*
X-85685656Y-20115000D01*
X-86049834Y-20187439D01*
X-86392882Y-20329534D01*
X-86701618Y-20535825D01*
X-86964175Y-20798382D01*
X-87170466Y-21107118D01*
X-87312561Y-21450166D01*
X-87385000Y-21814344D01*
X-87385000Y-22185656D01*
X-87312561Y-22549834D01*
X-87170466Y-22892882D01*
X-86964175Y-23201618D01*
X-86701618Y-23464175D01*
X-86392882Y-23670466D01*
X-86259999Y-23725508D01*
X-86260000Y-30122678D01*
X-86263676Y-30160000D01*
X-86260000Y-30197322D01*
X-86260000Y-30197332D01*
X-86249003Y-30308985D01*
X-86205546Y-30452246D01*
X-86134974Y-30584276D01*
X-86095129Y-30632826D01*
X-86040001Y-30700001D01*
X-86010997Y-30723804D01*
X-28723799Y-88011003D01*
X-28700001Y-88040001D01*
X-28584276Y-88134974D01*
X-28452247Y-88205546D01*
X-28308986Y-88249003D01*
X-28197333Y-88260000D01*
X-28197325Y-88260000D01*
X-28160000Y-88263676D01*
X-28122675Y-88260000D01*
X-26938178Y-88260000D01*
X-26813475Y-88446632D01*
X-26606632Y-88653475D01*
X-26432240Y-88770000D01*
X-26606632Y-88886525D01*
X-26813475Y-89093368D01*
X-26975990Y-89336589D01*
X-27087932Y-89606842D01*
X-27145000Y-89893740D01*
X-27145000Y-90186260D01*
X-27101210Y-90406408D01*
X-29734801Y-93040000D01*
X-33612597Y-93040000D01*
X-33615000Y-92285750D01*
X-33773750Y-92127000D01*
X-35373000Y-92127000D01*
X-35373000Y-92147000D01*
X-35627000Y-92147000D01*
X-35627000Y-92127000D01*
X-37226250Y-92127000D01*
X-37385000Y-92285750D01*
X-37387403Y-93040000D01*
X-58612597Y-93040000D01*
X-58615000Y-92285750D01*
X-58773750Y-92127000D01*
X-60373000Y-92127000D01*
X-60373000Y-92147000D01*
X-60627000Y-92147000D01*
X-60627000Y-92127000D01*
X-62226250Y-92127000D01*
X-62385000Y-92285750D01*
X-62387403Y-93040000D01*
X-83612597Y-93040000D01*
X-83615000Y-92285750D01*
X-83773750Y-92127000D01*
X-85373000Y-92127000D01*
X-85373000Y-92147000D01*
X-85627000Y-92147000D01*
X-85627000Y-92127000D01*
X-87226250Y-92127000D01*
X-87385000Y-92285750D01*
X-87387419Y-93044933D01*
X-87448986Y-93050997D01*
X-87592247Y-93094454D01*
X-87724276Y-93165026D01*
X-87724278Y-93165027D01*
X-87724277Y-93165027D01*
X-87811004Y-93236201D01*
X-87811008Y-93236205D01*
X-87840001Y-93259999D01*
X-87863795Y-93288992D01*
X-89817283Y-95242481D01*
X-89950166Y-95187439D01*
X-90314344Y-95115000D01*
X-90685656Y-95115000D01*
X-91049834Y-95187439D01*
X-91392882Y-95329534D01*
X-91701618Y-95535825D01*
X-91964175Y-95798382D01*
X-92170466Y-96107118D01*
X-92312561Y-96450166D01*
X-92385000Y-96814344D01*
X-96815000Y-96814344D01*
X-96815000Y-90750000D01*
X-87388072Y-90750000D01*
X-87385000Y-91714250D01*
X-87226250Y-91873000D01*
X-85627000Y-91873000D01*
X-85627000Y-90273750D01*
X-85373000Y-90273750D01*
X-85373000Y-91873000D01*
X-83773750Y-91873000D01*
X-83615000Y-91714250D01*
X-83611928Y-90750000D01*
X-62388072Y-90750000D01*
X-62385000Y-91714250D01*
X-62226250Y-91873000D01*
X-60627000Y-91873000D01*
X-60627000Y-90273750D01*
X-60373000Y-90273750D01*
X-60373000Y-91873000D01*
X-58773750Y-91873000D01*
X-58615000Y-91714250D01*
X-58611928Y-90750000D01*
X-37388072Y-90750000D01*
X-37385000Y-91714250D01*
X-37226250Y-91873000D01*
X-35627000Y-91873000D01*
X-35627000Y-90273750D01*
X-35373000Y-90273750D01*
X-35373000Y-91873000D01*
X-33773750Y-91873000D01*
X-33615000Y-91714250D01*
X-33611928Y-90750000D01*
X-33624188Y-90625518D01*
X-33660498Y-90505820D01*
X-33719463Y-90395506D01*
X-33798815Y-90298815D01*
X-33895506Y-90219463D01*
X-34005820Y-90160498D01*
X-34125518Y-90124188D01*
X-34250000Y-90111928D01*
X-35214250Y-90115000D01*
X-35373000Y-90273750D01*
X-35627000Y-90273750D01*
X-35785750Y-90115000D01*
X-36750000Y-90111928D01*
X-36874482Y-90124188D01*
X-36994180Y-90160498D01*
X-37104494Y-90219463D01*
X-37201185Y-90298815D01*
X-37280537Y-90395506D01*
X-37339502Y-90505820D01*
X-37375812Y-90625518D01*
X-37388072Y-90750000D01*
X-58611928Y-90750000D01*
X-58624188Y-90625518D01*
X-58660498Y-90505820D01*
X-58719463Y-90395506D01*
X-58798815Y-90298815D01*
X-58895506Y-90219463D01*
X-59005820Y-90160498D01*
X-59125518Y-90124188D01*
X-59250000Y-90111928D01*
X-60214250Y-90115000D01*
X-60373000Y-90273750D01*
X-60627000Y-90273750D01*
X-60785750Y-90115000D01*
X-61750000Y-90111928D01*
X-61874482Y-90124188D01*
X-61994180Y-90160498D01*
X-62104494Y-90219463D01*
X-62201185Y-90298815D01*
X-62280537Y-90395506D01*
X-62339502Y-90505820D01*
X-62375812Y-90625518D01*
X-62388072Y-90750000D01*
X-83611928Y-90750000D01*
X-83624188Y-90625518D01*
X-83660498Y-90505820D01*
X-83719463Y-90395506D01*
X-83798815Y-90298815D01*
X-83895506Y-90219463D01*
X-84005820Y-90160498D01*
X-84125518Y-90124188D01*
X-84250000Y-90111928D01*
X-85214250Y-90115000D01*
X-85373000Y-90273750D01*
X-85627000Y-90273750D01*
X-85785750Y-90115000D01*
X-86750000Y-90111928D01*
X-86874482Y-90124188D01*
X-86994180Y-90160498D01*
X-87104494Y-90219463D01*
X-87201185Y-90298815D01*
X-87280537Y-90395506D01*
X-87339502Y-90505820D01*
X-87375812Y-90625518D01*
X-87388072Y-90750000D01*
X-96815000Y-90750000D01*
X-96815000Y-15279872D01*
X-96735000Y-15279872D01*
X-96735000Y-15720128D01*
X-96649110Y-16151925D01*
X-96480631Y-16558669D01*
X-96236038Y-16924729D01*
X-95924729Y-17236038D01*
X-95558669Y-17480631D01*
X-95151925Y-17649110D01*
X-94720128Y-17735000D01*
X-94279872Y-17735000D01*
X-93848075Y-17649110D01*
X-93441331Y-17480631D01*
X-93075271Y-17236038D01*
X-92763962Y-16924729D01*
X-92519369Y-16558669D01*
X-92350890Y-16151925D01*
X-92265000Y-15720128D01*
X-92265000Y-15279872D01*
X-7735000Y-15279872D01*
X-7735000Y-15720128D01*
X-7649110Y-16151925D01*
X-7480631Y-16558669D01*
X-7236038Y-16924729D01*
X-6924729Y-17236038D01*
X-6558669Y-17480631D01*
X-6151925Y-17649110D01*
X-5720128Y-17735000D01*
X-5279872Y-17735000D01*
X-4848075Y-17649110D01*
X-4441331Y-17480631D01*
X-4075271Y-17236038D01*
X-3763962Y-16924729D01*
X-3519369Y-16558669D01*
X-3350890Y-16151925D01*
X-3265000Y-15720128D01*
X-3265000Y-15279872D01*
X-3350890Y-14848075D01*
X-3519369Y-14441331D01*
X-3763962Y-14075271D01*
X-4075271Y-13763962D01*
X-4441331Y-13519369D01*
X-4848075Y-13350890D01*
X-5279872Y-13265000D01*
X-5720128Y-13265000D01*
X-6151925Y-13350890D01*
X-6558669Y-13519369D01*
X-6924729Y-13763962D01*
X-7236038Y-14075271D01*
X-7480631Y-14441331D01*
X-7649110Y-14848075D01*
X-7735000Y-15279872D01*
X-92265000Y-15279872D01*
X-92350890Y-14848075D01*
X-92519369Y-14441331D01*
X-92763962Y-14075271D01*
X-93075271Y-13763962D01*
X-93441331Y-13519369D01*
X-93848075Y-13350890D01*
X-94279872Y-13265000D01*
X-94720128Y-13265000D01*
X-95151925Y-13350890D01*
X-95558669Y-13519369D01*
X-95924729Y-13763962D01*
X-96236038Y-14075271D01*
X-96480631Y-14441331D01*
X-96649110Y-14848075D01*
X-96735000Y-15279872D01*
X-96815000Y-15279872D01*
X-96815000Y-13185000D01*
X-3185000Y-13185000D01*
X-3184999Y-104315000D01*
%TA.AperFunction,Conductor*%
D16*
G36*
X-3184999Y-104315000D02*
G01*
X-96815000Y-104315000D01*
X-96815000Y-96814344D01*
X-92385000Y-96814344D01*
X-92385000Y-97185656D01*
X-92312561Y-97549834D01*
X-92170466Y-97892882D01*
X-91964175Y-98201618D01*
X-91701618Y-98464175D01*
X-91392882Y-98670466D01*
X-91049834Y-98812561D01*
X-90685656Y-98885000D01*
X-90314344Y-98885000D01*
X-89950166Y-98812561D01*
X-89607118Y-98670466D01*
X-89298382Y-98464175D01*
X-89035825Y-98201618D01*
X-88829534Y-97892882D01*
X-88687439Y-97549834D01*
X-88615000Y-97185656D01*
X-88615000Y-96814344D01*
X-88687439Y-96450166D01*
X-88742481Y-96317283D01*
X-86985197Y-94560000D01*
X-63978665Y-94560000D01*
X-64092247Y-94594454D01*
X-64224277Y-94665026D01*
X-64307917Y-94733668D01*
X-64340001Y-94759999D01*
X-64363799Y-94788997D01*
X-64817283Y-95242481D01*
X-64950166Y-95187439D01*
X-65314344Y-95115000D01*
X-65685656Y-95115000D01*
X-66049834Y-95187439D01*
X-66392882Y-95329534D01*
X-66701618Y-95535825D01*
X-66964175Y-95798382D01*
X-67170466Y-96107118D01*
X-67312561Y-96450166D01*
X-67385000Y-96814344D01*
X-67385000Y-97185656D01*
X-67312561Y-97549834D01*
X-67170466Y-97892882D01*
X-66964175Y-98201618D01*
X-66701618Y-98464175D01*
X-66392882Y-98670466D01*
X-66049834Y-98812561D01*
X-65685656Y-98885000D01*
X-65314344Y-98885000D01*
X-64950166Y-98812561D01*
X-64607118Y-98670466D01*
X-64298382Y-98464175D01*
X-64035825Y-98201618D01*
X-63829534Y-97892882D01*
X-63687439Y-97549834D01*
X-63615000Y-97185656D01*
X-63615000Y-96814344D01*
X-63687439Y-96450166D01*
X-63742481Y-96317283D01*
X-63485198Y-96060000D01*
X-42138983Y-96060000D01*
X-42170466Y-96107118D01*
X-42312561Y-96450166D01*
X-42385000Y-96814344D01*
X-42385000Y-97185656D01*
X-42312561Y-97549834D01*
X-42170466Y-97892882D01*
X-41964175Y-98201618D01*
X-41701618Y-98464175D01*
X-41392882Y-98670466D01*
X-41049834Y-98812561D01*
X-40685656Y-98885000D01*
X-40314344Y-98885000D01*
X-39950166Y-98812561D01*
X-39607118Y-98670466D01*
X-39298382Y-98464175D01*
X-39035825Y-98201618D01*
X-38829534Y-97892882D01*
X-38774493Y-97760000D01*
X-27537322Y-97760000D01*
X-27500000Y-97763676D01*
X-27462678Y-97760000D01*
X-27462667Y-97760000D01*
X-27351014Y-97749003D01*
X-27207753Y-97705546D01*
X-27075724Y-97634974D01*
X-26959999Y-97540001D01*
X-26936196Y-97510997D01*
X-20913044Y-91487846D01*
X-20726260Y-91525000D01*
X-20433740Y-91525000D01*
X-20146842Y-91467932D01*
X-19876589Y-91355990D01*
X-19633368Y-91193475D01*
X-19426525Y-90986632D01*
X-19310000Y-90812240D01*
X-19193475Y-90986632D01*
X-18986632Y-91193475D01*
X-18743411Y-91355990D01*
X-18473158Y-91467932D01*
X-18186260Y-91525000D01*
X-17893740Y-91525000D01*
X-17673592Y-91481210D01*
X-16259999Y-92894804D01*
X-16260000Y-95274492D01*
X-16392882Y-95329534D01*
X-16701618Y-95535825D01*
X-16964175Y-95798382D01*
X-17170466Y-96107118D01*
X-17312561Y-96450166D01*
X-17385000Y-96814344D01*
X-17385000Y-97185656D01*
X-17312561Y-97549834D01*
X-17170466Y-97892882D01*
X-16964175Y-98201618D01*
X-16701618Y-98464175D01*
X-16392882Y-98670466D01*
X-16049834Y-98812561D01*
X-15685656Y-98885000D01*
X-15314344Y-98885000D01*
X-14950166Y-98812561D01*
X-14607118Y-98670466D01*
X-14298382Y-98464175D01*
X-14035825Y-98201618D01*
X-13829534Y-97892882D01*
X-13687439Y-97549834D01*
X-13615000Y-97185656D01*
X-13615000Y-96814344D01*
X-13687439Y-96450166D01*
X-13829534Y-96107118D01*
X-14035825Y-95798382D01*
X-14298382Y-95535825D01*
X-14607118Y-95329534D01*
X-14740000Y-95274493D01*
X-14740000Y-93250000D01*
X-12388072Y-93250000D01*
X-12375812Y-93374482D01*
X-12339502Y-93494180D01*
X-12280537Y-93604494D01*
X-12201185Y-93701185D01*
X-12104494Y-93780537D01*
X-11994180Y-93839502D01*
X-11874482Y-93875812D01*
X-11750000Y-93888072D01*
X-10785750Y-93885000D01*
X-10627000Y-93726250D01*
X-10627000Y-92127000D01*
X-10373000Y-92127000D01*
X-10373000Y-93726250D01*
X-10214250Y-93885000D01*
X-9250000Y-93888072D01*
X-9125518Y-93875812D01*
X-9005820Y-93839502D01*
X-8895506Y-93780537D01*
X-8798815Y-93701185D01*
X-8719463Y-93604494D01*
X-8660498Y-93494180D01*
X-8624188Y-93374482D01*
X-8611928Y-93250000D01*
X-8615000Y-92285750D01*
X-8773750Y-92127000D01*
X-10373000Y-92127000D01*
X-10627000Y-92127000D01*
X-12226250Y-92127000D01*
X-12385000Y-92285750D01*
X-12388072Y-93250000D01*
X-14740000Y-93250000D01*
X-14740000Y-92617322D01*
X-14736324Y-92579999D01*
X-14740000Y-92542676D01*
X-14740000Y-92542667D01*
X-14750997Y-92431014D01*
X-14794454Y-92287753D01*
X-14865026Y-92155724D01*
X-14888599Y-92127000D01*
X-14936201Y-92068996D01*
X-14936205Y-92068992D01*
X-14959999Y-92039999D01*
X-14988992Y-92016205D01*
X-15480197Y-91525000D01*
X-15353740Y-91525000D01*
X-15066842Y-91467932D01*
X-14796589Y-91355990D01*
X-14553368Y-91193475D01*
X-14346525Y-90986632D01*
X-14188413Y-90750000D01*
X-12388072Y-90750000D01*
X-12385000Y-91714250D01*
X-12226250Y-91873000D01*
X-10627000Y-91873000D01*
X-10627000Y-90273750D01*
X-10373000Y-90273750D01*
X-10373000Y-91873000D01*
X-8773750Y-91873000D01*
X-8615000Y-91714250D01*
X-8611928Y-90750000D01*
X-8624188Y-90625518D01*
X-8660498Y-90505820D01*
X-8719463Y-90395506D01*
X-8798815Y-90298815D01*
X-8895506Y-90219463D01*
X-9005820Y-90160498D01*
X-9125518Y-90124188D01*
X-9250000Y-90111928D01*
X-10214250Y-90115000D01*
X-10373000Y-90273750D01*
X-10627000Y-90273750D01*
X-10785750Y-90115000D01*
X-11750000Y-90111928D01*
X-11874482Y-90124188D01*
X-11994180Y-90160498D01*
X-12104494Y-90219463D01*
X-12201185Y-90298815D01*
X-12280537Y-90395506D01*
X-12339502Y-90505820D01*
X-12375812Y-90625518D01*
X-12388072Y-90750000D01*
X-14188413Y-90750000D01*
X-14184010Y-90743411D01*
X-14072068Y-90473158D01*
X-14015000Y-90186260D01*
X-14015000Y-89893740D01*
X-14072068Y-89606842D01*
X-14184010Y-89336589D01*
X-14346525Y-89093368D01*
X-14478380Y-88961513D01*
X-14405820Y-88939502D01*
X-14295506Y-88880537D01*
X-14198815Y-88801185D01*
X-14119463Y-88704494D01*
X-14060498Y-88594180D01*
X-14024188Y-88474482D01*
X-14011928Y-88350000D01*
X-14015000Y-87785750D01*
X-14173750Y-87627000D01*
X-15373000Y-87627000D01*
X-15373000Y-87647000D01*
X-15627000Y-87647000D01*
X-15627000Y-87627000D01*
X-15647000Y-87627000D01*
X-15647000Y-87373000D01*
X-15627000Y-87373000D01*
X-15627000Y-86173750D01*
X-15373000Y-86173750D01*
X-15373000Y-87373000D01*
X-14173750Y-87373000D01*
X-14015000Y-87214250D01*
X-14011928Y-86650000D01*
X-14024188Y-86525518D01*
X-14060498Y-86405820D01*
X-14119463Y-86295506D01*
X-14198815Y-86198815D01*
X-14295506Y-86119463D01*
X-14405820Y-86060498D01*
X-14525518Y-86024188D01*
X-14650000Y-86011928D01*
X-15214250Y-86015000D01*
X-15373000Y-86173750D01*
X-15627000Y-86173750D01*
X-15785750Y-86015000D01*
X-16280000Y-86012309D01*
X-16280000Y-28854801D01*
X-11182717Y-23757519D01*
X-11049834Y-23812561D01*
X-10685656Y-23885000D01*
X-10314344Y-23885000D01*
X-9950166Y-23812561D01*
X-9607118Y-23670466D01*
X-9298382Y-23464175D01*
X-9035825Y-23201618D01*
X-8829534Y-22892882D01*
X-8687439Y-22549834D01*
X-8615000Y-22185656D01*
X-8615000Y-21814344D01*
X-8687439Y-21450166D01*
X-8829534Y-21107118D01*
X-9035825Y-20798382D01*
X-9298382Y-20535825D01*
X-9607118Y-20329534D01*
X-9950166Y-20187439D01*
X-10314344Y-20115000D01*
X-10685656Y-20115000D01*
X-11049834Y-20187439D01*
X-11392882Y-20329534D01*
X-11701618Y-20535825D01*
X-11964175Y-20798382D01*
X-12170466Y-21107118D01*
X-12312561Y-21450166D01*
X-12385000Y-21814344D01*
X-12385000Y-22185656D01*
X-12312561Y-22549834D01*
X-12257519Y-22682717D01*
X-17551002Y-27976201D01*
X-17580000Y-27999999D01*
X-17603798Y-28028997D01*
X-17603799Y-28028998D01*
X-17674974Y-28115724D01*
X-17745546Y-28247754D01*
X-17789002Y-28391015D01*
X-17803676Y-28540000D01*
X-17799999Y-28577333D01*
X-17800000Y-86033646D01*
X-17893740Y-86015000D01*
X-18186260Y-86015000D01*
X-18473158Y-86072068D01*
X-18743411Y-86184010D01*
X-18986632Y-86346525D01*
X-19193475Y-86553368D01*
X-19310000Y-86727760D01*
X-19426525Y-86553368D01*
X-19633368Y-86346525D01*
X-19876589Y-86184010D01*
X-20146842Y-86072068D01*
X-20433740Y-86015000D01*
X-20726260Y-86015000D01*
X-20740000Y-86017733D01*
X-20740000Y-36037323D01*
X-20736324Y-36000000D01*
X-20740000Y-35962677D01*
X-20740000Y-35962667D01*
X-20750997Y-35851014D01*
X-20794454Y-35707753D01*
X-20865026Y-35575724D01*
X-20959999Y-35459999D01*
X-20988997Y-35436201D01*
X-33742481Y-22682718D01*
X-33687439Y-22549834D01*
X-33615000Y-22185656D01*
X-33615000Y-21814344D01*
X-33687439Y-21450166D01*
X-33829534Y-21107118D01*
X-34035825Y-20798382D01*
X-34298382Y-20535825D01*
X-34607118Y-20329534D01*
X-34950166Y-20187439D01*
X-35314344Y-20115000D01*
X-35685656Y-20115000D01*
X-36049834Y-20187439D01*
X-36392882Y-20329534D01*
X-36701618Y-20535825D01*
X-36964175Y-20798382D01*
X-37170466Y-21107118D01*
X-37312561Y-21450166D01*
X-37385000Y-21814344D01*
X-37385000Y-22185656D01*
X-37312561Y-22549834D01*
X-37170466Y-22892882D01*
X-36964175Y-23201618D01*
X-36701618Y-23464175D01*
X-36392882Y-23670466D01*
X-36049834Y-23812561D01*
X-35685656Y-23885000D01*
X-35314344Y-23885000D01*
X-34950166Y-23812561D01*
X-34817282Y-23757519D01*
X-22259999Y-36314803D01*
X-22260000Y-86288639D01*
X-22416589Y-86184010D01*
X-22686842Y-86072068D01*
X-22973740Y-86015000D01*
X-23266260Y-86015000D01*
X-23486408Y-86058791D01*
X-23740000Y-85805199D01*
X-23740000Y-58037322D01*
X-23736324Y-57999999D01*
X-23740000Y-57962676D01*
X-23740000Y-57962667D01*
X-23750997Y-57851014D01*
X-23794454Y-57707753D01*
X-23865026Y-57575724D01*
X-23959999Y-57459999D01*
X-23988997Y-57436201D01*
X-58742481Y-22682718D01*
X-58687439Y-22549834D01*
X-58615000Y-22185656D01*
X-58615000Y-21814344D01*
X-58687439Y-21450166D01*
X-58829534Y-21107118D01*
X-59035825Y-20798382D01*
X-59298382Y-20535825D01*
X-59607118Y-20329534D01*
X-59950166Y-20187439D01*
X-60314344Y-20115000D01*
X-60685656Y-20115000D01*
X-61049834Y-20187439D01*
X-61392882Y-20329534D01*
X-61701618Y-20535825D01*
X-61964175Y-20798382D01*
X-62170466Y-21107118D01*
X-62312561Y-21450166D01*
X-62385000Y-21814344D01*
X-62385000Y-22185656D01*
X-62312561Y-22549834D01*
X-62170466Y-22892882D01*
X-61964175Y-23201618D01*
X-61701618Y-23464175D01*
X-61392882Y-23670466D01*
X-61049834Y-23812561D01*
X-60685656Y-23885000D01*
X-60314344Y-23885000D01*
X-59950166Y-23812561D01*
X-59817282Y-23757519D01*
X-25259999Y-58314803D01*
X-25260000Y-86065472D01*
X-25513740Y-86015000D01*
X-25806260Y-86015000D01*
X-26093158Y-86072068D01*
X-26363411Y-86184010D01*
X-26606632Y-86346525D01*
X-26813475Y-86553368D01*
X-26938178Y-86740000D01*
X-27845198Y-86740000D01*
X-84740000Y-29845199D01*
X-84740000Y-23725507D01*
X-84607118Y-23670466D01*
X-84298382Y-23464175D01*
X-84035825Y-23201618D01*
X-83829534Y-22892882D01*
X-83687439Y-22549834D01*
X-83615000Y-22185656D01*
X-83615000Y-21814344D01*
X-83687439Y-21450166D01*
X-83829534Y-21107118D01*
X-84035825Y-20798382D01*
X-84298382Y-20535825D01*
X-84607118Y-20329534D01*
X-84950166Y-20187439D01*
X-85314344Y-20115000D01*
X-85685656Y-20115000D01*
X-86049834Y-20187439D01*
X-86392882Y-20329534D01*
X-86701618Y-20535825D01*
X-86964175Y-20798382D01*
X-87170466Y-21107118D01*
X-87312561Y-21450166D01*
X-87385000Y-21814344D01*
X-87385000Y-22185656D01*
X-87312561Y-22549834D01*
X-87170466Y-22892882D01*
X-86964175Y-23201618D01*
X-86701618Y-23464175D01*
X-86392882Y-23670466D01*
X-86259999Y-23725508D01*
X-86260000Y-30122678D01*
X-86263676Y-30160000D01*
X-86260000Y-30197322D01*
X-86260000Y-30197332D01*
X-86249003Y-30308985D01*
X-86205546Y-30452246D01*
X-86134974Y-30584276D01*
X-86095129Y-30632826D01*
X-86040001Y-30700001D01*
X-86010997Y-30723804D01*
X-28723799Y-88011003D01*
X-28700001Y-88040001D01*
X-28584276Y-88134974D01*
X-28452247Y-88205546D01*
X-28308986Y-88249003D01*
X-28197333Y-88260000D01*
X-28197325Y-88260000D01*
X-28160000Y-88263676D01*
X-28122675Y-88260000D01*
X-26938178Y-88260000D01*
X-26813475Y-88446632D01*
X-26606632Y-88653475D01*
X-26432240Y-88770000D01*
X-26606632Y-88886525D01*
X-26813475Y-89093368D01*
X-26975990Y-89336589D01*
X-27087932Y-89606842D01*
X-27145000Y-89893740D01*
X-27145000Y-90186260D01*
X-27101210Y-90406408D01*
X-29734801Y-93040000D01*
X-33612597Y-93040000D01*
X-33615000Y-92285750D01*
X-33773750Y-92127000D01*
X-35373000Y-92127000D01*
X-35373000Y-92147000D01*
X-35627000Y-92147000D01*
X-35627000Y-92127000D01*
X-37226250Y-92127000D01*
X-37385000Y-92285750D01*
X-37387403Y-93040000D01*
X-58612597Y-93040000D01*
X-58615000Y-92285750D01*
X-58773750Y-92127000D01*
X-60373000Y-92127000D01*
X-60373000Y-92147000D01*
X-60627000Y-92147000D01*
X-60627000Y-92127000D01*
X-62226250Y-92127000D01*
X-62385000Y-92285750D01*
X-62387403Y-93040000D01*
X-83612597Y-93040000D01*
X-83615000Y-92285750D01*
X-83773750Y-92127000D01*
X-85373000Y-92127000D01*
X-85373000Y-92147000D01*
X-85627000Y-92147000D01*
X-85627000Y-92127000D01*
X-87226250Y-92127000D01*
X-87385000Y-92285750D01*
X-87387419Y-93044933D01*
X-87448986Y-93050997D01*
X-87592247Y-93094454D01*
X-87724276Y-93165026D01*
X-87724278Y-93165027D01*
X-87724277Y-93165027D01*
X-87811004Y-93236201D01*
X-87811008Y-93236205D01*
X-87840001Y-93259999D01*
X-87863795Y-93288992D01*
X-89817283Y-95242481D01*
X-89950166Y-95187439D01*
X-90314344Y-95115000D01*
X-90685656Y-95115000D01*
X-91049834Y-95187439D01*
X-91392882Y-95329534D01*
X-91701618Y-95535825D01*
X-91964175Y-95798382D01*
X-92170466Y-96107118D01*
X-92312561Y-96450166D01*
X-92385000Y-96814344D01*
X-96815000Y-96814344D01*
X-96815000Y-90750000D01*
X-87388072Y-90750000D01*
X-87385000Y-91714250D01*
X-87226250Y-91873000D01*
X-85627000Y-91873000D01*
X-85627000Y-90273750D01*
X-85373000Y-90273750D01*
X-85373000Y-91873000D01*
X-83773750Y-91873000D01*
X-83615000Y-91714250D01*
X-83611928Y-90750000D01*
X-62388072Y-90750000D01*
X-62385000Y-91714250D01*
X-62226250Y-91873000D01*
X-60627000Y-91873000D01*
X-60627000Y-90273750D01*
X-60373000Y-90273750D01*
X-60373000Y-91873000D01*
X-58773750Y-91873000D01*
X-58615000Y-91714250D01*
X-58611928Y-90750000D01*
X-37388072Y-90750000D01*
X-37385000Y-91714250D01*
X-37226250Y-91873000D01*
X-35627000Y-91873000D01*
X-35627000Y-90273750D01*
X-35373000Y-90273750D01*
X-35373000Y-91873000D01*
X-33773750Y-91873000D01*
X-33615000Y-91714250D01*
X-33611928Y-90750000D01*
X-33624188Y-90625518D01*
X-33660498Y-90505820D01*
X-33719463Y-90395506D01*
X-33798815Y-90298815D01*
X-33895506Y-90219463D01*
X-34005820Y-90160498D01*
X-34125518Y-90124188D01*
X-34250000Y-90111928D01*
X-35214250Y-90115000D01*
X-35373000Y-90273750D01*
X-35627000Y-90273750D01*
X-35785750Y-90115000D01*
X-36750000Y-90111928D01*
X-36874482Y-90124188D01*
X-36994180Y-90160498D01*
X-37104494Y-90219463D01*
X-37201185Y-90298815D01*
X-37280537Y-90395506D01*
X-37339502Y-90505820D01*
X-37375812Y-90625518D01*
X-37388072Y-90750000D01*
X-58611928Y-90750000D01*
X-58624188Y-90625518D01*
X-58660498Y-90505820D01*
X-58719463Y-90395506D01*
X-58798815Y-90298815D01*
X-58895506Y-90219463D01*
X-59005820Y-90160498D01*
X-59125518Y-90124188D01*
X-59250000Y-90111928D01*
X-60214250Y-90115000D01*
X-60373000Y-90273750D01*
X-60627000Y-90273750D01*
X-60785750Y-90115000D01*
X-61750000Y-90111928D01*
X-61874482Y-90124188D01*
X-61994180Y-90160498D01*
X-62104494Y-90219463D01*
X-62201185Y-90298815D01*
X-62280537Y-90395506D01*
X-62339502Y-90505820D01*
X-62375812Y-90625518D01*
X-62388072Y-90750000D01*
X-83611928Y-90750000D01*
X-83624188Y-90625518D01*
X-83660498Y-90505820D01*
X-83719463Y-90395506D01*
X-83798815Y-90298815D01*
X-83895506Y-90219463D01*
X-84005820Y-90160498D01*
X-84125518Y-90124188D01*
X-84250000Y-90111928D01*
X-85214250Y-90115000D01*
X-85373000Y-90273750D01*
X-85627000Y-90273750D01*
X-85785750Y-90115000D01*
X-86750000Y-90111928D01*
X-86874482Y-90124188D01*
X-86994180Y-90160498D01*
X-87104494Y-90219463D01*
X-87201185Y-90298815D01*
X-87280537Y-90395506D01*
X-87339502Y-90505820D01*
X-87375812Y-90625518D01*
X-87388072Y-90750000D01*
X-96815000Y-90750000D01*
X-96815000Y-15279872D01*
X-96735000Y-15279872D01*
X-96735000Y-15720128D01*
X-96649110Y-16151925D01*
X-96480631Y-16558669D01*
X-96236038Y-16924729D01*
X-95924729Y-17236038D01*
X-95558669Y-17480631D01*
X-95151925Y-17649110D01*
X-94720128Y-17735000D01*
X-94279872Y-17735000D01*
X-93848075Y-17649110D01*
X-93441331Y-17480631D01*
X-93075271Y-17236038D01*
X-92763962Y-16924729D01*
X-92519369Y-16558669D01*
X-92350890Y-16151925D01*
X-92265000Y-15720128D01*
X-92265000Y-15279872D01*
X-7735000Y-15279872D01*
X-7735000Y-15720128D01*
X-7649110Y-16151925D01*
X-7480631Y-16558669D01*
X-7236038Y-16924729D01*
X-6924729Y-17236038D01*
X-6558669Y-17480631D01*
X-6151925Y-17649110D01*
X-5720128Y-17735000D01*
X-5279872Y-17735000D01*
X-4848075Y-17649110D01*
X-4441331Y-17480631D01*
X-4075271Y-17236038D01*
X-3763962Y-16924729D01*
X-3519369Y-16558669D01*
X-3350890Y-16151925D01*
X-3265000Y-15720128D01*
X-3265000Y-15279872D01*
X-3350890Y-14848075D01*
X-3519369Y-14441331D01*
X-3763962Y-14075271D01*
X-4075271Y-13763962D01*
X-4441331Y-13519369D01*
X-4848075Y-13350890D01*
X-5279872Y-13265000D01*
X-5720128Y-13265000D01*
X-6151925Y-13350890D01*
X-6558669Y-13519369D01*
X-6924729Y-13763962D01*
X-7236038Y-14075271D01*
X-7480631Y-14441331D01*
X-7649110Y-14848075D01*
X-7735000Y-15279872D01*
X-92265000Y-15279872D01*
X-92350890Y-14848075D01*
X-92519369Y-14441331D01*
X-92763962Y-14075271D01*
X-93075271Y-13763962D01*
X-93441331Y-13519369D01*
X-93848075Y-13350890D01*
X-94279872Y-13265000D01*
X-94720128Y-13265000D01*
X-95151925Y-13350890D01*
X-95558669Y-13519369D01*
X-95924729Y-13763962D01*
X-96236038Y-14075271D01*
X-96480631Y-14441331D01*
X-96649110Y-14848075D01*
X-96735000Y-15279872D01*
X-96815000Y-15279872D01*
X-96815000Y-13185000D01*
X-3185000Y-13185000D01*
X-3184999Y-104315000D01*
G37*
%TD.AperFunction*%
%TD*%
M02*
