M48
; DRILL file {KiCad 5.1.9-73d0e3b20d~88~ubuntu20.04.1} date Thu Apr  1 10:52:49 2021
; FORMAT={-:-/ absolute / inch / decimal}
; #@! TF.CreationDate,2021-04-01T10:52:49-04:00
; #@! TF.GenerationSoftware,Kicad,Pcbnew,5.1.9-73d0e3b20d~88~ubuntu20.04.1
; #@! TF.FileFunction,Plated,1,2,PTH
FMAT,2
INCH
T1C0.0394
T2C0.0689
%
G90
G05
T1
X-1.0102Y-3.4449
X-1.0102Y-3.5449
X-0.9102Y-3.4449
X-0.9102Y-3.5449
X-0.8102Y-3.4449
X-0.8102Y-3.5449
X-0.7102Y-3.4449
X-0.7102Y-3.5449
X-0.6102Y-3.4449
X-0.6102Y-3.5449
T2
X-3.563Y-3.8189
X-3.3661Y-0.8661
X-3.3661Y-3.622
X-2.5787Y-3.8189
X-2.3819Y-0.8661
X-2.3819Y-3.622
X-1.5945Y-3.8189
X-1.3976Y-0.8661
X-1.3976Y-3.622
X-0.6102Y-3.8189
X-0.4134Y-0.8661
X-0.4134Y-3.622
T0
M30
