%TF.GenerationSoftware,KiCad,Pcbnew,5.1.9-73d0e3b20d~88~ubuntu20.04.1*%
%TF.CreationDate,2021-04-01T10:52:46-04:00*%
%TF.ProjectId,ao_output,616f5f6f-7574-4707-9574-2e6b69636164,rev?*%
%TF.SameCoordinates,Original*%
%TF.FileFunction,Copper,L2,Bot*%
%TF.FilePolarity,Positive*%
%FSLAX46Y46*%
G04 Gerber Fmt 4.6, Leading zero omitted, Abs format (unit mm)*
G04 Created by KiCad (PCBNEW 5.1.9-73d0e3b20d~88~ubuntu20.04.1) date 2021-04-01 10:52:46*
%MOMM*%
%LPD*%
G01*
G04 APERTURE LIST*
%TA.AperFunction,ComponentPad*%
%ADD10O,1.700000X1.700000*%
%TD*%
%TA.AperFunction,ComponentPad*%
%ADD11R,1.700000X1.700000*%
%TD*%
%TA.AperFunction,ComponentPad*%
%ADD12R,2.500000X2.500000*%
%TD*%
%TA.AperFunction,ComponentPad*%
%ADD13C,2.500000*%
%TD*%
%TA.AperFunction,Conductor*%
%ADD14C,0.254000*%
%TD*%
%TA.AperFunction,Conductor*%
%ADD15C,0.100000*%
%TD*%
G04 APERTURE END LIST*
D10*
%TO.P,J11,10*%
%TO.N,IN4A*%
X-25660000Y-90040000D03*
%TO.P,J11,9*%
%TO.N,IN4*%
X-25660000Y-87500000D03*
%TO.P,J11,8*%
%TO.N,IN3A*%
X-23120000Y-90040000D03*
%TO.P,J11,7*%
%TO.N,IN3*%
X-23120000Y-87500000D03*
%TO.P,J11,6*%
%TO.N,IN2A*%
X-20580000Y-90040000D03*
%TO.P,J11,5*%
%TO.N,IN2*%
X-20580000Y-87500000D03*
%TO.P,J11,4*%
%TO.N,IN1A*%
X-18040000Y-90040000D03*
%TO.P,J11,3*%
%TO.N,IN1*%
X-18040000Y-87500000D03*
%TO.P,J11,2*%
%TO.N,Net-(J11-Pad2)*%
X-15500000Y-90040000D03*
D11*
%TO.P,J11,1*%
%TO.N,GND1*%
X-15500000Y-87500000D03*
%TD*%
D12*
%TO.P,RV2,1*%
%TO.N,GND1*%
X-35500000Y-92000000D03*
D13*
%TO.P,RV2,2*%
%TO.N,IN2A*%
X-40500000Y-97000000D03*
%TO.P,RV2,3*%
%TO.N,IN2*%
X-35500000Y-22000000D03*
%TD*%
D12*
%TO.P,RV1,1*%
%TO.N,GND1*%
X-10500000Y-92000000D03*
D13*
%TO.P,RV1,2*%
%TO.N,IN1A*%
X-15500000Y-97000000D03*
%TO.P,RV1,3*%
%TO.N,IN1*%
X-10500000Y-22000000D03*
%TD*%
D12*
%TO.P,RV4,1*%
%TO.N,GND1*%
X-85500000Y-92000000D03*
D13*
%TO.P,RV4,2*%
%TO.N,IN4A*%
X-90500000Y-97000000D03*
%TO.P,RV4,3*%
%TO.N,IN4*%
X-85500000Y-22000000D03*
%TD*%
D12*
%TO.P,RV3,1*%
%TO.N,GND1*%
X-60500000Y-92000000D03*
D13*
%TO.P,RV3,2*%
%TO.N,IN3A*%
X-65500000Y-97000000D03*
%TO.P,RV3,3*%
%TO.N,IN3*%
X-60500000Y-22000000D03*
%TD*%
D14*
%TO.N,GND1*%
X-3184999Y-104315000D02*
X-96815000Y-104315000D01*
X-96815000Y-96814344D01*
X-92385000Y-96814344D01*
X-92385000Y-97185656D01*
X-92312561Y-97549834D01*
X-92170466Y-97892882D01*
X-91964175Y-98201618D01*
X-91701618Y-98464175D01*
X-91392882Y-98670466D01*
X-91049834Y-98812561D01*
X-90685656Y-98885000D01*
X-90314344Y-98885000D01*
X-89950166Y-98812561D01*
X-89607118Y-98670466D01*
X-89298382Y-98464175D01*
X-89035825Y-98201618D01*
X-88829534Y-97892882D01*
X-88687439Y-97549834D01*
X-88615000Y-97185656D01*
X-88615000Y-96814344D01*
X-67385000Y-96814344D01*
X-67385000Y-97185656D01*
X-67312561Y-97549834D01*
X-67170466Y-97892882D01*
X-66964175Y-98201618D01*
X-66701618Y-98464175D01*
X-66392882Y-98670466D01*
X-66049834Y-98812561D01*
X-65685656Y-98885000D01*
X-65314344Y-98885000D01*
X-64950166Y-98812561D01*
X-64607118Y-98670466D01*
X-64298382Y-98464175D01*
X-64035825Y-98201618D01*
X-63829534Y-97892882D01*
X-63687439Y-97549834D01*
X-63615000Y-97185656D01*
X-63615000Y-96814344D01*
X-42385000Y-96814344D01*
X-42385000Y-97185656D01*
X-42312561Y-97549834D01*
X-42170466Y-97892882D01*
X-41964175Y-98201618D01*
X-41701618Y-98464175D01*
X-41392882Y-98670466D01*
X-41049834Y-98812561D01*
X-40685656Y-98885000D01*
X-40314344Y-98885000D01*
X-39950166Y-98812561D01*
X-39607118Y-98670466D01*
X-39298382Y-98464175D01*
X-39035825Y-98201618D01*
X-38829534Y-97892882D01*
X-38687439Y-97549834D01*
X-38615000Y-97185656D01*
X-38615000Y-96814344D01*
X-17385000Y-96814344D01*
X-17385000Y-97185656D01*
X-17312561Y-97549834D01*
X-17170466Y-97892882D01*
X-16964175Y-98201618D01*
X-16701618Y-98464175D01*
X-16392882Y-98670466D01*
X-16049834Y-98812561D01*
X-15685656Y-98885000D01*
X-15314344Y-98885000D01*
X-14950166Y-98812561D01*
X-14607118Y-98670466D01*
X-14298382Y-98464175D01*
X-14035825Y-98201618D01*
X-13829534Y-97892882D01*
X-13687439Y-97549834D01*
X-13615000Y-97185656D01*
X-13615000Y-96814344D01*
X-13687439Y-96450166D01*
X-13829534Y-96107118D01*
X-14035825Y-95798382D01*
X-14298382Y-95535825D01*
X-14607118Y-95329534D01*
X-14950166Y-95187439D01*
X-15314344Y-95115000D01*
X-15685656Y-95115000D01*
X-16049834Y-95187439D01*
X-16392882Y-95329534D01*
X-16701618Y-95535825D01*
X-16964175Y-95798382D01*
X-17170466Y-96107118D01*
X-17312561Y-96450166D01*
X-17385000Y-96814344D01*
X-38615000Y-96814344D01*
X-38687439Y-96450166D01*
X-38829534Y-96107118D01*
X-39035825Y-95798382D01*
X-39298382Y-95535825D01*
X-39607118Y-95329534D01*
X-39950166Y-95187439D01*
X-40314344Y-95115000D01*
X-40685656Y-95115000D01*
X-41049834Y-95187439D01*
X-41392882Y-95329534D01*
X-41701618Y-95535825D01*
X-41964175Y-95798382D01*
X-42170466Y-96107118D01*
X-42312561Y-96450166D01*
X-42385000Y-96814344D01*
X-63615000Y-96814344D01*
X-63687439Y-96450166D01*
X-63829534Y-96107118D01*
X-64035825Y-95798382D01*
X-64298382Y-95535825D01*
X-64607118Y-95329534D01*
X-64950166Y-95187439D01*
X-65314344Y-95115000D01*
X-65685656Y-95115000D01*
X-66049834Y-95187439D01*
X-66392882Y-95329534D01*
X-66701618Y-95535825D01*
X-66964175Y-95798382D01*
X-67170466Y-96107118D01*
X-67312561Y-96450166D01*
X-67385000Y-96814344D01*
X-88615000Y-96814344D01*
X-88687439Y-96450166D01*
X-88829534Y-96107118D01*
X-89035825Y-95798382D01*
X-89298382Y-95535825D01*
X-89607118Y-95329534D01*
X-89950166Y-95187439D01*
X-90314344Y-95115000D01*
X-90685656Y-95115000D01*
X-91049834Y-95187439D01*
X-91392882Y-95329534D01*
X-91701618Y-95535825D01*
X-91964175Y-95798382D01*
X-92170466Y-96107118D01*
X-92312561Y-96450166D01*
X-92385000Y-96814344D01*
X-96815000Y-96814344D01*
X-96815000Y-93250000D01*
X-87388072Y-93250000D01*
X-87375812Y-93374482D01*
X-87339502Y-93494180D01*
X-87280537Y-93604494D01*
X-87201185Y-93701185D01*
X-87104494Y-93780537D01*
X-86994180Y-93839502D01*
X-86874482Y-93875812D01*
X-86750000Y-93888072D01*
X-85785750Y-93885000D01*
X-85627000Y-93726250D01*
X-85627000Y-92127000D01*
X-85373000Y-92127000D01*
X-85373000Y-93726250D01*
X-85214250Y-93885000D01*
X-84250000Y-93888072D01*
X-84125518Y-93875812D01*
X-84005820Y-93839502D01*
X-83895506Y-93780537D01*
X-83798815Y-93701185D01*
X-83719463Y-93604494D01*
X-83660498Y-93494180D01*
X-83624188Y-93374482D01*
X-83611928Y-93250000D01*
X-62388072Y-93250000D01*
X-62375812Y-93374482D01*
X-62339502Y-93494180D01*
X-62280537Y-93604494D01*
X-62201185Y-93701185D01*
X-62104494Y-93780537D01*
X-61994180Y-93839502D01*
X-61874482Y-93875812D01*
X-61750000Y-93888072D01*
X-60785750Y-93885000D01*
X-60627000Y-93726250D01*
X-60627000Y-92127000D01*
X-60373000Y-92127000D01*
X-60373000Y-93726250D01*
X-60214250Y-93885000D01*
X-59250000Y-93888072D01*
X-59125518Y-93875812D01*
X-59005820Y-93839502D01*
X-58895506Y-93780537D01*
X-58798815Y-93701185D01*
X-58719463Y-93604494D01*
X-58660498Y-93494180D01*
X-58624188Y-93374482D01*
X-58611928Y-93250000D01*
X-37388072Y-93250000D01*
X-37375812Y-93374482D01*
X-37339502Y-93494180D01*
X-37280537Y-93604494D01*
X-37201185Y-93701185D01*
X-37104494Y-93780537D01*
X-36994180Y-93839502D01*
X-36874482Y-93875812D01*
X-36750000Y-93888072D01*
X-35785750Y-93885000D01*
X-35627000Y-93726250D01*
X-35627000Y-92127000D01*
X-35373000Y-92127000D01*
X-35373000Y-93726250D01*
X-35214250Y-93885000D01*
X-34250000Y-93888072D01*
X-34125518Y-93875812D01*
X-34005820Y-93839502D01*
X-33895506Y-93780537D01*
X-33798815Y-93701185D01*
X-33719463Y-93604494D01*
X-33660498Y-93494180D01*
X-33624188Y-93374482D01*
X-33611928Y-93250000D01*
X-12388072Y-93250000D01*
X-12375812Y-93374482D01*
X-12339502Y-93494180D01*
X-12280537Y-93604494D01*
X-12201185Y-93701185D01*
X-12104494Y-93780537D01*
X-11994180Y-93839502D01*
X-11874482Y-93875812D01*
X-11750000Y-93888072D01*
X-10785750Y-93885000D01*
X-10627000Y-93726250D01*
X-10627000Y-92127000D01*
X-10373000Y-92127000D01*
X-10373000Y-93726250D01*
X-10214250Y-93885000D01*
X-9250000Y-93888072D01*
X-9125518Y-93875812D01*
X-9005820Y-93839502D01*
X-8895506Y-93780537D01*
X-8798815Y-93701185D01*
X-8719463Y-93604494D01*
X-8660498Y-93494180D01*
X-8624188Y-93374482D01*
X-8611928Y-93250000D01*
X-8615000Y-92285750D01*
X-8773750Y-92127000D01*
X-10373000Y-92127000D01*
X-10627000Y-92127000D01*
X-12226250Y-92127000D01*
X-12385000Y-92285750D01*
X-12388072Y-93250000D01*
X-33611928Y-93250000D01*
X-33615000Y-92285750D01*
X-33773750Y-92127000D01*
X-35373000Y-92127000D01*
X-35627000Y-92127000D01*
X-37226250Y-92127000D01*
X-37385000Y-92285750D01*
X-37388072Y-93250000D01*
X-58611928Y-93250000D01*
X-58615000Y-92285750D01*
X-58773750Y-92127000D01*
X-60373000Y-92127000D01*
X-60627000Y-92127000D01*
X-62226250Y-92127000D01*
X-62385000Y-92285750D01*
X-62388072Y-93250000D01*
X-83611928Y-93250000D01*
X-83615000Y-92285750D01*
X-83773750Y-92127000D01*
X-85373000Y-92127000D01*
X-85627000Y-92127000D01*
X-87226250Y-92127000D01*
X-87385000Y-92285750D01*
X-87388072Y-93250000D01*
X-96815000Y-93250000D01*
X-96815000Y-90750000D01*
X-87388072Y-90750000D01*
X-87385000Y-91714250D01*
X-87226250Y-91873000D01*
X-85627000Y-91873000D01*
X-85627000Y-90273750D01*
X-85373000Y-90273750D01*
X-85373000Y-91873000D01*
X-83773750Y-91873000D01*
X-83615000Y-91714250D01*
X-83611928Y-90750000D01*
X-62388072Y-90750000D01*
X-62385000Y-91714250D01*
X-62226250Y-91873000D01*
X-60627000Y-91873000D01*
X-60627000Y-90273750D01*
X-60373000Y-90273750D01*
X-60373000Y-91873000D01*
X-58773750Y-91873000D01*
X-58615000Y-91714250D01*
X-58611928Y-90750000D01*
X-37388072Y-90750000D01*
X-37385000Y-91714250D01*
X-37226250Y-91873000D01*
X-35627000Y-91873000D01*
X-35627000Y-90273750D01*
X-35373000Y-90273750D01*
X-35373000Y-91873000D01*
X-33773750Y-91873000D01*
X-33615000Y-91714250D01*
X-33611928Y-90750000D01*
X-33624188Y-90625518D01*
X-33660498Y-90505820D01*
X-33719463Y-90395506D01*
X-33798815Y-90298815D01*
X-33895506Y-90219463D01*
X-34005820Y-90160498D01*
X-34125518Y-90124188D01*
X-34250000Y-90111928D01*
X-35214250Y-90115000D01*
X-35373000Y-90273750D01*
X-35627000Y-90273750D01*
X-35785750Y-90115000D01*
X-36750000Y-90111928D01*
X-36874482Y-90124188D01*
X-36994180Y-90160498D01*
X-37104494Y-90219463D01*
X-37201185Y-90298815D01*
X-37280537Y-90395506D01*
X-37339502Y-90505820D01*
X-37375812Y-90625518D01*
X-37388072Y-90750000D01*
X-58611928Y-90750000D01*
X-58624188Y-90625518D01*
X-58660498Y-90505820D01*
X-58719463Y-90395506D01*
X-58798815Y-90298815D01*
X-58895506Y-90219463D01*
X-59005820Y-90160498D01*
X-59125518Y-90124188D01*
X-59250000Y-90111928D01*
X-60214250Y-90115000D01*
X-60373000Y-90273750D01*
X-60627000Y-90273750D01*
X-60785750Y-90115000D01*
X-61750000Y-90111928D01*
X-61874482Y-90124188D01*
X-61994180Y-90160498D01*
X-62104494Y-90219463D01*
X-62201185Y-90298815D01*
X-62280537Y-90395506D01*
X-62339502Y-90505820D01*
X-62375812Y-90625518D01*
X-62388072Y-90750000D01*
X-83611928Y-90750000D01*
X-83624188Y-90625518D01*
X-83660498Y-90505820D01*
X-83719463Y-90395506D01*
X-83798815Y-90298815D01*
X-83895506Y-90219463D01*
X-84005820Y-90160498D01*
X-84125518Y-90124188D01*
X-84250000Y-90111928D01*
X-85214250Y-90115000D01*
X-85373000Y-90273750D01*
X-85627000Y-90273750D01*
X-85785750Y-90115000D01*
X-86750000Y-90111928D01*
X-86874482Y-90124188D01*
X-86994180Y-90160498D01*
X-87104494Y-90219463D01*
X-87201185Y-90298815D01*
X-87280537Y-90395506D01*
X-87339502Y-90505820D01*
X-87375812Y-90625518D01*
X-87388072Y-90750000D01*
X-96815000Y-90750000D01*
X-96815000Y-87353740D01*
X-27145000Y-87353740D01*
X-27145000Y-87646260D01*
X-27087932Y-87933158D01*
X-26975990Y-88203411D01*
X-26813475Y-88446632D01*
X-26606632Y-88653475D01*
X-26432240Y-88770000D01*
X-26606632Y-88886525D01*
X-26813475Y-89093368D01*
X-26975990Y-89336589D01*
X-27087932Y-89606842D01*
X-27145000Y-89893740D01*
X-27145000Y-90186260D01*
X-27087932Y-90473158D01*
X-26975990Y-90743411D01*
X-26813475Y-90986632D01*
X-26606632Y-91193475D01*
X-26363411Y-91355990D01*
X-26093158Y-91467932D01*
X-25806260Y-91525000D01*
X-25513740Y-91525000D01*
X-25226842Y-91467932D01*
X-24956589Y-91355990D01*
X-24713368Y-91193475D01*
X-24506525Y-90986632D01*
X-24390000Y-90812240D01*
X-24273475Y-90986632D01*
X-24066632Y-91193475D01*
X-23823411Y-91355990D01*
X-23553158Y-91467932D01*
X-23266260Y-91525000D01*
X-22973740Y-91525000D01*
X-22686842Y-91467932D01*
X-22416589Y-91355990D01*
X-22173368Y-91193475D01*
X-21966525Y-90986632D01*
X-21850000Y-90812240D01*
X-21733475Y-90986632D01*
X-21526632Y-91193475D01*
X-21283411Y-91355990D01*
X-21013158Y-91467932D01*
X-20726260Y-91525000D01*
X-20433740Y-91525000D01*
X-20146842Y-91467932D01*
X-19876589Y-91355990D01*
X-19633368Y-91193475D01*
X-19426525Y-90986632D01*
X-19310000Y-90812240D01*
X-19193475Y-90986632D01*
X-18986632Y-91193475D01*
X-18743411Y-91355990D01*
X-18473158Y-91467932D01*
X-18186260Y-91525000D01*
X-17893740Y-91525000D01*
X-17606842Y-91467932D01*
X-17336589Y-91355990D01*
X-17093368Y-91193475D01*
X-16886525Y-90986632D01*
X-16770000Y-90812240D01*
X-16653475Y-90986632D01*
X-16446632Y-91193475D01*
X-16203411Y-91355990D01*
X-15933158Y-91467932D01*
X-15646260Y-91525000D01*
X-15353740Y-91525000D01*
X-15066842Y-91467932D01*
X-14796589Y-91355990D01*
X-14553368Y-91193475D01*
X-14346525Y-90986632D01*
X-14188413Y-90750000D01*
X-12388072Y-90750000D01*
X-12385000Y-91714250D01*
X-12226250Y-91873000D01*
X-10627000Y-91873000D01*
X-10627000Y-90273750D01*
X-10373000Y-90273750D01*
X-10373000Y-91873000D01*
X-8773750Y-91873000D01*
X-8615000Y-91714250D01*
X-8611928Y-90750000D01*
X-8624188Y-90625518D01*
X-8660498Y-90505820D01*
X-8719463Y-90395506D01*
X-8798815Y-90298815D01*
X-8895506Y-90219463D01*
X-9005820Y-90160498D01*
X-9125518Y-90124188D01*
X-9250000Y-90111928D01*
X-10214250Y-90115000D01*
X-10373000Y-90273750D01*
X-10627000Y-90273750D01*
X-10785750Y-90115000D01*
X-11750000Y-90111928D01*
X-11874482Y-90124188D01*
X-11994180Y-90160498D01*
X-12104494Y-90219463D01*
X-12201185Y-90298815D01*
X-12280537Y-90395506D01*
X-12339502Y-90505820D01*
X-12375812Y-90625518D01*
X-12388072Y-90750000D01*
X-14188413Y-90750000D01*
X-14184010Y-90743411D01*
X-14072068Y-90473158D01*
X-14015000Y-90186260D01*
X-14015000Y-89893740D01*
X-14072068Y-89606842D01*
X-14184010Y-89336589D01*
X-14346525Y-89093368D01*
X-14478380Y-88961513D01*
X-14405820Y-88939502D01*
X-14295506Y-88880537D01*
X-14198815Y-88801185D01*
X-14119463Y-88704494D01*
X-14060498Y-88594180D01*
X-14024188Y-88474482D01*
X-14011928Y-88350000D01*
X-14015000Y-87785750D01*
X-14173750Y-87627000D01*
X-15373000Y-87627000D01*
X-15373000Y-87647000D01*
X-15627000Y-87647000D01*
X-15627000Y-87627000D01*
X-15647000Y-87627000D01*
X-15647000Y-87373000D01*
X-15627000Y-87373000D01*
X-15627000Y-86173750D01*
X-15373000Y-86173750D01*
X-15373000Y-87373000D01*
X-14173750Y-87373000D01*
X-14015000Y-87214250D01*
X-14011928Y-86650000D01*
X-14024188Y-86525518D01*
X-14060498Y-86405820D01*
X-14119463Y-86295506D01*
X-14198815Y-86198815D01*
X-14295506Y-86119463D01*
X-14405820Y-86060498D01*
X-14525518Y-86024188D01*
X-14650000Y-86011928D01*
X-15214250Y-86015000D01*
X-15373000Y-86173750D01*
X-15627000Y-86173750D01*
X-15785750Y-86015000D01*
X-16350000Y-86011928D01*
X-16474482Y-86024188D01*
X-16594180Y-86060498D01*
X-16704494Y-86119463D01*
X-16801185Y-86198815D01*
X-16880537Y-86295506D01*
X-16939502Y-86405820D01*
X-16961513Y-86478380D01*
X-17093368Y-86346525D01*
X-17336589Y-86184010D01*
X-17606842Y-86072068D01*
X-17893740Y-86015000D01*
X-18186260Y-86015000D01*
X-18473158Y-86072068D01*
X-18743411Y-86184010D01*
X-18986632Y-86346525D01*
X-19193475Y-86553368D01*
X-19310000Y-86727760D01*
X-19426525Y-86553368D01*
X-19633368Y-86346525D01*
X-19876589Y-86184010D01*
X-20146842Y-86072068D01*
X-20433740Y-86015000D01*
X-20726260Y-86015000D01*
X-21013158Y-86072068D01*
X-21283411Y-86184010D01*
X-21526632Y-86346525D01*
X-21733475Y-86553368D01*
X-21850000Y-86727760D01*
X-21966525Y-86553368D01*
X-22173368Y-86346525D01*
X-22416589Y-86184010D01*
X-22686842Y-86072068D01*
X-22973740Y-86015000D01*
X-23266260Y-86015000D01*
X-23553158Y-86072068D01*
X-23823411Y-86184010D01*
X-24066632Y-86346525D01*
X-24273475Y-86553368D01*
X-24390000Y-86727760D01*
X-24506525Y-86553368D01*
X-24713368Y-86346525D01*
X-24956589Y-86184010D01*
X-25226842Y-86072068D01*
X-25513740Y-86015000D01*
X-25806260Y-86015000D01*
X-26093158Y-86072068D01*
X-26363411Y-86184010D01*
X-26606632Y-86346525D01*
X-26813475Y-86553368D01*
X-26975990Y-86796589D01*
X-27087932Y-87066842D01*
X-27145000Y-87353740D01*
X-96815000Y-87353740D01*
X-96815000Y-21814344D01*
X-87385000Y-21814344D01*
X-87385000Y-22185656D01*
X-87312561Y-22549834D01*
X-87170466Y-22892882D01*
X-86964175Y-23201618D01*
X-86701618Y-23464175D01*
X-86392882Y-23670466D01*
X-86049834Y-23812561D01*
X-85685656Y-23885000D01*
X-85314344Y-23885000D01*
X-84950166Y-23812561D01*
X-84607118Y-23670466D01*
X-84298382Y-23464175D01*
X-84035825Y-23201618D01*
X-83829534Y-22892882D01*
X-83687439Y-22549834D01*
X-83615000Y-22185656D01*
X-83615000Y-21814344D01*
X-62385000Y-21814344D01*
X-62385000Y-22185656D01*
X-62312561Y-22549834D01*
X-62170466Y-22892882D01*
X-61964175Y-23201618D01*
X-61701618Y-23464175D01*
X-61392882Y-23670466D01*
X-61049834Y-23812561D01*
X-60685656Y-23885000D01*
X-60314344Y-23885000D01*
X-59950166Y-23812561D01*
X-59607118Y-23670466D01*
X-59298382Y-23464175D01*
X-59035825Y-23201618D01*
X-58829534Y-22892882D01*
X-58687439Y-22549834D01*
X-58615000Y-22185656D01*
X-58615000Y-21814344D01*
X-37385000Y-21814344D01*
X-37385000Y-22185656D01*
X-37312561Y-22549834D01*
X-37170466Y-22892882D01*
X-36964175Y-23201618D01*
X-36701618Y-23464175D01*
X-36392882Y-23670466D01*
X-36049834Y-23812561D01*
X-35685656Y-23885000D01*
X-35314344Y-23885000D01*
X-34950166Y-23812561D01*
X-34607118Y-23670466D01*
X-34298382Y-23464175D01*
X-34035825Y-23201618D01*
X-33829534Y-22892882D01*
X-33687439Y-22549834D01*
X-33615000Y-22185656D01*
X-33615000Y-21814344D01*
X-12385000Y-21814344D01*
X-12385000Y-22185656D01*
X-12312561Y-22549834D01*
X-12170466Y-22892882D01*
X-11964175Y-23201618D01*
X-11701618Y-23464175D01*
X-11392882Y-23670466D01*
X-11049834Y-23812561D01*
X-10685656Y-23885000D01*
X-10314344Y-23885000D01*
X-9950166Y-23812561D01*
X-9607118Y-23670466D01*
X-9298382Y-23464175D01*
X-9035825Y-23201618D01*
X-8829534Y-22892882D01*
X-8687439Y-22549834D01*
X-8615000Y-22185656D01*
X-8615000Y-21814344D01*
X-8687439Y-21450166D01*
X-8829534Y-21107118D01*
X-9035825Y-20798382D01*
X-9298382Y-20535825D01*
X-9607118Y-20329534D01*
X-9950166Y-20187439D01*
X-10314344Y-20115000D01*
X-10685656Y-20115000D01*
X-11049834Y-20187439D01*
X-11392882Y-20329534D01*
X-11701618Y-20535825D01*
X-11964175Y-20798382D01*
X-12170466Y-21107118D01*
X-12312561Y-21450166D01*
X-12385000Y-21814344D01*
X-33615000Y-21814344D01*
X-33687439Y-21450166D01*
X-33829534Y-21107118D01*
X-34035825Y-20798382D01*
X-34298382Y-20535825D01*
X-34607118Y-20329534D01*
X-34950166Y-20187439D01*
X-35314344Y-20115000D01*
X-35685656Y-20115000D01*
X-36049834Y-20187439D01*
X-36392882Y-20329534D01*
X-36701618Y-20535825D01*
X-36964175Y-20798382D01*
X-37170466Y-21107118D01*
X-37312561Y-21450166D01*
X-37385000Y-21814344D01*
X-58615000Y-21814344D01*
X-58687439Y-21450166D01*
X-58829534Y-21107118D01*
X-59035825Y-20798382D01*
X-59298382Y-20535825D01*
X-59607118Y-20329534D01*
X-59950166Y-20187439D01*
X-60314344Y-20115000D01*
X-60685656Y-20115000D01*
X-61049834Y-20187439D01*
X-61392882Y-20329534D01*
X-61701618Y-20535825D01*
X-61964175Y-20798382D01*
X-62170466Y-21107118D01*
X-62312561Y-21450166D01*
X-62385000Y-21814344D01*
X-83615000Y-21814344D01*
X-83687439Y-21450166D01*
X-83829534Y-21107118D01*
X-84035825Y-20798382D01*
X-84298382Y-20535825D01*
X-84607118Y-20329534D01*
X-84950166Y-20187439D01*
X-85314344Y-20115000D01*
X-85685656Y-20115000D01*
X-86049834Y-20187439D01*
X-86392882Y-20329534D01*
X-86701618Y-20535825D01*
X-86964175Y-20798382D01*
X-87170466Y-21107118D01*
X-87312561Y-21450166D01*
X-87385000Y-21814344D01*
X-96815000Y-21814344D01*
X-96815000Y-15279872D01*
X-96735000Y-15279872D01*
X-96735000Y-15720128D01*
X-96649110Y-16151925D01*
X-96480631Y-16558669D01*
X-96236038Y-16924729D01*
X-95924729Y-17236038D01*
X-95558669Y-17480631D01*
X-95151925Y-17649110D01*
X-94720128Y-17735000D01*
X-94279872Y-17735000D01*
X-93848075Y-17649110D01*
X-93441331Y-17480631D01*
X-93075271Y-17236038D01*
X-92763962Y-16924729D01*
X-92519369Y-16558669D01*
X-92350890Y-16151925D01*
X-92265000Y-15720128D01*
X-92265000Y-15279872D01*
X-7735000Y-15279872D01*
X-7735000Y-15720128D01*
X-7649110Y-16151925D01*
X-7480631Y-16558669D01*
X-7236038Y-16924729D01*
X-6924729Y-17236038D01*
X-6558669Y-17480631D01*
X-6151925Y-17649110D01*
X-5720128Y-17735000D01*
X-5279872Y-17735000D01*
X-4848075Y-17649110D01*
X-4441331Y-17480631D01*
X-4075271Y-17236038D01*
X-3763962Y-16924729D01*
X-3519369Y-16558669D01*
X-3350890Y-16151925D01*
X-3265000Y-15720128D01*
X-3265000Y-15279872D01*
X-3350890Y-14848075D01*
X-3519369Y-14441331D01*
X-3763962Y-14075271D01*
X-4075271Y-13763962D01*
X-4441331Y-13519369D01*
X-4848075Y-13350890D01*
X-5279872Y-13265000D01*
X-5720128Y-13265000D01*
X-6151925Y-13350890D01*
X-6558669Y-13519369D01*
X-6924729Y-13763962D01*
X-7236038Y-14075271D01*
X-7480631Y-14441331D01*
X-7649110Y-14848075D01*
X-7735000Y-15279872D01*
X-92265000Y-15279872D01*
X-92350890Y-14848075D01*
X-92519369Y-14441331D01*
X-92763962Y-14075271D01*
X-93075271Y-13763962D01*
X-93441331Y-13519369D01*
X-93848075Y-13350890D01*
X-94279872Y-13265000D01*
X-94720128Y-13265000D01*
X-95151925Y-13350890D01*
X-95558669Y-13519369D01*
X-95924729Y-13763962D01*
X-96236038Y-14075271D01*
X-96480631Y-14441331D01*
X-96649110Y-14848075D01*
X-96735000Y-15279872D01*
X-96815000Y-15279872D01*
X-96815000Y-13185000D01*
X-3185000Y-13185000D01*
X-3184999Y-104315000D01*
%TA.AperFunction,Conductor*%
D15*
G36*
X-3184999Y-104315000D02*
G01*
X-96815000Y-104315000D01*
X-96815000Y-96814344D01*
X-92385000Y-96814344D01*
X-92385000Y-97185656D01*
X-92312561Y-97549834D01*
X-92170466Y-97892882D01*
X-91964175Y-98201618D01*
X-91701618Y-98464175D01*
X-91392882Y-98670466D01*
X-91049834Y-98812561D01*
X-90685656Y-98885000D01*
X-90314344Y-98885000D01*
X-89950166Y-98812561D01*
X-89607118Y-98670466D01*
X-89298382Y-98464175D01*
X-89035825Y-98201618D01*
X-88829534Y-97892882D01*
X-88687439Y-97549834D01*
X-88615000Y-97185656D01*
X-88615000Y-96814344D01*
X-67385000Y-96814344D01*
X-67385000Y-97185656D01*
X-67312561Y-97549834D01*
X-67170466Y-97892882D01*
X-66964175Y-98201618D01*
X-66701618Y-98464175D01*
X-66392882Y-98670466D01*
X-66049834Y-98812561D01*
X-65685656Y-98885000D01*
X-65314344Y-98885000D01*
X-64950166Y-98812561D01*
X-64607118Y-98670466D01*
X-64298382Y-98464175D01*
X-64035825Y-98201618D01*
X-63829534Y-97892882D01*
X-63687439Y-97549834D01*
X-63615000Y-97185656D01*
X-63615000Y-96814344D01*
X-42385000Y-96814344D01*
X-42385000Y-97185656D01*
X-42312561Y-97549834D01*
X-42170466Y-97892882D01*
X-41964175Y-98201618D01*
X-41701618Y-98464175D01*
X-41392882Y-98670466D01*
X-41049834Y-98812561D01*
X-40685656Y-98885000D01*
X-40314344Y-98885000D01*
X-39950166Y-98812561D01*
X-39607118Y-98670466D01*
X-39298382Y-98464175D01*
X-39035825Y-98201618D01*
X-38829534Y-97892882D01*
X-38687439Y-97549834D01*
X-38615000Y-97185656D01*
X-38615000Y-96814344D01*
X-17385000Y-96814344D01*
X-17385000Y-97185656D01*
X-17312561Y-97549834D01*
X-17170466Y-97892882D01*
X-16964175Y-98201618D01*
X-16701618Y-98464175D01*
X-16392882Y-98670466D01*
X-16049834Y-98812561D01*
X-15685656Y-98885000D01*
X-15314344Y-98885000D01*
X-14950166Y-98812561D01*
X-14607118Y-98670466D01*
X-14298382Y-98464175D01*
X-14035825Y-98201618D01*
X-13829534Y-97892882D01*
X-13687439Y-97549834D01*
X-13615000Y-97185656D01*
X-13615000Y-96814344D01*
X-13687439Y-96450166D01*
X-13829534Y-96107118D01*
X-14035825Y-95798382D01*
X-14298382Y-95535825D01*
X-14607118Y-95329534D01*
X-14950166Y-95187439D01*
X-15314344Y-95115000D01*
X-15685656Y-95115000D01*
X-16049834Y-95187439D01*
X-16392882Y-95329534D01*
X-16701618Y-95535825D01*
X-16964175Y-95798382D01*
X-17170466Y-96107118D01*
X-17312561Y-96450166D01*
X-17385000Y-96814344D01*
X-38615000Y-96814344D01*
X-38687439Y-96450166D01*
X-38829534Y-96107118D01*
X-39035825Y-95798382D01*
X-39298382Y-95535825D01*
X-39607118Y-95329534D01*
X-39950166Y-95187439D01*
X-40314344Y-95115000D01*
X-40685656Y-95115000D01*
X-41049834Y-95187439D01*
X-41392882Y-95329534D01*
X-41701618Y-95535825D01*
X-41964175Y-95798382D01*
X-42170466Y-96107118D01*
X-42312561Y-96450166D01*
X-42385000Y-96814344D01*
X-63615000Y-96814344D01*
X-63687439Y-96450166D01*
X-63829534Y-96107118D01*
X-64035825Y-95798382D01*
X-64298382Y-95535825D01*
X-64607118Y-95329534D01*
X-64950166Y-95187439D01*
X-65314344Y-95115000D01*
X-65685656Y-95115000D01*
X-66049834Y-95187439D01*
X-66392882Y-95329534D01*
X-66701618Y-95535825D01*
X-66964175Y-95798382D01*
X-67170466Y-96107118D01*
X-67312561Y-96450166D01*
X-67385000Y-96814344D01*
X-88615000Y-96814344D01*
X-88687439Y-96450166D01*
X-88829534Y-96107118D01*
X-89035825Y-95798382D01*
X-89298382Y-95535825D01*
X-89607118Y-95329534D01*
X-89950166Y-95187439D01*
X-90314344Y-95115000D01*
X-90685656Y-95115000D01*
X-91049834Y-95187439D01*
X-91392882Y-95329534D01*
X-91701618Y-95535825D01*
X-91964175Y-95798382D01*
X-92170466Y-96107118D01*
X-92312561Y-96450166D01*
X-92385000Y-96814344D01*
X-96815000Y-96814344D01*
X-96815000Y-93250000D01*
X-87388072Y-93250000D01*
X-87375812Y-93374482D01*
X-87339502Y-93494180D01*
X-87280537Y-93604494D01*
X-87201185Y-93701185D01*
X-87104494Y-93780537D01*
X-86994180Y-93839502D01*
X-86874482Y-93875812D01*
X-86750000Y-93888072D01*
X-85785750Y-93885000D01*
X-85627000Y-93726250D01*
X-85627000Y-92127000D01*
X-85373000Y-92127000D01*
X-85373000Y-93726250D01*
X-85214250Y-93885000D01*
X-84250000Y-93888072D01*
X-84125518Y-93875812D01*
X-84005820Y-93839502D01*
X-83895506Y-93780537D01*
X-83798815Y-93701185D01*
X-83719463Y-93604494D01*
X-83660498Y-93494180D01*
X-83624188Y-93374482D01*
X-83611928Y-93250000D01*
X-62388072Y-93250000D01*
X-62375812Y-93374482D01*
X-62339502Y-93494180D01*
X-62280537Y-93604494D01*
X-62201185Y-93701185D01*
X-62104494Y-93780537D01*
X-61994180Y-93839502D01*
X-61874482Y-93875812D01*
X-61750000Y-93888072D01*
X-60785750Y-93885000D01*
X-60627000Y-93726250D01*
X-60627000Y-92127000D01*
X-60373000Y-92127000D01*
X-60373000Y-93726250D01*
X-60214250Y-93885000D01*
X-59250000Y-93888072D01*
X-59125518Y-93875812D01*
X-59005820Y-93839502D01*
X-58895506Y-93780537D01*
X-58798815Y-93701185D01*
X-58719463Y-93604494D01*
X-58660498Y-93494180D01*
X-58624188Y-93374482D01*
X-58611928Y-93250000D01*
X-37388072Y-93250000D01*
X-37375812Y-93374482D01*
X-37339502Y-93494180D01*
X-37280537Y-93604494D01*
X-37201185Y-93701185D01*
X-37104494Y-93780537D01*
X-36994180Y-93839502D01*
X-36874482Y-93875812D01*
X-36750000Y-93888072D01*
X-35785750Y-93885000D01*
X-35627000Y-93726250D01*
X-35627000Y-92127000D01*
X-35373000Y-92127000D01*
X-35373000Y-93726250D01*
X-35214250Y-93885000D01*
X-34250000Y-93888072D01*
X-34125518Y-93875812D01*
X-34005820Y-93839502D01*
X-33895506Y-93780537D01*
X-33798815Y-93701185D01*
X-33719463Y-93604494D01*
X-33660498Y-93494180D01*
X-33624188Y-93374482D01*
X-33611928Y-93250000D01*
X-12388072Y-93250000D01*
X-12375812Y-93374482D01*
X-12339502Y-93494180D01*
X-12280537Y-93604494D01*
X-12201185Y-93701185D01*
X-12104494Y-93780537D01*
X-11994180Y-93839502D01*
X-11874482Y-93875812D01*
X-11750000Y-93888072D01*
X-10785750Y-93885000D01*
X-10627000Y-93726250D01*
X-10627000Y-92127000D01*
X-10373000Y-92127000D01*
X-10373000Y-93726250D01*
X-10214250Y-93885000D01*
X-9250000Y-93888072D01*
X-9125518Y-93875812D01*
X-9005820Y-93839502D01*
X-8895506Y-93780537D01*
X-8798815Y-93701185D01*
X-8719463Y-93604494D01*
X-8660498Y-93494180D01*
X-8624188Y-93374482D01*
X-8611928Y-93250000D01*
X-8615000Y-92285750D01*
X-8773750Y-92127000D01*
X-10373000Y-92127000D01*
X-10627000Y-92127000D01*
X-12226250Y-92127000D01*
X-12385000Y-92285750D01*
X-12388072Y-93250000D01*
X-33611928Y-93250000D01*
X-33615000Y-92285750D01*
X-33773750Y-92127000D01*
X-35373000Y-92127000D01*
X-35627000Y-92127000D01*
X-37226250Y-92127000D01*
X-37385000Y-92285750D01*
X-37388072Y-93250000D01*
X-58611928Y-93250000D01*
X-58615000Y-92285750D01*
X-58773750Y-92127000D01*
X-60373000Y-92127000D01*
X-60627000Y-92127000D01*
X-62226250Y-92127000D01*
X-62385000Y-92285750D01*
X-62388072Y-93250000D01*
X-83611928Y-93250000D01*
X-83615000Y-92285750D01*
X-83773750Y-92127000D01*
X-85373000Y-92127000D01*
X-85627000Y-92127000D01*
X-87226250Y-92127000D01*
X-87385000Y-92285750D01*
X-87388072Y-93250000D01*
X-96815000Y-93250000D01*
X-96815000Y-90750000D01*
X-87388072Y-90750000D01*
X-87385000Y-91714250D01*
X-87226250Y-91873000D01*
X-85627000Y-91873000D01*
X-85627000Y-90273750D01*
X-85373000Y-90273750D01*
X-85373000Y-91873000D01*
X-83773750Y-91873000D01*
X-83615000Y-91714250D01*
X-83611928Y-90750000D01*
X-62388072Y-90750000D01*
X-62385000Y-91714250D01*
X-62226250Y-91873000D01*
X-60627000Y-91873000D01*
X-60627000Y-90273750D01*
X-60373000Y-90273750D01*
X-60373000Y-91873000D01*
X-58773750Y-91873000D01*
X-58615000Y-91714250D01*
X-58611928Y-90750000D01*
X-37388072Y-90750000D01*
X-37385000Y-91714250D01*
X-37226250Y-91873000D01*
X-35627000Y-91873000D01*
X-35627000Y-90273750D01*
X-35373000Y-90273750D01*
X-35373000Y-91873000D01*
X-33773750Y-91873000D01*
X-33615000Y-91714250D01*
X-33611928Y-90750000D01*
X-33624188Y-90625518D01*
X-33660498Y-90505820D01*
X-33719463Y-90395506D01*
X-33798815Y-90298815D01*
X-33895506Y-90219463D01*
X-34005820Y-90160498D01*
X-34125518Y-90124188D01*
X-34250000Y-90111928D01*
X-35214250Y-90115000D01*
X-35373000Y-90273750D01*
X-35627000Y-90273750D01*
X-35785750Y-90115000D01*
X-36750000Y-90111928D01*
X-36874482Y-90124188D01*
X-36994180Y-90160498D01*
X-37104494Y-90219463D01*
X-37201185Y-90298815D01*
X-37280537Y-90395506D01*
X-37339502Y-90505820D01*
X-37375812Y-90625518D01*
X-37388072Y-90750000D01*
X-58611928Y-90750000D01*
X-58624188Y-90625518D01*
X-58660498Y-90505820D01*
X-58719463Y-90395506D01*
X-58798815Y-90298815D01*
X-58895506Y-90219463D01*
X-59005820Y-90160498D01*
X-59125518Y-90124188D01*
X-59250000Y-90111928D01*
X-60214250Y-90115000D01*
X-60373000Y-90273750D01*
X-60627000Y-90273750D01*
X-60785750Y-90115000D01*
X-61750000Y-90111928D01*
X-61874482Y-90124188D01*
X-61994180Y-90160498D01*
X-62104494Y-90219463D01*
X-62201185Y-90298815D01*
X-62280537Y-90395506D01*
X-62339502Y-90505820D01*
X-62375812Y-90625518D01*
X-62388072Y-90750000D01*
X-83611928Y-90750000D01*
X-83624188Y-90625518D01*
X-83660498Y-90505820D01*
X-83719463Y-90395506D01*
X-83798815Y-90298815D01*
X-83895506Y-90219463D01*
X-84005820Y-90160498D01*
X-84125518Y-90124188D01*
X-84250000Y-90111928D01*
X-85214250Y-90115000D01*
X-85373000Y-90273750D01*
X-85627000Y-90273750D01*
X-85785750Y-90115000D01*
X-86750000Y-90111928D01*
X-86874482Y-90124188D01*
X-86994180Y-90160498D01*
X-87104494Y-90219463D01*
X-87201185Y-90298815D01*
X-87280537Y-90395506D01*
X-87339502Y-90505820D01*
X-87375812Y-90625518D01*
X-87388072Y-90750000D01*
X-96815000Y-90750000D01*
X-96815000Y-87353740D01*
X-27145000Y-87353740D01*
X-27145000Y-87646260D01*
X-27087932Y-87933158D01*
X-26975990Y-88203411D01*
X-26813475Y-88446632D01*
X-26606632Y-88653475D01*
X-26432240Y-88770000D01*
X-26606632Y-88886525D01*
X-26813475Y-89093368D01*
X-26975990Y-89336589D01*
X-27087932Y-89606842D01*
X-27145000Y-89893740D01*
X-27145000Y-90186260D01*
X-27087932Y-90473158D01*
X-26975990Y-90743411D01*
X-26813475Y-90986632D01*
X-26606632Y-91193475D01*
X-26363411Y-91355990D01*
X-26093158Y-91467932D01*
X-25806260Y-91525000D01*
X-25513740Y-91525000D01*
X-25226842Y-91467932D01*
X-24956589Y-91355990D01*
X-24713368Y-91193475D01*
X-24506525Y-90986632D01*
X-24390000Y-90812240D01*
X-24273475Y-90986632D01*
X-24066632Y-91193475D01*
X-23823411Y-91355990D01*
X-23553158Y-91467932D01*
X-23266260Y-91525000D01*
X-22973740Y-91525000D01*
X-22686842Y-91467932D01*
X-22416589Y-91355990D01*
X-22173368Y-91193475D01*
X-21966525Y-90986632D01*
X-21850000Y-90812240D01*
X-21733475Y-90986632D01*
X-21526632Y-91193475D01*
X-21283411Y-91355990D01*
X-21013158Y-91467932D01*
X-20726260Y-91525000D01*
X-20433740Y-91525000D01*
X-20146842Y-91467932D01*
X-19876589Y-91355990D01*
X-19633368Y-91193475D01*
X-19426525Y-90986632D01*
X-19310000Y-90812240D01*
X-19193475Y-90986632D01*
X-18986632Y-91193475D01*
X-18743411Y-91355990D01*
X-18473158Y-91467932D01*
X-18186260Y-91525000D01*
X-17893740Y-91525000D01*
X-17606842Y-91467932D01*
X-17336589Y-91355990D01*
X-17093368Y-91193475D01*
X-16886525Y-90986632D01*
X-16770000Y-90812240D01*
X-16653475Y-90986632D01*
X-16446632Y-91193475D01*
X-16203411Y-91355990D01*
X-15933158Y-91467932D01*
X-15646260Y-91525000D01*
X-15353740Y-91525000D01*
X-15066842Y-91467932D01*
X-14796589Y-91355990D01*
X-14553368Y-91193475D01*
X-14346525Y-90986632D01*
X-14188413Y-90750000D01*
X-12388072Y-90750000D01*
X-12385000Y-91714250D01*
X-12226250Y-91873000D01*
X-10627000Y-91873000D01*
X-10627000Y-90273750D01*
X-10373000Y-90273750D01*
X-10373000Y-91873000D01*
X-8773750Y-91873000D01*
X-8615000Y-91714250D01*
X-8611928Y-90750000D01*
X-8624188Y-90625518D01*
X-8660498Y-90505820D01*
X-8719463Y-90395506D01*
X-8798815Y-90298815D01*
X-8895506Y-90219463D01*
X-9005820Y-90160498D01*
X-9125518Y-90124188D01*
X-9250000Y-90111928D01*
X-10214250Y-90115000D01*
X-10373000Y-90273750D01*
X-10627000Y-90273750D01*
X-10785750Y-90115000D01*
X-11750000Y-90111928D01*
X-11874482Y-90124188D01*
X-11994180Y-90160498D01*
X-12104494Y-90219463D01*
X-12201185Y-90298815D01*
X-12280537Y-90395506D01*
X-12339502Y-90505820D01*
X-12375812Y-90625518D01*
X-12388072Y-90750000D01*
X-14188413Y-90750000D01*
X-14184010Y-90743411D01*
X-14072068Y-90473158D01*
X-14015000Y-90186260D01*
X-14015000Y-89893740D01*
X-14072068Y-89606842D01*
X-14184010Y-89336589D01*
X-14346525Y-89093368D01*
X-14478380Y-88961513D01*
X-14405820Y-88939502D01*
X-14295506Y-88880537D01*
X-14198815Y-88801185D01*
X-14119463Y-88704494D01*
X-14060498Y-88594180D01*
X-14024188Y-88474482D01*
X-14011928Y-88350000D01*
X-14015000Y-87785750D01*
X-14173750Y-87627000D01*
X-15373000Y-87627000D01*
X-15373000Y-87647000D01*
X-15627000Y-87647000D01*
X-15627000Y-87627000D01*
X-15647000Y-87627000D01*
X-15647000Y-87373000D01*
X-15627000Y-87373000D01*
X-15627000Y-86173750D01*
X-15373000Y-86173750D01*
X-15373000Y-87373000D01*
X-14173750Y-87373000D01*
X-14015000Y-87214250D01*
X-14011928Y-86650000D01*
X-14024188Y-86525518D01*
X-14060498Y-86405820D01*
X-14119463Y-86295506D01*
X-14198815Y-86198815D01*
X-14295506Y-86119463D01*
X-14405820Y-86060498D01*
X-14525518Y-86024188D01*
X-14650000Y-86011928D01*
X-15214250Y-86015000D01*
X-15373000Y-86173750D01*
X-15627000Y-86173750D01*
X-15785750Y-86015000D01*
X-16350000Y-86011928D01*
X-16474482Y-86024188D01*
X-16594180Y-86060498D01*
X-16704494Y-86119463D01*
X-16801185Y-86198815D01*
X-16880537Y-86295506D01*
X-16939502Y-86405820D01*
X-16961513Y-86478380D01*
X-17093368Y-86346525D01*
X-17336589Y-86184010D01*
X-17606842Y-86072068D01*
X-17893740Y-86015000D01*
X-18186260Y-86015000D01*
X-18473158Y-86072068D01*
X-18743411Y-86184010D01*
X-18986632Y-86346525D01*
X-19193475Y-86553368D01*
X-19310000Y-86727760D01*
X-19426525Y-86553368D01*
X-19633368Y-86346525D01*
X-19876589Y-86184010D01*
X-20146842Y-86072068D01*
X-20433740Y-86015000D01*
X-20726260Y-86015000D01*
X-21013158Y-86072068D01*
X-21283411Y-86184010D01*
X-21526632Y-86346525D01*
X-21733475Y-86553368D01*
X-21850000Y-86727760D01*
X-21966525Y-86553368D01*
X-22173368Y-86346525D01*
X-22416589Y-86184010D01*
X-22686842Y-86072068D01*
X-22973740Y-86015000D01*
X-23266260Y-86015000D01*
X-23553158Y-86072068D01*
X-23823411Y-86184010D01*
X-24066632Y-86346525D01*
X-24273475Y-86553368D01*
X-24390000Y-86727760D01*
X-24506525Y-86553368D01*
X-24713368Y-86346525D01*
X-24956589Y-86184010D01*
X-25226842Y-86072068D01*
X-25513740Y-86015000D01*
X-25806260Y-86015000D01*
X-26093158Y-86072068D01*
X-26363411Y-86184010D01*
X-26606632Y-86346525D01*
X-26813475Y-86553368D01*
X-26975990Y-86796589D01*
X-27087932Y-87066842D01*
X-27145000Y-87353740D01*
X-96815000Y-87353740D01*
X-96815000Y-21814344D01*
X-87385000Y-21814344D01*
X-87385000Y-22185656D01*
X-87312561Y-22549834D01*
X-87170466Y-22892882D01*
X-86964175Y-23201618D01*
X-86701618Y-23464175D01*
X-86392882Y-23670466D01*
X-86049834Y-23812561D01*
X-85685656Y-23885000D01*
X-85314344Y-23885000D01*
X-84950166Y-23812561D01*
X-84607118Y-23670466D01*
X-84298382Y-23464175D01*
X-84035825Y-23201618D01*
X-83829534Y-22892882D01*
X-83687439Y-22549834D01*
X-83615000Y-22185656D01*
X-83615000Y-21814344D01*
X-62385000Y-21814344D01*
X-62385000Y-22185656D01*
X-62312561Y-22549834D01*
X-62170466Y-22892882D01*
X-61964175Y-23201618D01*
X-61701618Y-23464175D01*
X-61392882Y-23670466D01*
X-61049834Y-23812561D01*
X-60685656Y-23885000D01*
X-60314344Y-23885000D01*
X-59950166Y-23812561D01*
X-59607118Y-23670466D01*
X-59298382Y-23464175D01*
X-59035825Y-23201618D01*
X-58829534Y-22892882D01*
X-58687439Y-22549834D01*
X-58615000Y-22185656D01*
X-58615000Y-21814344D01*
X-37385000Y-21814344D01*
X-37385000Y-22185656D01*
X-37312561Y-22549834D01*
X-37170466Y-22892882D01*
X-36964175Y-23201618D01*
X-36701618Y-23464175D01*
X-36392882Y-23670466D01*
X-36049834Y-23812561D01*
X-35685656Y-23885000D01*
X-35314344Y-23885000D01*
X-34950166Y-23812561D01*
X-34607118Y-23670466D01*
X-34298382Y-23464175D01*
X-34035825Y-23201618D01*
X-33829534Y-22892882D01*
X-33687439Y-22549834D01*
X-33615000Y-22185656D01*
X-33615000Y-21814344D01*
X-12385000Y-21814344D01*
X-12385000Y-22185656D01*
X-12312561Y-22549834D01*
X-12170466Y-22892882D01*
X-11964175Y-23201618D01*
X-11701618Y-23464175D01*
X-11392882Y-23670466D01*
X-11049834Y-23812561D01*
X-10685656Y-23885000D01*
X-10314344Y-23885000D01*
X-9950166Y-23812561D01*
X-9607118Y-23670466D01*
X-9298382Y-23464175D01*
X-9035825Y-23201618D01*
X-8829534Y-22892882D01*
X-8687439Y-22549834D01*
X-8615000Y-22185656D01*
X-8615000Y-21814344D01*
X-8687439Y-21450166D01*
X-8829534Y-21107118D01*
X-9035825Y-20798382D01*
X-9298382Y-20535825D01*
X-9607118Y-20329534D01*
X-9950166Y-20187439D01*
X-10314344Y-20115000D01*
X-10685656Y-20115000D01*
X-11049834Y-20187439D01*
X-11392882Y-20329534D01*
X-11701618Y-20535825D01*
X-11964175Y-20798382D01*
X-12170466Y-21107118D01*
X-12312561Y-21450166D01*
X-12385000Y-21814344D01*
X-33615000Y-21814344D01*
X-33687439Y-21450166D01*
X-33829534Y-21107118D01*
X-34035825Y-20798382D01*
X-34298382Y-20535825D01*
X-34607118Y-20329534D01*
X-34950166Y-20187439D01*
X-35314344Y-20115000D01*
X-35685656Y-20115000D01*
X-36049834Y-20187439D01*
X-36392882Y-20329534D01*
X-36701618Y-20535825D01*
X-36964175Y-20798382D01*
X-37170466Y-21107118D01*
X-37312561Y-21450166D01*
X-37385000Y-21814344D01*
X-58615000Y-21814344D01*
X-58687439Y-21450166D01*
X-58829534Y-21107118D01*
X-59035825Y-20798382D01*
X-59298382Y-20535825D01*
X-59607118Y-20329534D01*
X-59950166Y-20187439D01*
X-60314344Y-20115000D01*
X-60685656Y-20115000D01*
X-61049834Y-20187439D01*
X-61392882Y-20329534D01*
X-61701618Y-20535825D01*
X-61964175Y-20798382D01*
X-62170466Y-21107118D01*
X-62312561Y-21450166D01*
X-62385000Y-21814344D01*
X-83615000Y-21814344D01*
X-83687439Y-21450166D01*
X-83829534Y-21107118D01*
X-84035825Y-20798382D01*
X-84298382Y-20535825D01*
X-84607118Y-20329534D01*
X-84950166Y-20187439D01*
X-85314344Y-20115000D01*
X-85685656Y-20115000D01*
X-86049834Y-20187439D01*
X-86392882Y-20329534D01*
X-86701618Y-20535825D01*
X-86964175Y-20798382D01*
X-87170466Y-21107118D01*
X-87312561Y-21450166D01*
X-87385000Y-21814344D01*
X-96815000Y-21814344D01*
X-96815000Y-15279872D01*
X-96735000Y-15279872D01*
X-96735000Y-15720128D01*
X-96649110Y-16151925D01*
X-96480631Y-16558669D01*
X-96236038Y-16924729D01*
X-95924729Y-17236038D01*
X-95558669Y-17480631D01*
X-95151925Y-17649110D01*
X-94720128Y-17735000D01*
X-94279872Y-17735000D01*
X-93848075Y-17649110D01*
X-93441331Y-17480631D01*
X-93075271Y-17236038D01*
X-92763962Y-16924729D01*
X-92519369Y-16558669D01*
X-92350890Y-16151925D01*
X-92265000Y-15720128D01*
X-92265000Y-15279872D01*
X-7735000Y-15279872D01*
X-7735000Y-15720128D01*
X-7649110Y-16151925D01*
X-7480631Y-16558669D01*
X-7236038Y-16924729D01*
X-6924729Y-17236038D01*
X-6558669Y-17480631D01*
X-6151925Y-17649110D01*
X-5720128Y-17735000D01*
X-5279872Y-17735000D01*
X-4848075Y-17649110D01*
X-4441331Y-17480631D01*
X-4075271Y-17236038D01*
X-3763962Y-16924729D01*
X-3519369Y-16558669D01*
X-3350890Y-16151925D01*
X-3265000Y-15720128D01*
X-3265000Y-15279872D01*
X-3350890Y-14848075D01*
X-3519369Y-14441331D01*
X-3763962Y-14075271D01*
X-4075271Y-13763962D01*
X-4441331Y-13519369D01*
X-4848075Y-13350890D01*
X-5279872Y-13265000D01*
X-5720128Y-13265000D01*
X-6151925Y-13350890D01*
X-6558669Y-13519369D01*
X-6924729Y-13763962D01*
X-7236038Y-14075271D01*
X-7480631Y-14441331D01*
X-7649110Y-14848075D01*
X-7735000Y-15279872D01*
X-92265000Y-15279872D01*
X-92350890Y-14848075D01*
X-92519369Y-14441331D01*
X-92763962Y-14075271D01*
X-93075271Y-13763962D01*
X-93441331Y-13519369D01*
X-93848075Y-13350890D01*
X-94279872Y-13265000D01*
X-94720128Y-13265000D01*
X-95151925Y-13350890D01*
X-95558669Y-13519369D01*
X-95924729Y-13763962D01*
X-96236038Y-14075271D01*
X-96480631Y-14441331D01*
X-96649110Y-14848075D01*
X-96735000Y-15279872D01*
X-96815000Y-15279872D01*
X-96815000Y-13185000D01*
X-3185000Y-13185000D01*
X-3184999Y-104315000D01*
G37*
%TD.AperFunction*%
%TD*%
M02*
