%TF.GenerationSoftware,KiCad,Pcbnew,5.1.9-73d0e3b20d~88~ubuntu20.04.1*%
%TF.CreationDate,2021-04-01T10:52:46-04:00*%
%TF.ProjectId,ao_output,616f5f6f-7574-4707-9574-2e6b69636164,rev?*%
%TF.SameCoordinates,Original*%
%TF.FileFunction,Legend,Bot*%
%TF.FilePolarity,Positive*%
%FSLAX46Y46*%
G04 Gerber Fmt 4.6, Leading zero omitted, Abs format (unit mm)*
G04 Created by KiCad (PCBNEW 5.1.9-73d0e3b20d~88~ubuntu20.04.1) date 2021-04-01 10:52:46*
%MOMM*%
%LPD*%
G01*
G04 APERTURE LIST*
%ADD10C,0.120000*%
%ADD11C,0.150000*%
G04 APERTURE END LIST*
D10*
%TO.C,RV2*%
X-37500000Y-27000000D02*
X-38250000Y-27750000D01*
X-36750000Y-27750000D02*
X-37500000Y-27000000D01*
X-36000000Y-27000000D02*
X-39000000Y-27000000D01*
X-37500000Y-87000000D02*
X-38250000Y-86250000D01*
X-36720000Y-86280000D02*
X-37500000Y-87000000D01*
X-36000000Y-87000000D02*
X-39000000Y-87000000D01*
X-37500000Y-87000000D02*
X-37500000Y-27000000D01*
X-36000000Y-94085000D02*
X-35500000Y-93585000D01*
X-35000000Y-94085000D02*
X-36000000Y-94085000D01*
X-35500000Y-93585000D02*
X-35000000Y-94085000D01*
X-31130000Y-12780000D02*
X-43870000Y-12780000D01*
X-31130000Y-101220000D02*
X-43870000Y-101220000D01*
X-43870000Y-101220000D02*
X-43870000Y-12780000D01*
X-31130000Y-101220000D02*
X-31130000Y-12780000D01*
%TO.C,RV1*%
X-12500000Y-27000000D02*
X-13250000Y-27750000D01*
X-11750000Y-27750000D02*
X-12500000Y-27000000D01*
X-11000000Y-27000000D02*
X-14000000Y-27000000D01*
X-12500000Y-87000000D02*
X-13250000Y-86250000D01*
X-11720000Y-86280000D02*
X-12500000Y-87000000D01*
X-11000000Y-87000000D02*
X-14000000Y-87000000D01*
X-12500000Y-87000000D02*
X-12500000Y-27000000D01*
X-11000000Y-94085000D02*
X-10500000Y-93585000D01*
X-10000000Y-94085000D02*
X-11000000Y-94085000D01*
X-10500000Y-93585000D02*
X-10000000Y-94085000D01*
X-6130000Y-12780000D02*
X-18870000Y-12780000D01*
X-6130000Y-101220000D02*
X-18870000Y-101220000D01*
X-18870000Y-101220000D02*
X-18870000Y-12780000D01*
X-6130000Y-101220000D02*
X-6130000Y-12780000D01*
%TO.C,RV4*%
X-87500000Y-27000000D02*
X-88250000Y-27750000D01*
X-86750000Y-27750000D02*
X-87500000Y-27000000D01*
X-86000000Y-27000000D02*
X-89000000Y-27000000D01*
X-87500000Y-87000000D02*
X-88250000Y-86250000D01*
X-86720000Y-86280000D02*
X-87500000Y-87000000D01*
X-86000000Y-87000000D02*
X-89000000Y-87000000D01*
X-87500000Y-87000000D02*
X-87500000Y-27000000D01*
X-86000000Y-94085000D02*
X-85500000Y-93585000D01*
X-85000000Y-94085000D02*
X-86000000Y-94085000D01*
X-85500000Y-93585000D02*
X-85000000Y-94085000D01*
X-81130000Y-12780000D02*
X-93870000Y-12780000D01*
X-81130000Y-101220000D02*
X-93870000Y-101220000D01*
X-93870000Y-101220000D02*
X-93870000Y-12780000D01*
X-81130000Y-101220000D02*
X-81130000Y-12780000D01*
%TO.C,RV3*%
X-62500000Y-27000000D02*
X-63250000Y-27750000D01*
X-61750000Y-27750000D02*
X-62500000Y-27000000D01*
X-61000000Y-27000000D02*
X-64000000Y-27000000D01*
X-62500000Y-87000000D02*
X-63250000Y-86250000D01*
X-61720000Y-86280000D02*
X-62500000Y-87000000D01*
X-61000000Y-87000000D02*
X-64000000Y-87000000D01*
X-62500000Y-87000000D02*
X-62500000Y-27000000D01*
X-61000000Y-94085000D02*
X-60500000Y-93585000D01*
X-60000000Y-94085000D02*
X-61000000Y-94085000D01*
X-60500000Y-93585000D02*
X-60000000Y-94085000D01*
X-56130000Y-12780000D02*
X-68870000Y-12780000D01*
X-56130000Y-101220000D02*
X-68870000Y-101220000D01*
X-68870000Y-101220000D02*
X-68870000Y-12780000D01*
X-56130000Y-101220000D02*
X-56130000Y-12780000D01*
%TO.C,RV2*%
D11*
X-29367619Y-54784761D02*
X-29843809Y-54451428D01*
X-29367619Y-54213333D02*
X-30367619Y-54213333D01*
X-30367619Y-54594285D01*
X-30320000Y-54689523D01*
X-30272380Y-54737142D01*
X-30177142Y-54784761D01*
X-30034285Y-54784761D01*
X-29939047Y-54737142D01*
X-29891428Y-54689523D01*
X-29843809Y-54594285D01*
X-29843809Y-54213333D01*
X-30367619Y-55070476D02*
X-29367619Y-55403809D01*
X-30367619Y-55737142D01*
X-30272380Y-56022857D02*
X-30320000Y-56070476D01*
X-30367619Y-56165714D01*
X-30367619Y-56403809D01*
X-30320000Y-56499047D01*
X-30272380Y-56546666D01*
X-30177142Y-56594285D01*
X-30081904Y-56594285D01*
X-29939047Y-56546666D01*
X-29367619Y-55975238D01*
X-29367619Y-56594285D01*
%TO.C,RV1*%
X-4367619Y-54784761D02*
X-4843809Y-54451428D01*
X-4367619Y-54213333D02*
X-5367619Y-54213333D01*
X-5367619Y-54594285D01*
X-5320000Y-54689523D01*
X-5272380Y-54737142D01*
X-5177142Y-54784761D01*
X-5034285Y-54784761D01*
X-4939047Y-54737142D01*
X-4891428Y-54689523D01*
X-4843809Y-54594285D01*
X-4843809Y-54213333D01*
X-5367619Y-55070476D02*
X-4367619Y-55403809D01*
X-5367619Y-55737142D01*
X-4367619Y-56594285D02*
X-4367619Y-56022857D01*
X-4367619Y-56308571D02*
X-5367619Y-56308571D01*
X-5224761Y-56213333D01*
X-5129523Y-56118095D01*
X-5081904Y-56022857D01*
%TO.C,RV4*%
X-79367619Y-54784761D02*
X-79843809Y-54451428D01*
X-79367619Y-54213333D02*
X-80367619Y-54213333D01*
X-80367619Y-54594285D01*
X-80320000Y-54689523D01*
X-80272380Y-54737142D01*
X-80177142Y-54784761D01*
X-80034285Y-54784761D01*
X-79939047Y-54737142D01*
X-79891428Y-54689523D01*
X-79843809Y-54594285D01*
X-79843809Y-54213333D01*
X-80367619Y-55070476D02*
X-79367619Y-55403809D01*
X-80367619Y-55737142D01*
X-80034285Y-56499047D02*
X-79367619Y-56499047D01*
X-80415238Y-56260952D02*
X-79700952Y-56022857D01*
X-79700952Y-56641904D01*
%TO.C,RV3*%
X-54367619Y-54784761D02*
X-54843809Y-54451428D01*
X-54367619Y-54213333D02*
X-55367619Y-54213333D01*
X-55367619Y-54594285D01*
X-55320000Y-54689523D01*
X-55272380Y-54737142D01*
X-55177142Y-54784761D01*
X-55034285Y-54784761D01*
X-54939047Y-54737142D01*
X-54891428Y-54689523D01*
X-54843809Y-54594285D01*
X-54843809Y-54213333D01*
X-55367619Y-55070476D02*
X-54367619Y-55403809D01*
X-55367619Y-55737142D01*
X-55367619Y-55975238D02*
X-55367619Y-56594285D01*
X-54986666Y-56260952D01*
X-54986666Y-56403809D01*
X-54939047Y-56499047D01*
X-54891428Y-56546666D01*
X-54796190Y-56594285D01*
X-54558095Y-56594285D01*
X-54462857Y-56546666D01*
X-54415238Y-56499047D01*
X-54367619Y-56403809D01*
X-54367619Y-56118095D01*
X-54415238Y-56022857D01*
X-54462857Y-55975238D01*
%TD*%
M02*
