M48
; DRILL file {KiCad 5.1.6-c6e7f7d~87~ubuntu20.04.1} date Sun Oct 18 18:02:43 2020
; FORMAT={-:-/ absolute / inch / decimal}
; #@! TF.CreationDate,2020-10-18T18:02:43-04:00
; #@! TF.GenerationSoftware,Kicad,Pcbnew,5.1.6-c6e7f7d~87~ubuntu20.04.1
; #@! TF.FileFunction,Plated,1,2,PTH
FMAT,2
INCH
T1C0.1260
T2C0.2756
T3C0.3937
%
G90
G05
T2
X3.8189Y-1.6929
X3.8189Y-5.2362
X3.8189Y-2.874
X5.1969Y-4.0551
X3.8189Y-4.0551
X5.1969Y-2.874
X5.1969Y-5.2362
X5.1969Y-6.4173
X5.1969Y-1.6929
T3
X5.1969Y-7.6772
X2.5591Y-5.2362
X2.5591Y-1.6929
X2.5591Y-2.874
X3.8189Y-7.6772
X2.5591Y-4.0551
X2.5591Y-7.6772
T1
G00X5.7874Y-0.9055
M15
G01X5.6772Y-0.9055
M16
G05
G00X2.0866Y-0.9055
M15
G01X2.1969Y-0.9055
M16
G05
G00X2.0866Y-8.5433
M15
G01X2.1969Y-8.5433
M16
G05
G00X5.7874Y-8.5433
M15
G01X5.6772Y-8.5433
M16
G05
T0
M30
