%TF.GenerationSoftware,KiCad,Pcbnew,5.1.6-c6e7f7d~87~ubuntu20.04.1*%
%TF.CreationDate,2020-10-18T18:02:39-04:00*%
%TF.ProjectId,stereo_outs_panel,73746572-656f-45f6-9f75-74735f70616e,rev?*%
%TF.SameCoordinates,Original*%
%TF.FileFunction,Copper,L1,Top*%
%TF.FilePolarity,Positive*%
%FSLAX46Y46*%
G04 Gerber Fmt 4.6, Leading zero omitted, Abs format (unit mm)*
G04 Created by KiCad (PCBNEW 5.1.6-c6e7f7d~87~ubuntu20.04.1) date 2020-10-18 18:02:39*
%MOMM*%
%LPD*%
G01*
G04 APERTURE LIST*
%TA.AperFunction,ComponentPad*%
%ADD10O,6.800000X4.000000*%
%TD*%
%TA.AperFunction,ComponentPad*%
%ADD11C,9.000000*%
%TD*%
%TA.AperFunction,ComponentPad*%
%ADD12C,14.000000*%
%TD*%
%TA.AperFunction,Conductor*%
%ADD13C,0.254000*%
%TD*%
G04 APERTURE END LIST*
D10*
%TO.P,H20,1*%
%TO.N,GND*%
X145600000Y-23000000D03*
%TD*%
%TO.P,H19,1*%
%TO.N,GND*%
X145600000Y-217000000D03*
%TD*%
%TO.P,H18,1*%
%TO.N,GND*%
X54400000Y-23000000D03*
%TD*%
%TO.P,H17,1*%
%TO.N,GND*%
X54400000Y-217000000D03*
%TD*%
D11*
%TO.P,H16,1*%
%TO.N,GND*%
X132000000Y-163000000D03*
%TD*%
%TO.P,H15,1*%
%TO.N,GND*%
X132000000Y-133000000D03*
%TD*%
%TO.P,H14,1*%
%TO.N,GND*%
X97000000Y-43000000D03*
%TD*%
%TO.P,H13,1*%
%TO.N,GND*%
X132000000Y-43000000D03*
%TD*%
%TO.P,H12,1*%
%TO.N,GND*%
X97000000Y-73000000D03*
%TD*%
%TO.P,H11,1*%
%TO.N,GND*%
X97000000Y-103000000D03*
%TD*%
%TO.P,H10,1*%
%TO.N,GND*%
X132000000Y-73000000D03*
%TD*%
%TO.P,H9,1*%
%TO.N,GND*%
X132000000Y-103000000D03*
%TD*%
%TO.P,H8,1*%
%TO.N,GND*%
X97000000Y-133000000D03*
%TD*%
D12*
%TO.P,H7,1*%
%TO.N,GND*%
X132000000Y-195000000D03*
%TD*%
%TO.P,H6,1*%
%TO.N,GND*%
X97000000Y-195000000D03*
%TD*%
%TO.P,H5,1*%
%TO.N,GND*%
X65000000Y-195000000D03*
%TD*%
%TO.P,H4,1*%
%TO.N,GND*%
X65000000Y-133000000D03*
%TD*%
%TO.P,H3,1*%
%TO.N,GND*%
X65000000Y-103000000D03*
%TD*%
%TO.P,H2,1*%
%TO.N,GND*%
X65000000Y-73000000D03*
%TD*%
%TO.P,H1,1*%
%TO.N,GND*%
X65000000Y-43000000D03*
%TD*%
D13*
%TO.N,GND*%
G36*
X142630475Y-20879635D02*
G01*
X142246970Y-21226576D01*
X141938519Y-21641669D01*
X141716975Y-22108962D01*
X141620333Y-22462838D01*
X141727009Y-22873000D01*
X145473000Y-22873000D01*
X145473000Y-22853000D01*
X145727000Y-22853000D01*
X145727000Y-22873000D01*
X145747000Y-22873000D01*
X145747000Y-23127000D01*
X145727000Y-23127000D01*
X145727000Y-25635000D01*
X147127000Y-25635000D01*
X147638623Y-25559593D01*
X148125704Y-25385822D01*
X148569525Y-25120365D01*
X148953030Y-24773424D01*
X149261481Y-24358331D01*
X149340000Y-24192714D01*
X149340001Y-215807288D01*
X149261481Y-215641669D01*
X148953030Y-215226576D01*
X148569525Y-214879635D01*
X148125704Y-214614178D01*
X147638623Y-214440407D01*
X147127000Y-214365000D01*
X145727000Y-214365000D01*
X145727000Y-216873000D01*
X145747000Y-216873000D01*
X145747000Y-217127000D01*
X145727000Y-217127000D01*
X145727000Y-217147000D01*
X145473000Y-217147000D01*
X145473000Y-217127000D01*
X141727009Y-217127000D01*
X141620333Y-217537162D01*
X141716975Y-217891038D01*
X141938519Y-218358331D01*
X142246970Y-218773424D01*
X142630475Y-219120365D01*
X142997686Y-219340000D01*
X57002314Y-219340000D01*
X57369525Y-219120365D01*
X57753030Y-218773424D01*
X58061481Y-218358331D01*
X58283025Y-217891038D01*
X58379667Y-217537162D01*
X58272991Y-217127000D01*
X54527000Y-217127000D01*
X54527000Y-217147000D01*
X54273000Y-217147000D01*
X54273000Y-217127000D01*
X54253000Y-217127000D01*
X54253000Y-216873000D01*
X54273000Y-216873000D01*
X54273000Y-214365000D01*
X54527000Y-214365000D01*
X54527000Y-216873000D01*
X58272991Y-216873000D01*
X58379667Y-216462838D01*
X141620333Y-216462838D01*
X141727009Y-216873000D01*
X145473000Y-216873000D01*
X145473000Y-214365000D01*
X144073000Y-214365000D01*
X143561377Y-214440407D01*
X143074296Y-214614178D01*
X142630475Y-214879635D01*
X142246970Y-215226576D01*
X141938519Y-215641669D01*
X141716975Y-216108962D01*
X141620333Y-216462838D01*
X58379667Y-216462838D01*
X58283025Y-216108962D01*
X58061481Y-215641669D01*
X57753030Y-215226576D01*
X57369525Y-214879635D01*
X56925704Y-214614178D01*
X56438623Y-214440407D01*
X55927000Y-214365000D01*
X54527000Y-214365000D01*
X54273000Y-214365000D01*
X52873000Y-214365000D01*
X52361377Y-214440407D01*
X51874296Y-214614178D01*
X51430475Y-214879635D01*
X51046970Y-215226576D01*
X50738519Y-215641669D01*
X50660000Y-215807286D01*
X50660000Y-200401674D01*
X59777932Y-200401674D01*
X60593908Y-201280530D01*
X61903840Y-202019437D01*
X63332756Y-202488591D01*
X64825743Y-202669963D01*
X66325428Y-202556583D01*
X67774176Y-202152807D01*
X69116314Y-201474153D01*
X69406092Y-201280530D01*
X70222068Y-200401674D01*
X91777932Y-200401674D01*
X92593908Y-201280530D01*
X93903840Y-202019437D01*
X95332756Y-202488591D01*
X96825743Y-202669963D01*
X98325428Y-202556583D01*
X99774176Y-202152807D01*
X101116314Y-201474153D01*
X101406092Y-201280530D01*
X102222068Y-200401674D01*
X126777932Y-200401674D01*
X127593908Y-201280530D01*
X128903840Y-202019437D01*
X130332756Y-202488591D01*
X131825743Y-202669963D01*
X133325428Y-202556583D01*
X134774176Y-202152807D01*
X136116314Y-201474153D01*
X136406092Y-201280530D01*
X137222068Y-200401674D01*
X132000000Y-195179605D01*
X126777932Y-200401674D01*
X102222068Y-200401674D01*
X97000000Y-195179605D01*
X91777932Y-200401674D01*
X70222068Y-200401674D01*
X65000000Y-195179605D01*
X59777932Y-200401674D01*
X50660000Y-200401674D01*
X50660000Y-194825743D01*
X57330037Y-194825743D01*
X57443417Y-196325428D01*
X57847193Y-197774176D01*
X58525847Y-199116314D01*
X58719470Y-199406092D01*
X59598326Y-200222068D01*
X64820395Y-195000000D01*
X65179605Y-195000000D01*
X70401674Y-200222068D01*
X71280530Y-199406092D01*
X72019437Y-198096160D01*
X72488591Y-196667244D01*
X72669963Y-195174257D01*
X72643615Y-194825743D01*
X89330037Y-194825743D01*
X89443417Y-196325428D01*
X89847193Y-197774176D01*
X90525847Y-199116314D01*
X90719470Y-199406092D01*
X91598326Y-200222068D01*
X96820395Y-195000000D01*
X97179605Y-195000000D01*
X102401674Y-200222068D01*
X103280530Y-199406092D01*
X104019437Y-198096160D01*
X104488591Y-196667244D01*
X104669963Y-195174257D01*
X104643615Y-194825743D01*
X124330037Y-194825743D01*
X124443417Y-196325428D01*
X124847193Y-197774176D01*
X125525847Y-199116314D01*
X125719470Y-199406092D01*
X126598326Y-200222068D01*
X131820395Y-195000000D01*
X132179605Y-195000000D01*
X137401674Y-200222068D01*
X138280530Y-199406092D01*
X139019437Y-198096160D01*
X139488591Y-196667244D01*
X139669963Y-195174257D01*
X139556583Y-193674572D01*
X139152807Y-192225824D01*
X138474153Y-190883686D01*
X138280530Y-190593908D01*
X137401674Y-189777932D01*
X132179605Y-195000000D01*
X131820395Y-195000000D01*
X126598326Y-189777932D01*
X125719470Y-190593908D01*
X124980563Y-191903840D01*
X124511409Y-193332756D01*
X124330037Y-194825743D01*
X104643615Y-194825743D01*
X104556583Y-193674572D01*
X104152807Y-192225824D01*
X103474153Y-190883686D01*
X103280530Y-190593908D01*
X102401674Y-189777932D01*
X97179605Y-195000000D01*
X96820395Y-195000000D01*
X91598326Y-189777932D01*
X90719470Y-190593908D01*
X89980563Y-191903840D01*
X89511409Y-193332756D01*
X89330037Y-194825743D01*
X72643615Y-194825743D01*
X72556583Y-193674572D01*
X72152807Y-192225824D01*
X71474153Y-190883686D01*
X71280530Y-190593908D01*
X70401674Y-189777932D01*
X65179605Y-195000000D01*
X64820395Y-195000000D01*
X59598326Y-189777932D01*
X58719470Y-190593908D01*
X57980563Y-191903840D01*
X57511409Y-193332756D01*
X57330037Y-194825743D01*
X50660000Y-194825743D01*
X50660000Y-189598326D01*
X59777932Y-189598326D01*
X65000000Y-194820395D01*
X70222068Y-189598326D01*
X91777932Y-189598326D01*
X97000000Y-194820395D01*
X102222068Y-189598326D01*
X126777932Y-189598326D01*
X132000000Y-194820395D01*
X137222068Y-189598326D01*
X136406092Y-188719470D01*
X135096160Y-187980563D01*
X133667244Y-187511409D01*
X132174257Y-187330037D01*
X130674572Y-187443417D01*
X129225824Y-187847193D01*
X127883686Y-188525847D01*
X127593908Y-188719470D01*
X126777932Y-189598326D01*
X102222068Y-189598326D01*
X101406092Y-188719470D01*
X100096160Y-187980563D01*
X98667244Y-187511409D01*
X97174257Y-187330037D01*
X95674572Y-187443417D01*
X94225824Y-187847193D01*
X92883686Y-188525847D01*
X92593908Y-188719470D01*
X91777932Y-189598326D01*
X70222068Y-189598326D01*
X69406092Y-188719470D01*
X68096160Y-187980563D01*
X66667244Y-187511409D01*
X65174257Y-187330037D01*
X63674572Y-187443417D01*
X62225824Y-187847193D01*
X60883686Y-188525847D01*
X60593908Y-188719470D01*
X59777932Y-189598326D01*
X50660000Y-189598326D01*
X50660000Y-166624971D01*
X128554634Y-166624971D01*
X129070783Y-167247788D01*
X129955768Y-167737630D01*
X130919314Y-168045407D01*
X131924389Y-168159293D01*
X132932370Y-168074910D01*
X133904520Y-167795501D01*
X134803481Y-167331803D01*
X134929217Y-167247788D01*
X135445366Y-166624971D01*
X132000000Y-163179605D01*
X128554634Y-166624971D01*
X50660000Y-166624971D01*
X50660000Y-162924389D01*
X126840707Y-162924389D01*
X126925090Y-163932370D01*
X127204499Y-164904520D01*
X127668197Y-165803481D01*
X127752212Y-165929217D01*
X128375029Y-166445366D01*
X131820395Y-163000000D01*
X132179605Y-163000000D01*
X135624971Y-166445366D01*
X136247788Y-165929217D01*
X136737630Y-165044232D01*
X137045407Y-164080686D01*
X137159293Y-163075611D01*
X137074910Y-162067630D01*
X136795501Y-161095480D01*
X136331803Y-160196519D01*
X136247788Y-160070783D01*
X135624971Y-159554634D01*
X132179605Y-163000000D01*
X131820395Y-163000000D01*
X128375029Y-159554634D01*
X127752212Y-160070783D01*
X127262370Y-160955768D01*
X126954593Y-161919314D01*
X126840707Y-162924389D01*
X50660000Y-162924389D01*
X50660000Y-159375029D01*
X128554634Y-159375029D01*
X132000000Y-162820395D01*
X135445366Y-159375029D01*
X134929217Y-158752212D01*
X134044232Y-158262370D01*
X133080686Y-157954593D01*
X132075611Y-157840707D01*
X131067630Y-157925090D01*
X130095480Y-158204499D01*
X129196519Y-158668197D01*
X129070783Y-158752212D01*
X128554634Y-159375029D01*
X50660000Y-159375029D01*
X50660000Y-138401674D01*
X59777932Y-138401674D01*
X60593908Y-139280530D01*
X61903840Y-140019437D01*
X63332756Y-140488591D01*
X64825743Y-140669963D01*
X66325428Y-140556583D01*
X67774176Y-140152807D01*
X69116314Y-139474153D01*
X69406092Y-139280530D01*
X70222068Y-138401674D01*
X65000000Y-133179605D01*
X59777932Y-138401674D01*
X50660000Y-138401674D01*
X50660000Y-132825743D01*
X57330037Y-132825743D01*
X57443417Y-134325428D01*
X57847193Y-135774176D01*
X58525847Y-137116314D01*
X58719470Y-137406092D01*
X59598326Y-138222068D01*
X64820395Y-133000000D01*
X65179605Y-133000000D01*
X70401674Y-138222068D01*
X71280530Y-137406092D01*
X71721145Y-136624971D01*
X93554634Y-136624971D01*
X94070783Y-137247788D01*
X94955768Y-137737630D01*
X95919314Y-138045407D01*
X96924389Y-138159293D01*
X97932370Y-138074910D01*
X98904520Y-137795501D01*
X99803481Y-137331803D01*
X99929217Y-137247788D01*
X100445366Y-136624971D01*
X128554634Y-136624971D01*
X129070783Y-137247788D01*
X129955768Y-137737630D01*
X130919314Y-138045407D01*
X131924389Y-138159293D01*
X132932370Y-138074910D01*
X133904520Y-137795501D01*
X134803481Y-137331803D01*
X134929217Y-137247788D01*
X135445366Y-136624971D01*
X132000000Y-133179605D01*
X128554634Y-136624971D01*
X100445366Y-136624971D01*
X97000000Y-133179605D01*
X93554634Y-136624971D01*
X71721145Y-136624971D01*
X72019437Y-136096160D01*
X72488591Y-134667244D01*
X72669963Y-133174257D01*
X72651073Y-132924389D01*
X91840707Y-132924389D01*
X91925090Y-133932370D01*
X92204499Y-134904520D01*
X92668197Y-135803481D01*
X92752212Y-135929217D01*
X93375029Y-136445366D01*
X96820395Y-133000000D01*
X97179605Y-133000000D01*
X100624971Y-136445366D01*
X101247788Y-135929217D01*
X101737630Y-135044232D01*
X102045407Y-134080686D01*
X102159293Y-133075611D01*
X102146634Y-132924389D01*
X126840707Y-132924389D01*
X126925090Y-133932370D01*
X127204499Y-134904520D01*
X127668197Y-135803481D01*
X127752212Y-135929217D01*
X128375029Y-136445366D01*
X131820395Y-133000000D01*
X132179605Y-133000000D01*
X135624971Y-136445366D01*
X136247788Y-135929217D01*
X136737630Y-135044232D01*
X137045407Y-134080686D01*
X137159293Y-133075611D01*
X137074910Y-132067630D01*
X136795501Y-131095480D01*
X136331803Y-130196519D01*
X136247788Y-130070783D01*
X135624971Y-129554634D01*
X132179605Y-133000000D01*
X131820395Y-133000000D01*
X128375029Y-129554634D01*
X127752212Y-130070783D01*
X127262370Y-130955768D01*
X126954593Y-131919314D01*
X126840707Y-132924389D01*
X102146634Y-132924389D01*
X102074910Y-132067630D01*
X101795501Y-131095480D01*
X101331803Y-130196519D01*
X101247788Y-130070783D01*
X100624971Y-129554634D01*
X97179605Y-133000000D01*
X96820395Y-133000000D01*
X93375029Y-129554634D01*
X92752212Y-130070783D01*
X92262370Y-130955768D01*
X91954593Y-131919314D01*
X91840707Y-132924389D01*
X72651073Y-132924389D01*
X72556583Y-131674572D01*
X72152807Y-130225824D01*
X71722602Y-129375029D01*
X93554634Y-129375029D01*
X97000000Y-132820395D01*
X100445366Y-129375029D01*
X128554634Y-129375029D01*
X132000000Y-132820395D01*
X135445366Y-129375029D01*
X134929217Y-128752212D01*
X134044232Y-128262370D01*
X133080686Y-127954593D01*
X132075611Y-127840707D01*
X131067630Y-127925090D01*
X130095480Y-128204499D01*
X129196519Y-128668197D01*
X129070783Y-128752212D01*
X128554634Y-129375029D01*
X100445366Y-129375029D01*
X99929217Y-128752212D01*
X99044232Y-128262370D01*
X98080686Y-127954593D01*
X97075611Y-127840707D01*
X96067630Y-127925090D01*
X95095480Y-128204499D01*
X94196519Y-128668197D01*
X94070783Y-128752212D01*
X93554634Y-129375029D01*
X71722602Y-129375029D01*
X71474153Y-128883686D01*
X71280530Y-128593908D01*
X70401674Y-127777932D01*
X65179605Y-133000000D01*
X64820395Y-133000000D01*
X59598326Y-127777932D01*
X58719470Y-128593908D01*
X57980563Y-129903840D01*
X57511409Y-131332756D01*
X57330037Y-132825743D01*
X50660000Y-132825743D01*
X50660000Y-127598326D01*
X59777932Y-127598326D01*
X65000000Y-132820395D01*
X70222068Y-127598326D01*
X69406092Y-126719470D01*
X68096160Y-125980563D01*
X66667244Y-125511409D01*
X65174257Y-125330037D01*
X63674572Y-125443417D01*
X62225824Y-125847193D01*
X60883686Y-126525847D01*
X60593908Y-126719470D01*
X59777932Y-127598326D01*
X50660000Y-127598326D01*
X50660000Y-108401674D01*
X59777932Y-108401674D01*
X60593908Y-109280530D01*
X61903840Y-110019437D01*
X63332756Y-110488591D01*
X64825743Y-110669963D01*
X66325428Y-110556583D01*
X67774176Y-110152807D01*
X69116314Y-109474153D01*
X69406092Y-109280530D01*
X70222068Y-108401674D01*
X65000000Y-103179605D01*
X59777932Y-108401674D01*
X50660000Y-108401674D01*
X50660000Y-102825743D01*
X57330037Y-102825743D01*
X57443417Y-104325428D01*
X57847193Y-105774176D01*
X58525847Y-107116314D01*
X58719470Y-107406092D01*
X59598326Y-108222068D01*
X64820395Y-103000000D01*
X65179605Y-103000000D01*
X70401674Y-108222068D01*
X71280530Y-107406092D01*
X71721145Y-106624971D01*
X93554634Y-106624971D01*
X94070783Y-107247788D01*
X94955768Y-107737630D01*
X95919314Y-108045407D01*
X96924389Y-108159293D01*
X97932370Y-108074910D01*
X98904520Y-107795501D01*
X99803481Y-107331803D01*
X99929217Y-107247788D01*
X100445366Y-106624971D01*
X128554634Y-106624971D01*
X129070783Y-107247788D01*
X129955768Y-107737630D01*
X130919314Y-108045407D01*
X131924389Y-108159293D01*
X132932370Y-108074910D01*
X133904520Y-107795501D01*
X134803481Y-107331803D01*
X134929217Y-107247788D01*
X135445366Y-106624971D01*
X132000000Y-103179605D01*
X128554634Y-106624971D01*
X100445366Y-106624971D01*
X97000000Y-103179605D01*
X93554634Y-106624971D01*
X71721145Y-106624971D01*
X72019437Y-106096160D01*
X72488591Y-104667244D01*
X72669963Y-103174257D01*
X72651073Y-102924389D01*
X91840707Y-102924389D01*
X91925090Y-103932370D01*
X92204499Y-104904520D01*
X92668197Y-105803481D01*
X92752212Y-105929217D01*
X93375029Y-106445366D01*
X96820395Y-103000000D01*
X97179605Y-103000000D01*
X100624971Y-106445366D01*
X101247788Y-105929217D01*
X101737630Y-105044232D01*
X102045407Y-104080686D01*
X102159293Y-103075611D01*
X102146634Y-102924389D01*
X126840707Y-102924389D01*
X126925090Y-103932370D01*
X127204499Y-104904520D01*
X127668197Y-105803481D01*
X127752212Y-105929217D01*
X128375029Y-106445366D01*
X131820395Y-103000000D01*
X132179605Y-103000000D01*
X135624971Y-106445366D01*
X136247788Y-105929217D01*
X136737630Y-105044232D01*
X137045407Y-104080686D01*
X137159293Y-103075611D01*
X137074910Y-102067630D01*
X136795501Y-101095480D01*
X136331803Y-100196519D01*
X136247788Y-100070783D01*
X135624971Y-99554634D01*
X132179605Y-103000000D01*
X131820395Y-103000000D01*
X128375029Y-99554634D01*
X127752212Y-100070783D01*
X127262370Y-100955768D01*
X126954593Y-101919314D01*
X126840707Y-102924389D01*
X102146634Y-102924389D01*
X102074910Y-102067630D01*
X101795501Y-101095480D01*
X101331803Y-100196519D01*
X101247788Y-100070783D01*
X100624971Y-99554634D01*
X97179605Y-103000000D01*
X96820395Y-103000000D01*
X93375029Y-99554634D01*
X92752212Y-100070783D01*
X92262370Y-100955768D01*
X91954593Y-101919314D01*
X91840707Y-102924389D01*
X72651073Y-102924389D01*
X72556583Y-101674572D01*
X72152807Y-100225824D01*
X71722602Y-99375029D01*
X93554634Y-99375029D01*
X97000000Y-102820395D01*
X100445366Y-99375029D01*
X128554634Y-99375029D01*
X132000000Y-102820395D01*
X135445366Y-99375029D01*
X134929217Y-98752212D01*
X134044232Y-98262370D01*
X133080686Y-97954593D01*
X132075611Y-97840707D01*
X131067630Y-97925090D01*
X130095480Y-98204499D01*
X129196519Y-98668197D01*
X129070783Y-98752212D01*
X128554634Y-99375029D01*
X100445366Y-99375029D01*
X99929217Y-98752212D01*
X99044232Y-98262370D01*
X98080686Y-97954593D01*
X97075611Y-97840707D01*
X96067630Y-97925090D01*
X95095480Y-98204499D01*
X94196519Y-98668197D01*
X94070783Y-98752212D01*
X93554634Y-99375029D01*
X71722602Y-99375029D01*
X71474153Y-98883686D01*
X71280530Y-98593908D01*
X70401674Y-97777932D01*
X65179605Y-103000000D01*
X64820395Y-103000000D01*
X59598326Y-97777932D01*
X58719470Y-98593908D01*
X57980563Y-99903840D01*
X57511409Y-101332756D01*
X57330037Y-102825743D01*
X50660000Y-102825743D01*
X50660000Y-97598326D01*
X59777932Y-97598326D01*
X65000000Y-102820395D01*
X70222068Y-97598326D01*
X69406092Y-96719470D01*
X68096160Y-95980563D01*
X66667244Y-95511409D01*
X65174257Y-95330037D01*
X63674572Y-95443417D01*
X62225824Y-95847193D01*
X60883686Y-96525847D01*
X60593908Y-96719470D01*
X59777932Y-97598326D01*
X50660000Y-97598326D01*
X50660000Y-78401674D01*
X59777932Y-78401674D01*
X60593908Y-79280530D01*
X61903840Y-80019437D01*
X63332756Y-80488591D01*
X64825743Y-80669963D01*
X66325428Y-80556583D01*
X67774176Y-80152807D01*
X69116314Y-79474153D01*
X69406092Y-79280530D01*
X70222068Y-78401674D01*
X65000000Y-73179605D01*
X59777932Y-78401674D01*
X50660000Y-78401674D01*
X50660000Y-72825743D01*
X57330037Y-72825743D01*
X57443417Y-74325428D01*
X57847193Y-75774176D01*
X58525847Y-77116314D01*
X58719470Y-77406092D01*
X59598326Y-78222068D01*
X64820395Y-73000000D01*
X65179605Y-73000000D01*
X70401674Y-78222068D01*
X71280530Y-77406092D01*
X71721145Y-76624971D01*
X93554634Y-76624971D01*
X94070783Y-77247788D01*
X94955768Y-77737630D01*
X95919314Y-78045407D01*
X96924389Y-78159293D01*
X97932370Y-78074910D01*
X98904520Y-77795501D01*
X99803481Y-77331803D01*
X99929217Y-77247788D01*
X100445366Y-76624971D01*
X128554634Y-76624971D01*
X129070783Y-77247788D01*
X129955768Y-77737630D01*
X130919314Y-78045407D01*
X131924389Y-78159293D01*
X132932370Y-78074910D01*
X133904520Y-77795501D01*
X134803481Y-77331803D01*
X134929217Y-77247788D01*
X135445366Y-76624971D01*
X132000000Y-73179605D01*
X128554634Y-76624971D01*
X100445366Y-76624971D01*
X97000000Y-73179605D01*
X93554634Y-76624971D01*
X71721145Y-76624971D01*
X72019437Y-76096160D01*
X72488591Y-74667244D01*
X72669963Y-73174257D01*
X72651073Y-72924389D01*
X91840707Y-72924389D01*
X91925090Y-73932370D01*
X92204499Y-74904520D01*
X92668197Y-75803481D01*
X92752212Y-75929217D01*
X93375029Y-76445366D01*
X96820395Y-73000000D01*
X97179605Y-73000000D01*
X100624971Y-76445366D01*
X101247788Y-75929217D01*
X101737630Y-75044232D01*
X102045407Y-74080686D01*
X102159293Y-73075611D01*
X102146634Y-72924389D01*
X126840707Y-72924389D01*
X126925090Y-73932370D01*
X127204499Y-74904520D01*
X127668197Y-75803481D01*
X127752212Y-75929217D01*
X128375029Y-76445366D01*
X131820395Y-73000000D01*
X132179605Y-73000000D01*
X135624971Y-76445366D01*
X136247788Y-75929217D01*
X136737630Y-75044232D01*
X137045407Y-74080686D01*
X137159293Y-73075611D01*
X137074910Y-72067630D01*
X136795501Y-71095480D01*
X136331803Y-70196519D01*
X136247788Y-70070783D01*
X135624971Y-69554634D01*
X132179605Y-73000000D01*
X131820395Y-73000000D01*
X128375029Y-69554634D01*
X127752212Y-70070783D01*
X127262370Y-70955768D01*
X126954593Y-71919314D01*
X126840707Y-72924389D01*
X102146634Y-72924389D01*
X102074910Y-72067630D01*
X101795501Y-71095480D01*
X101331803Y-70196519D01*
X101247788Y-70070783D01*
X100624971Y-69554634D01*
X97179605Y-73000000D01*
X96820395Y-73000000D01*
X93375029Y-69554634D01*
X92752212Y-70070783D01*
X92262370Y-70955768D01*
X91954593Y-71919314D01*
X91840707Y-72924389D01*
X72651073Y-72924389D01*
X72556583Y-71674572D01*
X72152807Y-70225824D01*
X71722602Y-69375029D01*
X93554634Y-69375029D01*
X97000000Y-72820395D01*
X100445366Y-69375029D01*
X128554634Y-69375029D01*
X132000000Y-72820395D01*
X135445366Y-69375029D01*
X134929217Y-68752212D01*
X134044232Y-68262370D01*
X133080686Y-67954593D01*
X132075611Y-67840707D01*
X131067630Y-67925090D01*
X130095480Y-68204499D01*
X129196519Y-68668197D01*
X129070783Y-68752212D01*
X128554634Y-69375029D01*
X100445366Y-69375029D01*
X99929217Y-68752212D01*
X99044232Y-68262370D01*
X98080686Y-67954593D01*
X97075611Y-67840707D01*
X96067630Y-67925090D01*
X95095480Y-68204499D01*
X94196519Y-68668197D01*
X94070783Y-68752212D01*
X93554634Y-69375029D01*
X71722602Y-69375029D01*
X71474153Y-68883686D01*
X71280530Y-68593908D01*
X70401674Y-67777932D01*
X65179605Y-73000000D01*
X64820395Y-73000000D01*
X59598326Y-67777932D01*
X58719470Y-68593908D01*
X57980563Y-69903840D01*
X57511409Y-71332756D01*
X57330037Y-72825743D01*
X50660000Y-72825743D01*
X50660000Y-67598326D01*
X59777932Y-67598326D01*
X65000000Y-72820395D01*
X70222068Y-67598326D01*
X69406092Y-66719470D01*
X68096160Y-65980563D01*
X66667244Y-65511409D01*
X65174257Y-65330037D01*
X63674572Y-65443417D01*
X62225824Y-65847193D01*
X60883686Y-66525847D01*
X60593908Y-66719470D01*
X59777932Y-67598326D01*
X50660000Y-67598326D01*
X50660000Y-48401674D01*
X59777932Y-48401674D01*
X60593908Y-49280530D01*
X61903840Y-50019437D01*
X63332756Y-50488591D01*
X64825743Y-50669963D01*
X66325428Y-50556583D01*
X67774176Y-50152807D01*
X69116314Y-49474153D01*
X69406092Y-49280530D01*
X70222068Y-48401674D01*
X65000000Y-43179605D01*
X59777932Y-48401674D01*
X50660000Y-48401674D01*
X50660000Y-42825743D01*
X57330037Y-42825743D01*
X57443417Y-44325428D01*
X57847193Y-45774176D01*
X58525847Y-47116314D01*
X58719470Y-47406092D01*
X59598326Y-48222068D01*
X64820395Y-43000000D01*
X65179605Y-43000000D01*
X70401674Y-48222068D01*
X71280530Y-47406092D01*
X71721145Y-46624971D01*
X93554634Y-46624971D01*
X94070783Y-47247788D01*
X94955768Y-47737630D01*
X95919314Y-48045407D01*
X96924389Y-48159293D01*
X97932370Y-48074910D01*
X98904520Y-47795501D01*
X99803481Y-47331803D01*
X99929217Y-47247788D01*
X100445366Y-46624971D01*
X128554634Y-46624971D01*
X129070783Y-47247788D01*
X129955768Y-47737630D01*
X130919314Y-48045407D01*
X131924389Y-48159293D01*
X132932370Y-48074910D01*
X133904520Y-47795501D01*
X134803481Y-47331803D01*
X134929217Y-47247788D01*
X135445366Y-46624971D01*
X132000000Y-43179605D01*
X128554634Y-46624971D01*
X100445366Y-46624971D01*
X97000000Y-43179605D01*
X93554634Y-46624971D01*
X71721145Y-46624971D01*
X72019437Y-46096160D01*
X72488591Y-44667244D01*
X72669963Y-43174257D01*
X72651073Y-42924389D01*
X91840707Y-42924389D01*
X91925090Y-43932370D01*
X92204499Y-44904520D01*
X92668197Y-45803481D01*
X92752212Y-45929217D01*
X93375029Y-46445366D01*
X96820395Y-43000000D01*
X97179605Y-43000000D01*
X100624971Y-46445366D01*
X101247788Y-45929217D01*
X101737630Y-45044232D01*
X102045407Y-44080686D01*
X102159293Y-43075611D01*
X102146634Y-42924389D01*
X126840707Y-42924389D01*
X126925090Y-43932370D01*
X127204499Y-44904520D01*
X127668197Y-45803481D01*
X127752212Y-45929217D01*
X128375029Y-46445366D01*
X131820395Y-43000000D01*
X132179605Y-43000000D01*
X135624971Y-46445366D01*
X136247788Y-45929217D01*
X136737630Y-45044232D01*
X137045407Y-44080686D01*
X137159293Y-43075611D01*
X137074910Y-42067630D01*
X136795501Y-41095480D01*
X136331803Y-40196519D01*
X136247788Y-40070783D01*
X135624971Y-39554634D01*
X132179605Y-43000000D01*
X131820395Y-43000000D01*
X128375029Y-39554634D01*
X127752212Y-40070783D01*
X127262370Y-40955768D01*
X126954593Y-41919314D01*
X126840707Y-42924389D01*
X102146634Y-42924389D01*
X102074910Y-42067630D01*
X101795501Y-41095480D01*
X101331803Y-40196519D01*
X101247788Y-40070783D01*
X100624971Y-39554634D01*
X97179605Y-43000000D01*
X96820395Y-43000000D01*
X93375029Y-39554634D01*
X92752212Y-40070783D01*
X92262370Y-40955768D01*
X91954593Y-41919314D01*
X91840707Y-42924389D01*
X72651073Y-42924389D01*
X72556583Y-41674572D01*
X72152807Y-40225824D01*
X71722602Y-39375029D01*
X93554634Y-39375029D01*
X97000000Y-42820395D01*
X100445366Y-39375029D01*
X128554634Y-39375029D01*
X132000000Y-42820395D01*
X135445366Y-39375029D01*
X134929217Y-38752212D01*
X134044232Y-38262370D01*
X133080686Y-37954593D01*
X132075611Y-37840707D01*
X131067630Y-37925090D01*
X130095480Y-38204499D01*
X129196519Y-38668197D01*
X129070783Y-38752212D01*
X128554634Y-39375029D01*
X100445366Y-39375029D01*
X99929217Y-38752212D01*
X99044232Y-38262370D01*
X98080686Y-37954593D01*
X97075611Y-37840707D01*
X96067630Y-37925090D01*
X95095480Y-38204499D01*
X94196519Y-38668197D01*
X94070783Y-38752212D01*
X93554634Y-39375029D01*
X71722602Y-39375029D01*
X71474153Y-38883686D01*
X71280530Y-38593908D01*
X70401674Y-37777932D01*
X65179605Y-43000000D01*
X64820395Y-43000000D01*
X59598326Y-37777932D01*
X58719470Y-38593908D01*
X57980563Y-39903840D01*
X57511409Y-41332756D01*
X57330037Y-42825743D01*
X50660000Y-42825743D01*
X50660000Y-37598326D01*
X59777932Y-37598326D01*
X65000000Y-42820395D01*
X70222068Y-37598326D01*
X69406092Y-36719470D01*
X68096160Y-35980563D01*
X66667244Y-35511409D01*
X65174257Y-35330037D01*
X63674572Y-35443417D01*
X62225824Y-35847193D01*
X60883686Y-36525847D01*
X60593908Y-36719470D01*
X59777932Y-37598326D01*
X50660000Y-37598326D01*
X50660000Y-24192714D01*
X50738519Y-24358331D01*
X51046970Y-24773424D01*
X51430475Y-25120365D01*
X51874296Y-25385822D01*
X52361377Y-25559593D01*
X52873000Y-25635000D01*
X54273000Y-25635000D01*
X54273000Y-23127000D01*
X54527000Y-23127000D01*
X54527000Y-25635000D01*
X55927000Y-25635000D01*
X56438623Y-25559593D01*
X56925704Y-25385822D01*
X57369525Y-25120365D01*
X57753030Y-24773424D01*
X58061481Y-24358331D01*
X58283025Y-23891038D01*
X58379667Y-23537162D01*
X141620333Y-23537162D01*
X141716975Y-23891038D01*
X141938519Y-24358331D01*
X142246970Y-24773424D01*
X142630475Y-25120365D01*
X143074296Y-25385822D01*
X143561377Y-25559593D01*
X144073000Y-25635000D01*
X145473000Y-25635000D01*
X145473000Y-23127000D01*
X141727009Y-23127000D01*
X141620333Y-23537162D01*
X58379667Y-23537162D01*
X58272991Y-23127000D01*
X54527000Y-23127000D01*
X54273000Y-23127000D01*
X54253000Y-23127000D01*
X54253000Y-22873000D01*
X54273000Y-22873000D01*
X54273000Y-22853000D01*
X54527000Y-22853000D01*
X54527000Y-22873000D01*
X58272991Y-22873000D01*
X58379667Y-22462838D01*
X58283025Y-22108962D01*
X58061481Y-21641669D01*
X57753030Y-21226576D01*
X57369525Y-20879635D01*
X57002314Y-20660000D01*
X142997686Y-20660000D01*
X142630475Y-20879635D01*
G37*
X142630475Y-20879635D02*
X142246970Y-21226576D01*
X141938519Y-21641669D01*
X141716975Y-22108962D01*
X141620333Y-22462838D01*
X141727009Y-22873000D01*
X145473000Y-22873000D01*
X145473000Y-22853000D01*
X145727000Y-22853000D01*
X145727000Y-22873000D01*
X145747000Y-22873000D01*
X145747000Y-23127000D01*
X145727000Y-23127000D01*
X145727000Y-25635000D01*
X147127000Y-25635000D01*
X147638623Y-25559593D01*
X148125704Y-25385822D01*
X148569525Y-25120365D01*
X148953030Y-24773424D01*
X149261481Y-24358331D01*
X149340000Y-24192714D01*
X149340001Y-215807288D01*
X149261481Y-215641669D01*
X148953030Y-215226576D01*
X148569525Y-214879635D01*
X148125704Y-214614178D01*
X147638623Y-214440407D01*
X147127000Y-214365000D01*
X145727000Y-214365000D01*
X145727000Y-216873000D01*
X145747000Y-216873000D01*
X145747000Y-217127000D01*
X145727000Y-217127000D01*
X145727000Y-217147000D01*
X145473000Y-217147000D01*
X145473000Y-217127000D01*
X141727009Y-217127000D01*
X141620333Y-217537162D01*
X141716975Y-217891038D01*
X141938519Y-218358331D01*
X142246970Y-218773424D01*
X142630475Y-219120365D01*
X142997686Y-219340000D01*
X57002314Y-219340000D01*
X57369525Y-219120365D01*
X57753030Y-218773424D01*
X58061481Y-218358331D01*
X58283025Y-217891038D01*
X58379667Y-217537162D01*
X58272991Y-217127000D01*
X54527000Y-217127000D01*
X54527000Y-217147000D01*
X54273000Y-217147000D01*
X54273000Y-217127000D01*
X54253000Y-217127000D01*
X54253000Y-216873000D01*
X54273000Y-216873000D01*
X54273000Y-214365000D01*
X54527000Y-214365000D01*
X54527000Y-216873000D01*
X58272991Y-216873000D01*
X58379667Y-216462838D01*
X141620333Y-216462838D01*
X141727009Y-216873000D01*
X145473000Y-216873000D01*
X145473000Y-214365000D01*
X144073000Y-214365000D01*
X143561377Y-214440407D01*
X143074296Y-214614178D01*
X142630475Y-214879635D01*
X142246970Y-215226576D01*
X141938519Y-215641669D01*
X141716975Y-216108962D01*
X141620333Y-216462838D01*
X58379667Y-216462838D01*
X58283025Y-216108962D01*
X58061481Y-215641669D01*
X57753030Y-215226576D01*
X57369525Y-214879635D01*
X56925704Y-214614178D01*
X56438623Y-214440407D01*
X55927000Y-214365000D01*
X54527000Y-214365000D01*
X54273000Y-214365000D01*
X52873000Y-214365000D01*
X52361377Y-214440407D01*
X51874296Y-214614178D01*
X51430475Y-214879635D01*
X51046970Y-215226576D01*
X50738519Y-215641669D01*
X50660000Y-215807286D01*
X50660000Y-200401674D01*
X59777932Y-200401674D01*
X60593908Y-201280530D01*
X61903840Y-202019437D01*
X63332756Y-202488591D01*
X64825743Y-202669963D01*
X66325428Y-202556583D01*
X67774176Y-202152807D01*
X69116314Y-201474153D01*
X69406092Y-201280530D01*
X70222068Y-200401674D01*
X91777932Y-200401674D01*
X92593908Y-201280530D01*
X93903840Y-202019437D01*
X95332756Y-202488591D01*
X96825743Y-202669963D01*
X98325428Y-202556583D01*
X99774176Y-202152807D01*
X101116314Y-201474153D01*
X101406092Y-201280530D01*
X102222068Y-200401674D01*
X126777932Y-200401674D01*
X127593908Y-201280530D01*
X128903840Y-202019437D01*
X130332756Y-202488591D01*
X131825743Y-202669963D01*
X133325428Y-202556583D01*
X134774176Y-202152807D01*
X136116314Y-201474153D01*
X136406092Y-201280530D01*
X137222068Y-200401674D01*
X132000000Y-195179605D01*
X126777932Y-200401674D01*
X102222068Y-200401674D01*
X97000000Y-195179605D01*
X91777932Y-200401674D01*
X70222068Y-200401674D01*
X65000000Y-195179605D01*
X59777932Y-200401674D01*
X50660000Y-200401674D01*
X50660000Y-194825743D01*
X57330037Y-194825743D01*
X57443417Y-196325428D01*
X57847193Y-197774176D01*
X58525847Y-199116314D01*
X58719470Y-199406092D01*
X59598326Y-200222068D01*
X64820395Y-195000000D01*
X65179605Y-195000000D01*
X70401674Y-200222068D01*
X71280530Y-199406092D01*
X72019437Y-198096160D01*
X72488591Y-196667244D01*
X72669963Y-195174257D01*
X72643615Y-194825743D01*
X89330037Y-194825743D01*
X89443417Y-196325428D01*
X89847193Y-197774176D01*
X90525847Y-199116314D01*
X90719470Y-199406092D01*
X91598326Y-200222068D01*
X96820395Y-195000000D01*
X97179605Y-195000000D01*
X102401674Y-200222068D01*
X103280530Y-199406092D01*
X104019437Y-198096160D01*
X104488591Y-196667244D01*
X104669963Y-195174257D01*
X104643615Y-194825743D01*
X124330037Y-194825743D01*
X124443417Y-196325428D01*
X124847193Y-197774176D01*
X125525847Y-199116314D01*
X125719470Y-199406092D01*
X126598326Y-200222068D01*
X131820395Y-195000000D01*
X132179605Y-195000000D01*
X137401674Y-200222068D01*
X138280530Y-199406092D01*
X139019437Y-198096160D01*
X139488591Y-196667244D01*
X139669963Y-195174257D01*
X139556583Y-193674572D01*
X139152807Y-192225824D01*
X138474153Y-190883686D01*
X138280530Y-190593908D01*
X137401674Y-189777932D01*
X132179605Y-195000000D01*
X131820395Y-195000000D01*
X126598326Y-189777932D01*
X125719470Y-190593908D01*
X124980563Y-191903840D01*
X124511409Y-193332756D01*
X124330037Y-194825743D01*
X104643615Y-194825743D01*
X104556583Y-193674572D01*
X104152807Y-192225824D01*
X103474153Y-190883686D01*
X103280530Y-190593908D01*
X102401674Y-189777932D01*
X97179605Y-195000000D01*
X96820395Y-195000000D01*
X91598326Y-189777932D01*
X90719470Y-190593908D01*
X89980563Y-191903840D01*
X89511409Y-193332756D01*
X89330037Y-194825743D01*
X72643615Y-194825743D01*
X72556583Y-193674572D01*
X72152807Y-192225824D01*
X71474153Y-190883686D01*
X71280530Y-190593908D01*
X70401674Y-189777932D01*
X65179605Y-195000000D01*
X64820395Y-195000000D01*
X59598326Y-189777932D01*
X58719470Y-190593908D01*
X57980563Y-191903840D01*
X57511409Y-193332756D01*
X57330037Y-194825743D01*
X50660000Y-194825743D01*
X50660000Y-189598326D01*
X59777932Y-189598326D01*
X65000000Y-194820395D01*
X70222068Y-189598326D01*
X91777932Y-189598326D01*
X97000000Y-194820395D01*
X102222068Y-189598326D01*
X126777932Y-189598326D01*
X132000000Y-194820395D01*
X137222068Y-189598326D01*
X136406092Y-188719470D01*
X135096160Y-187980563D01*
X133667244Y-187511409D01*
X132174257Y-187330037D01*
X130674572Y-187443417D01*
X129225824Y-187847193D01*
X127883686Y-188525847D01*
X127593908Y-188719470D01*
X126777932Y-189598326D01*
X102222068Y-189598326D01*
X101406092Y-188719470D01*
X100096160Y-187980563D01*
X98667244Y-187511409D01*
X97174257Y-187330037D01*
X95674572Y-187443417D01*
X94225824Y-187847193D01*
X92883686Y-188525847D01*
X92593908Y-188719470D01*
X91777932Y-189598326D01*
X70222068Y-189598326D01*
X69406092Y-188719470D01*
X68096160Y-187980563D01*
X66667244Y-187511409D01*
X65174257Y-187330037D01*
X63674572Y-187443417D01*
X62225824Y-187847193D01*
X60883686Y-188525847D01*
X60593908Y-188719470D01*
X59777932Y-189598326D01*
X50660000Y-189598326D01*
X50660000Y-166624971D01*
X128554634Y-166624971D01*
X129070783Y-167247788D01*
X129955768Y-167737630D01*
X130919314Y-168045407D01*
X131924389Y-168159293D01*
X132932370Y-168074910D01*
X133904520Y-167795501D01*
X134803481Y-167331803D01*
X134929217Y-167247788D01*
X135445366Y-166624971D01*
X132000000Y-163179605D01*
X128554634Y-166624971D01*
X50660000Y-166624971D01*
X50660000Y-162924389D01*
X126840707Y-162924389D01*
X126925090Y-163932370D01*
X127204499Y-164904520D01*
X127668197Y-165803481D01*
X127752212Y-165929217D01*
X128375029Y-166445366D01*
X131820395Y-163000000D01*
X132179605Y-163000000D01*
X135624971Y-166445366D01*
X136247788Y-165929217D01*
X136737630Y-165044232D01*
X137045407Y-164080686D01*
X137159293Y-163075611D01*
X137074910Y-162067630D01*
X136795501Y-161095480D01*
X136331803Y-160196519D01*
X136247788Y-160070783D01*
X135624971Y-159554634D01*
X132179605Y-163000000D01*
X131820395Y-163000000D01*
X128375029Y-159554634D01*
X127752212Y-160070783D01*
X127262370Y-160955768D01*
X126954593Y-161919314D01*
X126840707Y-162924389D01*
X50660000Y-162924389D01*
X50660000Y-159375029D01*
X128554634Y-159375029D01*
X132000000Y-162820395D01*
X135445366Y-159375029D01*
X134929217Y-158752212D01*
X134044232Y-158262370D01*
X133080686Y-157954593D01*
X132075611Y-157840707D01*
X131067630Y-157925090D01*
X130095480Y-158204499D01*
X129196519Y-158668197D01*
X129070783Y-158752212D01*
X128554634Y-159375029D01*
X50660000Y-159375029D01*
X50660000Y-138401674D01*
X59777932Y-138401674D01*
X60593908Y-139280530D01*
X61903840Y-140019437D01*
X63332756Y-140488591D01*
X64825743Y-140669963D01*
X66325428Y-140556583D01*
X67774176Y-140152807D01*
X69116314Y-139474153D01*
X69406092Y-139280530D01*
X70222068Y-138401674D01*
X65000000Y-133179605D01*
X59777932Y-138401674D01*
X50660000Y-138401674D01*
X50660000Y-132825743D01*
X57330037Y-132825743D01*
X57443417Y-134325428D01*
X57847193Y-135774176D01*
X58525847Y-137116314D01*
X58719470Y-137406092D01*
X59598326Y-138222068D01*
X64820395Y-133000000D01*
X65179605Y-133000000D01*
X70401674Y-138222068D01*
X71280530Y-137406092D01*
X71721145Y-136624971D01*
X93554634Y-136624971D01*
X94070783Y-137247788D01*
X94955768Y-137737630D01*
X95919314Y-138045407D01*
X96924389Y-138159293D01*
X97932370Y-138074910D01*
X98904520Y-137795501D01*
X99803481Y-137331803D01*
X99929217Y-137247788D01*
X100445366Y-136624971D01*
X128554634Y-136624971D01*
X129070783Y-137247788D01*
X129955768Y-137737630D01*
X130919314Y-138045407D01*
X131924389Y-138159293D01*
X132932370Y-138074910D01*
X133904520Y-137795501D01*
X134803481Y-137331803D01*
X134929217Y-137247788D01*
X135445366Y-136624971D01*
X132000000Y-133179605D01*
X128554634Y-136624971D01*
X100445366Y-136624971D01*
X97000000Y-133179605D01*
X93554634Y-136624971D01*
X71721145Y-136624971D01*
X72019437Y-136096160D01*
X72488591Y-134667244D01*
X72669963Y-133174257D01*
X72651073Y-132924389D01*
X91840707Y-132924389D01*
X91925090Y-133932370D01*
X92204499Y-134904520D01*
X92668197Y-135803481D01*
X92752212Y-135929217D01*
X93375029Y-136445366D01*
X96820395Y-133000000D01*
X97179605Y-133000000D01*
X100624971Y-136445366D01*
X101247788Y-135929217D01*
X101737630Y-135044232D01*
X102045407Y-134080686D01*
X102159293Y-133075611D01*
X102146634Y-132924389D01*
X126840707Y-132924389D01*
X126925090Y-133932370D01*
X127204499Y-134904520D01*
X127668197Y-135803481D01*
X127752212Y-135929217D01*
X128375029Y-136445366D01*
X131820395Y-133000000D01*
X132179605Y-133000000D01*
X135624971Y-136445366D01*
X136247788Y-135929217D01*
X136737630Y-135044232D01*
X137045407Y-134080686D01*
X137159293Y-133075611D01*
X137074910Y-132067630D01*
X136795501Y-131095480D01*
X136331803Y-130196519D01*
X136247788Y-130070783D01*
X135624971Y-129554634D01*
X132179605Y-133000000D01*
X131820395Y-133000000D01*
X128375029Y-129554634D01*
X127752212Y-130070783D01*
X127262370Y-130955768D01*
X126954593Y-131919314D01*
X126840707Y-132924389D01*
X102146634Y-132924389D01*
X102074910Y-132067630D01*
X101795501Y-131095480D01*
X101331803Y-130196519D01*
X101247788Y-130070783D01*
X100624971Y-129554634D01*
X97179605Y-133000000D01*
X96820395Y-133000000D01*
X93375029Y-129554634D01*
X92752212Y-130070783D01*
X92262370Y-130955768D01*
X91954593Y-131919314D01*
X91840707Y-132924389D01*
X72651073Y-132924389D01*
X72556583Y-131674572D01*
X72152807Y-130225824D01*
X71722602Y-129375029D01*
X93554634Y-129375029D01*
X97000000Y-132820395D01*
X100445366Y-129375029D01*
X128554634Y-129375029D01*
X132000000Y-132820395D01*
X135445366Y-129375029D01*
X134929217Y-128752212D01*
X134044232Y-128262370D01*
X133080686Y-127954593D01*
X132075611Y-127840707D01*
X131067630Y-127925090D01*
X130095480Y-128204499D01*
X129196519Y-128668197D01*
X129070783Y-128752212D01*
X128554634Y-129375029D01*
X100445366Y-129375029D01*
X99929217Y-128752212D01*
X99044232Y-128262370D01*
X98080686Y-127954593D01*
X97075611Y-127840707D01*
X96067630Y-127925090D01*
X95095480Y-128204499D01*
X94196519Y-128668197D01*
X94070783Y-128752212D01*
X93554634Y-129375029D01*
X71722602Y-129375029D01*
X71474153Y-128883686D01*
X71280530Y-128593908D01*
X70401674Y-127777932D01*
X65179605Y-133000000D01*
X64820395Y-133000000D01*
X59598326Y-127777932D01*
X58719470Y-128593908D01*
X57980563Y-129903840D01*
X57511409Y-131332756D01*
X57330037Y-132825743D01*
X50660000Y-132825743D01*
X50660000Y-127598326D01*
X59777932Y-127598326D01*
X65000000Y-132820395D01*
X70222068Y-127598326D01*
X69406092Y-126719470D01*
X68096160Y-125980563D01*
X66667244Y-125511409D01*
X65174257Y-125330037D01*
X63674572Y-125443417D01*
X62225824Y-125847193D01*
X60883686Y-126525847D01*
X60593908Y-126719470D01*
X59777932Y-127598326D01*
X50660000Y-127598326D01*
X50660000Y-108401674D01*
X59777932Y-108401674D01*
X60593908Y-109280530D01*
X61903840Y-110019437D01*
X63332756Y-110488591D01*
X64825743Y-110669963D01*
X66325428Y-110556583D01*
X67774176Y-110152807D01*
X69116314Y-109474153D01*
X69406092Y-109280530D01*
X70222068Y-108401674D01*
X65000000Y-103179605D01*
X59777932Y-108401674D01*
X50660000Y-108401674D01*
X50660000Y-102825743D01*
X57330037Y-102825743D01*
X57443417Y-104325428D01*
X57847193Y-105774176D01*
X58525847Y-107116314D01*
X58719470Y-107406092D01*
X59598326Y-108222068D01*
X64820395Y-103000000D01*
X65179605Y-103000000D01*
X70401674Y-108222068D01*
X71280530Y-107406092D01*
X71721145Y-106624971D01*
X93554634Y-106624971D01*
X94070783Y-107247788D01*
X94955768Y-107737630D01*
X95919314Y-108045407D01*
X96924389Y-108159293D01*
X97932370Y-108074910D01*
X98904520Y-107795501D01*
X99803481Y-107331803D01*
X99929217Y-107247788D01*
X100445366Y-106624971D01*
X128554634Y-106624971D01*
X129070783Y-107247788D01*
X129955768Y-107737630D01*
X130919314Y-108045407D01*
X131924389Y-108159293D01*
X132932370Y-108074910D01*
X133904520Y-107795501D01*
X134803481Y-107331803D01*
X134929217Y-107247788D01*
X135445366Y-106624971D01*
X132000000Y-103179605D01*
X128554634Y-106624971D01*
X100445366Y-106624971D01*
X97000000Y-103179605D01*
X93554634Y-106624971D01*
X71721145Y-106624971D01*
X72019437Y-106096160D01*
X72488591Y-104667244D01*
X72669963Y-103174257D01*
X72651073Y-102924389D01*
X91840707Y-102924389D01*
X91925090Y-103932370D01*
X92204499Y-104904520D01*
X92668197Y-105803481D01*
X92752212Y-105929217D01*
X93375029Y-106445366D01*
X96820395Y-103000000D01*
X97179605Y-103000000D01*
X100624971Y-106445366D01*
X101247788Y-105929217D01*
X101737630Y-105044232D01*
X102045407Y-104080686D01*
X102159293Y-103075611D01*
X102146634Y-102924389D01*
X126840707Y-102924389D01*
X126925090Y-103932370D01*
X127204499Y-104904520D01*
X127668197Y-105803481D01*
X127752212Y-105929217D01*
X128375029Y-106445366D01*
X131820395Y-103000000D01*
X132179605Y-103000000D01*
X135624971Y-106445366D01*
X136247788Y-105929217D01*
X136737630Y-105044232D01*
X137045407Y-104080686D01*
X137159293Y-103075611D01*
X137074910Y-102067630D01*
X136795501Y-101095480D01*
X136331803Y-100196519D01*
X136247788Y-100070783D01*
X135624971Y-99554634D01*
X132179605Y-103000000D01*
X131820395Y-103000000D01*
X128375029Y-99554634D01*
X127752212Y-100070783D01*
X127262370Y-100955768D01*
X126954593Y-101919314D01*
X126840707Y-102924389D01*
X102146634Y-102924389D01*
X102074910Y-102067630D01*
X101795501Y-101095480D01*
X101331803Y-100196519D01*
X101247788Y-100070783D01*
X100624971Y-99554634D01*
X97179605Y-103000000D01*
X96820395Y-103000000D01*
X93375029Y-99554634D01*
X92752212Y-100070783D01*
X92262370Y-100955768D01*
X91954593Y-101919314D01*
X91840707Y-102924389D01*
X72651073Y-102924389D01*
X72556583Y-101674572D01*
X72152807Y-100225824D01*
X71722602Y-99375029D01*
X93554634Y-99375029D01*
X97000000Y-102820395D01*
X100445366Y-99375029D01*
X128554634Y-99375029D01*
X132000000Y-102820395D01*
X135445366Y-99375029D01*
X134929217Y-98752212D01*
X134044232Y-98262370D01*
X133080686Y-97954593D01*
X132075611Y-97840707D01*
X131067630Y-97925090D01*
X130095480Y-98204499D01*
X129196519Y-98668197D01*
X129070783Y-98752212D01*
X128554634Y-99375029D01*
X100445366Y-99375029D01*
X99929217Y-98752212D01*
X99044232Y-98262370D01*
X98080686Y-97954593D01*
X97075611Y-97840707D01*
X96067630Y-97925090D01*
X95095480Y-98204499D01*
X94196519Y-98668197D01*
X94070783Y-98752212D01*
X93554634Y-99375029D01*
X71722602Y-99375029D01*
X71474153Y-98883686D01*
X71280530Y-98593908D01*
X70401674Y-97777932D01*
X65179605Y-103000000D01*
X64820395Y-103000000D01*
X59598326Y-97777932D01*
X58719470Y-98593908D01*
X57980563Y-99903840D01*
X57511409Y-101332756D01*
X57330037Y-102825743D01*
X50660000Y-102825743D01*
X50660000Y-97598326D01*
X59777932Y-97598326D01*
X65000000Y-102820395D01*
X70222068Y-97598326D01*
X69406092Y-96719470D01*
X68096160Y-95980563D01*
X66667244Y-95511409D01*
X65174257Y-95330037D01*
X63674572Y-95443417D01*
X62225824Y-95847193D01*
X60883686Y-96525847D01*
X60593908Y-96719470D01*
X59777932Y-97598326D01*
X50660000Y-97598326D01*
X50660000Y-78401674D01*
X59777932Y-78401674D01*
X60593908Y-79280530D01*
X61903840Y-80019437D01*
X63332756Y-80488591D01*
X64825743Y-80669963D01*
X66325428Y-80556583D01*
X67774176Y-80152807D01*
X69116314Y-79474153D01*
X69406092Y-79280530D01*
X70222068Y-78401674D01*
X65000000Y-73179605D01*
X59777932Y-78401674D01*
X50660000Y-78401674D01*
X50660000Y-72825743D01*
X57330037Y-72825743D01*
X57443417Y-74325428D01*
X57847193Y-75774176D01*
X58525847Y-77116314D01*
X58719470Y-77406092D01*
X59598326Y-78222068D01*
X64820395Y-73000000D01*
X65179605Y-73000000D01*
X70401674Y-78222068D01*
X71280530Y-77406092D01*
X71721145Y-76624971D01*
X93554634Y-76624971D01*
X94070783Y-77247788D01*
X94955768Y-77737630D01*
X95919314Y-78045407D01*
X96924389Y-78159293D01*
X97932370Y-78074910D01*
X98904520Y-77795501D01*
X99803481Y-77331803D01*
X99929217Y-77247788D01*
X100445366Y-76624971D01*
X128554634Y-76624971D01*
X129070783Y-77247788D01*
X129955768Y-77737630D01*
X130919314Y-78045407D01*
X131924389Y-78159293D01*
X132932370Y-78074910D01*
X133904520Y-77795501D01*
X134803481Y-77331803D01*
X134929217Y-77247788D01*
X135445366Y-76624971D01*
X132000000Y-73179605D01*
X128554634Y-76624971D01*
X100445366Y-76624971D01*
X97000000Y-73179605D01*
X93554634Y-76624971D01*
X71721145Y-76624971D01*
X72019437Y-76096160D01*
X72488591Y-74667244D01*
X72669963Y-73174257D01*
X72651073Y-72924389D01*
X91840707Y-72924389D01*
X91925090Y-73932370D01*
X92204499Y-74904520D01*
X92668197Y-75803481D01*
X92752212Y-75929217D01*
X93375029Y-76445366D01*
X96820395Y-73000000D01*
X97179605Y-73000000D01*
X100624971Y-76445366D01*
X101247788Y-75929217D01*
X101737630Y-75044232D01*
X102045407Y-74080686D01*
X102159293Y-73075611D01*
X102146634Y-72924389D01*
X126840707Y-72924389D01*
X126925090Y-73932370D01*
X127204499Y-74904520D01*
X127668197Y-75803481D01*
X127752212Y-75929217D01*
X128375029Y-76445366D01*
X131820395Y-73000000D01*
X132179605Y-73000000D01*
X135624971Y-76445366D01*
X136247788Y-75929217D01*
X136737630Y-75044232D01*
X137045407Y-74080686D01*
X137159293Y-73075611D01*
X137074910Y-72067630D01*
X136795501Y-71095480D01*
X136331803Y-70196519D01*
X136247788Y-70070783D01*
X135624971Y-69554634D01*
X132179605Y-73000000D01*
X131820395Y-73000000D01*
X128375029Y-69554634D01*
X127752212Y-70070783D01*
X127262370Y-70955768D01*
X126954593Y-71919314D01*
X126840707Y-72924389D01*
X102146634Y-72924389D01*
X102074910Y-72067630D01*
X101795501Y-71095480D01*
X101331803Y-70196519D01*
X101247788Y-70070783D01*
X100624971Y-69554634D01*
X97179605Y-73000000D01*
X96820395Y-73000000D01*
X93375029Y-69554634D01*
X92752212Y-70070783D01*
X92262370Y-70955768D01*
X91954593Y-71919314D01*
X91840707Y-72924389D01*
X72651073Y-72924389D01*
X72556583Y-71674572D01*
X72152807Y-70225824D01*
X71722602Y-69375029D01*
X93554634Y-69375029D01*
X97000000Y-72820395D01*
X100445366Y-69375029D01*
X128554634Y-69375029D01*
X132000000Y-72820395D01*
X135445366Y-69375029D01*
X134929217Y-68752212D01*
X134044232Y-68262370D01*
X133080686Y-67954593D01*
X132075611Y-67840707D01*
X131067630Y-67925090D01*
X130095480Y-68204499D01*
X129196519Y-68668197D01*
X129070783Y-68752212D01*
X128554634Y-69375029D01*
X100445366Y-69375029D01*
X99929217Y-68752212D01*
X99044232Y-68262370D01*
X98080686Y-67954593D01*
X97075611Y-67840707D01*
X96067630Y-67925090D01*
X95095480Y-68204499D01*
X94196519Y-68668197D01*
X94070783Y-68752212D01*
X93554634Y-69375029D01*
X71722602Y-69375029D01*
X71474153Y-68883686D01*
X71280530Y-68593908D01*
X70401674Y-67777932D01*
X65179605Y-73000000D01*
X64820395Y-73000000D01*
X59598326Y-67777932D01*
X58719470Y-68593908D01*
X57980563Y-69903840D01*
X57511409Y-71332756D01*
X57330037Y-72825743D01*
X50660000Y-72825743D01*
X50660000Y-67598326D01*
X59777932Y-67598326D01*
X65000000Y-72820395D01*
X70222068Y-67598326D01*
X69406092Y-66719470D01*
X68096160Y-65980563D01*
X66667244Y-65511409D01*
X65174257Y-65330037D01*
X63674572Y-65443417D01*
X62225824Y-65847193D01*
X60883686Y-66525847D01*
X60593908Y-66719470D01*
X59777932Y-67598326D01*
X50660000Y-67598326D01*
X50660000Y-48401674D01*
X59777932Y-48401674D01*
X60593908Y-49280530D01*
X61903840Y-50019437D01*
X63332756Y-50488591D01*
X64825743Y-50669963D01*
X66325428Y-50556583D01*
X67774176Y-50152807D01*
X69116314Y-49474153D01*
X69406092Y-49280530D01*
X70222068Y-48401674D01*
X65000000Y-43179605D01*
X59777932Y-48401674D01*
X50660000Y-48401674D01*
X50660000Y-42825743D01*
X57330037Y-42825743D01*
X57443417Y-44325428D01*
X57847193Y-45774176D01*
X58525847Y-47116314D01*
X58719470Y-47406092D01*
X59598326Y-48222068D01*
X64820395Y-43000000D01*
X65179605Y-43000000D01*
X70401674Y-48222068D01*
X71280530Y-47406092D01*
X71721145Y-46624971D01*
X93554634Y-46624971D01*
X94070783Y-47247788D01*
X94955768Y-47737630D01*
X95919314Y-48045407D01*
X96924389Y-48159293D01*
X97932370Y-48074910D01*
X98904520Y-47795501D01*
X99803481Y-47331803D01*
X99929217Y-47247788D01*
X100445366Y-46624971D01*
X128554634Y-46624971D01*
X129070783Y-47247788D01*
X129955768Y-47737630D01*
X130919314Y-48045407D01*
X131924389Y-48159293D01*
X132932370Y-48074910D01*
X133904520Y-47795501D01*
X134803481Y-47331803D01*
X134929217Y-47247788D01*
X135445366Y-46624971D01*
X132000000Y-43179605D01*
X128554634Y-46624971D01*
X100445366Y-46624971D01*
X97000000Y-43179605D01*
X93554634Y-46624971D01*
X71721145Y-46624971D01*
X72019437Y-46096160D01*
X72488591Y-44667244D01*
X72669963Y-43174257D01*
X72651073Y-42924389D01*
X91840707Y-42924389D01*
X91925090Y-43932370D01*
X92204499Y-44904520D01*
X92668197Y-45803481D01*
X92752212Y-45929217D01*
X93375029Y-46445366D01*
X96820395Y-43000000D01*
X97179605Y-43000000D01*
X100624971Y-46445366D01*
X101247788Y-45929217D01*
X101737630Y-45044232D01*
X102045407Y-44080686D01*
X102159293Y-43075611D01*
X102146634Y-42924389D01*
X126840707Y-42924389D01*
X126925090Y-43932370D01*
X127204499Y-44904520D01*
X127668197Y-45803481D01*
X127752212Y-45929217D01*
X128375029Y-46445366D01*
X131820395Y-43000000D01*
X132179605Y-43000000D01*
X135624971Y-46445366D01*
X136247788Y-45929217D01*
X136737630Y-45044232D01*
X137045407Y-44080686D01*
X137159293Y-43075611D01*
X137074910Y-42067630D01*
X136795501Y-41095480D01*
X136331803Y-40196519D01*
X136247788Y-40070783D01*
X135624971Y-39554634D01*
X132179605Y-43000000D01*
X131820395Y-43000000D01*
X128375029Y-39554634D01*
X127752212Y-40070783D01*
X127262370Y-40955768D01*
X126954593Y-41919314D01*
X126840707Y-42924389D01*
X102146634Y-42924389D01*
X102074910Y-42067630D01*
X101795501Y-41095480D01*
X101331803Y-40196519D01*
X101247788Y-40070783D01*
X100624971Y-39554634D01*
X97179605Y-43000000D01*
X96820395Y-43000000D01*
X93375029Y-39554634D01*
X92752212Y-40070783D01*
X92262370Y-40955768D01*
X91954593Y-41919314D01*
X91840707Y-42924389D01*
X72651073Y-42924389D01*
X72556583Y-41674572D01*
X72152807Y-40225824D01*
X71722602Y-39375029D01*
X93554634Y-39375029D01*
X97000000Y-42820395D01*
X100445366Y-39375029D01*
X128554634Y-39375029D01*
X132000000Y-42820395D01*
X135445366Y-39375029D01*
X134929217Y-38752212D01*
X134044232Y-38262370D01*
X133080686Y-37954593D01*
X132075611Y-37840707D01*
X131067630Y-37925090D01*
X130095480Y-38204499D01*
X129196519Y-38668197D01*
X129070783Y-38752212D01*
X128554634Y-39375029D01*
X100445366Y-39375029D01*
X99929217Y-38752212D01*
X99044232Y-38262370D01*
X98080686Y-37954593D01*
X97075611Y-37840707D01*
X96067630Y-37925090D01*
X95095480Y-38204499D01*
X94196519Y-38668197D01*
X94070783Y-38752212D01*
X93554634Y-39375029D01*
X71722602Y-39375029D01*
X71474153Y-38883686D01*
X71280530Y-38593908D01*
X70401674Y-37777932D01*
X65179605Y-43000000D01*
X64820395Y-43000000D01*
X59598326Y-37777932D01*
X58719470Y-38593908D01*
X57980563Y-39903840D01*
X57511409Y-41332756D01*
X57330037Y-42825743D01*
X50660000Y-42825743D01*
X50660000Y-37598326D01*
X59777932Y-37598326D01*
X65000000Y-42820395D01*
X70222068Y-37598326D01*
X69406092Y-36719470D01*
X68096160Y-35980563D01*
X66667244Y-35511409D01*
X65174257Y-35330037D01*
X63674572Y-35443417D01*
X62225824Y-35847193D01*
X60883686Y-36525847D01*
X60593908Y-36719470D01*
X59777932Y-37598326D01*
X50660000Y-37598326D01*
X50660000Y-24192714D01*
X50738519Y-24358331D01*
X51046970Y-24773424D01*
X51430475Y-25120365D01*
X51874296Y-25385822D01*
X52361377Y-25559593D01*
X52873000Y-25635000D01*
X54273000Y-25635000D01*
X54273000Y-23127000D01*
X54527000Y-23127000D01*
X54527000Y-25635000D01*
X55927000Y-25635000D01*
X56438623Y-25559593D01*
X56925704Y-25385822D01*
X57369525Y-25120365D01*
X57753030Y-24773424D01*
X58061481Y-24358331D01*
X58283025Y-23891038D01*
X58379667Y-23537162D01*
X141620333Y-23537162D01*
X141716975Y-23891038D01*
X141938519Y-24358331D01*
X142246970Y-24773424D01*
X142630475Y-25120365D01*
X143074296Y-25385822D01*
X143561377Y-25559593D01*
X144073000Y-25635000D01*
X145473000Y-25635000D01*
X145473000Y-23127000D01*
X141727009Y-23127000D01*
X141620333Y-23537162D01*
X58379667Y-23537162D01*
X58272991Y-23127000D01*
X54527000Y-23127000D01*
X54273000Y-23127000D01*
X54253000Y-23127000D01*
X54253000Y-22873000D01*
X54273000Y-22873000D01*
X54273000Y-22853000D01*
X54527000Y-22853000D01*
X54527000Y-22873000D01*
X58272991Y-22873000D01*
X58379667Y-22462838D01*
X58283025Y-22108962D01*
X58061481Y-21641669D01*
X57753030Y-21226576D01*
X57369525Y-20879635D01*
X57002314Y-20660000D01*
X142997686Y-20660000D01*
X142630475Y-20879635D01*
%TD*%
M02*
