M48
; DRILL file {KiCad 5.1.9-73d0e3b20d~88~ubuntu20.04.1} date Thu Apr  1 10:45:04 2021
; FORMAT={-:-/ absolute / inch / decimal}
; #@! TF.CreationDate,2021-04-01T10:45:04-04:00
; #@! TF.GenerationSoftware,Kicad,Pcbnew,5.1.9-73d0e3b20d~88~ubuntu20.04.1
; #@! TF.FileFunction,Plated,1,2,PTH
FMAT,2
INCH
T1C0.1260
T2C0.2756
T3C0.3937
%
G90
G05
T1
X2.4606Y-1.4567
X2.4606Y-4.6063
X5.4134Y-1.4567
X5.4134Y-4.6063
T2
X2.4606Y-5.3937
X3.4449Y-5.3937
X4.4291Y-5.3937
X4.4291Y-6.6929
X5.4134Y-5.3937
T3
X2.4606Y-6.6929
X2.4606Y-7.6772
X3.4449Y-6.6929
X3.4449Y-7.6772
X4.4291Y-7.6772
X5.4134Y-6.6929
X5.4134Y-7.6772
T1
G00X2.0866Y-0.9055
M15
G01X2.1969Y-0.9055
M16
G05
G00X2.0866Y-8.5433
M15
G01X2.1969Y-8.5433
M16
G05
G00X5.7874Y-0.9055
M15
G01X5.6772Y-0.9055
M16
G05
G00X5.7874Y-8.5433
M15
G01X5.6772Y-8.5433
M16
G05
T0
M30
