%TF.GenerationSoftware,KiCad,Pcbnew,5.1.9-73d0e3b20d~88~ubuntu20.04.1*%
%TF.CreationDate,2021-04-01T10:45:02-04:00*%
%TF.ProjectId,ao_output_panel,616f5f6f-7574-4707-9574-5f70616e656c,rev?*%
%TF.SameCoordinates,Original*%
%TF.FileFunction,Profile,NP*%
%FSLAX46Y46*%
G04 Gerber Fmt 4.6, Leading zero omitted, Abs format (unit mm)*
G04 Created by KiCad (PCBNEW 5.1.9-73d0e3b20d~88~ubuntu20.04.1) date 2021-04-01 10:45:02*
%MOMM*%
%LPD*%
G01*
G04 APERTURE LIST*
%TA.AperFunction,Profile*%
%ADD10C,0.050000*%
%TD*%
G04 APERTURE END LIST*
D10*
X136700000Y-110000000D02*
X136700000Y-44000000D01*
X138300000Y-44000000D02*
X138300000Y-110000000D01*
X136700000Y-44000000D02*
X138300000Y-44000000D01*
X138300000Y-110000000D02*
X136700000Y-110000000D01*
X113300000Y-44000000D02*
X113300000Y-110000000D01*
X111700000Y-44000000D02*
X113300000Y-44000000D01*
X111700000Y-110000000D02*
X111700000Y-44000000D01*
X113300000Y-110000000D02*
X111700000Y-110000000D01*
X88300000Y-110000000D02*
X86700000Y-110000000D01*
X86700000Y-44000000D02*
X88300000Y-44000000D01*
X86700000Y-110000000D02*
X86700000Y-44000000D01*
X88300000Y-44000000D02*
X88300000Y-110000000D01*
X61700000Y-110000000D02*
X61700000Y-44000000D01*
X63300000Y-110000000D02*
X61700000Y-110000000D01*
X63300000Y-44000000D02*
X63300000Y-110000000D01*
X61700000Y-44000000D02*
X63300000Y-44000000D01*
X50000000Y-220000000D02*
X50000000Y-20000000D01*
X150000000Y-220000000D02*
X50000000Y-220000000D01*
X150000000Y-20000000D02*
X150000000Y-220000000D01*
X50000000Y-20000000D02*
X150000000Y-20000000D01*
M02*
