%TF.GenerationSoftware,KiCad,Pcbnew,5.1.9-73d0e3b20d~88~ubuntu20.04.1*%
%TF.CreationDate,2021-04-01T10:45:02-04:00*%
%TF.ProjectId,ao_output_panel,616f5f6f-7574-4707-9574-5f70616e656c,rev?*%
%TF.SameCoordinates,Original*%
%TF.FileFunction,Legend,Bot*%
%TF.FilePolarity,Positive*%
%FSLAX46Y46*%
G04 Gerber Fmt 4.6, Leading zero omitted, Abs format (unit mm)*
G04 Created by KiCad (PCBNEW 5.1.9-73d0e3b20d~88~ubuntu20.04.1) date 2021-04-01 10:45:02*
%MOMM*%
%LPD*%
G01*
G04 APERTURE LIST*
%ADD10C,0.150000*%
G04 APERTURE END LIST*
D10*
X104666666Y-213802380D02*
X104666666Y-212802380D01*
X104285714Y-212802380D01*
X104190476Y-212850000D01*
X104142857Y-212897619D01*
X104095238Y-212992857D01*
X104095238Y-213135714D01*
X104142857Y-213230952D01*
X104190476Y-213278571D01*
X104285714Y-213326190D01*
X104666666Y-213326190D01*
X103238095Y-213802380D02*
X103238095Y-213278571D01*
X103285714Y-213183333D01*
X103380952Y-213135714D01*
X103571428Y-213135714D01*
X103666666Y-213183333D01*
X103238095Y-213754761D02*
X103333333Y-213802380D01*
X103571428Y-213802380D01*
X103666666Y-213754761D01*
X103714285Y-213659523D01*
X103714285Y-213564285D01*
X103666666Y-213469047D01*
X103571428Y-213421428D01*
X103333333Y-213421428D01*
X103238095Y-213373809D01*
X102761904Y-213135714D02*
X102761904Y-213802380D01*
X102761904Y-213230952D02*
X102714285Y-213183333D01*
X102619047Y-213135714D01*
X102476190Y-213135714D01*
X102380952Y-213183333D01*
X102333333Y-213278571D01*
X102333333Y-213802380D01*
X101476190Y-213754761D02*
X101571428Y-213802380D01*
X101761904Y-213802380D01*
X101857142Y-213754761D01*
X101904761Y-213659523D01*
X101904761Y-213278571D01*
X101857142Y-213183333D01*
X101761904Y-213135714D01*
X101571428Y-213135714D01*
X101476190Y-213183333D01*
X101428571Y-213278571D01*
X101428571Y-213373809D01*
X101904761Y-213469047D01*
X100857142Y-213802380D02*
X100952380Y-213754761D01*
X101000000Y-213659523D01*
X101000000Y-212802380D01*
X99285714Y-213802380D02*
X99285714Y-212802380D01*
X99285714Y-213754761D02*
X99380952Y-213802380D01*
X99571428Y-213802380D01*
X99666666Y-213754761D01*
X99714285Y-213707142D01*
X99761904Y-213611904D01*
X99761904Y-213326190D01*
X99714285Y-213230952D01*
X99666666Y-213183333D01*
X99571428Y-213135714D01*
X99380952Y-213135714D01*
X99285714Y-213183333D01*
X98428571Y-213754761D02*
X98523809Y-213802380D01*
X98714285Y-213802380D01*
X98809523Y-213754761D01*
X98857142Y-213659523D01*
X98857142Y-213278571D01*
X98809523Y-213183333D01*
X98714285Y-213135714D01*
X98523809Y-213135714D01*
X98428571Y-213183333D01*
X98380952Y-213278571D01*
X98380952Y-213373809D01*
X98857142Y-213469047D01*
X98000000Y-213754761D02*
X97904761Y-213802380D01*
X97714285Y-213802380D01*
X97619047Y-213754761D01*
X97571428Y-213659523D01*
X97571428Y-213611904D01*
X97619047Y-213516666D01*
X97714285Y-213469047D01*
X97857142Y-213469047D01*
X97952380Y-213421428D01*
X98000000Y-213326190D01*
X98000000Y-213278571D01*
X97952380Y-213183333D01*
X97857142Y-213135714D01*
X97714285Y-213135714D01*
X97619047Y-213183333D01*
X97142857Y-213802380D02*
X97142857Y-213135714D01*
X97142857Y-212802380D02*
X97190476Y-212850000D01*
X97142857Y-212897619D01*
X97095238Y-212850000D01*
X97142857Y-212802380D01*
X97142857Y-212897619D01*
X96238095Y-213135714D02*
X96238095Y-213945238D01*
X96285714Y-214040476D01*
X96333333Y-214088095D01*
X96428571Y-214135714D01*
X96571428Y-214135714D01*
X96666666Y-214088095D01*
X96238095Y-213754761D02*
X96333333Y-213802380D01*
X96523809Y-213802380D01*
X96619047Y-213754761D01*
X96666666Y-213707142D01*
X96714285Y-213611904D01*
X96714285Y-213326190D01*
X96666666Y-213230952D01*
X96619047Y-213183333D01*
X96523809Y-213135714D01*
X96333333Y-213135714D01*
X96238095Y-213183333D01*
X95761904Y-213135714D02*
X95761904Y-213802380D01*
X95761904Y-213230952D02*
X95714285Y-213183333D01*
X95619047Y-213135714D01*
X95476190Y-213135714D01*
X95380952Y-213183333D01*
X95333333Y-213278571D01*
X95333333Y-213802380D01*
X104309523Y-215452380D02*
X104642857Y-214976190D01*
X104880952Y-215452380D02*
X104880952Y-214452380D01*
X104500000Y-214452380D01*
X104404761Y-214500000D01*
X104357142Y-214547619D01*
X104309523Y-214642857D01*
X104309523Y-214785714D01*
X104357142Y-214880952D01*
X104404761Y-214928571D01*
X104500000Y-214976190D01*
X104880952Y-214976190D01*
X103880952Y-215452380D02*
X103880952Y-214785714D01*
X103880952Y-214452380D02*
X103928571Y-214500000D01*
X103880952Y-214547619D01*
X103833333Y-214500000D01*
X103880952Y-214452380D01*
X103880952Y-214547619D01*
X102976190Y-215404761D02*
X103071428Y-215452380D01*
X103261904Y-215452380D01*
X103357142Y-215404761D01*
X103404761Y-215357142D01*
X103452380Y-215261904D01*
X103452380Y-214976190D01*
X103404761Y-214880952D01*
X103357142Y-214833333D01*
X103261904Y-214785714D01*
X103071428Y-214785714D01*
X102976190Y-214833333D01*
X102547619Y-215452380D02*
X102547619Y-214452380D01*
X102119047Y-215452380D02*
X102119047Y-214928571D01*
X102166666Y-214833333D01*
X102261904Y-214785714D01*
X102404761Y-214785714D01*
X102500000Y-214833333D01*
X102547619Y-214880952D01*
X100880952Y-215452380D02*
X100880952Y-214452380D01*
X100880952Y-214928571D02*
X100309523Y-214928571D01*
X100309523Y-215452380D02*
X100309523Y-214452380D01*
X99690476Y-215452380D02*
X99785714Y-215404761D01*
X99833333Y-215357142D01*
X99880952Y-215261904D01*
X99880952Y-214976190D01*
X99833333Y-214880952D01*
X99785714Y-214833333D01*
X99690476Y-214785714D01*
X99547619Y-214785714D01*
X99452380Y-214833333D01*
X99404761Y-214880952D01*
X99357142Y-214976190D01*
X99357142Y-215261904D01*
X99404761Y-215357142D01*
X99452380Y-215404761D01*
X99547619Y-215452380D01*
X99690476Y-215452380D01*
X98785714Y-215452380D02*
X98880952Y-215404761D01*
X98928571Y-215309523D01*
X98928571Y-214452380D01*
X98404761Y-215452380D02*
X98404761Y-214785714D01*
X98404761Y-214880952D02*
X98357142Y-214833333D01*
X98261904Y-214785714D01*
X98119047Y-214785714D01*
X98023809Y-214833333D01*
X97976190Y-214928571D01*
X97976190Y-215452380D01*
X97976190Y-214928571D02*
X97928571Y-214833333D01*
X97833333Y-214785714D01*
X97690476Y-214785714D01*
X97595238Y-214833333D01*
X97547619Y-214928571D01*
X97547619Y-215452380D01*
X96690476Y-215404761D02*
X96785714Y-215452380D01*
X96976190Y-215452380D01*
X97071428Y-215404761D01*
X97119047Y-215309523D01*
X97119047Y-214928571D01*
X97071428Y-214833333D01*
X96976190Y-214785714D01*
X96785714Y-214785714D01*
X96690476Y-214833333D01*
X96642857Y-214928571D01*
X96642857Y-215023809D01*
X97119047Y-215119047D01*
X96261904Y-215404761D02*
X96166666Y-215452380D01*
X95976190Y-215452380D01*
X95880952Y-215404761D01*
X95833333Y-215309523D01*
X95833333Y-215261904D01*
X95880952Y-215166666D01*
X95976190Y-215119047D01*
X96119047Y-215119047D01*
X96214285Y-215071428D01*
X96261904Y-214976190D01*
X96261904Y-214928571D01*
X96214285Y-214833333D01*
X96119047Y-214785714D01*
X95976190Y-214785714D01*
X95880952Y-214833333D01*
X103380952Y-217102380D02*
X103380952Y-216102380D01*
X103047619Y-216816666D01*
X102714285Y-216102380D01*
X102714285Y-217102380D01*
X101809523Y-217102380D02*
X101809523Y-216578571D01*
X101857142Y-216483333D01*
X101952380Y-216435714D01*
X102142857Y-216435714D01*
X102238095Y-216483333D01*
X101809523Y-217054761D02*
X101904761Y-217102380D01*
X102142857Y-217102380D01*
X102238095Y-217054761D01*
X102285714Y-216959523D01*
X102285714Y-216864285D01*
X102238095Y-216769047D01*
X102142857Y-216721428D01*
X101904761Y-216721428D01*
X101809523Y-216673809D01*
X101333333Y-217102380D02*
X101333333Y-216435714D01*
X101333333Y-216626190D02*
X101285714Y-216530952D01*
X101238095Y-216483333D01*
X101142857Y-216435714D01*
X101047619Y-216435714D01*
X100000000Y-216197619D02*
X99952380Y-216150000D01*
X99857142Y-216102380D01*
X99619047Y-216102380D01*
X99523809Y-216150000D01*
X99476190Y-216197619D01*
X99428571Y-216292857D01*
X99428571Y-216388095D01*
X99476190Y-216530952D01*
X100047619Y-217102380D01*
X99428571Y-217102380D01*
X98809523Y-216102380D02*
X98714285Y-216102380D01*
X98619047Y-216150000D01*
X98571428Y-216197619D01*
X98523809Y-216292857D01*
X98476190Y-216483333D01*
X98476190Y-216721428D01*
X98523809Y-216911904D01*
X98571428Y-217007142D01*
X98619047Y-217054761D01*
X98714285Y-217102380D01*
X98809523Y-217102380D01*
X98904761Y-217054761D01*
X98952380Y-217007142D01*
X99000000Y-216911904D01*
X99047619Y-216721428D01*
X99047619Y-216483333D01*
X99000000Y-216292857D01*
X98952380Y-216197619D01*
X98904761Y-216150000D01*
X98809523Y-216102380D01*
X98095238Y-216197619D02*
X98047619Y-216150000D01*
X97952380Y-216102380D01*
X97714285Y-216102380D01*
X97619047Y-216150000D01*
X97571428Y-216197619D01*
X97523809Y-216292857D01*
X97523809Y-216388095D01*
X97571428Y-216530952D01*
X98142857Y-217102380D01*
X97523809Y-217102380D01*
X96571428Y-217102380D02*
X97142857Y-217102380D01*
X96857142Y-217102380D02*
X96857142Y-216102380D01*
X96952380Y-216245238D01*
X97047619Y-216340476D01*
X97142857Y-216388095D01*
X104619047Y-209452380D02*
X104619047Y-210166666D01*
X104666666Y-210309523D01*
X104761904Y-210404761D01*
X104904761Y-210452380D01*
X105000000Y-210452380D01*
X103666666Y-210452380D02*
X104142857Y-210452380D01*
X104142857Y-209452380D01*
X102761904Y-210357142D02*
X102809523Y-210404761D01*
X102952380Y-210452380D01*
X103047619Y-210452380D01*
X103190476Y-210404761D01*
X103285714Y-210309523D01*
X103333333Y-210214285D01*
X103380952Y-210023809D01*
X103380952Y-209880952D01*
X103333333Y-209690476D01*
X103285714Y-209595238D01*
X103190476Y-209500000D01*
X103047619Y-209452380D01*
X102952380Y-209452380D01*
X102809523Y-209500000D01*
X102761904Y-209547619D01*
X102047619Y-209452380D02*
X102047619Y-210166666D01*
X102095238Y-210309523D01*
X102190476Y-210404761D01*
X102333333Y-210452380D01*
X102428571Y-210452380D01*
X101095238Y-210452380D02*
X101571428Y-210452380D01*
X101571428Y-209452380D01*
X100190476Y-210357142D02*
X100238095Y-210404761D01*
X100380952Y-210452380D01*
X100476190Y-210452380D01*
X100619047Y-210404761D01*
X100714285Y-210309523D01*
X100761904Y-210214285D01*
X100809523Y-210023809D01*
X100809523Y-209880952D01*
X100761904Y-209690476D01*
X100714285Y-209595238D01*
X100619047Y-209500000D01*
X100476190Y-209452380D01*
X100380952Y-209452380D01*
X100238095Y-209500000D01*
X100190476Y-209547619D01*
X99476190Y-209452380D02*
X99476190Y-210166666D01*
X99523809Y-210309523D01*
X99619047Y-210404761D01*
X99761904Y-210452380D01*
X99857142Y-210452380D01*
X98523809Y-210452380D02*
X99000000Y-210452380D01*
X99000000Y-209452380D01*
X97619047Y-210357142D02*
X97666666Y-210404761D01*
X97809523Y-210452380D01*
X97904761Y-210452380D01*
X98047619Y-210404761D01*
X98142857Y-210309523D01*
X98190476Y-210214285D01*
X98238095Y-210023809D01*
X98238095Y-209880952D01*
X98190476Y-209690476D01*
X98142857Y-209595238D01*
X98047619Y-209500000D01*
X97904761Y-209452380D01*
X97809523Y-209452380D01*
X97666666Y-209500000D01*
X97619047Y-209547619D01*
X96904761Y-209452380D02*
X96904761Y-210166666D01*
X96952380Y-210309523D01*
X97047619Y-210404761D01*
X97190476Y-210452380D01*
X97285714Y-210452380D01*
X95952380Y-210452380D02*
X96428571Y-210452380D01*
X96428571Y-209452380D01*
X95047619Y-210357142D02*
X95095238Y-210404761D01*
X95238095Y-210452380D01*
X95333333Y-210452380D01*
X95476190Y-210404761D01*
X95571428Y-210309523D01*
X95619047Y-210214285D01*
X95666666Y-210023809D01*
X95666666Y-209880952D01*
X95619047Y-209690476D01*
X95571428Y-209595238D01*
X95476190Y-209500000D01*
X95333333Y-209452380D01*
X95238095Y-209452380D01*
X95095238Y-209500000D01*
X95047619Y-209547619D01*
M02*
