M48
; DRILL file {KiCad 5.1.9-73d0e3b20d~88~ubuntu20.04.1} date Thu Apr  1 10:52:16 2021
; FORMAT={-:-/ absolute / inch / decimal}
; #@! TF.CreationDate,2021-04-01T10:52:16-04:00
; #@! TF.GenerationSoftware,Kicad,Pcbnew,5.1.9-73d0e3b20d~88~ubuntu20.04.1
; #@! TF.FileFunction,Plated,1,2,PTH
FMAT,2
INCH
T1C0.0157
T2C0.0236
T3C0.0315
T4C0.0394
T5C0.0400
T6C0.0433
T7C0.1063
%
G90
G05
T1
X3.7104Y-3.6858
T2
X1.7213Y-2.511
X1.8Y-2.511
X2.4Y-2.511
X2.4Y-2.811
X2.4787Y-2.511
X2.4787Y-2.811
T3
X1.4Y-2.161
X1.4Y-2.311
X1.6Y-3.561
X1.6Y-3.961
X1.75Y-3.111
X1.75Y-3.3079
X1.75Y-3.561
X1.75Y-4.061
X1.8Y-2.161
X1.8Y-2.311
X2.0Y-2.511
X2.0Y-2.911
X2.0516Y-1.961
X2.15Y-1.961
X2.2Y-2.511
X2.2Y-2.911
X2.2Y-3.111
X2.2Y-3.3079
X2.2Y-3.561
X2.2Y-3.961
X2.35Y-3.561
X2.35Y-4.061
X2.35Y-5.6
X2.35Y-6.0
X2.3516Y-0.861
X2.3569Y-1.161
X2.4Y-2.161
X2.4Y-2.311
X2.45Y-0.861
X2.4553Y-1.161
X2.7Y-0.861
X2.7Y-0.9594
X2.75Y-3.561
X2.75Y-3.961
X2.8Y-2.161
X2.8Y-2.311
X2.9Y-3.561
X2.9Y-3.961
X2.95Y-0.861
X2.95Y-0.961
X2.95Y-1.061
X2.95Y-5.6
X2.95Y-6.0
X3.05Y-1.361
X3.05Y-2.161
X3.05Y-2.361
X3.05Y-2.561
X3.05Y-2.861
X3.05Y-3.061
X3.05Y-3.261
X3.05Y-3.561
X3.05Y-3.961
X3.15Y-0.9626
X3.15Y-1.061
X3.2Y-3.561
X3.2Y-3.961
X3.2469Y-2.561
X3.2469Y-2.861
X3.35Y-1.161
X3.35Y-1.561
X3.35Y-3.561
X3.35Y-3.961
X3.3516Y-2.711
X3.4484Y-1.161
X3.4484Y-1.561
X3.45Y-1.361
X3.45Y-2.161
X3.45Y-2.361
X3.45Y-2.711
X3.45Y-3.061
X3.45Y-3.261
X3.5Y-3.561
X3.5Y-3.961
X3.65Y-3.561
X3.65Y-3.961
X3.7Y-1.261
X3.7Y-1.361
X3.7Y-1.461
X3.7Y-1.561
X3.7Y-2.411
X3.7Y-2.511
X3.7Y-2.611
X3.7Y-2.711
X3.7Y-2.811
X3.7Y-2.911
X3.7Y-3.011
X3.8Y-3.561
X3.8Y-3.961
X4.0Y-1.261
X4.0Y-1.361
X4.0Y-1.461
X4.0Y-1.561
X4.0Y-2.411
X4.0Y-2.511
X4.0Y-2.611
X4.0Y-2.711
X4.0Y-2.811
X4.0Y-2.911
X4.0Y-3.011
X4.25Y-1.261
X4.25Y-1.661
X4.25Y-2.161
X4.25Y-2.361
X4.25Y-3.061
X4.25Y-3.261
X4.2516Y-1.461
X4.2516Y-2.711
X4.3484Y-1.261
X4.35Y-1.461
X4.35Y-2.711
X4.4531Y-2.561
X4.4531Y-2.861
X4.65Y-1.661
X4.65Y-2.161
X4.65Y-2.361
X4.65Y-2.561
X4.65Y-2.861
X4.65Y-3.061
X4.65Y-3.261
T4
X2.3567Y-5.0984
X2.4567Y-5.0984
X2.5567Y-5.0984
X2.6567Y-5.0984
X2.7567Y-5.0984
X2.8567Y-5.0984
X2.9567Y-5.0984
X3.0567Y-5.0984
X3.1567Y-5.0984
X3.2567Y-5.0984
X3.3567Y-5.0984
X3.4567Y-5.0984
X3.5567Y-5.0984
X3.6567Y-5.0984
X3.7567Y-5.0984
X3.8567Y-5.0984
X3.9567Y-5.0984
X4.1472Y-3.4449
X4.1472Y-3.5449
X4.2472Y-3.4449
X4.2472Y-3.5449
X4.3472Y-3.4449
X4.3472Y-3.5449
X4.4472Y-3.4449
X4.4472Y-3.5449
X4.5472Y-3.4449
X4.5472Y-3.5449
T5
X1.8Y-0.811
X1.8Y-0.911
X1.8Y-1.011
X1.8Y-1.111
X1.8Y-1.211
X1.9Y-0.811
X1.9Y-0.911
X1.9Y-1.011
X1.9Y-1.111
X1.9Y-1.211
T6
X1.6Y-3.111
X1.6Y-3.411
X1.9Y-3.111
X1.9Y-3.411
X2.05Y-3.111
X2.05Y-3.411
X2.15Y-0.611
X2.15Y-1.411
X2.15Y-5.6
X2.15Y-5.9
X2.35Y-3.111
X2.35Y-3.411
X2.45Y-0.611
X2.45Y-1.411
X2.5394Y-5.6
X2.5394Y-5.9
X2.75Y-5.6
X2.75Y-5.9
X3.15Y-5.6
X3.15Y-5.9
T7
X1.4213Y-5.9252
X1.4213Y-6.9094
X1.5748Y-6.1575
X1.5748Y-7.1417
X1.6929Y-5.6535
X1.6929Y-6.6378
X1.8598Y-6.0921
X1.8598Y-7.0764
X1.9252Y-5.8071
X1.9252Y-6.7913
X2.4055Y-6.9094
X2.5591Y-7.1417
X2.6772Y-6.6378
X2.8441Y-7.0764
X2.9094Y-6.7913
X3.3898Y-5.9252
X3.3898Y-6.9094
X3.5433Y-6.1575
X3.5433Y-7.1417
X3.6614Y-5.6535
X3.6614Y-6.6378
X3.8283Y-6.0921
X3.8283Y-7.0764
X3.8937Y-5.8071
X3.8937Y-6.7913
X4.374Y-5.9252
X4.374Y-6.9094
X4.5276Y-6.1575
X4.5276Y-7.1417
X4.6457Y-5.6535
X4.6457Y-6.6378
X4.8126Y-6.0921
X4.8126Y-7.0764
X4.878Y-5.8071
X4.878Y-6.7913
T0
M30
