%TF.GenerationSoftware,KiCad,Pcbnew,5.1.9-73d0e3b20d~88~ubuntu20.04.1*%
%TF.CreationDate,2021-04-01T10:52:14-04:00*%
%TF.ProjectId,ao_output,616f5f6f-7574-4707-9574-2e6b69636164,rev?*%
%TF.SameCoordinates,Original*%
%TF.FileFunction,Legend,Bot*%
%TF.FilePolarity,Positive*%
%FSLAX46Y46*%
G04 Gerber Fmt 4.6, Leading zero omitted, Abs format (unit mm)*
G04 Created by KiCad (PCBNEW 5.1.9-73d0e3b20d~88~ubuntu20.04.1) date 2021-04-01 10:52:14*
%MOMM*%
%LPD*%
G01*
G04 APERTURE LIST*
%ADD10C,0.120000*%
%ADD11C,0.150000*%
G04 APERTURE END LIST*
D10*
%TO.C,J1*%
X116830000Y-87500000D02*
X116830000Y-86170000D01*
X116830000Y-86170000D02*
X115500000Y-86170000D01*
X116830000Y-88770000D02*
X114230000Y-88770000D01*
X114230000Y-88770000D02*
X114230000Y-86170000D01*
X114230000Y-86170000D02*
X104010000Y-86170000D01*
X104010000Y-91370000D02*
X104010000Y-86170000D01*
X116830000Y-91370000D02*
X104010000Y-91370000D01*
X116830000Y-91370000D02*
X116830000Y-88770000D01*
%TO.C,J5*%
X100350000Y-155350000D02*
X100350000Y-142100000D01*
X84600000Y-157850000D02*
X98300000Y-157850000D01*
X98300000Y-157850000D02*
X98350000Y-157850000D01*
X84600000Y-142100000D02*
X84600000Y-157850000D01*
X100350000Y-142100000D02*
X84600000Y-142100000D01*
X98350000Y-157850000D02*
X100350000Y-155350000D01*
%TO.C,J4*%
X125350000Y-180350000D02*
X125350000Y-167100000D01*
X109600000Y-182850000D02*
X123300000Y-182850000D01*
X123300000Y-182850000D02*
X123350000Y-182850000D01*
X109600000Y-167100000D02*
X109600000Y-182850000D01*
X125350000Y-167100000D02*
X109600000Y-167100000D01*
X123350000Y-182850000D02*
X125350000Y-180350000D01*
%TO.C,J7*%
X75350000Y-180350000D02*
X75350000Y-167100000D01*
X59600000Y-182850000D02*
X73300000Y-182850000D01*
X73300000Y-182850000D02*
X73350000Y-182850000D01*
X59600000Y-167100000D02*
X59600000Y-182850000D01*
X75350000Y-167100000D02*
X59600000Y-167100000D01*
X73350000Y-182850000D02*
X75350000Y-180350000D01*
%TO.C,J2*%
X101830000Y-129500000D02*
X101830000Y-128170000D01*
X101830000Y-128170000D02*
X100500000Y-128170000D01*
X99230000Y-128170000D02*
X58530000Y-128170000D01*
X58530000Y-130830000D02*
X58530000Y-128170000D01*
X99230000Y-130830000D02*
X58530000Y-130830000D01*
X99230000Y-130830000D02*
X99230000Y-128170000D01*
%TO.C,J3*%
X125350000Y-155350000D02*
X125350000Y-142100000D01*
X109600000Y-157850000D02*
X123300000Y-157850000D01*
X123300000Y-157850000D02*
X123350000Y-157850000D01*
X109600000Y-142100000D02*
X109600000Y-157850000D01*
X125350000Y-142100000D02*
X109600000Y-142100000D01*
X123350000Y-157850000D02*
X125350000Y-155350000D01*
%TO.C,J9*%
X50350000Y-155350000D02*
X50350000Y-142100000D01*
X34600000Y-157850000D02*
X48300000Y-157850000D01*
X48300000Y-157850000D02*
X48350000Y-157850000D01*
X34600000Y-142100000D02*
X34600000Y-157850000D01*
X50350000Y-142100000D02*
X34600000Y-142100000D01*
X48350000Y-157850000D02*
X50350000Y-155350000D01*
%TO.C,J6*%
X100350000Y-180350000D02*
X100350000Y-167100000D01*
X84600000Y-182850000D02*
X98300000Y-182850000D01*
X98300000Y-182850000D02*
X98350000Y-182850000D01*
X84600000Y-167100000D02*
X84600000Y-182850000D01*
X100350000Y-167100000D02*
X84600000Y-167100000D01*
X98350000Y-182850000D02*
X100350000Y-180350000D01*
%TO.C,J8*%
X50350000Y-180350000D02*
X50350000Y-167100000D01*
X34600000Y-182850000D02*
X48300000Y-182850000D01*
X48300000Y-182850000D02*
X48350000Y-182850000D01*
X34600000Y-167100000D02*
X34600000Y-182850000D01*
X50350000Y-167100000D02*
X34600000Y-167100000D01*
X48350000Y-182850000D02*
X50350000Y-180350000D01*
%TO.C,J1*%
D11*
X118817619Y-89103333D02*
X118103333Y-89103333D01*
X117960476Y-89150952D01*
X117865238Y-89246190D01*
X117817619Y-89389047D01*
X117817619Y-89484285D01*
X117817619Y-88103333D02*
X117817619Y-88674761D01*
X117817619Y-88389047D02*
X118817619Y-88389047D01*
X118674761Y-88484285D01*
X118579523Y-88579523D01*
X118531904Y-88674761D01*
%TO.C,J5*%
X82589285Y-149750000D02*
X83125000Y-149750000D01*
X83232142Y-149714285D01*
X83303571Y-149642857D01*
X83339285Y-149535714D01*
X83339285Y-149464285D01*
X82589285Y-150464285D02*
X82589285Y-150107142D01*
X82946428Y-150071428D01*
X82910714Y-150107142D01*
X82875000Y-150178571D01*
X82875000Y-150357142D01*
X82910714Y-150428571D01*
X82946428Y-150464285D01*
X83017857Y-150500000D01*
X83196428Y-150500000D01*
X83267857Y-150464285D01*
X83303571Y-150428571D01*
X83339285Y-150357142D01*
X83339285Y-150178571D01*
X83303571Y-150107142D01*
X83267857Y-150071428D01*
%TO.C,J4*%
X107589285Y-174750000D02*
X108125000Y-174750000D01*
X108232142Y-174714285D01*
X108303571Y-174642857D01*
X108339285Y-174535714D01*
X108339285Y-174464285D01*
X107839285Y-175428571D02*
X108339285Y-175428571D01*
X107553571Y-175250000D02*
X108089285Y-175071428D01*
X108089285Y-175535714D01*
%TO.C,J7*%
X57589285Y-174750000D02*
X58125000Y-174750000D01*
X58232142Y-174714285D01*
X58303571Y-174642857D01*
X58339285Y-174535714D01*
X58339285Y-174464285D01*
X57589285Y-175035714D02*
X57589285Y-175535714D01*
X58339285Y-175214285D01*
%TO.C,J2*%
X102722380Y-129166666D02*
X103436666Y-129166666D01*
X103579523Y-129119047D01*
X103674761Y-129023809D01*
X103722380Y-128880952D01*
X103722380Y-128785714D01*
X102817619Y-129595238D02*
X102770000Y-129642857D01*
X102722380Y-129738095D01*
X102722380Y-129976190D01*
X102770000Y-130071428D01*
X102817619Y-130119047D01*
X102912857Y-130166666D01*
X103008095Y-130166666D01*
X103150952Y-130119047D01*
X103722380Y-129547619D01*
X103722380Y-130166666D01*
%TO.C,J3*%
X107589285Y-149750000D02*
X108125000Y-149750000D01*
X108232142Y-149714285D01*
X108303571Y-149642857D01*
X108339285Y-149535714D01*
X108339285Y-149464285D01*
X107589285Y-150035714D02*
X107589285Y-150500000D01*
X107875000Y-150250000D01*
X107875000Y-150357142D01*
X107910714Y-150428571D01*
X107946428Y-150464285D01*
X108017857Y-150500000D01*
X108196428Y-150500000D01*
X108267857Y-150464285D01*
X108303571Y-150428571D01*
X108339285Y-150357142D01*
X108339285Y-150142857D01*
X108303571Y-150071428D01*
X108267857Y-150035714D01*
%TO.C,J9*%
X32589285Y-149750000D02*
X33125000Y-149750000D01*
X33232142Y-149714285D01*
X33303571Y-149642857D01*
X33339285Y-149535714D01*
X33339285Y-149464285D01*
X33339285Y-150142857D02*
X33339285Y-150285714D01*
X33303571Y-150357142D01*
X33267857Y-150392857D01*
X33160714Y-150464285D01*
X33017857Y-150500000D01*
X32732142Y-150500000D01*
X32660714Y-150464285D01*
X32625000Y-150428571D01*
X32589285Y-150357142D01*
X32589285Y-150214285D01*
X32625000Y-150142857D01*
X32660714Y-150107142D01*
X32732142Y-150071428D01*
X32910714Y-150071428D01*
X32982142Y-150107142D01*
X33017857Y-150142857D01*
X33053571Y-150214285D01*
X33053571Y-150357142D01*
X33017857Y-150428571D01*
X32982142Y-150464285D01*
X32910714Y-150500000D01*
%TO.C,J6*%
X82589285Y-174750000D02*
X83125000Y-174750000D01*
X83232142Y-174714285D01*
X83303571Y-174642857D01*
X83339285Y-174535714D01*
X83339285Y-174464285D01*
X82589285Y-175428571D02*
X82589285Y-175285714D01*
X82625000Y-175214285D01*
X82660714Y-175178571D01*
X82767857Y-175107142D01*
X82910714Y-175071428D01*
X83196428Y-175071428D01*
X83267857Y-175107142D01*
X83303571Y-175142857D01*
X83339285Y-175214285D01*
X83339285Y-175357142D01*
X83303571Y-175428571D01*
X83267857Y-175464285D01*
X83196428Y-175500000D01*
X83017857Y-175500000D01*
X82946428Y-175464285D01*
X82910714Y-175428571D01*
X82875000Y-175357142D01*
X82875000Y-175214285D01*
X82910714Y-175142857D01*
X82946428Y-175107142D01*
X83017857Y-175071428D01*
%TO.C,J8*%
X32589285Y-174750000D02*
X33125000Y-174750000D01*
X33232142Y-174714285D01*
X33303571Y-174642857D01*
X33339285Y-174535714D01*
X33339285Y-174464285D01*
X32910714Y-175214285D02*
X32875000Y-175142857D01*
X32839285Y-175107142D01*
X32767857Y-175071428D01*
X32732142Y-175071428D01*
X32660714Y-175107142D01*
X32625000Y-175142857D01*
X32589285Y-175214285D01*
X32589285Y-175357142D01*
X32625000Y-175428571D01*
X32660714Y-175464285D01*
X32732142Y-175500000D01*
X32767857Y-175500000D01*
X32839285Y-175464285D01*
X32875000Y-175428571D01*
X32910714Y-175357142D01*
X32910714Y-175214285D01*
X32946428Y-175142857D01*
X32982142Y-175107142D01*
X33053571Y-175071428D01*
X33196428Y-175071428D01*
X33267857Y-175107142D01*
X33303571Y-175142857D01*
X33339285Y-175214285D01*
X33339285Y-175357142D01*
X33303571Y-175428571D01*
X33267857Y-175464285D01*
X33196428Y-175500000D01*
X33053571Y-175500000D01*
X32982142Y-175464285D01*
X32946428Y-175428571D01*
X32910714Y-175357142D01*
%TD*%
M02*
