%TF.GenerationSoftware,KiCad,Pcbnew,5.1.9-73d0e3b20d~88~ubuntu20.04.1*%
%TF.CreationDate,2021-04-01T10:52:14-04:00*%
%TF.ProjectId,ao_output,616f5f6f-7574-4707-9574-2e6b69636164,rev?*%
%TF.SameCoordinates,Original*%
%TF.FileFunction,Soldermask,Bot*%
%TF.FilePolarity,Negative*%
%FSLAX46Y46*%
G04 Gerber Fmt 4.6, Leading zero omitted, Abs format (unit mm)*
G04 Created by KiCad (PCBNEW 5.1.9-73d0e3b20d~88~ubuntu20.04.1) date 2021-04-01 10:52:14*
%MOMM*%
%LPD*%
G01*
G04 APERTURE LIST*
%ADD10C,1.600000*%
%ADD11O,1.600000X1.600000*%
%ADD12C,3.200000*%
%ADD13O,2.200000X2.200000*%
%ADD14R,2.200000X2.200000*%
%ADD15R,1.600000X1.600000*%
%ADD16C,1.200000*%
%ADD17O,1.727200X1.727200*%
%ADD18R,1.727200X1.727200*%
%ADD19O,2.400000X1.600000*%
%ADD20R,2.400000X1.600000*%
%ADD21O,1.700000X1.700000*%
%ADD22R,1.700000X1.700000*%
%ADD23R,1.500000X1.500000*%
%ADD24C,1.500000*%
%ADD25C,4.500001*%
%ADD26C,4.500000*%
%ADD27R,4.500001X4.500001*%
G04 APERTURE END LIST*
D10*
%TO.C,R11*%
X88900000Y-90450000D03*
D11*
X88900000Y-100610000D03*
%TD*%
D12*
%TO.C,H2*%
X124500000Y-15500000D03*
%TD*%
D10*
%TO.C,R8*%
X107950000Y-54890000D03*
D11*
X118110000Y-54890000D03*
%TD*%
D10*
%TO.C,C1*%
X82470000Y-65050000D03*
X77470000Y-65050000D03*
%TD*%
%TO.C,C11*%
X55880000Y-84020000D03*
X55880000Y-79020000D03*
%TD*%
%TO.C,C10*%
X44450000Y-84020000D03*
X44450000Y-79020000D03*
%TD*%
%TO.C,R3*%
X107950000Y-77750000D03*
D11*
X118110000Y-77750000D03*
%TD*%
D10*
%TO.C,R9*%
X96520000Y-90450000D03*
D11*
X96520000Y-100610000D03*
%TD*%
D10*
%TO.C,R7*%
X107950000Y-82830000D03*
D11*
X118110000Y-82830000D03*
%TD*%
D13*
%TO.C,D2*%
X80010000Y-142240000D03*
D14*
X80010000Y-149860000D03*
%TD*%
D13*
%TO.C,D8*%
X59690000Y-79020000D03*
D14*
X59690000Y-86640000D03*
%TD*%
D13*
%TO.C,D7*%
X52070000Y-86640000D03*
D14*
X52070000Y-79020000D03*
%TD*%
D10*
%TO.C,R25*%
X40640000Y-100610000D03*
D11*
X40640000Y-90450000D03*
%TD*%
D13*
%TO.C,D4*%
X64500000Y-142240000D03*
D14*
X64500000Y-149860000D03*
%TD*%
D13*
%TO.C,D9*%
X54610000Y-15520000D03*
D14*
X62230000Y-15520000D03*
%TD*%
D13*
%TO.C,D10*%
X62230000Y-35840000D03*
D14*
X54610000Y-35840000D03*
%TD*%
D10*
%TO.C,C13*%
X62365241Y-29490000D03*
D15*
X59865241Y-29490000D03*
%TD*%
D10*
%TO.C,C14*%
X85130000Y-68860000D03*
X87630000Y-68860000D03*
%TD*%
%TO.C,R5*%
X87630000Y-54890000D03*
D11*
X77470000Y-54890000D03*
%TD*%
D10*
%TO.C,R16*%
X69850000Y-90450000D03*
D11*
X69850000Y-100610000D03*
%TD*%
D10*
%TO.C,R2*%
X87630000Y-77750000D03*
D11*
X77470000Y-77750000D03*
%TD*%
D10*
%TO.C,R15*%
X73660000Y-90450000D03*
D11*
X73660000Y-100610000D03*
%TD*%
D10*
%TO.C,R12*%
X85090000Y-90450000D03*
D11*
X85090000Y-100610000D03*
%TD*%
D16*
%TO.C,C8*%
X62960000Y-63780000D03*
X60960000Y-63780000D03*
%TD*%
D10*
%TO.C,C17*%
X87590000Y-39650000D03*
X85090000Y-39650000D03*
%TD*%
D17*
%TO.C,J10*%
X45720000Y-20600000D03*
X48260000Y-20600000D03*
X45720000Y-23140000D03*
X48260000Y-23140000D03*
X45720000Y-25680000D03*
X48260000Y-25680000D03*
X45720000Y-28220000D03*
X48260000Y-28220000D03*
X45720000Y-30760000D03*
D18*
X48260000Y-30760000D03*
%TD*%
D13*
%TO.C,D1*%
X69850000Y-149860000D03*
D14*
X69850000Y-142240000D03*
%TD*%
D10*
%TO.C,C18*%
X68580000Y-24370000D03*
X68580000Y-21870000D03*
%TD*%
%TO.C,C4*%
X113110000Y-65050000D03*
X118110000Y-65050000D03*
%TD*%
%TO.C,R13*%
X81280000Y-90450000D03*
D11*
X81280000Y-100610000D03*
%TD*%
D16*
%TO.C,C9*%
X62960000Y-71400000D03*
X60960000Y-71400000D03*
%TD*%
D19*
%TO.C,U1*%
X101600000Y-61240000D03*
X93980000Y-76480000D03*
X101600000Y-63780000D03*
X93980000Y-73940000D03*
X101600000Y-66320000D03*
X93980000Y-71400000D03*
X101600000Y-68860000D03*
X93980000Y-68860000D03*
X101600000Y-71400000D03*
X93980000Y-66320000D03*
X101600000Y-73940000D03*
X93980000Y-63780000D03*
X101600000Y-76480000D03*
D20*
X93980000Y-61240000D03*
%TD*%
D10*
%TO.C,R29*%
X74930000Y-152400000D03*
D11*
X74930000Y-142240000D03*
%TD*%
D10*
%TO.C,C6*%
X107990000Y-37110000D03*
X110490000Y-37110000D03*
%TD*%
%TO.C,R30*%
X59690000Y-142240000D03*
D11*
X59690000Y-152400000D03*
%TD*%
D13*
%TO.C,D6*%
X48260000Y-79020000D03*
D14*
X48260000Y-86640000D03*
%TD*%
D10*
%TO.C,C16*%
X110450000Y-32030000D03*
X107950000Y-32030000D03*
%TD*%
D16*
%TO.C,C7*%
X43720000Y-63780000D03*
X45720000Y-63780000D03*
%TD*%
D13*
%TO.C,D5*%
X40640000Y-86640000D03*
D14*
X40640000Y-79020000D03*
%TD*%
D19*
%TO.C,U2*%
X101600000Y-32030000D03*
X93980000Y-39650000D03*
X101600000Y-34570000D03*
X93980000Y-37110000D03*
X101600000Y-37110000D03*
X93980000Y-34570000D03*
X101600000Y-39650000D03*
D20*
X93980000Y-32030000D03*
%TD*%
D10*
%TO.C,C2*%
X82470000Y-72670000D03*
X77470000Y-72670000D03*
%TD*%
%TO.C,R21*%
X45720000Y-58700000D03*
D11*
X35560000Y-58700000D03*
%TD*%
D10*
%TO.C,C15*%
X107990000Y-68860000D03*
X110490000Y-68860000D03*
%TD*%
D21*
%TO.C,J1*%
X105340000Y-90040000D03*
X105340000Y-87500000D03*
X107880000Y-90040000D03*
X107880000Y-87500000D03*
X110420000Y-90040000D03*
X110420000Y-87500000D03*
X112960000Y-90040000D03*
X112960000Y-87500000D03*
X115500000Y-90040000D03*
D22*
X115500000Y-87500000D03*
%TD*%
D10*
%TO.C,R17*%
X77470000Y-34570000D03*
D11*
X87630000Y-34570000D03*
%TD*%
D10*
%TO.C,R23*%
X45720000Y-54890000D03*
D11*
X35560000Y-54890000D03*
%TD*%
D10*
%TO.C,R6*%
X87630000Y-82830000D03*
D11*
X77470000Y-82830000D03*
%TD*%
D10*
%TO.C,C20*%
X52110000Y-49810000D03*
X54610000Y-49810000D03*
%TD*%
D11*
%TO.C,R28*%
X59690000Y-90450000D03*
D10*
X59690000Y-103150000D03*
%TD*%
%TO.C,C3*%
X113110000Y-72670000D03*
X118110000Y-72670000D03*
%TD*%
%TO.C,R10*%
X92710000Y-90450000D03*
D11*
X92710000Y-100610000D03*
%TD*%
D10*
%TO.C,R20*%
X55880000Y-73940000D03*
D11*
X55880000Y-63780000D03*
%TD*%
D10*
%TO.C,C5*%
X87590000Y-29490000D03*
X85090000Y-29490000D03*
%TD*%
%TO.C,R26*%
X55880000Y-100610000D03*
D11*
X55880000Y-90450000D03*
%TD*%
D10*
%TO.C,R18*%
X118110000Y-42190000D03*
D11*
X107950000Y-42190000D03*
%TD*%
D10*
%TO.C,R19*%
X50800000Y-73940000D03*
D11*
X50800000Y-63780000D03*
%TD*%
D10*
%TO.C,C19*%
X80010000Y-24450000D03*
X80010000Y-26950000D03*
%TD*%
D23*
%TO.C,U4*%
X74930000Y-26950000D03*
D24*
X74930000Y-21870000D03*
X74930000Y-24410000D03*
%TD*%
D13*
%TO.C,D3*%
X54610000Y-149860000D03*
D14*
X54610000Y-142240000D03*
%TD*%
D12*
%TO.C,H1*%
X35500000Y-15500000D03*
%TD*%
D10*
%TO.C,R24*%
X60960000Y-54890000D03*
D11*
X71120000Y-54890000D03*
%TD*%
D10*
%TO.C,R14*%
X77470000Y-90450000D03*
D11*
X77470000Y-100610000D03*
%TD*%
D10*
%TO.C,R4*%
X107950000Y-59970000D03*
D11*
X118110000Y-59970000D03*
%TD*%
D10*
%TO.C,R22*%
X60960000Y-58700000D03*
D11*
X71120000Y-58700000D03*
%TD*%
%TO.C,R27*%
X44450000Y-90450000D03*
D10*
X44450000Y-103150000D03*
%TD*%
%TO.C,R1*%
X87630000Y-59970000D03*
D11*
X77470000Y-59970000D03*
%TD*%
D25*
%TO.C,J5*%
X90000000Y-156400000D03*
D26*
X98900000Y-147500000D03*
D25*
X86100000Y-150500000D03*
D27*
X97240000Y-154740000D03*
D26*
X93000000Y-143600000D03*
%TD*%
D12*
%TO.C,H4*%
X124500000Y-134500000D03*
%TD*%
D25*
%TO.C,J4*%
X115000000Y-181400000D03*
D26*
X123900000Y-172500000D03*
D25*
X111100000Y-175500000D03*
D27*
X122240000Y-179740000D03*
D26*
X118000000Y-168600000D03*
%TD*%
D25*
%TO.C,J7*%
X65000000Y-181400000D03*
D26*
X73900000Y-172500000D03*
D25*
X61100000Y-175500000D03*
D27*
X72240000Y-179740000D03*
D26*
X68000000Y-168600000D03*
%TD*%
D21*
%TO.C,J2*%
X59860000Y-129500000D03*
X62400000Y-129500000D03*
X64940000Y-129500000D03*
X67480000Y-129500000D03*
X70020000Y-129500000D03*
X72560000Y-129500000D03*
X75100000Y-129500000D03*
X77640000Y-129500000D03*
X80180000Y-129500000D03*
X82720000Y-129500000D03*
X85260000Y-129500000D03*
X87800000Y-129500000D03*
X90340000Y-129500000D03*
X92880000Y-129500000D03*
X95420000Y-129500000D03*
X97960000Y-129500000D03*
D22*
X100500000Y-129500000D03*
%TD*%
D10*
%TO.C,C12*%
X59730000Y-21870000D03*
D15*
X62230000Y-21870000D03*
%TD*%
D25*
%TO.C,J3*%
X115000000Y-156400000D03*
D26*
X123900000Y-147500000D03*
D25*
X111100000Y-150500000D03*
D27*
X122240000Y-154740000D03*
D26*
X118000000Y-143600000D03*
%TD*%
D25*
%TO.C,J9*%
X40000000Y-156400000D03*
D26*
X48900000Y-147500000D03*
D25*
X36100000Y-150500000D03*
D27*
X47240000Y-154740000D03*
D26*
X43000000Y-143600000D03*
%TD*%
D25*
%TO.C,J6*%
X90000000Y-181400000D03*
D26*
X98900000Y-172500000D03*
D25*
X86100000Y-175500000D03*
D27*
X97240000Y-179740000D03*
D26*
X93000000Y-168600000D03*
%TD*%
D12*
%TO.C,H3*%
X35520000Y-134500000D03*
%TD*%
D25*
%TO.C,J8*%
X40000000Y-181400000D03*
D26*
X48900000Y-172500000D03*
D25*
X36100000Y-175500000D03*
D27*
X47240000Y-179740000D03*
D26*
X43000000Y-168600000D03*
%TD*%
M02*
